<?xml version="1.0" standalone="no"?>
<mlt LC_NUMERIC="C" version="7.30.0" title="Shotcut version 25.01.25" producer="main_bin">
  <profile description="automatic" width="1920" height="1080" progressive="1" sample_aspect_num="1" sample_aspect_den="1" display_aspect_num="16" display_aspect_den="9" frame_rate_num="60" frame_rate_den="1" colorspace="709"/>
  <playlist id="main_bin">
    <property name="xml_retain">1</property>
  </playlist>
  <producer id="black" in="00:00:00.000" out="00:40:11.050">
    <property name="length">00:40:11.067</property>
    <property name="eof">pause</property>
    <property name="resource">0</property>
    <property name="aspect_ratio">1</property>
    <property name="mlt_service">color</property>
    <property name="mlt_image_format">rgba</property>
    <property name="set.test_audio">0</property>
  </producer>
  <playlist id="background">
    <entry producer="black" in="00:00:00.000" out="00:40:11.050"/>
  </playlist>
  <chain id="chain0" out="00:13:37.050">
    <property name="length">00:13:37.067</property>
    <property name="eof">pause</property>
    <property name="resource">/home/alt/Vídeos/2025-01-22 15-25-41.mkv</property>
    <property name="mlt_service">avformat-novalidate</property>
    <property name="meta.media.nb_streams">2</property>
    <property name="meta.media.0.stream.type">video</property>
    <property name="meta.media.0.stream.frame_rate">60</property>
    <property name="meta.media.0.stream.sample_aspect_ratio">0</property>
    <property name="meta.media.0.codec.width">1920</property>
    <property name="meta.media.0.codec.height">1080</property>
    <property name="meta.media.0.codec.rotate">0</property>
    <property name="meta.media.0.codec.pix_fmt">yuv420p</property>
    <property name="meta.media.0.codec.sample_aspect_ratio">1</property>
    <property name="meta.media.0.codec.colorspace">709</property>
    <property name="meta.media.0.codec.color_trc">1</property>
    <property name="meta.media.0.codec.name">h264</property>
    <property name="meta.media.0.codec.long_name">H.264 / AVC / MPEG-4 AVC / MPEG-4 part 10</property>
    <property name="meta.media.0.codec.bit_rate">0</property>
    <property name="meta.attr.0.stream.DURATION.markup">00:13:37.067000000</property>
    <property name="meta.media.1.stream.type">audio</property>
    <property name="meta.media.1.codec.sample_fmt">fltp</property>
    <property name="meta.media.1.codec.sample_rate">48000</property>
    <property name="meta.media.1.codec.channels">2</property>
    <property name="meta.media.1.codec.layout">stereo</property>
    <property name="meta.media.1.codec.name">aac</property>
    <property name="meta.media.1.codec.long_name">AAC (Advanced Audio Coding)</property>
    <property name="meta.media.1.codec.bit_rate">0</property>
    <property name="meta.attr.1.stream.title.markup">simple_aac_recording0</property>
    <property name="meta.attr.1.stream.DURATION.markup">00:13:37.024000000</property>
    <property name="meta.attr.ENCODER.markup">Lavf58.76.100</property>
    <property name="seekable">1</property>
    <property name="meta.media.sample_aspect_num">1</property>
    <property name="meta.media.sample_aspect_den">1</property>
    <property name="audio_index">1</property>
    <property name="video_index">0</property>
    <property name="creation_time">2025-01-22T18:39:18</property>
    <property name="vstream">0</property>
    <property name="meta.media.frame_rate_num">60</property>
    <property name="meta.media.frame_rate_den">1</property>
    <property name="meta.media.colorspace">709</property>
    <property name="meta.media.color_trc">1</property>
    <property name="meta.media.has_b_frames">2</property>
    <property name="meta.media.width">1920</property>
    <property name="meta.media.height">1080</property>
    <property name="meta.media.aspect_ratio">1</property>
    <property name="meta.media.color_range">mpeg</property>
    <property name="astream">0</property>
    <property name="shotcut:skipConvert">0</property>
    <property name="meta.media.top_field_first">0</property>
    <property name="meta.media.progressive">1</property>
    <property name="shotcut:hash">0dda151104fc82f4b6e1c7b39f4ba3a1</property>
    <property name="ignore_points">0</property>
    <property name="shotcut:caption">2025-01-22 15-25-41.mkv</property>
    <property name="xml">was here</property>
  </chain>
  <chain id="chain1" out="00:13:37.050">
    <property name="length">00:13:37.067</property>
    <property name="eof">pause</property>
    <property name="resource">/home/alt/Vídeos/2025-01-22 15-25-41.mkv</property>
    <property name="mlt_service">avformat-novalidate</property>
    <property name="meta.media.nb_streams">2</property>
    <property name="meta.media.0.stream.type">video</property>
    <property name="meta.media.0.stream.frame_rate">60</property>
    <property name="meta.media.0.stream.sample_aspect_ratio">0</property>
    <property name="meta.media.0.codec.width">1920</property>
    <property name="meta.media.0.codec.height">1080</property>
    <property name="meta.media.0.codec.rotate">0</property>
    <property name="meta.media.0.codec.pix_fmt">yuv420p</property>
    <property name="meta.media.0.codec.sample_aspect_ratio">1</property>
    <property name="meta.media.0.codec.colorspace">709</property>
    <property name="meta.media.0.codec.color_trc">1</property>
    <property name="meta.media.0.codec.name">h264</property>
    <property name="meta.media.0.codec.long_name">H.264 / AVC / MPEG-4 AVC / MPEG-4 part 10</property>
    <property name="meta.media.0.codec.bit_rate">0</property>
    <property name="meta.attr.0.stream.DURATION.markup">00:13:37.067000000</property>
    <property name="meta.media.1.stream.type">audio</property>
    <property name="meta.media.1.codec.sample_fmt">fltp</property>
    <property name="meta.media.1.codec.sample_rate">48000</property>
    <property name="meta.media.1.codec.channels">2</property>
    <property name="meta.media.1.codec.layout">stereo</property>
    <property name="meta.media.1.codec.name">aac</property>
    <property name="meta.media.1.codec.long_name">AAC (Advanced Audio Coding)</property>
    <property name="meta.media.1.codec.bit_rate">0</property>
    <property name="meta.attr.1.stream.title.markup">simple_aac_recording0</property>
    <property name="meta.attr.1.stream.DURATION.markup">00:13:37.024000000</property>
    <property name="meta.attr.ENCODER.markup">Lavf58.76.100</property>
    <property name="seekable">1</property>
    <property name="meta.media.sample_aspect_num">1</property>
    <property name="meta.media.sample_aspect_den">1</property>
    <property name="audio_index">1</property>
    <property name="video_index">0</property>
    <property name="creation_time">2025-01-22T18:39:18</property>
    <property name="vstream">0</property>
    <property name="meta.media.frame_rate_num">60</property>
    <property name="meta.media.frame_rate_den">1</property>
    <property name="meta.media.colorspace">709</property>
    <property name="meta.media.color_trc">1</property>
    <property name="meta.media.has_b_frames">2</property>
    <property name="meta.media.width">1920</property>
    <property name="meta.media.height">1080</property>
    <property name="meta.media.aspect_ratio">1</property>
    <property name="meta.media.color_range">mpeg</property>
    <property name="astream">0</property>
    <property name="shotcut:skipConvert">0</property>
    <property name="meta.media.top_field_first">0</property>
    <property name="meta.media.progressive">1</property>
    <property name="shotcut:hash">0dda151104fc82f4b6e1c7b39f4ba3a1</property>
    <property name="ignore_points">0</property>
    <property name="shotcut:caption">2025-01-22 15-25-41.mkv</property>
    <property name="xml">was here</property>
  </chain>
  <chain id="chain2" out="00:13:37.050">
    <property name="length">00:13:37.067</property>
    <property name="eof">pause</property>
    <property name="resource">/home/alt/Vídeos/2025-01-22 15-25-41.mkv</property>
    <property name="mlt_service">avformat-novalidate</property>
    <property name="meta.media.nb_streams">2</property>
    <property name="meta.media.0.stream.type">video</property>
    <property name="meta.media.0.stream.frame_rate">60</property>
    <property name="meta.media.0.stream.sample_aspect_ratio">0</property>
    <property name="meta.media.0.codec.width">1920</property>
    <property name="meta.media.0.codec.height">1080</property>
    <property name="meta.media.0.codec.rotate">0</property>
    <property name="meta.media.0.codec.pix_fmt">yuv420p</property>
    <property name="meta.media.0.codec.sample_aspect_ratio">1</property>
    <property name="meta.media.0.codec.colorspace">709</property>
    <property name="meta.media.0.codec.color_trc">1</property>
    <property name="meta.media.0.codec.name">h264</property>
    <property name="meta.media.0.codec.long_name">H.264 / AVC / MPEG-4 AVC / MPEG-4 part 10</property>
    <property name="meta.media.0.codec.bit_rate">0</property>
    <property name="meta.attr.0.stream.DURATION.markup">00:13:37.067000000</property>
    <property name="meta.media.1.stream.type">audio</property>
    <property name="meta.media.1.codec.sample_fmt">fltp</property>
    <property name="meta.media.1.codec.sample_rate">48000</property>
    <property name="meta.media.1.codec.channels">2</property>
    <property name="meta.media.1.codec.layout">stereo</property>
    <property name="meta.media.1.codec.name">aac</property>
    <property name="meta.media.1.codec.long_name">AAC (Advanced Audio Coding)</property>
    <property name="meta.media.1.codec.bit_rate">0</property>
    <property name="meta.attr.1.stream.title.markup">simple_aac_recording0</property>
    <property name="meta.attr.1.stream.DURATION.markup">00:13:37.024000000</property>
    <property name="meta.attr.ENCODER.markup">Lavf58.76.100</property>
    <property name="seekable">1</property>
    <property name="meta.media.sample_aspect_num">1</property>
    <property name="meta.media.sample_aspect_den">1</property>
    <property name="audio_index">1</property>
    <property name="video_index">0</property>
    <property name="creation_time">2025-01-22T18:39:18</property>
    <property name="vstream">0</property>
    <property name="meta.media.frame_rate_num">60</property>
    <property name="meta.media.frame_rate_den">1</property>
    <property name="meta.media.colorspace">709</property>
    <property name="meta.media.color_trc">1</property>
    <property name="meta.media.has_b_frames">2</property>
    <property name="meta.media.width">1920</property>
    <property name="meta.media.height">1080</property>
    <property name="meta.media.aspect_ratio">1</property>
    <property name="meta.media.color_range">mpeg</property>
    <property name="astream">0</property>
    <property name="shotcut:skipConvert">0</property>
    <property name="meta.media.top_field_first">0</property>
    <property name="meta.media.progressive">1</property>
    <property name="shotcut:hash">0dda151104fc82f4b6e1c7b39f4ba3a1</property>
    <property name="ignore_points">0</property>
    <property name="shotcut:caption">2025-01-22 15-25-41.mkv</property>
    <property name="xml">was here</property>
  </chain>
  <chain id="chain3" out="00:13:37.050">
    <property name="length">00:13:37.067</property>
    <property name="eof">pause</property>
    <property name="resource">/home/alt/Vídeos/2025-01-22 15-25-41.mkv</property>
    <property name="mlt_service">avformat-novalidate</property>
    <property name="meta.media.nb_streams">2</property>
    <property name="meta.media.0.stream.type">video</property>
    <property name="meta.media.0.stream.frame_rate">60</property>
    <property name="meta.media.0.stream.sample_aspect_ratio">0</property>
    <property name="meta.media.0.codec.width">1920</property>
    <property name="meta.media.0.codec.height">1080</property>
    <property name="meta.media.0.codec.rotate">0</property>
    <property name="meta.media.0.codec.pix_fmt">yuv420p</property>
    <property name="meta.media.0.codec.sample_aspect_ratio">1</property>
    <property name="meta.media.0.codec.colorspace">709</property>
    <property name="meta.media.0.codec.color_trc">1</property>
    <property name="meta.media.0.codec.name">h264</property>
    <property name="meta.media.0.codec.long_name">H.264 / AVC / MPEG-4 AVC / MPEG-4 part 10</property>
    <property name="meta.media.0.codec.bit_rate">0</property>
    <property name="meta.attr.0.stream.DURATION.markup">00:13:37.067000000</property>
    <property name="meta.media.1.stream.type">audio</property>
    <property name="meta.media.1.codec.sample_fmt">fltp</property>
    <property name="meta.media.1.codec.sample_rate">48000</property>
    <property name="meta.media.1.codec.channels">2</property>
    <property name="meta.media.1.codec.layout">stereo</property>
    <property name="meta.media.1.codec.name">aac</property>
    <property name="meta.media.1.codec.long_name">AAC (Advanced Audio Coding)</property>
    <property name="meta.media.1.codec.bit_rate">0</property>
    <property name="meta.attr.1.stream.title.markup">simple_aac_recording0</property>
    <property name="meta.attr.1.stream.DURATION.markup">00:13:37.024000000</property>
    <property name="meta.attr.ENCODER.markup">Lavf58.76.100</property>
    <property name="seekable">1</property>
    <property name="meta.media.sample_aspect_num">1</property>
    <property name="meta.media.sample_aspect_den">1</property>
    <property name="audio_index">1</property>
    <property name="video_index">0</property>
    <property name="creation_time">2025-01-22T18:39:18</property>
    <property name="vstream">0</property>
    <property name="meta.media.frame_rate_num">60</property>
    <property name="meta.media.frame_rate_den">1</property>
    <property name="meta.media.colorspace">709</property>
    <property name="meta.media.color_trc">1</property>
    <property name="meta.media.has_b_frames">2</property>
    <property name="meta.media.width">1920</property>
    <property name="meta.media.height">1080</property>
    <property name="meta.media.aspect_ratio">1</property>
    <property name="meta.media.color_range">mpeg</property>
    <property name="astream">0</property>
    <property name="shotcut:skipConvert">0</property>
    <property name="meta.media.top_field_first">0</property>
    <property name="meta.media.progressive">1</property>
    <property name="shotcut:hash">0dda151104fc82f4b6e1c7b39f4ba3a1</property>
    <property name="ignore_points">0</property>
    <property name="shotcut:caption">2025-01-22 15-25-41.mkv</property>
    <property name="xml">was here</property>
  </chain>
  <chain id="chain4" out="00:13:37.050">
    <property name="length">00:13:37.067</property>
    <property name="eof">pause</property>
    <property name="resource">/home/alt/Vídeos/2025-01-22 15-25-41.mkv</property>
    <property name="mlt_service">avformat-novalidate</property>
    <property name="meta.media.nb_streams">2</property>
    <property name="meta.media.0.stream.type">video</property>
    <property name="meta.media.0.stream.frame_rate">60</property>
    <property name="meta.media.0.stream.sample_aspect_ratio">0</property>
    <property name="meta.media.0.codec.width">1920</property>
    <property name="meta.media.0.codec.height">1080</property>
    <property name="meta.media.0.codec.rotate">0</property>
    <property name="meta.media.0.codec.pix_fmt">yuv420p</property>
    <property name="meta.media.0.codec.sample_aspect_ratio">1</property>
    <property name="meta.media.0.codec.colorspace">709</property>
    <property name="meta.media.0.codec.color_trc">1</property>
    <property name="meta.media.0.codec.name">h264</property>
    <property name="meta.media.0.codec.long_name">H.264 / AVC / MPEG-4 AVC / MPEG-4 part 10</property>
    <property name="meta.media.0.codec.bit_rate">0</property>
    <property name="meta.attr.0.stream.DURATION.markup">00:13:37.067000000</property>
    <property name="meta.media.1.stream.type">audio</property>
    <property name="meta.media.1.codec.sample_fmt">fltp</property>
    <property name="meta.media.1.codec.sample_rate">48000</property>
    <property name="meta.media.1.codec.channels">2</property>
    <property name="meta.media.1.codec.layout">stereo</property>
    <property name="meta.media.1.codec.name">aac</property>
    <property name="meta.media.1.codec.long_name">AAC (Advanced Audio Coding)</property>
    <property name="meta.media.1.codec.bit_rate">0</property>
    <property name="meta.attr.1.stream.title.markup">simple_aac_recording0</property>
    <property name="meta.attr.1.stream.DURATION.markup">00:13:37.024000000</property>
    <property name="meta.attr.ENCODER.markup">Lavf58.76.100</property>
    <property name="seekable">1</property>
    <property name="meta.media.sample_aspect_num">1</property>
    <property name="meta.media.sample_aspect_den">1</property>
    <property name="audio_index">1</property>
    <property name="video_index">0</property>
    <property name="creation_time">2025-01-22T18:39:18</property>
    <property name="vstream">0</property>
    <property name="meta.media.frame_rate_num">60</property>
    <property name="meta.media.frame_rate_den">1</property>
    <property name="meta.media.colorspace">709</property>
    <property name="meta.media.color_trc">1</property>
    <property name="meta.media.has_b_frames">2</property>
    <property name="meta.media.width">1920</property>
    <property name="meta.media.height">1080</property>
    <property name="meta.media.aspect_ratio">1</property>
    <property name="meta.media.color_range">mpeg</property>
    <property name="astream">0</property>
    <property name="shotcut:skipConvert">0</property>
    <property name="meta.media.top_field_first">0</property>
    <property name="meta.media.progressive">1</property>
    <property name="shotcut:hash">0dda151104fc82f4b6e1c7b39f4ba3a1</property>
    <property name="ignore_points">0</property>
    <property name="shotcut:caption">2025-01-22 15-25-41.mkv</property>
    <property name="xml">was here</property>
  </chain>
  <chain id="chain5" out="00:13:37.050">
    <property name="length">00:13:37.067</property>
    <property name="eof">pause</property>
    <property name="resource">/home/alt/Vídeos/2025-01-22 15-25-41.mkv</property>
    <property name="mlt_service">avformat-novalidate</property>
    <property name="meta.media.nb_streams">2</property>
    <property name="meta.media.0.stream.type">video</property>
    <property name="meta.media.0.stream.frame_rate">60</property>
    <property name="meta.media.0.stream.sample_aspect_ratio">0</property>
    <property name="meta.media.0.codec.width">1920</property>
    <property name="meta.media.0.codec.height">1080</property>
    <property name="meta.media.0.codec.rotate">0</property>
    <property name="meta.media.0.codec.pix_fmt">yuv420p</property>
    <property name="meta.media.0.codec.sample_aspect_ratio">1</property>
    <property name="meta.media.0.codec.colorspace">709</property>
    <property name="meta.media.0.codec.color_trc">1</property>
    <property name="meta.media.0.codec.name">h264</property>
    <property name="meta.media.0.codec.long_name">H.264 / AVC / MPEG-4 AVC / MPEG-4 part 10</property>
    <property name="meta.media.0.codec.bit_rate">0</property>
    <property name="meta.attr.0.stream.DURATION.markup">00:13:37.067000000</property>
    <property name="meta.media.1.stream.type">audio</property>
    <property name="meta.media.1.codec.sample_fmt">fltp</property>
    <property name="meta.media.1.codec.sample_rate">48000</property>
    <property name="meta.media.1.codec.channels">2</property>
    <property name="meta.media.1.codec.layout">stereo</property>
    <property name="meta.media.1.codec.name">aac</property>
    <property name="meta.media.1.codec.long_name">AAC (Advanced Audio Coding)</property>
    <property name="meta.media.1.codec.bit_rate">0</property>
    <property name="meta.attr.1.stream.title.markup">simple_aac_recording0</property>
    <property name="meta.attr.1.stream.DURATION.markup">00:13:37.024000000</property>
    <property name="meta.attr.ENCODER.markup">Lavf58.76.100</property>
    <property name="seekable">1</property>
    <property name="meta.media.sample_aspect_num">1</property>
    <property name="meta.media.sample_aspect_den">1</property>
    <property name="audio_index">1</property>
    <property name="video_index">0</property>
    <property name="creation_time">2025-01-22T18:39:18</property>
    <property name="vstream">0</property>
    <property name="meta.media.frame_rate_num">60</property>
    <property name="meta.media.frame_rate_den">1</property>
    <property name="meta.media.colorspace">709</property>
    <property name="meta.media.color_trc">1</property>
    <property name="meta.media.has_b_frames">2</property>
    <property name="meta.media.width">1920</property>
    <property name="meta.media.height">1080</property>
    <property name="meta.media.aspect_ratio">1</property>
    <property name="meta.media.color_range">mpeg</property>
    <property name="astream">0</property>
    <property name="shotcut:skipConvert">0</property>
    <property name="meta.media.top_field_first">0</property>
    <property name="meta.media.progressive">1</property>
    <property name="shotcut:hash">0dda151104fc82f4b6e1c7b39f4ba3a1</property>
    <property name="ignore_points">0</property>
    <property name="shotcut:caption">2025-01-22 15-25-41.mkv</property>
    <property name="xml">was here</property>
  </chain>
  <chain id="chain6" out="00:13:37.050">
    <property name="length">00:13:37.067</property>
    <property name="eof">pause</property>
    <property name="resource">/home/alt/Vídeos/2025-01-22 15-25-41.mkv</property>
    <property name="mlt_service">avformat-novalidate</property>
    <property name="meta.media.nb_streams">2</property>
    <property name="meta.media.0.stream.type">video</property>
    <property name="meta.media.0.stream.frame_rate">60</property>
    <property name="meta.media.0.stream.sample_aspect_ratio">0</property>
    <property name="meta.media.0.codec.width">1920</property>
    <property name="meta.media.0.codec.height">1080</property>
    <property name="meta.media.0.codec.rotate">0</property>
    <property name="meta.media.0.codec.pix_fmt">yuv420p</property>
    <property name="meta.media.0.codec.sample_aspect_ratio">1</property>
    <property name="meta.media.0.codec.colorspace">709</property>
    <property name="meta.media.0.codec.color_trc">1</property>
    <property name="meta.media.0.codec.name">h264</property>
    <property name="meta.media.0.codec.long_name">H.264 / AVC / MPEG-4 AVC / MPEG-4 part 10</property>
    <property name="meta.media.0.codec.bit_rate">0</property>
    <property name="meta.attr.0.stream.DURATION.markup">00:13:37.067000000</property>
    <property name="meta.media.1.stream.type">audio</property>
    <property name="meta.media.1.codec.sample_fmt">fltp</property>
    <property name="meta.media.1.codec.sample_rate">48000</property>
    <property name="meta.media.1.codec.channels">2</property>
    <property name="meta.media.1.codec.layout">stereo</property>
    <property name="meta.media.1.codec.name">aac</property>
    <property name="meta.media.1.codec.long_name">AAC (Advanced Audio Coding)</property>
    <property name="meta.media.1.codec.bit_rate">0</property>
    <property name="meta.attr.1.stream.title.markup">simple_aac_recording0</property>
    <property name="meta.attr.1.stream.DURATION.markup">00:13:37.024000000</property>
    <property name="meta.attr.ENCODER.markup">Lavf58.76.100</property>
    <property name="seekable">1</property>
    <property name="meta.media.sample_aspect_num">1</property>
    <property name="meta.media.sample_aspect_den">1</property>
    <property name="audio_index">1</property>
    <property name="video_index">0</property>
    <property name="creation_time">2025-01-22T18:39:18</property>
    <property name="vstream">0</property>
    <property name="meta.media.frame_rate_num">60</property>
    <property name="meta.media.frame_rate_den">1</property>
    <property name="meta.media.colorspace">709</property>
    <property name="meta.media.color_trc">1</property>
    <property name="meta.media.has_b_frames">2</property>
    <property name="meta.media.width">1920</property>
    <property name="meta.media.height">1080</property>
    <property name="meta.media.aspect_ratio">1</property>
    <property name="meta.media.color_range">mpeg</property>
    <property name="astream">0</property>
    <property name="shotcut:skipConvert">0</property>
    <property name="meta.media.top_field_first">0</property>
    <property name="meta.media.progressive">1</property>
    <property name="shotcut:hash">0dda151104fc82f4b6e1c7b39f4ba3a1</property>
    <property name="ignore_points">0</property>
    <property name="shotcut:caption">2025-01-22 15-25-41.mkv</property>
    <property name="xml">was here</property>
  </chain>
  <chain id="chain7" out="00:13:37.050">
    <property name="length">00:13:37.067</property>
    <property name="eof">pause</property>
    <property name="resource">/home/alt/Vídeos/2025-01-22 15-25-41.mkv</property>
    <property name="mlt_service">avformat-novalidate</property>
    <property name="meta.media.nb_streams">2</property>
    <property name="meta.media.0.stream.type">video</property>
    <property name="meta.media.0.stream.frame_rate">60</property>
    <property name="meta.media.0.stream.sample_aspect_ratio">0</property>
    <property name="meta.media.0.codec.width">1920</property>
    <property name="meta.media.0.codec.height">1080</property>
    <property name="meta.media.0.codec.rotate">0</property>
    <property name="meta.media.0.codec.pix_fmt">yuv420p</property>
    <property name="meta.media.0.codec.sample_aspect_ratio">1</property>
    <property name="meta.media.0.codec.colorspace">709</property>
    <property name="meta.media.0.codec.color_trc">1</property>
    <property name="meta.media.0.codec.name">h264</property>
    <property name="meta.media.0.codec.long_name">H.264 / AVC / MPEG-4 AVC / MPEG-4 part 10</property>
    <property name="meta.media.0.codec.bit_rate">0</property>
    <property name="meta.attr.0.stream.DURATION.markup">00:13:37.067000000</property>
    <property name="meta.media.1.stream.type">audio</property>
    <property name="meta.media.1.codec.sample_fmt">fltp</property>
    <property name="meta.media.1.codec.sample_rate">48000</property>
    <property name="meta.media.1.codec.channels">2</property>
    <property name="meta.media.1.codec.layout">stereo</property>
    <property name="meta.media.1.codec.name">aac</property>
    <property name="meta.media.1.codec.long_name">AAC (Advanced Audio Coding)</property>
    <property name="meta.media.1.codec.bit_rate">0</property>
    <property name="meta.attr.1.stream.title.markup">simple_aac_recording0</property>
    <property name="meta.attr.1.stream.DURATION.markup">00:13:37.024000000</property>
    <property name="meta.attr.ENCODER.markup">Lavf58.76.100</property>
    <property name="seekable">1</property>
    <property name="meta.media.sample_aspect_num">1</property>
    <property name="meta.media.sample_aspect_den">1</property>
    <property name="audio_index">1</property>
    <property name="video_index">0</property>
    <property name="creation_time">2025-01-22T18:39:18</property>
    <property name="vstream">0</property>
    <property name="meta.media.frame_rate_num">60</property>
    <property name="meta.media.frame_rate_den">1</property>
    <property name="meta.media.colorspace">709</property>
    <property name="meta.media.color_trc">1</property>
    <property name="meta.media.has_b_frames">2</property>
    <property name="meta.media.width">1920</property>
    <property name="meta.media.height">1080</property>
    <property name="meta.media.aspect_ratio">1</property>
    <property name="meta.media.color_range">mpeg</property>
    <property name="astream">0</property>
    <property name="shotcut:skipConvert">0</property>
    <property name="meta.media.top_field_first">0</property>
    <property name="meta.media.progressive">1</property>
    <property name="shotcut:hash">0dda151104fc82f4b6e1c7b39f4ba3a1</property>
    <property name="ignore_points">0</property>
    <property name="shotcut:caption">2025-01-22 15-25-41.mkv</property>
    <property name="xml">was here</property>
  </chain>
  <chain id="chain8" out="00:13:37.050">
    <property name="length">00:13:37.067</property>
    <property name="eof">pause</property>
    <property name="resource">/home/alt/Vídeos/2025-01-22 15-25-41.mkv</property>
    <property name="mlt_service">avformat-novalidate</property>
    <property name="meta.media.nb_streams">2</property>
    <property name="meta.media.0.stream.type">video</property>
    <property name="meta.media.0.stream.frame_rate">60</property>
    <property name="meta.media.0.stream.sample_aspect_ratio">0</property>
    <property name="meta.media.0.codec.width">1920</property>
    <property name="meta.media.0.codec.height">1080</property>
    <property name="meta.media.0.codec.rotate">0</property>
    <property name="meta.media.0.codec.pix_fmt">yuv420p</property>
    <property name="meta.media.0.codec.sample_aspect_ratio">1</property>
    <property name="meta.media.0.codec.colorspace">709</property>
    <property name="meta.media.0.codec.color_trc">1</property>
    <property name="meta.media.0.codec.name">h264</property>
    <property name="meta.media.0.codec.long_name">H.264 / AVC / MPEG-4 AVC / MPEG-4 part 10</property>
    <property name="meta.media.0.codec.bit_rate">0</property>
    <property name="meta.attr.0.stream.DURATION.markup">00:13:37.067000000</property>
    <property name="meta.media.1.stream.type">audio</property>
    <property name="meta.media.1.codec.sample_fmt">fltp</property>
    <property name="meta.media.1.codec.sample_rate">48000</property>
    <property name="meta.media.1.codec.channels">2</property>
    <property name="meta.media.1.codec.layout">stereo</property>
    <property name="meta.media.1.codec.name">aac</property>
    <property name="meta.media.1.codec.long_name">AAC (Advanced Audio Coding)</property>
    <property name="meta.media.1.codec.bit_rate">0</property>
    <property name="meta.attr.1.stream.title.markup">simple_aac_recording0</property>
    <property name="meta.attr.1.stream.DURATION.markup">00:13:37.024000000</property>
    <property name="meta.attr.ENCODER.markup">Lavf58.76.100</property>
    <property name="seekable">1</property>
    <property name="meta.media.sample_aspect_num">1</property>
    <property name="meta.media.sample_aspect_den">1</property>
    <property name="audio_index">1</property>
    <property name="video_index">0</property>
    <property name="creation_time">2025-01-22T18:39:18</property>
    <property name="vstream">0</property>
    <property name="meta.media.frame_rate_num">60</property>
    <property name="meta.media.frame_rate_den">1</property>
    <property name="meta.media.colorspace">709</property>
    <property name="meta.media.color_trc">1</property>
    <property name="meta.media.has_b_frames">2</property>
    <property name="meta.media.width">1920</property>
    <property name="meta.media.height">1080</property>
    <property name="meta.media.aspect_ratio">1</property>
    <property name="meta.media.color_range">mpeg</property>
    <property name="astream">0</property>
    <property name="shotcut:skipConvert">0</property>
    <property name="meta.media.top_field_first">0</property>
    <property name="meta.media.progressive">1</property>
    <property name="shotcut:hash">0dda151104fc82f4b6e1c7b39f4ba3a1</property>
    <property name="ignore_points">0</property>
    <property name="shotcut:caption">2025-01-22 15-25-41.mkv</property>
    <property name="xml">was here</property>
  </chain>
  <chain id="chain9" out="00:13:37.050">
    <property name="length">00:13:37.067</property>
    <property name="eof">pause</property>
    <property name="resource">/home/alt/Vídeos/2025-01-22 15-25-41.mkv</property>
    <property name="mlt_service">avformat-novalidate</property>
    <property name="meta.media.nb_streams">2</property>
    <property name="meta.media.0.stream.type">video</property>
    <property name="meta.media.0.stream.frame_rate">60</property>
    <property name="meta.media.0.stream.sample_aspect_ratio">0</property>
    <property name="meta.media.0.codec.width">1920</property>
    <property name="meta.media.0.codec.height">1080</property>
    <property name="meta.media.0.codec.rotate">0</property>
    <property name="meta.media.0.codec.pix_fmt">yuv420p</property>
    <property name="meta.media.0.codec.sample_aspect_ratio">1</property>
    <property name="meta.media.0.codec.colorspace">709</property>
    <property name="meta.media.0.codec.color_trc">1</property>
    <property name="meta.media.0.codec.name">h264</property>
    <property name="meta.media.0.codec.long_name">H.264 / AVC / MPEG-4 AVC / MPEG-4 part 10</property>
    <property name="meta.media.0.codec.bit_rate">0</property>
    <property name="meta.attr.0.stream.DURATION.markup">00:13:37.067000000</property>
    <property name="meta.media.1.stream.type">audio</property>
    <property name="meta.media.1.codec.sample_fmt">fltp</property>
    <property name="meta.media.1.codec.sample_rate">48000</property>
    <property name="meta.media.1.codec.channels">2</property>
    <property name="meta.media.1.codec.layout">stereo</property>
    <property name="meta.media.1.codec.name">aac</property>
    <property name="meta.media.1.codec.long_name">AAC (Advanced Audio Coding)</property>
    <property name="meta.media.1.codec.bit_rate">0</property>
    <property name="meta.attr.1.stream.title.markup">simple_aac_recording0</property>
    <property name="meta.attr.1.stream.DURATION.markup">00:13:37.024000000</property>
    <property name="meta.attr.ENCODER.markup">Lavf58.76.100</property>
    <property name="seekable">1</property>
    <property name="meta.media.sample_aspect_num">1</property>
    <property name="meta.media.sample_aspect_den">1</property>
    <property name="audio_index">1</property>
    <property name="video_index">0</property>
    <property name="creation_time">2025-01-22T18:39:18</property>
    <property name="vstream">0</property>
    <property name="meta.media.frame_rate_num">60</property>
    <property name="meta.media.frame_rate_den">1</property>
    <property name="meta.media.colorspace">709</property>
    <property name="meta.media.color_trc">1</property>
    <property name="meta.media.has_b_frames">2</property>
    <property name="meta.media.width">1920</property>
    <property name="meta.media.height">1080</property>
    <property name="meta.media.aspect_ratio">1</property>
    <property name="meta.media.color_range">mpeg</property>
    <property name="astream">0</property>
    <property name="shotcut:skipConvert">0</property>
    <property name="meta.media.top_field_first">0</property>
    <property name="meta.media.progressive">1</property>
    <property name="shotcut:hash">0dda151104fc82f4b6e1c7b39f4ba3a1</property>
    <property name="ignore_points">0</property>
    <property name="shotcut:caption">2025-01-22 15-25-41.mkv</property>
    <property name="xml">was here</property>
  </chain>
  <chain id="chain10" out="00:00:02.983">
    <property name="length">00:00:03.000</property>
    <property name="eof">pause</property>
    <property name="resource">/home/alt/Documentos/Main_Fold/MainFolder/Profissional/mobileDev/caju_code/class_codes/intro.mp4</property>
    <property name="mlt_service">avformat-novalidate</property>
    <property name="meta.media.nb_streams">2</property>
    <property name="meta.media.0.stream.type">video</property>
    <property name="meta.media.0.stream.frame_rate">25</property>
    <property name="meta.media.0.stream.sample_aspect_ratio">1</property>
    <property name="meta.media.0.codec.width">1920</property>
    <property name="meta.media.0.codec.height">1080</property>
    <property name="meta.media.0.codec.rotate">0</property>
    <property name="meta.media.0.codec.pix_fmt">yuv420p</property>
    <property name="meta.media.0.codec.sample_aspect_ratio">1</property>
    <property name="meta.media.0.codec.colorspace">709</property>
    <property name="meta.media.0.codec.color_trc">1</property>
    <property name="meta.media.0.codec.name">h264</property>
    <property name="meta.media.0.codec.long_name">H.264 / AVC / MPEG-4 AVC / MPEG-4 part 10</property>
    <property name="meta.media.0.codec.bit_rate">35341</property>
    <property name="meta.attr.0.stream.handler_name.markup">VideoHandler</property>
    <property name="meta.attr.0.stream.vendor_id.markup">[0][0][0][0]</property>
    <property name="meta.media.1.stream.type">audio</property>
    <property name="meta.media.1.codec.sample_fmt">fltp</property>
    <property name="meta.media.1.codec.sample_rate">48000</property>
    <property name="meta.media.1.codec.channels">2</property>
    <property name="meta.media.1.codec.layout">stereo</property>
    <property name="meta.media.1.codec.name">aac</property>
    <property name="meta.media.1.codec.long_name">AAC (Advanced Audio Coding)</property>
    <property name="meta.media.1.codec.bit_rate">45068</property>
    <property name="meta.attr.1.stream.handler_name.markup">SoundHandler</property>
    <property name="meta.attr.1.stream.vendor_id.markup">[0][0][0][0]</property>
    <property name="meta.attr.major_brand.markup">isom</property>
    <property name="meta.attr.minor_version.markup">512</property>
    <property name="meta.attr.compatible_brands.markup">isomiso2avc1mp41</property>
    <property name="meta.attr.encoder.markup">Lavf60.3.100</property>
    <property name="seekable">1</property>
    <property name="meta.media.sample_aspect_num">1</property>
    <property name="meta.media.sample_aspect_den">1</property>
    <property name="audio_index">1</property>
    <property name="video_index">0</property>
    <property name="creation_time">2023-06-01T19:24:13</property>
    <property name="vstream">0</property>
    <property name="meta.media.frame_rate_num">25</property>
    <property name="meta.media.frame_rate_den">1</property>
    <property name="meta.media.colorspace">709</property>
    <property name="meta.media.color_trc">1</property>
    <property name="meta.media.has_b_frames">2</property>
    <property name="meta.media.width">1920</property>
    <property name="meta.media.height">1080</property>
    <property name="meta.media.aspect_ratio">1</property>
    <property name="meta.media.color_range">mpeg</property>
    <property name="astream">0</property>
    <property name="shotcut:skipConvert">0</property>
    <property name="meta.media.top_field_first">0</property>
    <property name="meta.media.progressive">1</property>
    <property name="shotcut:hash">c33f2e7bd3acb209f06ad223d1ebad3f</property>
    <property name="ignore_points">0</property>
    <property name="shotcut:caption">intro.mp4</property>
    <property name="xml">was here</property>
  </chain>
  <chain id="chain11" out="00:13:37.050">
    <property name="length">00:13:37.067</property>
    <property name="eof">pause</property>
    <property name="resource">/home/alt/Vídeos/2025-01-22 15-25-41.mkv</property>
    <property name="mlt_service">avformat-novalidate</property>
    <property name="meta.media.nb_streams">2</property>
    <property name="meta.media.0.stream.type">video</property>
    <property name="meta.media.0.stream.frame_rate">60</property>
    <property name="meta.media.0.stream.sample_aspect_ratio">0</property>
    <property name="meta.media.0.codec.width">1920</property>
    <property name="meta.media.0.codec.height">1080</property>
    <property name="meta.media.0.codec.rotate">0</property>
    <property name="meta.media.0.codec.pix_fmt">yuv420p</property>
    <property name="meta.media.0.codec.sample_aspect_ratio">1</property>
    <property name="meta.media.0.codec.colorspace">709</property>
    <property name="meta.media.0.codec.color_trc">1</property>
    <property name="meta.media.0.codec.name">h264</property>
    <property name="meta.media.0.codec.long_name">H.264 / AVC / MPEG-4 AVC / MPEG-4 part 10</property>
    <property name="meta.media.0.codec.bit_rate">0</property>
    <property name="meta.attr.0.stream.DURATION.markup">00:13:37.067000000</property>
    <property name="meta.media.1.stream.type">audio</property>
    <property name="meta.media.1.codec.sample_fmt">fltp</property>
    <property name="meta.media.1.codec.sample_rate">48000</property>
    <property name="meta.media.1.codec.channels">2</property>
    <property name="meta.media.1.codec.layout">stereo</property>
    <property name="meta.media.1.codec.name">aac</property>
    <property name="meta.media.1.codec.long_name">AAC (Advanced Audio Coding)</property>
    <property name="meta.media.1.codec.bit_rate">0</property>
    <property name="meta.attr.1.stream.title.markup">simple_aac_recording0</property>
    <property name="meta.attr.1.stream.DURATION.markup">00:13:37.024000000</property>
    <property name="meta.attr.ENCODER.markup">Lavf58.76.100</property>
    <property name="seekable">1</property>
    <property name="meta.media.sample_aspect_num">1</property>
    <property name="meta.media.sample_aspect_den">1</property>
    <property name="audio_index">1</property>
    <property name="video_index">0</property>
    <property name="creation_time">2025-01-22T18:39:18</property>
    <property name="vstream">0</property>
    <property name="meta.media.frame_rate_num">60</property>
    <property name="meta.media.frame_rate_den">1</property>
    <property name="meta.media.colorspace">709</property>
    <property name="meta.media.color_trc">1</property>
    <property name="meta.media.has_b_frames">2</property>
    <property name="meta.media.width">1920</property>
    <property name="meta.media.height">1080</property>
    <property name="meta.media.aspect_ratio">1</property>
    <property name="meta.media.color_range">mpeg</property>
    <property name="astream">0</property>
    <property name="shotcut:skipConvert">0</property>
    <property name="meta.media.top_field_first">0</property>
    <property name="meta.media.progressive">1</property>
    <property name="shotcut:hash">0dda151104fc82f4b6e1c7b39f4ba3a1</property>
    <property name="ignore_points">0</property>
    <property name="shotcut:caption">2025-01-22 15-25-41.mkv</property>
    <property name="xml">was here</property>
  </chain>
  <chain id="chain12" out="00:13:37.050">
    <property name="length">00:13:37.067</property>
    <property name="eof">pause</property>
    <property name="resource">/home/alt/Vídeos/2025-01-22 15-25-41.mkv</property>
    <property name="mlt_service">avformat-novalidate</property>
    <property name="meta.media.nb_streams">2</property>
    <property name="meta.media.0.stream.type">video</property>
    <property name="meta.media.0.stream.frame_rate">60</property>
    <property name="meta.media.0.stream.sample_aspect_ratio">0</property>
    <property name="meta.media.0.codec.width">1920</property>
    <property name="meta.media.0.codec.height">1080</property>
    <property name="meta.media.0.codec.rotate">0</property>
    <property name="meta.media.0.codec.pix_fmt">yuv420p</property>
    <property name="meta.media.0.codec.sample_aspect_ratio">1</property>
    <property name="meta.media.0.codec.colorspace">709</property>
    <property name="meta.media.0.codec.color_trc">1</property>
    <property name="meta.media.0.codec.name">h264</property>
    <property name="meta.media.0.codec.long_name">H.264 / AVC / MPEG-4 AVC / MPEG-4 part 10</property>
    <property name="meta.media.0.codec.bit_rate">0</property>
    <property name="meta.attr.0.stream.DURATION.markup">00:13:37.067000000</property>
    <property name="meta.media.1.stream.type">audio</property>
    <property name="meta.media.1.codec.sample_fmt">fltp</property>
    <property name="meta.media.1.codec.sample_rate">48000</property>
    <property name="meta.media.1.codec.channels">2</property>
    <property name="meta.media.1.codec.layout">stereo</property>
    <property name="meta.media.1.codec.name">aac</property>
    <property name="meta.media.1.codec.long_name">AAC (Advanced Audio Coding)</property>
    <property name="meta.media.1.codec.bit_rate">0</property>
    <property name="meta.attr.1.stream.title.markup">simple_aac_recording0</property>
    <property name="meta.attr.1.stream.DURATION.markup">00:13:37.024000000</property>
    <property name="meta.attr.ENCODER.markup">Lavf58.76.100</property>
    <property name="seekable">1</property>
    <property name="meta.media.sample_aspect_num">1</property>
    <property name="meta.media.sample_aspect_den">1</property>
    <property name="audio_index">1</property>
    <property name="video_index">0</property>
    <property name="creation_time">2025-01-22T18:39:18</property>
    <property name="vstream">0</property>
    <property name="meta.media.frame_rate_num">60</property>
    <property name="meta.media.frame_rate_den">1</property>
    <property name="meta.media.colorspace">709</property>
    <property name="meta.media.color_trc">1</property>
    <property name="meta.media.has_b_frames">2</property>
    <property name="meta.media.width">1920</property>
    <property name="meta.media.height">1080</property>
    <property name="meta.media.aspect_ratio">1</property>
    <property name="meta.media.color_range">mpeg</property>
    <property name="astream">0</property>
    <property name="shotcut:skipConvert">0</property>
    <property name="meta.media.top_field_first">0</property>
    <property name="meta.media.progressive">1</property>
    <property name="shotcut:hash">0dda151104fc82f4b6e1c7b39f4ba3a1</property>
    <property name="ignore_points">0</property>
    <property name="shotcut:caption">2025-01-22 15-25-41.mkv</property>
    <property name="xml">was here</property>
  </chain>
  <chain id="chain13" out="00:13:37.050">
    <property name="length">00:13:37.067</property>
    <property name="eof">pause</property>
    <property name="resource">/home/alt/Vídeos/2025-01-22 15-25-41.mkv</property>
    <property name="mlt_service">avformat-novalidate</property>
    <property name="meta.media.nb_streams">2</property>
    <property name="meta.media.0.stream.type">video</property>
    <property name="meta.media.0.stream.frame_rate">60</property>
    <property name="meta.media.0.stream.sample_aspect_ratio">0</property>
    <property name="meta.media.0.codec.width">1920</property>
    <property name="meta.media.0.codec.height">1080</property>
    <property name="meta.media.0.codec.rotate">0</property>
    <property name="meta.media.0.codec.pix_fmt">yuv420p</property>
    <property name="meta.media.0.codec.sample_aspect_ratio">1</property>
    <property name="meta.media.0.codec.colorspace">709</property>
    <property name="meta.media.0.codec.color_trc">1</property>
    <property name="meta.media.0.codec.name">h264</property>
    <property name="meta.media.0.codec.long_name">H.264 / AVC / MPEG-4 AVC / MPEG-4 part 10</property>
    <property name="meta.media.0.codec.bit_rate">0</property>
    <property name="meta.attr.0.stream.DURATION.markup">00:13:37.067000000</property>
    <property name="meta.media.1.stream.type">audio</property>
    <property name="meta.media.1.codec.sample_fmt">fltp</property>
    <property name="meta.media.1.codec.sample_rate">48000</property>
    <property name="meta.media.1.codec.channels">2</property>
    <property name="meta.media.1.codec.layout">stereo</property>
    <property name="meta.media.1.codec.name">aac</property>
    <property name="meta.media.1.codec.long_name">AAC (Advanced Audio Coding)</property>
    <property name="meta.media.1.codec.bit_rate">0</property>
    <property name="meta.attr.1.stream.title.markup">simple_aac_recording0</property>
    <property name="meta.attr.1.stream.DURATION.markup">00:13:37.024000000</property>
    <property name="meta.attr.ENCODER.markup">Lavf58.76.100</property>
    <property name="seekable">1</property>
    <property name="meta.media.sample_aspect_num">1</property>
    <property name="meta.media.sample_aspect_den">1</property>
    <property name="audio_index">1</property>
    <property name="video_index">0</property>
    <property name="creation_time">2025-01-22T18:39:18</property>
    <property name="vstream">0</property>
    <property name="meta.media.frame_rate_num">60</property>
    <property name="meta.media.frame_rate_den">1</property>
    <property name="meta.media.colorspace">709</property>
    <property name="meta.media.color_trc">1</property>
    <property name="meta.media.has_b_frames">2</property>
    <property name="meta.media.width">1920</property>
    <property name="meta.media.height">1080</property>
    <property name="meta.media.aspect_ratio">1</property>
    <property name="meta.media.color_range">mpeg</property>
    <property name="astream">0</property>
    <property name="shotcut:skipConvert">0</property>
    <property name="meta.media.top_field_first">0</property>
    <property name="meta.media.progressive">1</property>
    <property name="shotcut:hash">0dda151104fc82f4b6e1c7b39f4ba3a1</property>
    <property name="ignore_points">0</property>
    <property name="shotcut:caption">2025-01-22 15-25-41.mkv</property>
    <property name="xml">was here</property>
  </chain>
  <chain id="chain14" out="00:13:37.050">
    <property name="length">00:13:37.067</property>
    <property name="eof">pause</property>
    <property name="resource">/home/alt/Vídeos/2025-01-22 15-25-41.mkv</property>
    <property name="mlt_service">avformat-novalidate</property>
    <property name="meta.media.nb_streams">2</property>
    <property name="meta.media.0.stream.type">video</property>
    <property name="meta.media.0.stream.frame_rate">60</property>
    <property name="meta.media.0.stream.sample_aspect_ratio">0</property>
    <property name="meta.media.0.codec.width">1920</property>
    <property name="meta.media.0.codec.height">1080</property>
    <property name="meta.media.0.codec.rotate">0</property>
    <property name="meta.media.0.codec.pix_fmt">yuv420p</property>
    <property name="meta.media.0.codec.sample_aspect_ratio">1</property>
    <property name="meta.media.0.codec.colorspace">709</property>
    <property name="meta.media.0.codec.color_trc">1</property>
    <property name="meta.media.0.codec.name">h264</property>
    <property name="meta.media.0.codec.long_name">H.264 / AVC / MPEG-4 AVC / MPEG-4 part 10</property>
    <property name="meta.media.0.codec.bit_rate">0</property>
    <property name="meta.attr.0.stream.DURATION.markup">00:13:37.067000000</property>
    <property name="meta.media.1.stream.type">audio</property>
    <property name="meta.media.1.codec.sample_fmt">fltp</property>
    <property name="meta.media.1.codec.sample_rate">48000</property>
    <property name="meta.media.1.codec.channels">2</property>
    <property name="meta.media.1.codec.layout">stereo</property>
    <property name="meta.media.1.codec.name">aac</property>
    <property name="meta.media.1.codec.long_name">AAC (Advanced Audio Coding)</property>
    <property name="meta.media.1.codec.bit_rate">0</property>
    <property name="meta.attr.1.stream.title.markup">simple_aac_recording0</property>
    <property name="meta.attr.1.stream.DURATION.markup">00:13:37.024000000</property>
    <property name="meta.attr.ENCODER.markup">Lavf58.76.100</property>
    <property name="seekable">1</property>
    <property name="meta.media.sample_aspect_num">1</property>
    <property name="meta.media.sample_aspect_den">1</property>
    <property name="audio_index">1</property>
    <property name="video_index">0</property>
    <property name="creation_time">2025-01-22T18:39:18</property>
    <property name="vstream">0</property>
    <property name="meta.media.frame_rate_num">60</property>
    <property name="meta.media.frame_rate_den">1</property>
    <property name="meta.media.colorspace">709</property>
    <property name="meta.media.color_trc">1</property>
    <property name="meta.media.has_b_frames">2</property>
    <property name="meta.media.width">1920</property>
    <property name="meta.media.height">1080</property>
    <property name="meta.media.aspect_ratio">1</property>
    <property name="meta.media.color_range">mpeg</property>
    <property name="astream">0</property>
    <property name="shotcut:skipConvert">0</property>
    <property name="meta.media.top_field_first">0</property>
    <property name="meta.media.progressive">1</property>
    <property name="shotcut:hash">0dda151104fc82f4b6e1c7b39f4ba3a1</property>
    <property name="ignore_points">0</property>
    <property name="shotcut:caption">2025-01-22 15-25-41.mkv</property>
    <property name="xml">was here</property>
  </chain>
  <chain id="chain15" out="00:13:37.050">
    <property name="length">00:13:37.067</property>
    <property name="eof">pause</property>
    <property name="resource">/home/alt/Vídeos/2025-01-22 15-25-41.mkv</property>
    <property name="mlt_service">avformat-novalidate</property>
    <property name="meta.media.nb_streams">2</property>
    <property name="meta.media.0.stream.type">video</property>
    <property name="meta.media.0.stream.frame_rate">60</property>
    <property name="meta.media.0.stream.sample_aspect_ratio">0</property>
    <property name="meta.media.0.codec.width">1920</property>
    <property name="meta.media.0.codec.height">1080</property>
    <property name="meta.media.0.codec.rotate">0</property>
    <property name="meta.media.0.codec.pix_fmt">yuv420p</property>
    <property name="meta.media.0.codec.sample_aspect_ratio">1</property>
    <property name="meta.media.0.codec.colorspace">709</property>
    <property name="meta.media.0.codec.color_trc">1</property>
    <property name="meta.media.0.codec.name">h264</property>
    <property name="meta.media.0.codec.long_name">H.264 / AVC / MPEG-4 AVC / MPEG-4 part 10</property>
    <property name="meta.media.0.codec.bit_rate">0</property>
    <property name="meta.attr.0.stream.DURATION.markup">00:13:37.067000000</property>
    <property name="meta.media.1.stream.type">audio</property>
    <property name="meta.media.1.codec.sample_fmt">fltp</property>
    <property name="meta.media.1.codec.sample_rate">48000</property>
    <property name="meta.media.1.codec.channels">2</property>
    <property name="meta.media.1.codec.layout">stereo</property>
    <property name="meta.media.1.codec.name">aac</property>
    <property name="meta.media.1.codec.long_name">AAC (Advanced Audio Coding)</property>
    <property name="meta.media.1.codec.bit_rate">0</property>
    <property name="meta.attr.1.stream.title.markup">simple_aac_recording0</property>
    <property name="meta.attr.1.stream.DURATION.markup">00:13:37.024000000</property>
    <property name="meta.attr.ENCODER.markup">Lavf58.76.100</property>
    <property name="seekable">1</property>
    <property name="meta.media.sample_aspect_num">1</property>
    <property name="meta.media.sample_aspect_den">1</property>
    <property name="audio_index">1</property>
    <property name="video_index">0</property>
    <property name="creation_time">2025-01-22T18:39:18</property>
    <property name="vstream">0</property>
    <property name="meta.media.frame_rate_num">60</property>
    <property name="meta.media.frame_rate_den">1</property>
    <property name="meta.media.colorspace">709</property>
    <property name="meta.media.color_trc">1</property>
    <property name="meta.media.has_b_frames">2</property>
    <property name="meta.media.width">1920</property>
    <property name="meta.media.height">1080</property>
    <property name="meta.media.aspect_ratio">1</property>
    <property name="meta.media.color_range">mpeg</property>
    <property name="astream">0</property>
    <property name="shotcut:skipConvert">0</property>
    <property name="meta.media.top_field_first">0</property>
    <property name="meta.media.progressive">1</property>
    <property name="shotcut:hash">0dda151104fc82f4b6e1c7b39f4ba3a1</property>
    <property name="ignore_points">0</property>
    <property name="shotcut:caption">2025-01-22 15-25-41.mkv</property>
    <property name="xml">was here</property>
  </chain>
  <chain id="chain16" out="00:13:37.050">
    <property name="length">00:13:37.067</property>
    <property name="eof">pause</property>
    <property name="resource">/home/alt/Vídeos/2025-01-22 15-25-41.mkv</property>
    <property name="mlt_service">avformat-novalidate</property>
    <property name="meta.media.nb_streams">2</property>
    <property name="meta.media.0.stream.type">video</property>
    <property name="meta.media.0.stream.frame_rate">60</property>
    <property name="meta.media.0.stream.sample_aspect_ratio">0</property>
    <property name="meta.media.0.codec.width">1920</property>
    <property name="meta.media.0.codec.height">1080</property>
    <property name="meta.media.0.codec.rotate">0</property>
    <property name="meta.media.0.codec.pix_fmt">yuv420p</property>
    <property name="meta.media.0.codec.sample_aspect_ratio">1</property>
    <property name="meta.media.0.codec.colorspace">709</property>
    <property name="meta.media.0.codec.color_trc">1</property>
    <property name="meta.media.0.codec.name">h264</property>
    <property name="meta.media.0.codec.long_name">H.264 / AVC / MPEG-4 AVC / MPEG-4 part 10</property>
    <property name="meta.media.0.codec.bit_rate">0</property>
    <property name="meta.attr.0.stream.DURATION.markup">00:13:37.067000000</property>
    <property name="meta.media.1.stream.type">audio</property>
    <property name="meta.media.1.codec.sample_fmt">fltp</property>
    <property name="meta.media.1.codec.sample_rate">48000</property>
    <property name="meta.media.1.codec.channels">2</property>
    <property name="meta.media.1.codec.layout">stereo</property>
    <property name="meta.media.1.codec.name">aac</property>
    <property name="meta.media.1.codec.long_name">AAC (Advanced Audio Coding)</property>
    <property name="meta.media.1.codec.bit_rate">0</property>
    <property name="meta.attr.1.stream.title.markup">simple_aac_recording0</property>
    <property name="meta.attr.1.stream.DURATION.markup">00:13:37.024000000</property>
    <property name="meta.attr.ENCODER.markup">Lavf58.76.100</property>
    <property name="seekable">1</property>
    <property name="meta.media.sample_aspect_num">1</property>
    <property name="meta.media.sample_aspect_den">1</property>
    <property name="audio_index">1</property>
    <property name="video_index">0</property>
    <property name="creation_time">2025-01-22T18:39:18</property>
    <property name="vstream">0</property>
    <property name="meta.media.frame_rate_num">60</property>
    <property name="meta.media.frame_rate_den">1</property>
    <property name="meta.media.colorspace">709</property>
    <property name="meta.media.color_trc">1</property>
    <property name="meta.media.has_b_frames">2</property>
    <property name="meta.media.width">1920</property>
    <property name="meta.media.height">1080</property>
    <property name="meta.media.aspect_ratio">1</property>
    <property name="meta.media.color_range">mpeg</property>
    <property name="astream">0</property>
    <property name="shotcut:skipConvert">0</property>
    <property name="meta.media.top_field_first">0</property>
    <property name="meta.media.progressive">1</property>
    <property name="shotcut:hash">0dda151104fc82f4b6e1c7b39f4ba3a1</property>
    <property name="ignore_points">0</property>
    <property name="shotcut:caption">2025-01-22 15-25-41.mkv</property>
    <property name="xml">was here</property>
  </chain>
  <chain id="chain17" out="00:13:37.050">
    <property name="length">00:13:37.067</property>
    <property name="eof">pause</property>
    <property name="resource">/home/alt/Vídeos/2025-01-22 15-25-41.mkv</property>
    <property name="mlt_service">avformat-novalidate</property>
    <property name="meta.media.nb_streams">2</property>
    <property name="meta.media.0.stream.type">video</property>
    <property name="meta.media.0.stream.frame_rate">60</property>
    <property name="meta.media.0.stream.sample_aspect_ratio">0</property>
    <property name="meta.media.0.codec.width">1920</property>
    <property name="meta.media.0.codec.height">1080</property>
    <property name="meta.media.0.codec.rotate">0</property>
    <property name="meta.media.0.codec.pix_fmt">yuv420p</property>
    <property name="meta.media.0.codec.sample_aspect_ratio">1</property>
    <property name="meta.media.0.codec.colorspace">709</property>
    <property name="meta.media.0.codec.color_trc">1</property>
    <property name="meta.media.0.codec.name">h264</property>
    <property name="meta.media.0.codec.long_name">H.264 / AVC / MPEG-4 AVC / MPEG-4 part 10</property>
    <property name="meta.media.0.codec.bit_rate">0</property>
    <property name="meta.attr.0.stream.DURATION.markup">00:13:37.067000000</property>
    <property name="meta.media.1.stream.type">audio</property>
    <property name="meta.media.1.codec.sample_fmt">fltp</property>
    <property name="meta.media.1.codec.sample_rate">48000</property>
    <property name="meta.media.1.codec.channels">2</property>
    <property name="meta.media.1.codec.layout">stereo</property>
    <property name="meta.media.1.codec.name">aac</property>
    <property name="meta.media.1.codec.long_name">AAC (Advanced Audio Coding)</property>
    <property name="meta.media.1.codec.bit_rate">0</property>
    <property name="meta.attr.1.stream.title.markup">simple_aac_recording0</property>
    <property name="meta.attr.1.stream.DURATION.markup">00:13:37.024000000</property>
    <property name="meta.attr.ENCODER.markup">Lavf58.76.100</property>
    <property name="seekable">1</property>
    <property name="meta.media.sample_aspect_num">1</property>
    <property name="meta.media.sample_aspect_den">1</property>
    <property name="audio_index">1</property>
    <property name="video_index">0</property>
    <property name="creation_time">2025-01-22T18:39:18</property>
    <property name="vstream">0</property>
    <property name="meta.media.frame_rate_num">60</property>
    <property name="meta.media.frame_rate_den">1</property>
    <property name="meta.media.colorspace">709</property>
    <property name="meta.media.color_trc">1</property>
    <property name="meta.media.has_b_frames">2</property>
    <property name="meta.media.width">1920</property>
    <property name="meta.media.height">1080</property>
    <property name="meta.media.aspect_ratio">1</property>
    <property name="meta.media.color_range">mpeg</property>
    <property name="astream">0</property>
    <property name="shotcut:skipConvert">0</property>
    <property name="meta.media.top_field_first">0</property>
    <property name="meta.media.progressive">1</property>
    <property name="shotcut:hash">0dda151104fc82f4b6e1c7b39f4ba3a1</property>
    <property name="ignore_points">0</property>
    <property name="shotcut:caption">2025-01-22 15-25-41.mkv</property>
    <property name="xml">was here</property>
  </chain>
  <chain id="chain18" out="00:13:37.050">
    <property name="length">00:13:37.067</property>
    <property name="eof">pause</property>
    <property name="resource">/home/alt/Vídeos/2025-01-22 15-25-41.mkv</property>
    <property name="mlt_service">avformat-novalidate</property>
    <property name="meta.media.nb_streams">2</property>
    <property name="meta.media.0.stream.type">video</property>
    <property name="meta.media.0.stream.frame_rate">60</property>
    <property name="meta.media.0.stream.sample_aspect_ratio">0</property>
    <property name="meta.media.0.codec.width">1920</property>
    <property name="meta.media.0.codec.height">1080</property>
    <property name="meta.media.0.codec.rotate">0</property>
    <property name="meta.media.0.codec.pix_fmt">yuv420p</property>
    <property name="meta.media.0.codec.sample_aspect_ratio">1</property>
    <property name="meta.media.0.codec.colorspace">709</property>
    <property name="meta.media.0.codec.color_trc">1</property>
    <property name="meta.media.0.codec.name">h264</property>
    <property name="meta.media.0.codec.long_name">H.264 / AVC / MPEG-4 AVC / MPEG-4 part 10</property>
    <property name="meta.media.0.codec.bit_rate">0</property>
    <property name="meta.attr.0.stream.DURATION.markup">00:13:37.067000000</property>
    <property name="meta.media.1.stream.type">audio</property>
    <property name="meta.media.1.codec.sample_fmt">fltp</property>
    <property name="meta.media.1.codec.sample_rate">48000</property>
    <property name="meta.media.1.codec.channels">2</property>
    <property name="meta.media.1.codec.layout">stereo</property>
    <property name="meta.media.1.codec.name">aac</property>
    <property name="meta.media.1.codec.long_name">AAC (Advanced Audio Coding)</property>
    <property name="meta.media.1.codec.bit_rate">0</property>
    <property name="meta.attr.1.stream.title.markup">simple_aac_recording0</property>
    <property name="meta.attr.1.stream.DURATION.markup">00:13:37.024000000</property>
    <property name="meta.attr.ENCODER.markup">Lavf58.76.100</property>
    <property name="seekable">1</property>
    <property name="meta.media.sample_aspect_num">1</property>
    <property name="meta.media.sample_aspect_den">1</property>
    <property name="audio_index">1</property>
    <property name="video_index">0</property>
    <property name="creation_time">2025-01-22T18:39:18</property>
    <property name="vstream">0</property>
    <property name="meta.media.frame_rate_num">60</property>
    <property name="meta.media.frame_rate_den">1</property>
    <property name="meta.media.colorspace">709</property>
    <property name="meta.media.color_trc">1</property>
    <property name="meta.media.has_b_frames">2</property>
    <property name="meta.media.width">1920</property>
    <property name="meta.media.height">1080</property>
    <property name="meta.media.aspect_ratio">1</property>
    <property name="meta.media.color_range">mpeg</property>
    <property name="astream">0</property>
    <property name="shotcut:skipConvert">0</property>
    <property name="meta.media.top_field_first">0</property>
    <property name="meta.media.progressive">1</property>
    <property name="shotcut:hash">0dda151104fc82f4b6e1c7b39f4ba3a1</property>
    <property name="ignore_points">0</property>
    <property name="shotcut:caption">2025-01-22 15-25-41.mkv</property>
    <property name="xml">was here</property>
  </chain>
  <chain id="chain19" out="00:13:37.050">
    <property name="length">00:13:37.067</property>
    <property name="eof">pause</property>
    <property name="resource">/home/alt/Vídeos/2025-01-22 15-25-41.mkv</property>
    <property name="mlt_service">avformat-novalidate</property>
    <property name="meta.media.nb_streams">2</property>
    <property name="meta.media.0.stream.type">video</property>
    <property name="meta.media.0.stream.frame_rate">60</property>
    <property name="meta.media.0.stream.sample_aspect_ratio">0</property>
    <property name="meta.media.0.codec.width">1920</property>
    <property name="meta.media.0.codec.height">1080</property>
    <property name="meta.media.0.codec.rotate">0</property>
    <property name="meta.media.0.codec.pix_fmt">yuv420p</property>
    <property name="meta.media.0.codec.sample_aspect_ratio">1</property>
    <property name="meta.media.0.codec.colorspace">709</property>
    <property name="meta.media.0.codec.color_trc">1</property>
    <property name="meta.media.0.codec.name">h264</property>
    <property name="meta.media.0.codec.long_name">H.264 / AVC / MPEG-4 AVC / MPEG-4 part 10</property>
    <property name="meta.media.0.codec.bit_rate">0</property>
    <property name="meta.attr.0.stream.DURATION.markup">00:13:37.067000000</property>
    <property name="meta.media.1.stream.type">audio</property>
    <property name="meta.media.1.codec.sample_fmt">fltp</property>
    <property name="meta.media.1.codec.sample_rate">48000</property>
    <property name="meta.media.1.codec.channels">2</property>
    <property name="meta.media.1.codec.layout">stereo</property>
    <property name="meta.media.1.codec.name">aac</property>
    <property name="meta.media.1.codec.long_name">AAC (Advanced Audio Coding)</property>
    <property name="meta.media.1.codec.bit_rate">0</property>
    <property name="meta.attr.1.stream.title.markup">simple_aac_recording0</property>
    <property name="meta.attr.1.stream.DURATION.markup">00:13:37.024000000</property>
    <property name="meta.attr.ENCODER.markup">Lavf58.76.100</property>
    <property name="seekable">1</property>
    <property name="meta.media.sample_aspect_num">1</property>
    <property name="meta.media.sample_aspect_den">1</property>
    <property name="audio_index">1</property>
    <property name="video_index">0</property>
    <property name="creation_time">2025-01-22T18:39:18</property>
    <property name="vstream">0</property>
    <property name="meta.media.frame_rate_num">60</property>
    <property name="meta.media.frame_rate_den">1</property>
    <property name="meta.media.colorspace">709</property>
    <property name="meta.media.color_trc">1</property>
    <property name="meta.media.has_b_frames">2</property>
    <property name="meta.media.width">1920</property>
    <property name="meta.media.height">1080</property>
    <property name="meta.media.aspect_ratio">1</property>
    <property name="meta.media.color_range">mpeg</property>
    <property name="astream">0</property>
    <property name="shotcut:skipConvert">0</property>
    <property name="meta.media.top_field_first">0</property>
    <property name="meta.media.progressive">1</property>
    <property name="shotcut:hash">0dda151104fc82f4b6e1c7b39f4ba3a1</property>
    <property name="ignore_points">0</property>
    <property name="shotcut:caption">2025-01-22 15-25-41.mkv</property>
    <property name="xml">was here</property>
  </chain>
  <chain id="chain20" out="00:13:37.050">
    <property name="length">00:13:37.067</property>
    <property name="eof">pause</property>
    <property name="resource">/home/alt/Vídeos/2025-01-22 15-25-41.mkv</property>
    <property name="mlt_service">avformat-novalidate</property>
    <property name="meta.media.nb_streams">2</property>
    <property name="meta.media.0.stream.type">video</property>
    <property name="meta.media.0.stream.frame_rate">60</property>
    <property name="meta.media.0.stream.sample_aspect_ratio">0</property>
    <property name="meta.media.0.codec.width">1920</property>
    <property name="meta.media.0.codec.height">1080</property>
    <property name="meta.media.0.codec.rotate">0</property>
    <property name="meta.media.0.codec.pix_fmt">yuv420p</property>
    <property name="meta.media.0.codec.sample_aspect_ratio">1</property>
    <property name="meta.media.0.codec.colorspace">709</property>
    <property name="meta.media.0.codec.color_trc">1</property>
    <property name="meta.media.0.codec.name">h264</property>
    <property name="meta.media.0.codec.long_name">H.264 / AVC / MPEG-4 AVC / MPEG-4 part 10</property>
    <property name="meta.media.0.codec.bit_rate">0</property>
    <property name="meta.attr.0.stream.DURATION.markup">00:13:37.067000000</property>
    <property name="meta.media.1.stream.type">audio</property>
    <property name="meta.media.1.codec.sample_fmt">fltp</property>
    <property name="meta.media.1.codec.sample_rate">48000</property>
    <property name="meta.media.1.codec.channels">2</property>
    <property name="meta.media.1.codec.layout">stereo</property>
    <property name="meta.media.1.codec.name">aac</property>
    <property name="meta.media.1.codec.long_name">AAC (Advanced Audio Coding)</property>
    <property name="meta.media.1.codec.bit_rate">0</property>
    <property name="meta.attr.1.stream.title.markup">simple_aac_recording0</property>
    <property name="meta.attr.1.stream.DURATION.markup">00:13:37.024000000</property>
    <property name="meta.attr.ENCODER.markup">Lavf58.76.100</property>
    <property name="seekable">1</property>
    <property name="meta.media.sample_aspect_num">1</property>
    <property name="meta.media.sample_aspect_den">1</property>
    <property name="audio_index">1</property>
    <property name="video_index">0</property>
    <property name="creation_time">2025-01-22T18:39:18</property>
    <property name="vstream">0</property>
    <property name="meta.media.frame_rate_num">60</property>
    <property name="meta.media.frame_rate_den">1</property>
    <property name="meta.media.colorspace">709</property>
    <property name="meta.media.color_trc">1</property>
    <property name="meta.media.has_b_frames">2</property>
    <property name="meta.media.width">1920</property>
    <property name="meta.media.height">1080</property>
    <property name="meta.media.aspect_ratio">1</property>
    <property name="meta.media.color_range">mpeg</property>
    <property name="astream">0</property>
    <property name="shotcut:skipConvert">0</property>
    <property name="meta.media.top_field_first">0</property>
    <property name="meta.media.progressive">1</property>
    <property name="shotcut:hash">0dda151104fc82f4b6e1c7b39f4ba3a1</property>
    <property name="ignore_points">0</property>
    <property name="shotcut:caption">2025-01-22 15-25-41.mkv</property>
    <property name="xml">was here</property>
  </chain>
  <chain id="chain21" out="00:13:37.050">
    <property name="length">00:13:37.067</property>
    <property name="eof">pause</property>
    <property name="resource">/home/alt/Vídeos/2025-01-22 15-25-41.mkv</property>
    <property name="mlt_service">avformat-novalidate</property>
    <property name="meta.media.nb_streams">2</property>
    <property name="meta.media.0.stream.type">video</property>
    <property name="meta.media.0.stream.frame_rate">60</property>
    <property name="meta.media.0.stream.sample_aspect_ratio">0</property>
    <property name="meta.media.0.codec.width">1920</property>
    <property name="meta.media.0.codec.height">1080</property>
    <property name="meta.media.0.codec.rotate">0</property>
    <property name="meta.media.0.codec.pix_fmt">yuv420p</property>
    <property name="meta.media.0.codec.sample_aspect_ratio">1</property>
    <property name="meta.media.0.codec.colorspace">709</property>
    <property name="meta.media.0.codec.color_trc">1</property>
    <property name="meta.media.0.codec.name">h264</property>
    <property name="meta.media.0.codec.long_name">H.264 / AVC / MPEG-4 AVC / MPEG-4 part 10</property>
    <property name="meta.media.0.codec.bit_rate">0</property>
    <property name="meta.attr.0.stream.DURATION.markup">00:13:37.067000000</property>
    <property name="meta.media.1.stream.type">audio</property>
    <property name="meta.media.1.codec.sample_fmt">fltp</property>
    <property name="meta.media.1.codec.sample_rate">48000</property>
    <property name="meta.media.1.codec.channels">2</property>
    <property name="meta.media.1.codec.layout">stereo</property>
    <property name="meta.media.1.codec.name">aac</property>
    <property name="meta.media.1.codec.long_name">AAC (Advanced Audio Coding)</property>
    <property name="meta.media.1.codec.bit_rate">0</property>
    <property name="meta.attr.1.stream.title.markup">simple_aac_recording0</property>
    <property name="meta.attr.1.stream.DURATION.markup">00:13:37.024000000</property>
    <property name="meta.attr.ENCODER.markup">Lavf58.76.100</property>
    <property name="seekable">1</property>
    <property name="meta.media.sample_aspect_num">1</property>
    <property name="meta.media.sample_aspect_den">1</property>
    <property name="audio_index">1</property>
    <property name="video_index">0</property>
    <property name="creation_time">2025-01-22T18:39:18</property>
    <property name="vstream">0</property>
    <property name="meta.media.frame_rate_num">60</property>
    <property name="meta.media.frame_rate_den">1</property>
    <property name="meta.media.colorspace">709</property>
    <property name="meta.media.color_trc">1</property>
    <property name="meta.media.has_b_frames">2</property>
    <property name="meta.media.width">1920</property>
    <property name="meta.media.height">1080</property>
    <property name="meta.media.aspect_ratio">1</property>
    <property name="meta.media.color_range">mpeg</property>
    <property name="astream">0</property>
    <property name="shotcut:skipConvert">0</property>
    <property name="meta.media.top_field_first">0</property>
    <property name="meta.media.progressive">1</property>
    <property name="shotcut:hash">0dda151104fc82f4b6e1c7b39f4ba3a1</property>
    <property name="ignore_points">0</property>
    <property name="shotcut:caption">2025-01-22 15-25-41.mkv</property>
    <property name="xml">was here</property>
  </chain>
  <chain id="chain22" out="00:13:37.050">
    <property name="length">00:13:37.067</property>
    <property name="eof">pause</property>
    <property name="resource">/home/alt/Vídeos/2025-01-22 15-25-41.mkv</property>
    <property name="mlt_service">avformat-novalidate</property>
    <property name="meta.media.nb_streams">2</property>
    <property name="meta.media.0.stream.type">video</property>
    <property name="meta.media.0.stream.frame_rate">60</property>
    <property name="meta.media.0.stream.sample_aspect_ratio">0</property>
    <property name="meta.media.0.codec.width">1920</property>
    <property name="meta.media.0.codec.height">1080</property>
    <property name="meta.media.0.codec.rotate">0</property>
    <property name="meta.media.0.codec.pix_fmt">yuv420p</property>
    <property name="meta.media.0.codec.sample_aspect_ratio">1</property>
    <property name="meta.media.0.codec.colorspace">709</property>
    <property name="meta.media.0.codec.color_trc">1</property>
    <property name="meta.media.0.codec.name">h264</property>
    <property name="meta.media.0.codec.long_name">H.264 / AVC / MPEG-4 AVC / MPEG-4 part 10</property>
    <property name="meta.media.0.codec.bit_rate">0</property>
    <property name="meta.attr.0.stream.DURATION.markup">00:13:37.067000000</property>
    <property name="meta.media.1.stream.type">audio</property>
    <property name="meta.media.1.codec.sample_fmt">fltp</property>
    <property name="meta.media.1.codec.sample_rate">48000</property>
    <property name="meta.media.1.codec.channels">2</property>
    <property name="meta.media.1.codec.layout">stereo</property>
    <property name="meta.media.1.codec.name">aac</property>
    <property name="meta.media.1.codec.long_name">AAC (Advanced Audio Coding)</property>
    <property name="meta.media.1.codec.bit_rate">0</property>
    <property name="meta.attr.1.stream.title.markup">simple_aac_recording0</property>
    <property name="meta.attr.1.stream.DURATION.markup">00:13:37.024000000</property>
    <property name="meta.attr.ENCODER.markup">Lavf58.76.100</property>
    <property name="seekable">1</property>
    <property name="meta.media.sample_aspect_num">1</property>
    <property name="meta.media.sample_aspect_den">1</property>
    <property name="audio_index">1</property>
    <property name="video_index">0</property>
    <property name="creation_time">2025-01-22T18:39:18</property>
    <property name="vstream">0</property>
    <property name="meta.media.frame_rate_num">60</property>
    <property name="meta.media.frame_rate_den">1</property>
    <property name="meta.media.colorspace">709</property>
    <property name="meta.media.color_trc">1</property>
    <property name="meta.media.has_b_frames">2</property>
    <property name="meta.media.width">1920</property>
    <property name="meta.media.height">1080</property>
    <property name="meta.media.aspect_ratio">1</property>
    <property name="meta.media.color_range">mpeg</property>
    <property name="astream">0</property>
    <property name="shotcut:skipConvert">0</property>
    <property name="meta.media.top_field_first">0</property>
    <property name="meta.media.progressive">1</property>
    <property name="shotcut:hash">0dda151104fc82f4b6e1c7b39f4ba3a1</property>
    <property name="ignore_points">0</property>
    <property name="shotcut:caption">2025-01-22 15-25-41.mkv</property>
    <property name="xml">was here</property>
  </chain>
  <chain id="chain23" out="00:13:37.050">
    <property name="length">00:13:37.067</property>
    <property name="eof">pause</property>
    <property name="resource">/home/alt/Vídeos/2025-01-22 15-25-41.mkv</property>
    <property name="mlt_service">avformat-novalidate</property>
    <property name="meta.media.nb_streams">2</property>
    <property name="meta.media.0.stream.type">video</property>
    <property name="meta.media.0.stream.frame_rate">60</property>
    <property name="meta.media.0.stream.sample_aspect_ratio">0</property>
    <property name="meta.media.0.codec.width">1920</property>
    <property name="meta.media.0.codec.height">1080</property>
    <property name="meta.media.0.codec.rotate">0</property>
    <property name="meta.media.0.codec.pix_fmt">yuv420p</property>
    <property name="meta.media.0.codec.sample_aspect_ratio">1</property>
    <property name="meta.media.0.codec.colorspace">709</property>
    <property name="meta.media.0.codec.color_trc">1</property>
    <property name="meta.media.0.codec.name">h264</property>
    <property name="meta.media.0.codec.long_name">H.264 / AVC / MPEG-4 AVC / MPEG-4 part 10</property>
    <property name="meta.media.0.codec.bit_rate">0</property>
    <property name="meta.attr.0.stream.DURATION.markup">00:13:37.067000000</property>
    <property name="meta.media.1.stream.type">audio</property>
    <property name="meta.media.1.codec.sample_fmt">fltp</property>
    <property name="meta.media.1.codec.sample_rate">48000</property>
    <property name="meta.media.1.codec.channels">2</property>
    <property name="meta.media.1.codec.layout">stereo</property>
    <property name="meta.media.1.codec.name">aac</property>
    <property name="meta.media.1.codec.long_name">AAC (Advanced Audio Coding)</property>
    <property name="meta.media.1.codec.bit_rate">0</property>
    <property name="meta.attr.1.stream.title.markup">simple_aac_recording0</property>
    <property name="meta.attr.1.stream.DURATION.markup">00:13:37.024000000</property>
    <property name="meta.attr.ENCODER.markup">Lavf58.76.100</property>
    <property name="seekable">1</property>
    <property name="meta.media.sample_aspect_num">1</property>
    <property name="meta.media.sample_aspect_den">1</property>
    <property name="audio_index">1</property>
    <property name="video_index">0</property>
    <property name="creation_time">2025-01-22T18:39:18</property>
    <property name="vstream">0</property>
    <property name="meta.media.frame_rate_num">60</property>
    <property name="meta.media.frame_rate_den">1</property>
    <property name="meta.media.colorspace">709</property>
    <property name="meta.media.color_trc">1</property>
    <property name="meta.media.has_b_frames">2</property>
    <property name="meta.media.width">1920</property>
    <property name="meta.media.height">1080</property>
    <property name="meta.media.aspect_ratio">1</property>
    <property name="meta.media.color_range">mpeg</property>
    <property name="astream">0</property>
    <property name="shotcut:skipConvert">0</property>
    <property name="meta.media.top_field_first">0</property>
    <property name="meta.media.progressive">1</property>
    <property name="shotcut:hash">0dda151104fc82f4b6e1c7b39f4ba3a1</property>
    <property name="ignore_points">0</property>
    <property name="shotcut:caption">2025-01-22 15-25-41.mkv</property>
    <property name="xml">was here</property>
  </chain>
  <chain id="chain24" out="00:13:37.050">
    <property name="length">00:13:37.067</property>
    <property name="eof">pause</property>
    <property name="resource">/home/alt/Vídeos/2025-01-22 15-25-41.mkv</property>
    <property name="mlt_service">avformat-novalidate</property>
    <property name="meta.media.nb_streams">2</property>
    <property name="meta.media.0.stream.type">video</property>
    <property name="meta.media.0.stream.frame_rate">60</property>
    <property name="meta.media.0.stream.sample_aspect_ratio">0</property>
    <property name="meta.media.0.codec.width">1920</property>
    <property name="meta.media.0.codec.height">1080</property>
    <property name="meta.media.0.codec.rotate">0</property>
    <property name="meta.media.0.codec.pix_fmt">yuv420p</property>
    <property name="meta.media.0.codec.sample_aspect_ratio">1</property>
    <property name="meta.media.0.codec.colorspace">709</property>
    <property name="meta.media.0.codec.color_trc">1</property>
    <property name="meta.media.0.codec.name">h264</property>
    <property name="meta.media.0.codec.long_name">H.264 / AVC / MPEG-4 AVC / MPEG-4 part 10</property>
    <property name="meta.media.0.codec.bit_rate">0</property>
    <property name="meta.attr.0.stream.DURATION.markup">00:13:37.067000000</property>
    <property name="meta.media.1.stream.type">audio</property>
    <property name="meta.media.1.codec.sample_fmt">fltp</property>
    <property name="meta.media.1.codec.sample_rate">48000</property>
    <property name="meta.media.1.codec.channels">2</property>
    <property name="meta.media.1.codec.layout">stereo</property>
    <property name="meta.media.1.codec.name">aac</property>
    <property name="meta.media.1.codec.long_name">AAC (Advanced Audio Coding)</property>
    <property name="meta.media.1.codec.bit_rate">0</property>
    <property name="meta.attr.1.stream.title.markup">simple_aac_recording0</property>
    <property name="meta.attr.1.stream.DURATION.markup">00:13:37.024000000</property>
    <property name="meta.attr.ENCODER.markup">Lavf58.76.100</property>
    <property name="seekable">1</property>
    <property name="meta.media.sample_aspect_num">1</property>
    <property name="meta.media.sample_aspect_den">1</property>
    <property name="audio_index">1</property>
    <property name="video_index">0</property>
    <property name="creation_time">2025-01-22T18:39:18</property>
    <property name="vstream">0</property>
    <property name="meta.media.frame_rate_num">60</property>
    <property name="meta.media.frame_rate_den">1</property>
    <property name="meta.media.colorspace">709</property>
    <property name="meta.media.color_trc">1</property>
    <property name="meta.media.has_b_frames">2</property>
    <property name="meta.media.width">1920</property>
    <property name="meta.media.height">1080</property>
    <property name="meta.media.aspect_ratio">1</property>
    <property name="meta.media.color_range">mpeg</property>
    <property name="astream">0</property>
    <property name="shotcut:skipConvert">0</property>
    <property name="meta.media.top_field_first">0</property>
    <property name="meta.media.progressive">1</property>
    <property name="shotcut:hash">0dda151104fc82f4b6e1c7b39f4ba3a1</property>
    <property name="ignore_points">0</property>
    <property name="shotcut:caption">2025-01-22 15-25-41.mkv</property>
    <property name="xml">was here</property>
  </chain>
  <chain id="chain25" out="00:13:37.050">
    <property name="length">00:13:37.067</property>
    <property name="eof">pause</property>
    <property name="resource">/home/alt/Vídeos/2025-01-22 15-25-41.mkv</property>
    <property name="mlt_service">avformat-novalidate</property>
    <property name="meta.media.nb_streams">2</property>
    <property name="meta.media.0.stream.type">video</property>
    <property name="meta.media.0.stream.frame_rate">60</property>
    <property name="meta.media.0.stream.sample_aspect_ratio">0</property>
    <property name="meta.media.0.codec.width">1920</property>
    <property name="meta.media.0.codec.height">1080</property>
    <property name="meta.media.0.codec.rotate">0</property>
    <property name="meta.media.0.codec.pix_fmt">yuv420p</property>
    <property name="meta.media.0.codec.sample_aspect_ratio">1</property>
    <property name="meta.media.0.codec.colorspace">709</property>
    <property name="meta.media.0.codec.color_trc">1</property>
    <property name="meta.media.0.codec.name">h264</property>
    <property name="meta.media.0.codec.long_name">H.264 / AVC / MPEG-4 AVC / MPEG-4 part 10</property>
    <property name="meta.media.0.codec.bit_rate">0</property>
    <property name="meta.attr.0.stream.DURATION.markup">00:13:37.067000000</property>
    <property name="meta.media.1.stream.type">audio</property>
    <property name="meta.media.1.codec.sample_fmt">fltp</property>
    <property name="meta.media.1.codec.sample_rate">48000</property>
    <property name="meta.media.1.codec.channels">2</property>
    <property name="meta.media.1.codec.layout">stereo</property>
    <property name="meta.media.1.codec.name">aac</property>
    <property name="meta.media.1.codec.long_name">AAC (Advanced Audio Coding)</property>
    <property name="meta.media.1.codec.bit_rate">0</property>
    <property name="meta.attr.1.stream.title.markup">simple_aac_recording0</property>
    <property name="meta.attr.1.stream.DURATION.markup">00:13:37.024000000</property>
    <property name="meta.attr.ENCODER.markup">Lavf58.76.100</property>
    <property name="seekable">1</property>
    <property name="meta.media.sample_aspect_num">1</property>
    <property name="meta.media.sample_aspect_den">1</property>
    <property name="audio_index">1</property>
    <property name="video_index">0</property>
    <property name="creation_time">2025-01-22T18:39:18</property>
    <property name="vstream">0</property>
    <property name="meta.media.frame_rate_num">60</property>
    <property name="meta.media.frame_rate_den">1</property>
    <property name="meta.media.colorspace">709</property>
    <property name="meta.media.color_trc">1</property>
    <property name="meta.media.has_b_frames">2</property>
    <property name="meta.media.width">1920</property>
    <property name="meta.media.height">1080</property>
    <property name="meta.media.aspect_ratio">1</property>
    <property name="meta.media.color_range">mpeg</property>
    <property name="astream">0</property>
    <property name="shotcut:skipConvert">0</property>
    <property name="meta.media.top_field_first">0</property>
    <property name="meta.media.progressive">1</property>
    <property name="shotcut:hash">0dda151104fc82f4b6e1c7b39f4ba3a1</property>
    <property name="ignore_points">0</property>
    <property name="shotcut:caption">2025-01-22 15-25-41.mkv</property>
    <property name="xml">was here</property>
  </chain>
  <chain id="chain26" out="00:13:37.050">
    <property name="length">00:13:37.067</property>
    <property name="eof">pause</property>
    <property name="resource">/home/alt/Vídeos/2025-01-22 15-25-41.mkv</property>
    <property name="mlt_service">avformat-novalidate</property>
    <property name="meta.media.nb_streams">2</property>
    <property name="meta.media.0.stream.type">video</property>
    <property name="meta.media.0.stream.frame_rate">60</property>
    <property name="meta.media.0.stream.sample_aspect_ratio">0</property>
    <property name="meta.media.0.codec.width">1920</property>
    <property name="meta.media.0.codec.height">1080</property>
    <property name="meta.media.0.codec.rotate">0</property>
    <property name="meta.media.0.codec.pix_fmt">yuv420p</property>
    <property name="meta.media.0.codec.sample_aspect_ratio">1</property>
    <property name="meta.media.0.codec.colorspace">709</property>
    <property name="meta.media.0.codec.color_trc">1</property>
    <property name="meta.media.0.codec.name">h264</property>
    <property name="meta.media.0.codec.long_name">H.264 / AVC / MPEG-4 AVC / MPEG-4 part 10</property>
    <property name="meta.media.0.codec.bit_rate">0</property>
    <property name="meta.attr.0.stream.DURATION.markup">00:13:37.067000000</property>
    <property name="meta.media.1.stream.type">audio</property>
    <property name="meta.media.1.codec.sample_fmt">fltp</property>
    <property name="meta.media.1.codec.sample_rate">48000</property>
    <property name="meta.media.1.codec.channels">2</property>
    <property name="meta.media.1.codec.layout">stereo</property>
    <property name="meta.media.1.codec.name">aac</property>
    <property name="meta.media.1.codec.long_name">AAC (Advanced Audio Coding)</property>
    <property name="meta.media.1.codec.bit_rate">0</property>
    <property name="meta.attr.1.stream.title.markup">simple_aac_recording0</property>
    <property name="meta.attr.1.stream.DURATION.markup">00:13:37.024000000</property>
    <property name="meta.attr.ENCODER.markup">Lavf58.76.100</property>
    <property name="seekable">1</property>
    <property name="meta.media.sample_aspect_num">1</property>
    <property name="meta.media.sample_aspect_den">1</property>
    <property name="audio_index">1</property>
    <property name="video_index">0</property>
    <property name="creation_time">2025-01-22T18:39:18</property>
    <property name="vstream">0</property>
    <property name="meta.media.frame_rate_num">60</property>
    <property name="meta.media.frame_rate_den">1</property>
    <property name="meta.media.colorspace">709</property>
    <property name="meta.media.color_trc">1</property>
    <property name="meta.media.has_b_frames">2</property>
    <property name="meta.media.width">1920</property>
    <property name="meta.media.height">1080</property>
    <property name="meta.media.aspect_ratio">1</property>
    <property name="meta.media.color_range">mpeg</property>
    <property name="astream">0</property>
    <property name="shotcut:skipConvert">0</property>
    <property name="meta.media.top_field_first">0</property>
    <property name="meta.media.progressive">1</property>
    <property name="shotcut:hash">0dda151104fc82f4b6e1c7b39f4ba3a1</property>
    <property name="ignore_points">0</property>
    <property name="shotcut:caption">2025-01-22 15-25-41.mkv</property>
    <property name="xml">was here</property>
  </chain>
  <chain id="chain27" out="00:13:37.050">
    <property name="length">00:13:37.067</property>
    <property name="eof">pause</property>
    <property name="resource">/home/alt/Vídeos/2025-01-22 15-25-41.mkv</property>
    <property name="mlt_service">avformat-novalidate</property>
    <property name="meta.media.nb_streams">2</property>
    <property name="meta.media.0.stream.type">video</property>
    <property name="meta.media.0.stream.frame_rate">60</property>
    <property name="meta.media.0.stream.sample_aspect_ratio">0</property>
    <property name="meta.media.0.codec.width">1920</property>
    <property name="meta.media.0.codec.height">1080</property>
    <property name="meta.media.0.codec.rotate">0</property>
    <property name="meta.media.0.codec.pix_fmt">yuv420p</property>
    <property name="meta.media.0.codec.sample_aspect_ratio">1</property>
    <property name="meta.media.0.codec.colorspace">709</property>
    <property name="meta.media.0.codec.color_trc">1</property>
    <property name="meta.media.0.codec.name">h264</property>
    <property name="meta.media.0.codec.long_name">H.264 / AVC / MPEG-4 AVC / MPEG-4 part 10</property>
    <property name="meta.media.0.codec.bit_rate">0</property>
    <property name="meta.attr.0.stream.DURATION.markup">00:13:37.067000000</property>
    <property name="meta.media.1.stream.type">audio</property>
    <property name="meta.media.1.codec.sample_fmt">fltp</property>
    <property name="meta.media.1.codec.sample_rate">48000</property>
    <property name="meta.media.1.codec.channels">2</property>
    <property name="meta.media.1.codec.layout">stereo</property>
    <property name="meta.media.1.codec.name">aac</property>
    <property name="meta.media.1.codec.long_name">AAC (Advanced Audio Coding)</property>
    <property name="meta.media.1.codec.bit_rate">0</property>
    <property name="meta.attr.1.stream.title.markup">simple_aac_recording0</property>
    <property name="meta.attr.1.stream.DURATION.markup">00:13:37.024000000</property>
    <property name="meta.attr.ENCODER.markup">Lavf58.76.100</property>
    <property name="seekable">1</property>
    <property name="meta.media.sample_aspect_num">1</property>
    <property name="meta.media.sample_aspect_den">1</property>
    <property name="audio_index">1</property>
    <property name="video_index">0</property>
    <property name="creation_time">2025-01-22T18:39:18</property>
    <property name="vstream">0</property>
    <property name="meta.media.frame_rate_num">60</property>
    <property name="meta.media.frame_rate_den">1</property>
    <property name="meta.media.colorspace">709</property>
    <property name="meta.media.color_trc">1</property>
    <property name="meta.media.has_b_frames">2</property>
    <property name="meta.media.width">1920</property>
    <property name="meta.media.height">1080</property>
    <property name="meta.media.aspect_ratio">1</property>
    <property name="meta.media.color_range">mpeg</property>
    <property name="astream">0</property>
    <property name="shotcut:skipConvert">0</property>
    <property name="meta.media.top_field_first">0</property>
    <property name="meta.media.progressive">1</property>
    <property name="shotcut:hash">0dda151104fc82f4b6e1c7b39f4ba3a1</property>
    <property name="ignore_points">0</property>
    <property name="shotcut:caption">2025-01-22 15-25-41.mkv</property>
    <property name="xml">was here</property>
  </chain>
  <chain id="chain28" out="00:13:37.050">
    <property name="length">00:13:37.067</property>
    <property name="eof">pause</property>
    <property name="resource">/home/alt/Vídeos/2025-01-22 15-25-41.mkv</property>
    <property name="mlt_service">avformat-novalidate</property>
    <property name="meta.media.nb_streams">2</property>
    <property name="meta.media.0.stream.type">video</property>
    <property name="meta.media.0.stream.frame_rate">60</property>
    <property name="meta.media.0.stream.sample_aspect_ratio">0</property>
    <property name="meta.media.0.codec.width">1920</property>
    <property name="meta.media.0.codec.height">1080</property>
    <property name="meta.media.0.codec.rotate">0</property>
    <property name="meta.media.0.codec.pix_fmt">yuv420p</property>
    <property name="meta.media.0.codec.sample_aspect_ratio">1</property>
    <property name="meta.media.0.codec.colorspace">709</property>
    <property name="meta.media.0.codec.color_trc">1</property>
    <property name="meta.media.0.codec.name">h264</property>
    <property name="meta.media.0.codec.long_name">H.264 / AVC / MPEG-4 AVC / MPEG-4 part 10</property>
    <property name="meta.media.0.codec.bit_rate">0</property>
    <property name="meta.attr.0.stream.DURATION.markup">00:13:37.067000000</property>
    <property name="meta.media.1.stream.type">audio</property>
    <property name="meta.media.1.codec.sample_fmt">fltp</property>
    <property name="meta.media.1.codec.sample_rate">48000</property>
    <property name="meta.media.1.codec.channels">2</property>
    <property name="meta.media.1.codec.layout">stereo</property>
    <property name="meta.media.1.codec.name">aac</property>
    <property name="meta.media.1.codec.long_name">AAC (Advanced Audio Coding)</property>
    <property name="meta.media.1.codec.bit_rate">0</property>
    <property name="meta.attr.1.stream.title.markup">simple_aac_recording0</property>
    <property name="meta.attr.1.stream.DURATION.markup">00:13:37.024000000</property>
    <property name="meta.attr.ENCODER.markup">Lavf58.76.100</property>
    <property name="seekable">1</property>
    <property name="meta.media.sample_aspect_num">1</property>
    <property name="meta.media.sample_aspect_den">1</property>
    <property name="audio_index">1</property>
    <property name="video_index">0</property>
    <property name="creation_time">2025-01-22T18:39:18</property>
    <property name="vstream">0</property>
    <property name="meta.media.frame_rate_num">60</property>
    <property name="meta.media.frame_rate_den">1</property>
    <property name="meta.media.colorspace">709</property>
    <property name="meta.media.color_trc">1</property>
    <property name="meta.media.has_b_frames">2</property>
    <property name="meta.media.width">1920</property>
    <property name="meta.media.height">1080</property>
    <property name="meta.media.aspect_ratio">1</property>
    <property name="meta.media.color_range">mpeg</property>
    <property name="astream">0</property>
    <property name="shotcut:skipConvert">0</property>
    <property name="meta.media.top_field_first">0</property>
    <property name="meta.media.progressive">1</property>
    <property name="shotcut:hash">0dda151104fc82f4b6e1c7b39f4ba3a1</property>
    <property name="ignore_points">0</property>
    <property name="shotcut:caption">2025-01-22 15-25-41.mkv</property>
    <property name="xml">was here</property>
  </chain>
  <chain id="chain29" out="00:13:37.050">
    <property name="length">00:13:37.067</property>
    <property name="eof">pause</property>
    <property name="resource">/home/alt/Vídeos/2025-01-22 15-25-41.mkv</property>
    <property name="mlt_service">avformat-novalidate</property>
    <property name="meta.media.nb_streams">2</property>
    <property name="meta.media.0.stream.type">video</property>
    <property name="meta.media.0.stream.frame_rate">60</property>
    <property name="meta.media.0.stream.sample_aspect_ratio">0</property>
    <property name="meta.media.0.codec.width">1920</property>
    <property name="meta.media.0.codec.height">1080</property>
    <property name="meta.media.0.codec.rotate">0</property>
    <property name="meta.media.0.codec.pix_fmt">yuv420p</property>
    <property name="meta.media.0.codec.sample_aspect_ratio">1</property>
    <property name="meta.media.0.codec.colorspace">709</property>
    <property name="meta.media.0.codec.color_trc">1</property>
    <property name="meta.media.0.codec.name">h264</property>
    <property name="meta.media.0.codec.long_name">H.264 / AVC / MPEG-4 AVC / MPEG-4 part 10</property>
    <property name="meta.media.0.codec.bit_rate">0</property>
    <property name="meta.attr.0.stream.DURATION.markup">00:13:37.067000000</property>
    <property name="meta.media.1.stream.type">audio</property>
    <property name="meta.media.1.codec.sample_fmt">fltp</property>
    <property name="meta.media.1.codec.sample_rate">48000</property>
    <property name="meta.media.1.codec.channels">2</property>
    <property name="meta.media.1.codec.layout">stereo</property>
    <property name="meta.media.1.codec.name">aac</property>
    <property name="meta.media.1.codec.long_name">AAC (Advanced Audio Coding)</property>
    <property name="meta.media.1.codec.bit_rate">0</property>
    <property name="meta.attr.1.stream.title.markup">simple_aac_recording0</property>
    <property name="meta.attr.1.stream.DURATION.markup">00:13:37.024000000</property>
    <property name="meta.attr.ENCODER.markup">Lavf58.76.100</property>
    <property name="seekable">1</property>
    <property name="meta.media.sample_aspect_num">1</property>
    <property name="meta.media.sample_aspect_den">1</property>
    <property name="audio_index">1</property>
    <property name="video_index">0</property>
    <property name="creation_time">2025-01-22T18:39:18</property>
    <property name="vstream">0</property>
    <property name="meta.media.frame_rate_num">60</property>
    <property name="meta.media.frame_rate_den">1</property>
    <property name="meta.media.colorspace">709</property>
    <property name="meta.media.color_trc">1</property>
    <property name="meta.media.has_b_frames">2</property>
    <property name="meta.media.width">1920</property>
    <property name="meta.media.height">1080</property>
    <property name="meta.media.aspect_ratio">1</property>
    <property name="meta.media.color_range">mpeg</property>
    <property name="astream">0</property>
    <property name="shotcut:skipConvert">0</property>
    <property name="meta.media.top_field_first">0</property>
    <property name="meta.media.progressive">1</property>
    <property name="shotcut:hash">0dda151104fc82f4b6e1c7b39f4ba3a1</property>
    <property name="ignore_points">0</property>
    <property name="shotcut:caption">2025-01-22 15-25-41.mkv</property>
    <property name="xml">was here</property>
  </chain>
  <chain id="chain30" out="00:13:37.050">
    <property name="length">00:13:37.067</property>
    <property name="eof">pause</property>
    <property name="resource">/home/alt/Vídeos/2025-01-22 15-25-41.mkv</property>
    <property name="mlt_service">avformat-novalidate</property>
    <property name="meta.media.nb_streams">2</property>
    <property name="meta.media.0.stream.type">video</property>
    <property name="meta.media.0.stream.frame_rate">60</property>
    <property name="meta.media.0.stream.sample_aspect_ratio">0</property>
    <property name="meta.media.0.codec.width">1920</property>
    <property name="meta.media.0.codec.height">1080</property>
    <property name="meta.media.0.codec.rotate">0</property>
    <property name="meta.media.0.codec.pix_fmt">yuv420p</property>
    <property name="meta.media.0.codec.sample_aspect_ratio">1</property>
    <property name="meta.media.0.codec.colorspace">709</property>
    <property name="meta.media.0.codec.color_trc">1</property>
    <property name="meta.media.0.codec.name">h264</property>
    <property name="meta.media.0.codec.long_name">H.264 / AVC / MPEG-4 AVC / MPEG-4 part 10</property>
    <property name="meta.media.0.codec.bit_rate">0</property>
    <property name="meta.attr.0.stream.DURATION.markup">00:13:37.067000000</property>
    <property name="meta.media.1.stream.type">audio</property>
    <property name="meta.media.1.codec.sample_fmt">fltp</property>
    <property name="meta.media.1.codec.sample_rate">48000</property>
    <property name="meta.media.1.codec.channels">2</property>
    <property name="meta.media.1.codec.layout">stereo</property>
    <property name="meta.media.1.codec.name">aac</property>
    <property name="meta.media.1.codec.long_name">AAC (Advanced Audio Coding)</property>
    <property name="meta.media.1.codec.bit_rate">0</property>
    <property name="meta.attr.1.stream.title.markup">simple_aac_recording0</property>
    <property name="meta.attr.1.stream.DURATION.markup">00:13:37.024000000</property>
    <property name="meta.attr.ENCODER.markup">Lavf58.76.100</property>
    <property name="seekable">1</property>
    <property name="meta.media.sample_aspect_num">1</property>
    <property name="meta.media.sample_aspect_den">1</property>
    <property name="audio_index">1</property>
    <property name="video_index">0</property>
    <property name="creation_time">2025-01-22T18:39:18</property>
    <property name="vstream">0</property>
    <property name="meta.media.frame_rate_num">60</property>
    <property name="meta.media.frame_rate_den">1</property>
    <property name="meta.media.colorspace">709</property>
    <property name="meta.media.color_trc">1</property>
    <property name="meta.media.has_b_frames">2</property>
    <property name="meta.media.width">1920</property>
    <property name="meta.media.height">1080</property>
    <property name="meta.media.aspect_ratio">1</property>
    <property name="meta.media.color_range">mpeg</property>
    <property name="astream">0</property>
    <property name="shotcut:skipConvert">0</property>
    <property name="meta.media.top_field_first">0</property>
    <property name="meta.media.progressive">1</property>
    <property name="shotcut:hash">0dda151104fc82f4b6e1c7b39f4ba3a1</property>
    <property name="ignore_points">0</property>
    <property name="shotcut:caption">2025-01-22 15-25-41.mkv</property>
    <property name="xml">was here</property>
  </chain>
  <chain id="chain31" out="00:13:37.050">
    <property name="length">00:13:37.067</property>
    <property name="eof">pause</property>
    <property name="resource">/home/alt/Vídeos/2025-01-22 15-25-41.mkv</property>
    <property name="mlt_service">avformat-novalidate</property>
    <property name="meta.media.nb_streams">2</property>
    <property name="meta.media.0.stream.type">video</property>
    <property name="meta.media.0.stream.frame_rate">60</property>
    <property name="meta.media.0.stream.sample_aspect_ratio">0</property>
    <property name="meta.media.0.codec.width">1920</property>
    <property name="meta.media.0.codec.height">1080</property>
    <property name="meta.media.0.codec.rotate">0</property>
    <property name="meta.media.0.codec.pix_fmt">yuv420p</property>
    <property name="meta.media.0.codec.sample_aspect_ratio">1</property>
    <property name="meta.media.0.codec.colorspace">709</property>
    <property name="meta.media.0.codec.color_trc">1</property>
    <property name="meta.media.0.codec.name">h264</property>
    <property name="meta.media.0.codec.long_name">H.264 / AVC / MPEG-4 AVC / MPEG-4 part 10</property>
    <property name="meta.media.0.codec.bit_rate">0</property>
    <property name="meta.attr.0.stream.DURATION.markup">00:13:37.067000000</property>
    <property name="meta.media.1.stream.type">audio</property>
    <property name="meta.media.1.codec.sample_fmt">fltp</property>
    <property name="meta.media.1.codec.sample_rate">48000</property>
    <property name="meta.media.1.codec.channels">2</property>
    <property name="meta.media.1.codec.layout">stereo</property>
    <property name="meta.media.1.codec.name">aac</property>
    <property name="meta.media.1.codec.long_name">AAC (Advanced Audio Coding)</property>
    <property name="meta.media.1.codec.bit_rate">0</property>
    <property name="meta.attr.1.stream.title.markup">simple_aac_recording0</property>
    <property name="meta.attr.1.stream.DURATION.markup">00:13:37.024000000</property>
    <property name="meta.attr.ENCODER.markup">Lavf58.76.100</property>
    <property name="seekable">1</property>
    <property name="meta.media.sample_aspect_num">1</property>
    <property name="meta.media.sample_aspect_den">1</property>
    <property name="audio_index">1</property>
    <property name="video_index">0</property>
    <property name="creation_time">2025-01-22T18:39:18</property>
    <property name="vstream">0</property>
    <property name="meta.media.frame_rate_num">60</property>
    <property name="meta.media.frame_rate_den">1</property>
    <property name="meta.media.colorspace">709</property>
    <property name="meta.media.color_trc">1</property>
    <property name="meta.media.has_b_frames">2</property>
    <property name="meta.media.width">1920</property>
    <property name="meta.media.height">1080</property>
    <property name="meta.media.aspect_ratio">1</property>
    <property name="meta.media.color_range">mpeg</property>
    <property name="astream">0</property>
    <property name="shotcut:skipConvert">0</property>
    <property name="meta.media.top_field_first">0</property>
    <property name="meta.media.progressive">1</property>
    <property name="shotcut:hash">0dda151104fc82f4b6e1c7b39f4ba3a1</property>
    <property name="ignore_points">0</property>
    <property name="shotcut:caption">2025-01-22 15-25-41.mkv</property>
    <property name="xml">was here</property>
  </chain>
  <chain id="chain32" out="00:13:37.050">
    <property name="length">00:13:37.067</property>
    <property name="eof">pause</property>
    <property name="resource">/home/alt/Vídeos/2025-01-22 15-25-41.mkv</property>
    <property name="mlt_service">avformat-novalidate</property>
    <property name="meta.media.nb_streams">2</property>
    <property name="meta.media.0.stream.type">video</property>
    <property name="meta.media.0.stream.frame_rate">60</property>
    <property name="meta.media.0.stream.sample_aspect_ratio">0</property>
    <property name="meta.media.0.codec.width">1920</property>
    <property name="meta.media.0.codec.height">1080</property>
    <property name="meta.media.0.codec.rotate">0</property>
    <property name="meta.media.0.codec.pix_fmt">yuv420p</property>
    <property name="meta.media.0.codec.sample_aspect_ratio">1</property>
    <property name="meta.media.0.codec.colorspace">709</property>
    <property name="meta.media.0.codec.color_trc">1</property>
    <property name="meta.media.0.codec.name">h264</property>
    <property name="meta.media.0.codec.long_name">H.264 / AVC / MPEG-4 AVC / MPEG-4 part 10</property>
    <property name="meta.media.0.codec.bit_rate">0</property>
    <property name="meta.attr.0.stream.DURATION.markup">00:13:37.067000000</property>
    <property name="meta.media.1.stream.type">audio</property>
    <property name="meta.media.1.codec.sample_fmt">fltp</property>
    <property name="meta.media.1.codec.sample_rate">48000</property>
    <property name="meta.media.1.codec.channels">2</property>
    <property name="meta.media.1.codec.layout">stereo</property>
    <property name="meta.media.1.codec.name">aac</property>
    <property name="meta.media.1.codec.long_name">AAC (Advanced Audio Coding)</property>
    <property name="meta.media.1.codec.bit_rate">0</property>
    <property name="meta.attr.1.stream.title.markup">simple_aac_recording0</property>
    <property name="meta.attr.1.stream.DURATION.markup">00:13:37.024000000</property>
    <property name="meta.attr.ENCODER.markup">Lavf58.76.100</property>
    <property name="seekable">1</property>
    <property name="meta.media.sample_aspect_num">1</property>
    <property name="meta.media.sample_aspect_den">1</property>
    <property name="audio_index">1</property>
    <property name="video_index">0</property>
    <property name="creation_time">2025-01-22T18:39:18</property>
    <property name="vstream">0</property>
    <property name="meta.media.frame_rate_num">60</property>
    <property name="meta.media.frame_rate_den">1</property>
    <property name="meta.media.colorspace">709</property>
    <property name="meta.media.color_trc">1</property>
    <property name="meta.media.has_b_frames">2</property>
    <property name="meta.media.width">1920</property>
    <property name="meta.media.height">1080</property>
    <property name="meta.media.aspect_ratio">1</property>
    <property name="meta.media.color_range">mpeg</property>
    <property name="astream">0</property>
    <property name="shotcut:skipConvert">0</property>
    <property name="meta.media.top_field_first">0</property>
    <property name="meta.media.progressive">1</property>
    <property name="shotcut:hash">0dda151104fc82f4b6e1c7b39f4ba3a1</property>
    <property name="ignore_points">0</property>
    <property name="shotcut:caption">2025-01-22 15-25-41.mkv</property>
    <property name="xml">was here</property>
  </chain>
  <chain id="chain33" out="00:13:37.050">
    <property name="length">00:13:37.067</property>
    <property name="eof">pause</property>
    <property name="resource">/home/alt/Vídeos/2025-01-22 15-25-41.mkv</property>
    <property name="mlt_service">avformat-novalidate</property>
    <property name="meta.media.nb_streams">2</property>
    <property name="meta.media.0.stream.type">video</property>
    <property name="meta.media.0.stream.frame_rate">60</property>
    <property name="meta.media.0.stream.sample_aspect_ratio">0</property>
    <property name="meta.media.0.codec.width">1920</property>
    <property name="meta.media.0.codec.height">1080</property>
    <property name="meta.media.0.codec.rotate">0</property>
    <property name="meta.media.0.codec.pix_fmt">yuv420p</property>
    <property name="meta.media.0.codec.sample_aspect_ratio">1</property>
    <property name="meta.media.0.codec.colorspace">709</property>
    <property name="meta.media.0.codec.color_trc">1</property>
    <property name="meta.media.0.codec.name">h264</property>
    <property name="meta.media.0.codec.long_name">H.264 / AVC / MPEG-4 AVC / MPEG-4 part 10</property>
    <property name="meta.media.0.codec.bit_rate">0</property>
    <property name="meta.attr.0.stream.DURATION.markup">00:13:37.067000000</property>
    <property name="meta.media.1.stream.type">audio</property>
    <property name="meta.media.1.codec.sample_fmt">fltp</property>
    <property name="meta.media.1.codec.sample_rate">48000</property>
    <property name="meta.media.1.codec.channels">2</property>
    <property name="meta.media.1.codec.layout">stereo</property>
    <property name="meta.media.1.codec.name">aac</property>
    <property name="meta.media.1.codec.long_name">AAC (Advanced Audio Coding)</property>
    <property name="meta.media.1.codec.bit_rate">0</property>
    <property name="meta.attr.1.stream.title.markup">simple_aac_recording0</property>
    <property name="meta.attr.1.stream.DURATION.markup">00:13:37.024000000</property>
    <property name="meta.attr.ENCODER.markup">Lavf58.76.100</property>
    <property name="seekable">1</property>
    <property name="meta.media.sample_aspect_num">1</property>
    <property name="meta.media.sample_aspect_den">1</property>
    <property name="audio_index">1</property>
    <property name="video_index">0</property>
    <property name="creation_time">2025-01-22T18:39:18</property>
    <property name="vstream">0</property>
    <property name="meta.media.frame_rate_num">60</property>
    <property name="meta.media.frame_rate_den">1</property>
    <property name="meta.media.colorspace">709</property>
    <property name="meta.media.color_trc">1</property>
    <property name="meta.media.has_b_frames">2</property>
    <property name="meta.media.width">1920</property>
    <property name="meta.media.height">1080</property>
    <property name="meta.media.aspect_ratio">1</property>
    <property name="meta.media.color_range">mpeg</property>
    <property name="astream">0</property>
    <property name="shotcut:skipConvert">0</property>
    <property name="meta.media.top_field_first">0</property>
    <property name="meta.media.progressive">1</property>
    <property name="shotcut:hash">0dda151104fc82f4b6e1c7b39f4ba3a1</property>
    <property name="ignore_points">0</property>
    <property name="shotcut:caption">2025-01-22 15-25-41.mkv</property>
    <property name="xml">was here</property>
  </chain>
  <chain id="chain34" out="00:13:37.050">
    <property name="length">00:13:37.067</property>
    <property name="eof">pause</property>
    <property name="resource">/home/alt/Vídeos/2025-01-22 15-25-41.mkv</property>
    <property name="mlt_service">avformat-novalidate</property>
    <property name="meta.media.nb_streams">2</property>
    <property name="meta.media.0.stream.type">video</property>
    <property name="meta.media.0.stream.frame_rate">60</property>
    <property name="meta.media.0.stream.sample_aspect_ratio">0</property>
    <property name="meta.media.0.codec.width">1920</property>
    <property name="meta.media.0.codec.height">1080</property>
    <property name="meta.media.0.codec.rotate">0</property>
    <property name="meta.media.0.codec.pix_fmt">yuv420p</property>
    <property name="meta.media.0.codec.sample_aspect_ratio">1</property>
    <property name="meta.media.0.codec.colorspace">709</property>
    <property name="meta.media.0.codec.color_trc">1</property>
    <property name="meta.media.0.codec.name">h264</property>
    <property name="meta.media.0.codec.long_name">H.264 / AVC / MPEG-4 AVC / MPEG-4 part 10</property>
    <property name="meta.media.0.codec.bit_rate">0</property>
    <property name="meta.attr.0.stream.DURATION.markup">00:13:37.067000000</property>
    <property name="meta.media.1.stream.type">audio</property>
    <property name="meta.media.1.codec.sample_fmt">fltp</property>
    <property name="meta.media.1.codec.sample_rate">48000</property>
    <property name="meta.media.1.codec.channels">2</property>
    <property name="meta.media.1.codec.layout">stereo</property>
    <property name="meta.media.1.codec.name">aac</property>
    <property name="meta.media.1.codec.long_name">AAC (Advanced Audio Coding)</property>
    <property name="meta.media.1.codec.bit_rate">0</property>
    <property name="meta.attr.1.stream.title.markup">simple_aac_recording0</property>
    <property name="meta.attr.1.stream.DURATION.markup">00:13:37.024000000</property>
    <property name="meta.attr.ENCODER.markup">Lavf58.76.100</property>
    <property name="seekable">1</property>
    <property name="meta.media.sample_aspect_num">1</property>
    <property name="meta.media.sample_aspect_den">1</property>
    <property name="audio_index">1</property>
    <property name="video_index">0</property>
    <property name="creation_time">2025-01-22T18:39:18</property>
    <property name="vstream">0</property>
    <property name="meta.media.frame_rate_num">60</property>
    <property name="meta.media.frame_rate_den">1</property>
    <property name="meta.media.colorspace">709</property>
    <property name="meta.media.color_trc">1</property>
    <property name="meta.media.has_b_frames">2</property>
    <property name="meta.media.width">1920</property>
    <property name="meta.media.height">1080</property>
    <property name="meta.media.aspect_ratio">1</property>
    <property name="meta.media.color_range">mpeg</property>
    <property name="astream">0</property>
    <property name="shotcut:skipConvert">0</property>
    <property name="meta.media.top_field_first">0</property>
    <property name="meta.media.progressive">1</property>
    <property name="shotcut:hash">0dda151104fc82f4b6e1c7b39f4ba3a1</property>
    <property name="ignore_points">0</property>
    <property name="shotcut:caption">2025-01-22 15-25-41.mkv</property>
    <property name="xml">was here</property>
  </chain>
  <chain id="chain35" out="00:13:37.050">
    <property name="length">00:13:37.067</property>
    <property name="eof">pause</property>
    <property name="resource">/home/alt/Vídeos/2025-01-22 15-25-41.mkv</property>
    <property name="mlt_service">avformat-novalidate</property>
    <property name="meta.media.nb_streams">2</property>
    <property name="meta.media.0.stream.type">video</property>
    <property name="meta.media.0.stream.frame_rate">60</property>
    <property name="meta.media.0.stream.sample_aspect_ratio">0</property>
    <property name="meta.media.0.codec.width">1920</property>
    <property name="meta.media.0.codec.height">1080</property>
    <property name="meta.media.0.codec.rotate">0</property>
    <property name="meta.media.0.codec.pix_fmt">yuv420p</property>
    <property name="meta.media.0.codec.sample_aspect_ratio">1</property>
    <property name="meta.media.0.codec.colorspace">709</property>
    <property name="meta.media.0.codec.color_trc">1</property>
    <property name="meta.media.0.codec.name">h264</property>
    <property name="meta.media.0.codec.long_name">H.264 / AVC / MPEG-4 AVC / MPEG-4 part 10</property>
    <property name="meta.media.0.codec.bit_rate">0</property>
    <property name="meta.attr.0.stream.DURATION.markup">00:13:37.067000000</property>
    <property name="meta.media.1.stream.type">audio</property>
    <property name="meta.media.1.codec.sample_fmt">fltp</property>
    <property name="meta.media.1.codec.sample_rate">48000</property>
    <property name="meta.media.1.codec.channels">2</property>
    <property name="meta.media.1.codec.layout">stereo</property>
    <property name="meta.media.1.codec.name">aac</property>
    <property name="meta.media.1.codec.long_name">AAC (Advanced Audio Coding)</property>
    <property name="meta.media.1.codec.bit_rate">0</property>
    <property name="meta.attr.1.stream.title.markup">simple_aac_recording0</property>
    <property name="meta.attr.1.stream.DURATION.markup">00:13:37.024000000</property>
    <property name="meta.attr.ENCODER.markup">Lavf58.76.100</property>
    <property name="seekable">1</property>
    <property name="meta.media.sample_aspect_num">1</property>
    <property name="meta.media.sample_aspect_den">1</property>
    <property name="audio_index">1</property>
    <property name="video_index">0</property>
    <property name="creation_time">2025-01-22T18:39:18</property>
    <property name="vstream">0</property>
    <property name="meta.media.frame_rate_num">60</property>
    <property name="meta.media.frame_rate_den">1</property>
    <property name="meta.media.colorspace">709</property>
    <property name="meta.media.color_trc">1</property>
    <property name="meta.media.has_b_frames">2</property>
    <property name="meta.media.width">1920</property>
    <property name="meta.media.height">1080</property>
    <property name="meta.media.aspect_ratio">1</property>
    <property name="meta.media.color_range">mpeg</property>
    <property name="astream">0</property>
    <property name="shotcut:skipConvert">0</property>
    <property name="meta.media.top_field_first">0</property>
    <property name="meta.media.progressive">1</property>
    <property name="shotcut:hash">0dda151104fc82f4b6e1c7b39f4ba3a1</property>
    <property name="ignore_points">0</property>
    <property name="shotcut:caption">2025-01-22 15-25-41.mkv</property>
    <property name="xml">was here</property>
  </chain>
  <chain id="chain36" out="00:38:30.800">
    <property name="length">00:38:30.817</property>
    <property name="eof">pause</property>
    <property name="resource">/home/alt/Vídeos/2025-02-04 11-32-42.mkv</property>
    <property name="mlt_service">avformat-novalidate</property>
    <property name="meta.media.nb_streams">2</property>
    <property name="meta.media.0.stream.type">video</property>
    <property name="meta.media.0.stream.frame_rate">60</property>
    <property name="meta.media.0.stream.sample_aspect_ratio">0</property>
    <property name="meta.media.0.codec.width">1920</property>
    <property name="meta.media.0.codec.height">1080</property>
    <property name="meta.media.0.codec.rotate">0</property>
    <property name="meta.media.0.codec.pix_fmt">yuv420p</property>
    <property name="meta.media.0.codec.sample_aspect_ratio">1</property>
    <property name="meta.media.0.codec.colorspace">709</property>
    <property name="meta.media.0.codec.color_trc">1</property>
    <property name="meta.media.0.codec.name">h264</property>
    <property name="meta.media.0.codec.long_name">H.264 / AVC / MPEG-4 AVC / MPEG-4 part 10</property>
    <property name="meta.media.0.codec.bit_rate">0</property>
    <property name="meta.attr.0.stream.DURATION.markup">00:38:30.817000000</property>
    <property name="meta.media.1.stream.type">audio</property>
    <property name="meta.media.1.codec.sample_fmt">fltp</property>
    <property name="meta.media.1.codec.sample_rate">48000</property>
    <property name="meta.media.1.codec.channels">2</property>
    <property name="meta.media.1.codec.layout">stereo</property>
    <property name="meta.media.1.codec.name">aac</property>
    <property name="meta.media.1.codec.long_name">AAC (Advanced Audio Coding)</property>
    <property name="meta.media.1.codec.bit_rate">0</property>
    <property name="meta.attr.1.stream.title.markup">simple_aac_recording0</property>
    <property name="meta.attr.1.stream.DURATION.markup">00:38:30.784000000</property>
    <property name="meta.attr.ENCODER.markup">Lavf58.76.100</property>
    <property name="seekable">1</property>
    <property name="meta.media.sample_aspect_num">1</property>
    <property name="meta.media.sample_aspect_den">1</property>
    <property name="audio_index">1</property>
    <property name="video_index">0</property>
    <property name="creation_time">2025-02-04T15:13:41</property>
    <property name="vstream">0</property>
    <property name="meta.media.frame_rate_num">60</property>
    <property name="meta.media.frame_rate_den">1</property>
    <property name="meta.media.colorspace">709</property>
    <property name="meta.media.color_trc">1</property>
    <property name="meta.media.has_b_frames">2</property>
    <property name="meta.media.width">1920</property>
    <property name="meta.media.height">1080</property>
    <property name="meta.media.aspect_ratio">1</property>
    <property name="meta.media.color_range">mpeg</property>
    <property name="astream">0</property>
    <property name="shotcut:skipConvert">0</property>
    <property name="meta.media.top_field_first">0</property>
    <property name="meta.media.progressive">1</property>
    <property name="shotcut:hash">9ed2ab5ca14ff3f32da6061feeb032a5</property>
    <property name="ignore_points">0</property>
    <property name="shotcut:caption">2025-02-04 11-32-42.mkv</property>
    <property name="xml">was here</property>
  </chain>
  <chain id="chain37" out="00:38:30.800">
    <property name="length">00:38:30.817</property>
    <property name="eof">pause</property>
    <property name="resource">/home/alt/Vídeos/2025-02-04 11-32-42.mkv</property>
    <property name="mlt_service">avformat-novalidate</property>
    <property name="meta.media.nb_streams">2</property>
    <property name="meta.media.0.stream.type">video</property>
    <property name="meta.media.0.stream.frame_rate">60</property>
    <property name="meta.media.0.stream.sample_aspect_ratio">0</property>
    <property name="meta.media.0.codec.width">1920</property>
    <property name="meta.media.0.codec.height">1080</property>
    <property name="meta.media.0.codec.rotate">0</property>
    <property name="meta.media.0.codec.pix_fmt">yuv420p</property>
    <property name="meta.media.0.codec.sample_aspect_ratio">1</property>
    <property name="meta.media.0.codec.colorspace">709</property>
    <property name="meta.media.0.codec.color_trc">1</property>
    <property name="meta.media.0.codec.name">h264</property>
    <property name="meta.media.0.codec.long_name">H.264 / AVC / MPEG-4 AVC / MPEG-4 part 10</property>
    <property name="meta.media.0.codec.bit_rate">0</property>
    <property name="meta.attr.0.stream.DURATION.markup">00:38:30.817000000</property>
    <property name="meta.media.1.stream.type">audio</property>
    <property name="meta.media.1.codec.sample_fmt">fltp</property>
    <property name="meta.media.1.codec.sample_rate">48000</property>
    <property name="meta.media.1.codec.channels">2</property>
    <property name="meta.media.1.codec.layout">stereo</property>
    <property name="meta.media.1.codec.name">aac</property>
    <property name="meta.media.1.codec.long_name">AAC (Advanced Audio Coding)</property>
    <property name="meta.media.1.codec.bit_rate">0</property>
    <property name="meta.attr.1.stream.title.markup">simple_aac_recording0</property>
    <property name="meta.attr.1.stream.DURATION.markup">00:38:30.784000000</property>
    <property name="meta.attr.ENCODER.markup">Lavf58.76.100</property>
    <property name="seekable">1</property>
    <property name="meta.media.sample_aspect_num">1</property>
    <property name="meta.media.sample_aspect_den">1</property>
    <property name="audio_index">1</property>
    <property name="video_index">0</property>
    <property name="creation_time">2025-02-04T15:13:41</property>
    <property name="vstream">0</property>
    <property name="meta.media.frame_rate_num">60</property>
    <property name="meta.media.frame_rate_den">1</property>
    <property name="meta.media.colorspace">709</property>
    <property name="meta.media.color_trc">1</property>
    <property name="meta.media.has_b_frames">2</property>
    <property name="meta.media.width">1920</property>
    <property name="meta.media.height">1080</property>
    <property name="meta.media.aspect_ratio">1</property>
    <property name="meta.media.color_range">mpeg</property>
    <property name="astream">0</property>
    <property name="shotcut:skipConvert">0</property>
    <property name="meta.media.top_field_first">0</property>
    <property name="meta.media.progressive">1</property>
    <property name="shotcut:hash">9ed2ab5ca14ff3f32da6061feeb032a5</property>
    <property name="ignore_points">0</property>
    <property name="shotcut:caption">2025-02-04 11-32-42.mkv</property>
    <property name="xml">was here</property>
  </chain>
  <chain id="chain38" out="00:38:30.800">
    <property name="length">00:38:30.817</property>
    <property name="eof">pause</property>
    <property name="resource">/home/alt/Vídeos/2025-02-04 11-32-42.mkv</property>
    <property name="mlt_service">avformat-novalidate</property>
    <property name="meta.media.nb_streams">2</property>
    <property name="meta.media.0.stream.type">video</property>
    <property name="meta.media.0.stream.frame_rate">60</property>
    <property name="meta.media.0.stream.sample_aspect_ratio">0</property>
    <property name="meta.media.0.codec.width">1920</property>
    <property name="meta.media.0.codec.height">1080</property>
    <property name="meta.media.0.codec.rotate">0</property>
    <property name="meta.media.0.codec.pix_fmt">yuv420p</property>
    <property name="meta.media.0.codec.sample_aspect_ratio">1</property>
    <property name="meta.media.0.codec.colorspace">709</property>
    <property name="meta.media.0.codec.color_trc">1</property>
    <property name="meta.media.0.codec.name">h264</property>
    <property name="meta.media.0.codec.long_name">H.264 / AVC / MPEG-4 AVC / MPEG-4 part 10</property>
    <property name="meta.media.0.codec.bit_rate">0</property>
    <property name="meta.attr.0.stream.DURATION.markup">00:38:30.817000000</property>
    <property name="meta.media.1.stream.type">audio</property>
    <property name="meta.media.1.codec.sample_fmt">fltp</property>
    <property name="meta.media.1.codec.sample_rate">48000</property>
    <property name="meta.media.1.codec.channels">2</property>
    <property name="meta.media.1.codec.layout">stereo</property>
    <property name="meta.media.1.codec.name">aac</property>
    <property name="meta.media.1.codec.long_name">AAC (Advanced Audio Coding)</property>
    <property name="meta.media.1.codec.bit_rate">0</property>
    <property name="meta.attr.1.stream.title.markup">simple_aac_recording0</property>
    <property name="meta.attr.1.stream.DURATION.markup">00:38:30.784000000</property>
    <property name="meta.attr.ENCODER.markup">Lavf58.76.100</property>
    <property name="seekable">1</property>
    <property name="meta.media.sample_aspect_num">1</property>
    <property name="meta.media.sample_aspect_den">1</property>
    <property name="audio_index">1</property>
    <property name="video_index">0</property>
    <property name="creation_time">2025-02-04T15:13:41</property>
    <property name="vstream">0</property>
    <property name="meta.media.frame_rate_num">60</property>
    <property name="meta.media.frame_rate_den">1</property>
    <property name="meta.media.colorspace">709</property>
    <property name="meta.media.color_trc">1</property>
    <property name="meta.media.has_b_frames">2</property>
    <property name="meta.media.width">1920</property>
    <property name="meta.media.height">1080</property>
    <property name="meta.media.aspect_ratio">1</property>
    <property name="meta.media.color_range">mpeg</property>
    <property name="astream">0</property>
    <property name="shotcut:skipConvert">0</property>
    <property name="meta.media.top_field_first">0</property>
    <property name="meta.media.progressive">1</property>
    <property name="shotcut:hash">9ed2ab5ca14ff3f32da6061feeb032a5</property>
    <property name="ignore_points">0</property>
    <property name="shotcut:caption">2025-02-04 11-32-42.mkv</property>
    <property name="xml">was here</property>
  </chain>
  <chain id="chain39" out="00:38:30.800">
    <property name="length">00:38:30.817</property>
    <property name="eof">pause</property>
    <property name="resource">/home/alt/Vídeos/2025-02-04 11-32-42.mkv</property>
    <property name="mlt_service">avformat-novalidate</property>
    <property name="meta.media.nb_streams">2</property>
    <property name="meta.media.0.stream.type">video</property>
    <property name="meta.media.0.stream.frame_rate">60</property>
    <property name="meta.media.0.stream.sample_aspect_ratio">0</property>
    <property name="meta.media.0.codec.width">1920</property>
    <property name="meta.media.0.codec.height">1080</property>
    <property name="meta.media.0.codec.rotate">0</property>
    <property name="meta.media.0.codec.pix_fmt">yuv420p</property>
    <property name="meta.media.0.codec.sample_aspect_ratio">1</property>
    <property name="meta.media.0.codec.colorspace">709</property>
    <property name="meta.media.0.codec.color_trc">1</property>
    <property name="meta.media.0.codec.name">h264</property>
    <property name="meta.media.0.codec.long_name">H.264 / AVC / MPEG-4 AVC / MPEG-4 part 10</property>
    <property name="meta.media.0.codec.bit_rate">0</property>
    <property name="meta.attr.0.stream.DURATION.markup">00:38:30.817000000</property>
    <property name="meta.media.1.stream.type">audio</property>
    <property name="meta.media.1.codec.sample_fmt">fltp</property>
    <property name="meta.media.1.codec.sample_rate">48000</property>
    <property name="meta.media.1.codec.channels">2</property>
    <property name="meta.media.1.codec.layout">stereo</property>
    <property name="meta.media.1.codec.name">aac</property>
    <property name="meta.media.1.codec.long_name">AAC (Advanced Audio Coding)</property>
    <property name="meta.media.1.codec.bit_rate">0</property>
    <property name="meta.attr.1.stream.title.markup">simple_aac_recording0</property>
    <property name="meta.attr.1.stream.DURATION.markup">00:38:30.784000000</property>
    <property name="meta.attr.ENCODER.markup">Lavf58.76.100</property>
    <property name="seekable">1</property>
    <property name="meta.media.sample_aspect_num">1</property>
    <property name="meta.media.sample_aspect_den">1</property>
    <property name="audio_index">1</property>
    <property name="video_index">0</property>
    <property name="creation_time">2025-02-04T15:13:41</property>
    <property name="vstream">0</property>
    <property name="meta.media.frame_rate_num">60</property>
    <property name="meta.media.frame_rate_den">1</property>
    <property name="meta.media.colorspace">709</property>
    <property name="meta.media.color_trc">1</property>
    <property name="meta.media.has_b_frames">2</property>
    <property name="meta.media.width">1920</property>
    <property name="meta.media.height">1080</property>
    <property name="meta.media.aspect_ratio">1</property>
    <property name="meta.media.color_range">mpeg</property>
    <property name="astream">0</property>
    <property name="shotcut:skipConvert">0</property>
    <property name="meta.media.top_field_first">0</property>
    <property name="meta.media.progressive">1</property>
    <property name="shotcut:hash">9ed2ab5ca14ff3f32da6061feeb032a5</property>
    <property name="ignore_points">0</property>
    <property name="shotcut:caption">2025-02-04 11-32-42.mkv</property>
    <property name="xml">was here</property>
  </chain>
  <chain id="chain40" out="00:38:30.800">
    <property name="length">00:38:30.817</property>
    <property name="eof">pause</property>
    <property name="resource">/home/alt/Vídeos/2025-02-04 11-32-42.mkv</property>
    <property name="mlt_service">avformat-novalidate</property>
    <property name="meta.media.nb_streams">2</property>
    <property name="meta.media.0.stream.type">video</property>
    <property name="meta.media.0.stream.frame_rate">60</property>
    <property name="meta.media.0.stream.sample_aspect_ratio">0</property>
    <property name="meta.media.0.codec.width">1920</property>
    <property name="meta.media.0.codec.height">1080</property>
    <property name="meta.media.0.codec.rotate">0</property>
    <property name="meta.media.0.codec.pix_fmt">yuv420p</property>
    <property name="meta.media.0.codec.sample_aspect_ratio">1</property>
    <property name="meta.media.0.codec.colorspace">709</property>
    <property name="meta.media.0.codec.color_trc">1</property>
    <property name="meta.media.0.codec.name">h264</property>
    <property name="meta.media.0.codec.long_name">H.264 / AVC / MPEG-4 AVC / MPEG-4 part 10</property>
    <property name="meta.media.0.codec.bit_rate">0</property>
    <property name="meta.attr.0.stream.DURATION.markup">00:38:30.817000000</property>
    <property name="meta.media.1.stream.type">audio</property>
    <property name="meta.media.1.codec.sample_fmt">fltp</property>
    <property name="meta.media.1.codec.sample_rate">48000</property>
    <property name="meta.media.1.codec.channels">2</property>
    <property name="meta.media.1.codec.layout">stereo</property>
    <property name="meta.media.1.codec.name">aac</property>
    <property name="meta.media.1.codec.long_name">AAC (Advanced Audio Coding)</property>
    <property name="meta.media.1.codec.bit_rate">0</property>
    <property name="meta.attr.1.stream.title.markup">simple_aac_recording0</property>
    <property name="meta.attr.1.stream.DURATION.markup">00:38:30.784000000</property>
    <property name="meta.attr.ENCODER.markup">Lavf58.76.100</property>
    <property name="seekable">1</property>
    <property name="meta.media.sample_aspect_num">1</property>
    <property name="meta.media.sample_aspect_den">1</property>
    <property name="audio_index">1</property>
    <property name="video_index">0</property>
    <property name="creation_time">2025-02-04T15:13:41</property>
    <property name="vstream">0</property>
    <property name="meta.media.frame_rate_num">60</property>
    <property name="meta.media.frame_rate_den">1</property>
    <property name="meta.media.colorspace">709</property>
    <property name="meta.media.color_trc">1</property>
    <property name="meta.media.has_b_frames">2</property>
    <property name="meta.media.width">1920</property>
    <property name="meta.media.height">1080</property>
    <property name="meta.media.aspect_ratio">1</property>
    <property name="meta.media.color_range">mpeg</property>
    <property name="astream">0</property>
    <property name="shotcut:skipConvert">0</property>
    <property name="meta.media.top_field_first">0</property>
    <property name="meta.media.progressive">1</property>
    <property name="shotcut:hash">9ed2ab5ca14ff3f32da6061feeb032a5</property>
    <property name="ignore_points">0</property>
    <property name="shotcut:caption">2025-02-04 11-32-42.mkv</property>
    <property name="xml">was here</property>
  </chain>
  <chain id="chain41" out="00:38:30.800">
    <property name="length">00:38:30.817</property>
    <property name="eof">pause</property>
    <property name="resource">/home/alt/Vídeos/2025-02-04 11-32-42.mkv</property>
    <property name="mlt_service">avformat-novalidate</property>
    <property name="meta.media.nb_streams">2</property>
    <property name="meta.media.0.stream.type">video</property>
    <property name="meta.media.0.stream.frame_rate">60</property>
    <property name="meta.media.0.stream.sample_aspect_ratio">0</property>
    <property name="meta.media.0.codec.width">1920</property>
    <property name="meta.media.0.codec.height">1080</property>
    <property name="meta.media.0.codec.rotate">0</property>
    <property name="meta.media.0.codec.pix_fmt">yuv420p</property>
    <property name="meta.media.0.codec.sample_aspect_ratio">1</property>
    <property name="meta.media.0.codec.colorspace">709</property>
    <property name="meta.media.0.codec.color_trc">1</property>
    <property name="meta.media.0.codec.name">h264</property>
    <property name="meta.media.0.codec.long_name">H.264 / AVC / MPEG-4 AVC / MPEG-4 part 10</property>
    <property name="meta.media.0.codec.bit_rate">0</property>
    <property name="meta.attr.0.stream.DURATION.markup">00:38:30.817000000</property>
    <property name="meta.media.1.stream.type">audio</property>
    <property name="meta.media.1.codec.sample_fmt">fltp</property>
    <property name="meta.media.1.codec.sample_rate">48000</property>
    <property name="meta.media.1.codec.channels">2</property>
    <property name="meta.media.1.codec.layout">stereo</property>
    <property name="meta.media.1.codec.name">aac</property>
    <property name="meta.media.1.codec.long_name">AAC (Advanced Audio Coding)</property>
    <property name="meta.media.1.codec.bit_rate">0</property>
    <property name="meta.attr.1.stream.title.markup">simple_aac_recording0</property>
    <property name="meta.attr.1.stream.DURATION.markup">00:38:30.784000000</property>
    <property name="meta.attr.ENCODER.markup">Lavf58.76.100</property>
    <property name="seekable">1</property>
    <property name="meta.media.sample_aspect_num">1</property>
    <property name="meta.media.sample_aspect_den">1</property>
    <property name="audio_index">1</property>
    <property name="video_index">0</property>
    <property name="creation_time">2025-02-04T15:13:41</property>
    <property name="vstream">0</property>
    <property name="meta.media.frame_rate_num">60</property>
    <property name="meta.media.frame_rate_den">1</property>
    <property name="meta.media.colorspace">709</property>
    <property name="meta.media.color_trc">1</property>
    <property name="meta.media.has_b_frames">2</property>
    <property name="meta.media.width">1920</property>
    <property name="meta.media.height">1080</property>
    <property name="meta.media.aspect_ratio">1</property>
    <property name="meta.media.color_range">mpeg</property>
    <property name="astream">0</property>
    <property name="shotcut:skipConvert">0</property>
    <property name="meta.media.top_field_first">0</property>
    <property name="meta.media.progressive">1</property>
    <property name="shotcut:hash">9ed2ab5ca14ff3f32da6061feeb032a5</property>
    <property name="ignore_points">0</property>
    <property name="shotcut:caption">2025-02-04 11-32-42.mkv</property>
    <property name="xml">was here</property>
  </chain>
  <chain id="chain42" out="00:38:30.800">
    <property name="length">00:38:30.817</property>
    <property name="eof">pause</property>
    <property name="resource">/home/alt/Vídeos/2025-02-04 11-32-42.mkv</property>
    <property name="mlt_service">avformat-novalidate</property>
    <property name="meta.media.nb_streams">2</property>
    <property name="meta.media.0.stream.type">video</property>
    <property name="meta.media.0.stream.frame_rate">60</property>
    <property name="meta.media.0.stream.sample_aspect_ratio">0</property>
    <property name="meta.media.0.codec.width">1920</property>
    <property name="meta.media.0.codec.height">1080</property>
    <property name="meta.media.0.codec.rotate">0</property>
    <property name="meta.media.0.codec.pix_fmt">yuv420p</property>
    <property name="meta.media.0.codec.sample_aspect_ratio">1</property>
    <property name="meta.media.0.codec.colorspace">709</property>
    <property name="meta.media.0.codec.color_trc">1</property>
    <property name="meta.media.0.codec.name">h264</property>
    <property name="meta.media.0.codec.long_name">H.264 / AVC / MPEG-4 AVC / MPEG-4 part 10</property>
    <property name="meta.media.0.codec.bit_rate">0</property>
    <property name="meta.attr.0.stream.DURATION.markup">00:38:30.817000000</property>
    <property name="meta.media.1.stream.type">audio</property>
    <property name="meta.media.1.codec.sample_fmt">fltp</property>
    <property name="meta.media.1.codec.sample_rate">48000</property>
    <property name="meta.media.1.codec.channels">2</property>
    <property name="meta.media.1.codec.layout">stereo</property>
    <property name="meta.media.1.codec.name">aac</property>
    <property name="meta.media.1.codec.long_name">AAC (Advanced Audio Coding)</property>
    <property name="meta.media.1.codec.bit_rate">0</property>
    <property name="meta.attr.1.stream.title.markup">simple_aac_recording0</property>
    <property name="meta.attr.1.stream.DURATION.markup">00:38:30.784000000</property>
    <property name="meta.attr.ENCODER.markup">Lavf58.76.100</property>
    <property name="seekable">1</property>
    <property name="meta.media.sample_aspect_num">1</property>
    <property name="meta.media.sample_aspect_den">1</property>
    <property name="audio_index">1</property>
    <property name="video_index">0</property>
    <property name="creation_time">2025-02-04T15:13:41</property>
    <property name="vstream">0</property>
    <property name="meta.media.frame_rate_num">60</property>
    <property name="meta.media.frame_rate_den">1</property>
    <property name="meta.media.colorspace">709</property>
    <property name="meta.media.color_trc">1</property>
    <property name="meta.media.has_b_frames">2</property>
    <property name="meta.media.width">1920</property>
    <property name="meta.media.height">1080</property>
    <property name="meta.media.aspect_ratio">1</property>
    <property name="meta.media.color_range">mpeg</property>
    <property name="astream">0</property>
    <property name="shotcut:skipConvert">0</property>
    <property name="meta.media.top_field_first">0</property>
    <property name="meta.media.progressive">1</property>
    <property name="shotcut:hash">9ed2ab5ca14ff3f32da6061feeb032a5</property>
    <property name="ignore_points">0</property>
    <property name="shotcut:caption">2025-02-04 11-32-42.mkv</property>
    <property name="xml">was here</property>
  </chain>
  <chain id="chain43" out="00:38:30.800">
    <property name="length">00:38:30.817</property>
    <property name="eof">pause</property>
    <property name="resource">/home/alt/Vídeos/2025-02-04 11-32-42.mkv</property>
    <property name="mlt_service">avformat-novalidate</property>
    <property name="meta.media.nb_streams">2</property>
    <property name="meta.media.0.stream.type">video</property>
    <property name="meta.media.0.stream.frame_rate">60</property>
    <property name="meta.media.0.stream.sample_aspect_ratio">0</property>
    <property name="meta.media.0.codec.width">1920</property>
    <property name="meta.media.0.codec.height">1080</property>
    <property name="meta.media.0.codec.rotate">0</property>
    <property name="meta.media.0.codec.pix_fmt">yuv420p</property>
    <property name="meta.media.0.codec.sample_aspect_ratio">1</property>
    <property name="meta.media.0.codec.colorspace">709</property>
    <property name="meta.media.0.codec.color_trc">1</property>
    <property name="meta.media.0.codec.name">h264</property>
    <property name="meta.media.0.codec.long_name">H.264 / AVC / MPEG-4 AVC / MPEG-4 part 10</property>
    <property name="meta.media.0.codec.bit_rate">0</property>
    <property name="meta.attr.0.stream.DURATION.markup">00:38:30.817000000</property>
    <property name="meta.media.1.stream.type">audio</property>
    <property name="meta.media.1.codec.sample_fmt">fltp</property>
    <property name="meta.media.1.codec.sample_rate">48000</property>
    <property name="meta.media.1.codec.channels">2</property>
    <property name="meta.media.1.codec.layout">stereo</property>
    <property name="meta.media.1.codec.name">aac</property>
    <property name="meta.media.1.codec.long_name">AAC (Advanced Audio Coding)</property>
    <property name="meta.media.1.codec.bit_rate">0</property>
    <property name="meta.attr.1.stream.title.markup">simple_aac_recording0</property>
    <property name="meta.attr.1.stream.DURATION.markup">00:38:30.784000000</property>
    <property name="meta.attr.ENCODER.markup">Lavf58.76.100</property>
    <property name="seekable">1</property>
    <property name="meta.media.sample_aspect_num">1</property>
    <property name="meta.media.sample_aspect_den">1</property>
    <property name="audio_index">1</property>
    <property name="video_index">0</property>
    <property name="creation_time">2025-02-04T15:13:41</property>
    <property name="vstream">0</property>
    <property name="meta.media.frame_rate_num">60</property>
    <property name="meta.media.frame_rate_den">1</property>
    <property name="meta.media.colorspace">709</property>
    <property name="meta.media.color_trc">1</property>
    <property name="meta.media.has_b_frames">2</property>
    <property name="meta.media.width">1920</property>
    <property name="meta.media.height">1080</property>
    <property name="meta.media.aspect_ratio">1</property>
    <property name="meta.media.color_range">mpeg</property>
    <property name="astream">0</property>
    <property name="shotcut:skipConvert">0</property>
    <property name="meta.media.top_field_first">0</property>
    <property name="meta.media.progressive">1</property>
    <property name="shotcut:hash">9ed2ab5ca14ff3f32da6061feeb032a5</property>
    <property name="ignore_points">0</property>
    <property name="shotcut:caption">2025-02-04 11-32-42.mkv</property>
    <property name="xml">was here</property>
  </chain>
  <chain id="chain44" out="00:38:30.800">
    <property name="length">00:38:30.817</property>
    <property name="eof">pause</property>
    <property name="resource">/home/alt/Vídeos/2025-02-04 11-32-42.mkv</property>
    <property name="mlt_service">avformat-novalidate</property>
    <property name="meta.media.nb_streams">2</property>
    <property name="meta.media.0.stream.type">video</property>
    <property name="meta.media.0.stream.frame_rate">60</property>
    <property name="meta.media.0.stream.sample_aspect_ratio">0</property>
    <property name="meta.media.0.codec.width">1920</property>
    <property name="meta.media.0.codec.height">1080</property>
    <property name="meta.media.0.codec.rotate">0</property>
    <property name="meta.media.0.codec.pix_fmt">yuv420p</property>
    <property name="meta.media.0.codec.sample_aspect_ratio">1</property>
    <property name="meta.media.0.codec.colorspace">709</property>
    <property name="meta.media.0.codec.color_trc">1</property>
    <property name="meta.media.0.codec.name">h264</property>
    <property name="meta.media.0.codec.long_name">H.264 / AVC / MPEG-4 AVC / MPEG-4 part 10</property>
    <property name="meta.media.0.codec.bit_rate">0</property>
    <property name="meta.attr.0.stream.DURATION.markup">00:38:30.817000000</property>
    <property name="meta.media.1.stream.type">audio</property>
    <property name="meta.media.1.codec.sample_fmt">fltp</property>
    <property name="meta.media.1.codec.sample_rate">48000</property>
    <property name="meta.media.1.codec.channels">2</property>
    <property name="meta.media.1.codec.layout">stereo</property>
    <property name="meta.media.1.codec.name">aac</property>
    <property name="meta.media.1.codec.long_name">AAC (Advanced Audio Coding)</property>
    <property name="meta.media.1.codec.bit_rate">0</property>
    <property name="meta.attr.1.stream.title.markup">simple_aac_recording0</property>
    <property name="meta.attr.1.stream.DURATION.markup">00:38:30.784000000</property>
    <property name="meta.attr.ENCODER.markup">Lavf58.76.100</property>
    <property name="seekable">1</property>
    <property name="meta.media.sample_aspect_num">1</property>
    <property name="meta.media.sample_aspect_den">1</property>
    <property name="audio_index">1</property>
    <property name="video_index">0</property>
    <property name="creation_time">2025-02-04T15:13:41</property>
    <property name="vstream">0</property>
    <property name="meta.media.frame_rate_num">60</property>
    <property name="meta.media.frame_rate_den">1</property>
    <property name="meta.media.colorspace">709</property>
    <property name="meta.media.color_trc">1</property>
    <property name="meta.media.has_b_frames">2</property>
    <property name="meta.media.width">1920</property>
    <property name="meta.media.height">1080</property>
    <property name="meta.media.aspect_ratio">1</property>
    <property name="meta.media.color_range">mpeg</property>
    <property name="astream">0</property>
    <property name="shotcut:skipConvert">0</property>
    <property name="meta.media.top_field_first">0</property>
    <property name="meta.media.progressive">1</property>
    <property name="shotcut:hash">9ed2ab5ca14ff3f32da6061feeb032a5</property>
    <property name="ignore_points">0</property>
    <property name="shotcut:caption">2025-02-04 11-32-42.mkv</property>
    <property name="xml">was here</property>
  </chain>
  <chain id="chain45" out="00:38:30.800">
    <property name="length">00:38:30.817</property>
    <property name="eof">pause</property>
    <property name="resource">/home/alt/Vídeos/2025-02-04 11-32-42.mkv</property>
    <property name="mlt_service">avformat-novalidate</property>
    <property name="meta.media.nb_streams">2</property>
    <property name="meta.media.0.stream.type">video</property>
    <property name="meta.media.0.stream.frame_rate">60</property>
    <property name="meta.media.0.stream.sample_aspect_ratio">0</property>
    <property name="meta.media.0.codec.width">1920</property>
    <property name="meta.media.0.codec.height">1080</property>
    <property name="meta.media.0.codec.rotate">0</property>
    <property name="meta.media.0.codec.pix_fmt">yuv420p</property>
    <property name="meta.media.0.codec.sample_aspect_ratio">1</property>
    <property name="meta.media.0.codec.colorspace">709</property>
    <property name="meta.media.0.codec.color_trc">1</property>
    <property name="meta.media.0.codec.name">h264</property>
    <property name="meta.media.0.codec.long_name">H.264 / AVC / MPEG-4 AVC / MPEG-4 part 10</property>
    <property name="meta.media.0.codec.bit_rate">0</property>
    <property name="meta.attr.0.stream.DURATION.markup">00:38:30.817000000</property>
    <property name="meta.media.1.stream.type">audio</property>
    <property name="meta.media.1.codec.sample_fmt">fltp</property>
    <property name="meta.media.1.codec.sample_rate">48000</property>
    <property name="meta.media.1.codec.channels">2</property>
    <property name="meta.media.1.codec.layout">stereo</property>
    <property name="meta.media.1.codec.name">aac</property>
    <property name="meta.media.1.codec.long_name">AAC (Advanced Audio Coding)</property>
    <property name="meta.media.1.codec.bit_rate">0</property>
    <property name="meta.attr.1.stream.title.markup">simple_aac_recording0</property>
    <property name="meta.attr.1.stream.DURATION.markup">00:38:30.784000000</property>
    <property name="meta.attr.ENCODER.markup">Lavf58.76.100</property>
    <property name="seekable">1</property>
    <property name="meta.media.sample_aspect_num">1</property>
    <property name="meta.media.sample_aspect_den">1</property>
    <property name="audio_index">1</property>
    <property name="video_index">0</property>
    <property name="creation_time">2025-02-04T15:13:41</property>
    <property name="vstream">0</property>
    <property name="meta.media.frame_rate_num">60</property>
    <property name="meta.media.frame_rate_den">1</property>
    <property name="meta.media.colorspace">709</property>
    <property name="meta.media.color_trc">1</property>
    <property name="meta.media.has_b_frames">2</property>
    <property name="meta.media.width">1920</property>
    <property name="meta.media.height">1080</property>
    <property name="meta.media.aspect_ratio">1</property>
    <property name="meta.media.color_range">mpeg</property>
    <property name="astream">0</property>
    <property name="shotcut:skipConvert">0</property>
    <property name="meta.media.top_field_first">0</property>
    <property name="meta.media.progressive">1</property>
    <property name="shotcut:hash">9ed2ab5ca14ff3f32da6061feeb032a5</property>
    <property name="ignore_points">0</property>
    <property name="shotcut:caption">2025-02-04 11-32-42.mkv</property>
    <property name="xml">was here</property>
  </chain>
  <chain id="chain46" out="00:38:30.800">
    <property name="length">00:38:30.817</property>
    <property name="eof">pause</property>
    <property name="resource">/home/alt/Vídeos/2025-02-04 11-32-42.mkv</property>
    <property name="mlt_service">avformat-novalidate</property>
    <property name="meta.media.nb_streams">2</property>
    <property name="meta.media.0.stream.type">video</property>
    <property name="meta.media.0.stream.frame_rate">60</property>
    <property name="meta.media.0.stream.sample_aspect_ratio">0</property>
    <property name="meta.media.0.codec.width">1920</property>
    <property name="meta.media.0.codec.height">1080</property>
    <property name="meta.media.0.codec.rotate">0</property>
    <property name="meta.media.0.codec.pix_fmt">yuv420p</property>
    <property name="meta.media.0.codec.sample_aspect_ratio">1</property>
    <property name="meta.media.0.codec.colorspace">709</property>
    <property name="meta.media.0.codec.color_trc">1</property>
    <property name="meta.media.0.codec.name">h264</property>
    <property name="meta.media.0.codec.long_name">H.264 / AVC / MPEG-4 AVC / MPEG-4 part 10</property>
    <property name="meta.media.0.codec.bit_rate">0</property>
    <property name="meta.attr.0.stream.DURATION.markup">00:38:30.817000000</property>
    <property name="meta.media.1.stream.type">audio</property>
    <property name="meta.media.1.codec.sample_fmt">fltp</property>
    <property name="meta.media.1.codec.sample_rate">48000</property>
    <property name="meta.media.1.codec.channels">2</property>
    <property name="meta.media.1.codec.layout">stereo</property>
    <property name="meta.media.1.codec.name">aac</property>
    <property name="meta.media.1.codec.long_name">AAC (Advanced Audio Coding)</property>
    <property name="meta.media.1.codec.bit_rate">0</property>
    <property name="meta.attr.1.stream.title.markup">simple_aac_recording0</property>
    <property name="meta.attr.1.stream.DURATION.markup">00:38:30.784000000</property>
    <property name="meta.attr.ENCODER.markup">Lavf58.76.100</property>
    <property name="seekable">1</property>
    <property name="meta.media.sample_aspect_num">1</property>
    <property name="meta.media.sample_aspect_den">1</property>
    <property name="audio_index">1</property>
    <property name="video_index">0</property>
    <property name="creation_time">2025-02-04T15:13:41</property>
    <property name="vstream">0</property>
    <property name="meta.media.frame_rate_num">60</property>
    <property name="meta.media.frame_rate_den">1</property>
    <property name="meta.media.colorspace">709</property>
    <property name="meta.media.color_trc">1</property>
    <property name="meta.media.has_b_frames">2</property>
    <property name="meta.media.width">1920</property>
    <property name="meta.media.height">1080</property>
    <property name="meta.media.aspect_ratio">1</property>
    <property name="meta.media.color_range">mpeg</property>
    <property name="astream">0</property>
    <property name="shotcut:skipConvert">0</property>
    <property name="meta.media.top_field_first">0</property>
    <property name="meta.media.progressive">1</property>
    <property name="shotcut:hash">9ed2ab5ca14ff3f32da6061feeb032a5</property>
    <property name="ignore_points">0</property>
    <property name="shotcut:caption">2025-02-04 11-32-42.mkv</property>
    <property name="xml">was here</property>
  </chain>
  <chain id="chain47" out="00:38:30.800">
    <property name="length">00:38:30.817</property>
    <property name="eof">pause</property>
    <property name="resource">/home/alt/Vídeos/2025-02-04 11-32-42.mkv</property>
    <property name="mlt_service">avformat-novalidate</property>
    <property name="meta.media.nb_streams">2</property>
    <property name="meta.media.0.stream.type">video</property>
    <property name="meta.media.0.stream.frame_rate">60</property>
    <property name="meta.media.0.stream.sample_aspect_ratio">0</property>
    <property name="meta.media.0.codec.width">1920</property>
    <property name="meta.media.0.codec.height">1080</property>
    <property name="meta.media.0.codec.rotate">0</property>
    <property name="meta.media.0.codec.pix_fmt">yuv420p</property>
    <property name="meta.media.0.codec.sample_aspect_ratio">1</property>
    <property name="meta.media.0.codec.colorspace">709</property>
    <property name="meta.media.0.codec.color_trc">1</property>
    <property name="meta.media.0.codec.name">h264</property>
    <property name="meta.media.0.codec.long_name">H.264 / AVC / MPEG-4 AVC / MPEG-4 part 10</property>
    <property name="meta.media.0.codec.bit_rate">0</property>
    <property name="meta.attr.0.stream.DURATION.markup">00:38:30.817000000</property>
    <property name="meta.media.1.stream.type">audio</property>
    <property name="meta.media.1.codec.sample_fmt">fltp</property>
    <property name="meta.media.1.codec.sample_rate">48000</property>
    <property name="meta.media.1.codec.channels">2</property>
    <property name="meta.media.1.codec.layout">stereo</property>
    <property name="meta.media.1.codec.name">aac</property>
    <property name="meta.media.1.codec.long_name">AAC (Advanced Audio Coding)</property>
    <property name="meta.media.1.codec.bit_rate">0</property>
    <property name="meta.attr.1.stream.title.markup">simple_aac_recording0</property>
    <property name="meta.attr.1.stream.DURATION.markup">00:38:30.784000000</property>
    <property name="meta.attr.ENCODER.markup">Lavf58.76.100</property>
    <property name="seekable">1</property>
    <property name="meta.media.sample_aspect_num">1</property>
    <property name="meta.media.sample_aspect_den">1</property>
    <property name="audio_index">1</property>
    <property name="video_index">0</property>
    <property name="creation_time">2025-02-04T15:13:41</property>
    <property name="vstream">0</property>
    <property name="meta.media.frame_rate_num">60</property>
    <property name="meta.media.frame_rate_den">1</property>
    <property name="meta.media.colorspace">709</property>
    <property name="meta.media.color_trc">1</property>
    <property name="meta.media.has_b_frames">2</property>
    <property name="meta.media.width">1920</property>
    <property name="meta.media.height">1080</property>
    <property name="meta.media.aspect_ratio">1</property>
    <property name="meta.media.color_range">mpeg</property>
    <property name="astream">0</property>
    <property name="shotcut:skipConvert">0</property>
    <property name="meta.media.top_field_first">0</property>
    <property name="meta.media.progressive">1</property>
    <property name="shotcut:hash">9ed2ab5ca14ff3f32da6061feeb032a5</property>
    <property name="ignore_points">0</property>
    <property name="shotcut:caption">2025-02-04 11-32-42.mkv</property>
    <property name="xml">was here</property>
  </chain>
  <chain id="chain48" out="00:38:30.800">
    <property name="length">00:38:30.817</property>
    <property name="eof">pause</property>
    <property name="resource">/home/alt/Vídeos/2025-02-04 11-32-42.mkv</property>
    <property name="mlt_service">avformat-novalidate</property>
    <property name="meta.media.nb_streams">2</property>
    <property name="meta.media.0.stream.type">video</property>
    <property name="meta.media.0.stream.frame_rate">60</property>
    <property name="meta.media.0.stream.sample_aspect_ratio">0</property>
    <property name="meta.media.0.codec.width">1920</property>
    <property name="meta.media.0.codec.height">1080</property>
    <property name="meta.media.0.codec.rotate">0</property>
    <property name="meta.media.0.codec.pix_fmt">yuv420p</property>
    <property name="meta.media.0.codec.sample_aspect_ratio">1</property>
    <property name="meta.media.0.codec.colorspace">709</property>
    <property name="meta.media.0.codec.color_trc">1</property>
    <property name="meta.media.0.codec.name">h264</property>
    <property name="meta.media.0.codec.long_name">H.264 / AVC / MPEG-4 AVC / MPEG-4 part 10</property>
    <property name="meta.media.0.codec.bit_rate">0</property>
    <property name="meta.attr.0.stream.DURATION.markup">00:38:30.817000000</property>
    <property name="meta.media.1.stream.type">audio</property>
    <property name="meta.media.1.codec.sample_fmt">fltp</property>
    <property name="meta.media.1.codec.sample_rate">48000</property>
    <property name="meta.media.1.codec.channels">2</property>
    <property name="meta.media.1.codec.layout">stereo</property>
    <property name="meta.media.1.codec.name">aac</property>
    <property name="meta.media.1.codec.long_name">AAC (Advanced Audio Coding)</property>
    <property name="meta.media.1.codec.bit_rate">0</property>
    <property name="meta.attr.1.stream.title.markup">simple_aac_recording0</property>
    <property name="meta.attr.1.stream.DURATION.markup">00:38:30.784000000</property>
    <property name="meta.attr.ENCODER.markup">Lavf58.76.100</property>
    <property name="seekable">1</property>
    <property name="meta.media.sample_aspect_num">1</property>
    <property name="meta.media.sample_aspect_den">1</property>
    <property name="audio_index">1</property>
    <property name="video_index">0</property>
    <property name="creation_time">2025-02-04T15:13:41</property>
    <property name="vstream">0</property>
    <property name="meta.media.frame_rate_num">60</property>
    <property name="meta.media.frame_rate_den">1</property>
    <property name="meta.media.colorspace">709</property>
    <property name="meta.media.color_trc">1</property>
    <property name="meta.media.has_b_frames">2</property>
    <property name="meta.media.width">1920</property>
    <property name="meta.media.height">1080</property>
    <property name="meta.media.aspect_ratio">1</property>
    <property name="meta.media.color_range">mpeg</property>
    <property name="astream">0</property>
    <property name="shotcut:skipConvert">0</property>
    <property name="meta.media.top_field_first">0</property>
    <property name="meta.media.progressive">1</property>
    <property name="shotcut:hash">9ed2ab5ca14ff3f32da6061feeb032a5</property>
    <property name="ignore_points">0</property>
    <property name="shotcut:caption">2025-02-04 11-32-42.mkv</property>
    <property name="xml">was here</property>
  </chain>
  <chain id="chain49" out="00:38:30.800">
    <property name="length">00:38:30.817</property>
    <property name="eof">pause</property>
    <property name="resource">/home/alt/Vídeos/2025-02-04 11-32-42.mkv</property>
    <property name="mlt_service">avformat-novalidate</property>
    <property name="meta.media.nb_streams">2</property>
    <property name="meta.media.0.stream.type">video</property>
    <property name="meta.media.0.stream.frame_rate">60</property>
    <property name="meta.media.0.stream.sample_aspect_ratio">0</property>
    <property name="meta.media.0.codec.width">1920</property>
    <property name="meta.media.0.codec.height">1080</property>
    <property name="meta.media.0.codec.rotate">0</property>
    <property name="meta.media.0.codec.pix_fmt">yuv420p</property>
    <property name="meta.media.0.codec.sample_aspect_ratio">1</property>
    <property name="meta.media.0.codec.colorspace">709</property>
    <property name="meta.media.0.codec.color_trc">1</property>
    <property name="meta.media.0.codec.name">h264</property>
    <property name="meta.media.0.codec.long_name">H.264 / AVC / MPEG-4 AVC / MPEG-4 part 10</property>
    <property name="meta.media.0.codec.bit_rate">0</property>
    <property name="meta.attr.0.stream.DURATION.markup">00:38:30.817000000</property>
    <property name="meta.media.1.stream.type">audio</property>
    <property name="meta.media.1.codec.sample_fmt">fltp</property>
    <property name="meta.media.1.codec.sample_rate">48000</property>
    <property name="meta.media.1.codec.channels">2</property>
    <property name="meta.media.1.codec.layout">stereo</property>
    <property name="meta.media.1.codec.name">aac</property>
    <property name="meta.media.1.codec.long_name">AAC (Advanced Audio Coding)</property>
    <property name="meta.media.1.codec.bit_rate">0</property>
    <property name="meta.attr.1.stream.title.markup">simple_aac_recording0</property>
    <property name="meta.attr.1.stream.DURATION.markup">00:38:30.784000000</property>
    <property name="meta.attr.ENCODER.markup">Lavf58.76.100</property>
    <property name="seekable">1</property>
    <property name="meta.media.sample_aspect_num">1</property>
    <property name="meta.media.sample_aspect_den">1</property>
    <property name="audio_index">1</property>
    <property name="video_index">0</property>
    <property name="creation_time">2025-02-04T15:13:41</property>
    <property name="vstream">0</property>
    <property name="meta.media.frame_rate_num">60</property>
    <property name="meta.media.frame_rate_den">1</property>
    <property name="meta.media.colorspace">709</property>
    <property name="meta.media.color_trc">1</property>
    <property name="meta.media.has_b_frames">2</property>
    <property name="meta.media.width">1920</property>
    <property name="meta.media.height">1080</property>
    <property name="meta.media.aspect_ratio">1</property>
    <property name="meta.media.color_range">mpeg</property>
    <property name="astream">0</property>
    <property name="shotcut:skipConvert">0</property>
    <property name="meta.media.top_field_first">0</property>
    <property name="meta.media.progressive">1</property>
    <property name="shotcut:hash">9ed2ab5ca14ff3f32da6061feeb032a5</property>
    <property name="ignore_points">0</property>
    <property name="shotcut:caption">2025-02-04 11-32-42.mkv</property>
    <property name="xml">was here</property>
  </chain>
  <chain id="chain50" out="00:38:30.800">
    <property name="length">00:38:30.817</property>
    <property name="eof">pause</property>
    <property name="resource">/home/alt/Vídeos/2025-02-04 11-32-42.mkv</property>
    <property name="mlt_service">avformat-novalidate</property>
    <property name="meta.media.nb_streams">2</property>
    <property name="meta.media.0.stream.type">video</property>
    <property name="meta.media.0.stream.frame_rate">60</property>
    <property name="meta.media.0.stream.sample_aspect_ratio">0</property>
    <property name="meta.media.0.codec.width">1920</property>
    <property name="meta.media.0.codec.height">1080</property>
    <property name="meta.media.0.codec.rotate">0</property>
    <property name="meta.media.0.codec.pix_fmt">yuv420p</property>
    <property name="meta.media.0.codec.sample_aspect_ratio">1</property>
    <property name="meta.media.0.codec.colorspace">709</property>
    <property name="meta.media.0.codec.color_trc">1</property>
    <property name="meta.media.0.codec.name">h264</property>
    <property name="meta.media.0.codec.long_name">H.264 / AVC / MPEG-4 AVC / MPEG-4 part 10</property>
    <property name="meta.media.0.codec.bit_rate">0</property>
    <property name="meta.attr.0.stream.DURATION.markup">00:38:30.817000000</property>
    <property name="meta.media.1.stream.type">audio</property>
    <property name="meta.media.1.codec.sample_fmt">fltp</property>
    <property name="meta.media.1.codec.sample_rate">48000</property>
    <property name="meta.media.1.codec.channels">2</property>
    <property name="meta.media.1.codec.layout">stereo</property>
    <property name="meta.media.1.codec.name">aac</property>
    <property name="meta.media.1.codec.long_name">AAC (Advanced Audio Coding)</property>
    <property name="meta.media.1.codec.bit_rate">0</property>
    <property name="meta.attr.1.stream.title.markup">simple_aac_recording0</property>
    <property name="meta.attr.1.stream.DURATION.markup">00:38:30.784000000</property>
    <property name="meta.attr.ENCODER.markup">Lavf58.76.100</property>
    <property name="seekable">1</property>
    <property name="meta.media.sample_aspect_num">1</property>
    <property name="meta.media.sample_aspect_den">1</property>
    <property name="audio_index">1</property>
    <property name="video_index">0</property>
    <property name="creation_time">2025-02-04T15:13:41</property>
    <property name="vstream">0</property>
    <property name="meta.media.frame_rate_num">60</property>
    <property name="meta.media.frame_rate_den">1</property>
    <property name="meta.media.colorspace">709</property>
    <property name="meta.media.color_trc">1</property>
    <property name="meta.media.has_b_frames">2</property>
    <property name="meta.media.width">1920</property>
    <property name="meta.media.height">1080</property>
    <property name="meta.media.aspect_ratio">1</property>
    <property name="meta.media.color_range">mpeg</property>
    <property name="astream">0</property>
    <property name="shotcut:skipConvert">0</property>
    <property name="meta.media.top_field_first">0</property>
    <property name="meta.media.progressive">1</property>
    <property name="shotcut:hash">9ed2ab5ca14ff3f32da6061feeb032a5</property>
    <property name="ignore_points">0</property>
    <property name="shotcut:caption">2025-02-04 11-32-42.mkv</property>
    <property name="xml">was here</property>
  </chain>
  <chain id="chain51" out="00:38:30.800">
    <property name="length">00:38:30.817</property>
    <property name="eof">pause</property>
    <property name="resource">/home/alt/Vídeos/2025-02-04 11-32-42.mkv</property>
    <property name="mlt_service">avformat-novalidate</property>
    <property name="meta.media.nb_streams">2</property>
    <property name="meta.media.0.stream.type">video</property>
    <property name="meta.media.0.stream.frame_rate">60</property>
    <property name="meta.media.0.stream.sample_aspect_ratio">0</property>
    <property name="meta.media.0.codec.width">1920</property>
    <property name="meta.media.0.codec.height">1080</property>
    <property name="meta.media.0.codec.rotate">0</property>
    <property name="meta.media.0.codec.pix_fmt">yuv420p</property>
    <property name="meta.media.0.codec.sample_aspect_ratio">1</property>
    <property name="meta.media.0.codec.colorspace">709</property>
    <property name="meta.media.0.codec.color_trc">1</property>
    <property name="meta.media.0.codec.name">h264</property>
    <property name="meta.media.0.codec.long_name">H.264 / AVC / MPEG-4 AVC / MPEG-4 part 10</property>
    <property name="meta.media.0.codec.bit_rate">0</property>
    <property name="meta.attr.0.stream.DURATION.markup">00:38:30.817000000</property>
    <property name="meta.media.1.stream.type">audio</property>
    <property name="meta.media.1.codec.sample_fmt">fltp</property>
    <property name="meta.media.1.codec.sample_rate">48000</property>
    <property name="meta.media.1.codec.channels">2</property>
    <property name="meta.media.1.codec.layout">stereo</property>
    <property name="meta.media.1.codec.name">aac</property>
    <property name="meta.media.1.codec.long_name">AAC (Advanced Audio Coding)</property>
    <property name="meta.media.1.codec.bit_rate">0</property>
    <property name="meta.attr.1.stream.title.markup">simple_aac_recording0</property>
    <property name="meta.attr.1.stream.DURATION.markup">00:38:30.784000000</property>
    <property name="meta.attr.ENCODER.markup">Lavf58.76.100</property>
    <property name="seekable">1</property>
    <property name="meta.media.sample_aspect_num">1</property>
    <property name="meta.media.sample_aspect_den">1</property>
    <property name="audio_index">1</property>
    <property name="video_index">0</property>
    <property name="creation_time">2025-02-04T15:13:41</property>
    <property name="vstream">0</property>
    <property name="meta.media.frame_rate_num">60</property>
    <property name="meta.media.frame_rate_den">1</property>
    <property name="meta.media.colorspace">709</property>
    <property name="meta.media.color_trc">1</property>
    <property name="meta.media.has_b_frames">2</property>
    <property name="meta.media.width">1920</property>
    <property name="meta.media.height">1080</property>
    <property name="meta.media.aspect_ratio">1</property>
    <property name="meta.media.color_range">mpeg</property>
    <property name="astream">0</property>
    <property name="shotcut:skipConvert">0</property>
    <property name="meta.media.top_field_first">0</property>
    <property name="meta.media.progressive">1</property>
    <property name="shotcut:hash">9ed2ab5ca14ff3f32da6061feeb032a5</property>
    <property name="ignore_points">0</property>
    <property name="shotcut:caption">2025-02-04 11-32-42.mkv</property>
    <property name="xml">was here</property>
  </chain>
  <chain id="chain52" out="00:38:30.800">
    <property name="length">00:38:30.817</property>
    <property name="eof">pause</property>
    <property name="resource">/home/alt/Vídeos/2025-02-04 11-32-42.mkv</property>
    <property name="mlt_service">avformat-novalidate</property>
    <property name="meta.media.nb_streams">2</property>
    <property name="meta.media.0.stream.type">video</property>
    <property name="meta.media.0.stream.frame_rate">60</property>
    <property name="meta.media.0.stream.sample_aspect_ratio">0</property>
    <property name="meta.media.0.codec.width">1920</property>
    <property name="meta.media.0.codec.height">1080</property>
    <property name="meta.media.0.codec.rotate">0</property>
    <property name="meta.media.0.codec.pix_fmt">yuv420p</property>
    <property name="meta.media.0.codec.sample_aspect_ratio">1</property>
    <property name="meta.media.0.codec.colorspace">709</property>
    <property name="meta.media.0.codec.color_trc">1</property>
    <property name="meta.media.0.codec.name">h264</property>
    <property name="meta.media.0.codec.long_name">H.264 / AVC / MPEG-4 AVC / MPEG-4 part 10</property>
    <property name="meta.media.0.codec.bit_rate">0</property>
    <property name="meta.attr.0.stream.DURATION.markup">00:38:30.817000000</property>
    <property name="meta.media.1.stream.type">audio</property>
    <property name="meta.media.1.codec.sample_fmt">fltp</property>
    <property name="meta.media.1.codec.sample_rate">48000</property>
    <property name="meta.media.1.codec.channels">2</property>
    <property name="meta.media.1.codec.layout">stereo</property>
    <property name="meta.media.1.codec.name">aac</property>
    <property name="meta.media.1.codec.long_name">AAC (Advanced Audio Coding)</property>
    <property name="meta.media.1.codec.bit_rate">0</property>
    <property name="meta.attr.1.stream.title.markup">simple_aac_recording0</property>
    <property name="meta.attr.1.stream.DURATION.markup">00:38:30.784000000</property>
    <property name="meta.attr.ENCODER.markup">Lavf58.76.100</property>
    <property name="seekable">1</property>
    <property name="meta.media.sample_aspect_num">1</property>
    <property name="meta.media.sample_aspect_den">1</property>
    <property name="audio_index">1</property>
    <property name="video_index">0</property>
    <property name="creation_time">2025-02-04T15:13:41</property>
    <property name="vstream">0</property>
    <property name="meta.media.frame_rate_num">60</property>
    <property name="meta.media.frame_rate_den">1</property>
    <property name="meta.media.colorspace">709</property>
    <property name="meta.media.color_trc">1</property>
    <property name="meta.media.has_b_frames">2</property>
    <property name="meta.media.width">1920</property>
    <property name="meta.media.height">1080</property>
    <property name="meta.media.aspect_ratio">1</property>
    <property name="meta.media.color_range">mpeg</property>
    <property name="astream">0</property>
    <property name="shotcut:skipConvert">0</property>
    <property name="meta.media.top_field_first">0</property>
    <property name="meta.media.progressive">1</property>
    <property name="shotcut:hash">9ed2ab5ca14ff3f32da6061feeb032a5</property>
    <property name="ignore_points">0</property>
    <property name="shotcut:caption">2025-02-04 11-32-42.mkv</property>
    <property name="xml">was here</property>
  </chain>
  <chain id="chain53" out="00:38:30.800">
    <property name="length">00:38:30.817</property>
    <property name="eof">pause</property>
    <property name="resource">/home/alt/Vídeos/2025-02-04 11-32-42.mkv</property>
    <property name="mlt_service">avformat-novalidate</property>
    <property name="meta.media.nb_streams">2</property>
    <property name="meta.media.0.stream.type">video</property>
    <property name="meta.media.0.stream.frame_rate">60</property>
    <property name="meta.media.0.stream.sample_aspect_ratio">0</property>
    <property name="meta.media.0.codec.width">1920</property>
    <property name="meta.media.0.codec.height">1080</property>
    <property name="meta.media.0.codec.rotate">0</property>
    <property name="meta.media.0.codec.pix_fmt">yuv420p</property>
    <property name="meta.media.0.codec.sample_aspect_ratio">1</property>
    <property name="meta.media.0.codec.colorspace">709</property>
    <property name="meta.media.0.codec.color_trc">1</property>
    <property name="meta.media.0.codec.name">h264</property>
    <property name="meta.media.0.codec.long_name">H.264 / AVC / MPEG-4 AVC / MPEG-4 part 10</property>
    <property name="meta.media.0.codec.bit_rate">0</property>
    <property name="meta.attr.0.stream.DURATION.markup">00:38:30.817000000</property>
    <property name="meta.media.1.stream.type">audio</property>
    <property name="meta.media.1.codec.sample_fmt">fltp</property>
    <property name="meta.media.1.codec.sample_rate">48000</property>
    <property name="meta.media.1.codec.channels">2</property>
    <property name="meta.media.1.codec.layout">stereo</property>
    <property name="meta.media.1.codec.name">aac</property>
    <property name="meta.media.1.codec.long_name">AAC (Advanced Audio Coding)</property>
    <property name="meta.media.1.codec.bit_rate">0</property>
    <property name="meta.attr.1.stream.title.markup">simple_aac_recording0</property>
    <property name="meta.attr.1.stream.DURATION.markup">00:38:30.784000000</property>
    <property name="meta.attr.ENCODER.markup">Lavf58.76.100</property>
    <property name="seekable">1</property>
    <property name="meta.media.sample_aspect_num">1</property>
    <property name="meta.media.sample_aspect_den">1</property>
    <property name="audio_index">1</property>
    <property name="video_index">0</property>
    <property name="creation_time">2025-02-04T15:13:41</property>
    <property name="vstream">0</property>
    <property name="meta.media.frame_rate_num">60</property>
    <property name="meta.media.frame_rate_den">1</property>
    <property name="meta.media.colorspace">709</property>
    <property name="meta.media.color_trc">1</property>
    <property name="meta.media.has_b_frames">2</property>
    <property name="meta.media.width">1920</property>
    <property name="meta.media.height">1080</property>
    <property name="meta.media.aspect_ratio">1</property>
    <property name="meta.media.color_range">mpeg</property>
    <property name="astream">0</property>
    <property name="shotcut:skipConvert">0</property>
    <property name="meta.media.top_field_first">0</property>
    <property name="meta.media.progressive">1</property>
    <property name="shotcut:hash">9ed2ab5ca14ff3f32da6061feeb032a5</property>
    <property name="ignore_points">0</property>
    <property name="shotcut:caption">2025-02-04 11-32-42.mkv</property>
    <property name="xml">was here</property>
  </chain>
  <chain id="chain54" out="00:38:30.800">
    <property name="length">00:38:30.817</property>
    <property name="eof">pause</property>
    <property name="resource">/home/alt/Vídeos/2025-02-04 11-32-42.mkv</property>
    <property name="mlt_service">avformat-novalidate</property>
    <property name="meta.media.nb_streams">2</property>
    <property name="meta.media.0.stream.type">video</property>
    <property name="meta.media.0.stream.frame_rate">60</property>
    <property name="meta.media.0.stream.sample_aspect_ratio">0</property>
    <property name="meta.media.0.codec.width">1920</property>
    <property name="meta.media.0.codec.height">1080</property>
    <property name="meta.media.0.codec.rotate">0</property>
    <property name="meta.media.0.codec.pix_fmt">yuv420p</property>
    <property name="meta.media.0.codec.sample_aspect_ratio">1</property>
    <property name="meta.media.0.codec.colorspace">709</property>
    <property name="meta.media.0.codec.color_trc">1</property>
    <property name="meta.media.0.codec.name">h264</property>
    <property name="meta.media.0.codec.long_name">H.264 / AVC / MPEG-4 AVC / MPEG-4 part 10</property>
    <property name="meta.media.0.codec.bit_rate">0</property>
    <property name="meta.attr.0.stream.DURATION.markup">00:38:30.817000000</property>
    <property name="meta.media.1.stream.type">audio</property>
    <property name="meta.media.1.codec.sample_fmt">fltp</property>
    <property name="meta.media.1.codec.sample_rate">48000</property>
    <property name="meta.media.1.codec.channels">2</property>
    <property name="meta.media.1.codec.layout">stereo</property>
    <property name="meta.media.1.codec.name">aac</property>
    <property name="meta.media.1.codec.long_name">AAC (Advanced Audio Coding)</property>
    <property name="meta.media.1.codec.bit_rate">0</property>
    <property name="meta.attr.1.stream.title.markup">simple_aac_recording0</property>
    <property name="meta.attr.1.stream.DURATION.markup">00:38:30.784000000</property>
    <property name="meta.attr.ENCODER.markup">Lavf58.76.100</property>
    <property name="seekable">1</property>
    <property name="meta.media.sample_aspect_num">1</property>
    <property name="meta.media.sample_aspect_den">1</property>
    <property name="audio_index">1</property>
    <property name="video_index">0</property>
    <property name="creation_time">2025-02-04T15:13:41</property>
    <property name="vstream">0</property>
    <property name="meta.media.frame_rate_num">60</property>
    <property name="meta.media.frame_rate_den">1</property>
    <property name="meta.media.colorspace">709</property>
    <property name="meta.media.color_trc">1</property>
    <property name="meta.media.has_b_frames">2</property>
    <property name="meta.media.width">1920</property>
    <property name="meta.media.height">1080</property>
    <property name="meta.media.aspect_ratio">1</property>
    <property name="meta.media.color_range">mpeg</property>
    <property name="astream">0</property>
    <property name="shotcut:skipConvert">0</property>
    <property name="meta.media.top_field_first">0</property>
    <property name="meta.media.progressive">1</property>
    <property name="shotcut:hash">9ed2ab5ca14ff3f32da6061feeb032a5</property>
    <property name="ignore_points">0</property>
    <property name="shotcut:caption">2025-02-04 11-32-42.mkv</property>
    <property name="xml">was here</property>
  </chain>
  <chain id="chain55" out="00:38:30.800">
    <property name="length">00:38:30.817</property>
    <property name="eof">pause</property>
    <property name="resource">/home/alt/Vídeos/2025-02-04 11-32-42.mkv</property>
    <property name="mlt_service">avformat-novalidate</property>
    <property name="meta.media.nb_streams">2</property>
    <property name="meta.media.0.stream.type">video</property>
    <property name="meta.media.0.stream.frame_rate">60</property>
    <property name="meta.media.0.stream.sample_aspect_ratio">0</property>
    <property name="meta.media.0.codec.width">1920</property>
    <property name="meta.media.0.codec.height">1080</property>
    <property name="meta.media.0.codec.rotate">0</property>
    <property name="meta.media.0.codec.pix_fmt">yuv420p</property>
    <property name="meta.media.0.codec.sample_aspect_ratio">1</property>
    <property name="meta.media.0.codec.colorspace">709</property>
    <property name="meta.media.0.codec.color_trc">1</property>
    <property name="meta.media.0.codec.name">h264</property>
    <property name="meta.media.0.codec.long_name">H.264 / AVC / MPEG-4 AVC / MPEG-4 part 10</property>
    <property name="meta.media.0.codec.bit_rate">0</property>
    <property name="meta.attr.0.stream.DURATION.markup">00:38:30.817000000</property>
    <property name="meta.media.1.stream.type">audio</property>
    <property name="meta.media.1.codec.sample_fmt">fltp</property>
    <property name="meta.media.1.codec.sample_rate">48000</property>
    <property name="meta.media.1.codec.channels">2</property>
    <property name="meta.media.1.codec.layout">stereo</property>
    <property name="meta.media.1.codec.name">aac</property>
    <property name="meta.media.1.codec.long_name">AAC (Advanced Audio Coding)</property>
    <property name="meta.media.1.codec.bit_rate">0</property>
    <property name="meta.attr.1.stream.title.markup">simple_aac_recording0</property>
    <property name="meta.attr.1.stream.DURATION.markup">00:38:30.784000000</property>
    <property name="meta.attr.ENCODER.markup">Lavf58.76.100</property>
    <property name="seekable">1</property>
    <property name="meta.media.sample_aspect_num">1</property>
    <property name="meta.media.sample_aspect_den">1</property>
    <property name="audio_index">1</property>
    <property name="video_index">0</property>
    <property name="creation_time">2025-02-04T15:13:41</property>
    <property name="vstream">0</property>
    <property name="meta.media.frame_rate_num">60</property>
    <property name="meta.media.frame_rate_den">1</property>
    <property name="meta.media.colorspace">709</property>
    <property name="meta.media.color_trc">1</property>
    <property name="meta.media.has_b_frames">2</property>
    <property name="meta.media.width">1920</property>
    <property name="meta.media.height">1080</property>
    <property name="meta.media.aspect_ratio">1</property>
    <property name="meta.media.color_range">mpeg</property>
    <property name="astream">0</property>
    <property name="shotcut:skipConvert">0</property>
    <property name="meta.media.top_field_first">0</property>
    <property name="meta.media.progressive">1</property>
    <property name="shotcut:hash">9ed2ab5ca14ff3f32da6061feeb032a5</property>
    <property name="ignore_points">0</property>
    <property name="shotcut:caption">2025-02-04 11-32-42.mkv</property>
    <property name="xml">was here</property>
  </chain>
  <chain id="chain56" out="00:38:30.800">
    <property name="length">00:38:30.817</property>
    <property name="eof">pause</property>
    <property name="resource">/home/alt/Vídeos/2025-02-04 11-32-42.mkv</property>
    <property name="mlt_service">avformat-novalidate</property>
    <property name="meta.media.nb_streams">2</property>
    <property name="meta.media.0.stream.type">video</property>
    <property name="meta.media.0.stream.frame_rate">60</property>
    <property name="meta.media.0.stream.sample_aspect_ratio">0</property>
    <property name="meta.media.0.codec.width">1920</property>
    <property name="meta.media.0.codec.height">1080</property>
    <property name="meta.media.0.codec.rotate">0</property>
    <property name="meta.media.0.codec.pix_fmt">yuv420p</property>
    <property name="meta.media.0.codec.sample_aspect_ratio">1</property>
    <property name="meta.media.0.codec.colorspace">709</property>
    <property name="meta.media.0.codec.color_trc">1</property>
    <property name="meta.media.0.codec.name">h264</property>
    <property name="meta.media.0.codec.long_name">H.264 / AVC / MPEG-4 AVC / MPEG-4 part 10</property>
    <property name="meta.media.0.codec.bit_rate">0</property>
    <property name="meta.attr.0.stream.DURATION.markup">00:38:30.817000000</property>
    <property name="meta.media.1.stream.type">audio</property>
    <property name="meta.media.1.codec.sample_fmt">fltp</property>
    <property name="meta.media.1.codec.sample_rate">48000</property>
    <property name="meta.media.1.codec.channels">2</property>
    <property name="meta.media.1.codec.layout">stereo</property>
    <property name="meta.media.1.codec.name">aac</property>
    <property name="meta.media.1.codec.long_name">AAC (Advanced Audio Coding)</property>
    <property name="meta.media.1.codec.bit_rate">0</property>
    <property name="meta.attr.1.stream.title.markup">simple_aac_recording0</property>
    <property name="meta.attr.1.stream.DURATION.markup">00:38:30.784000000</property>
    <property name="meta.attr.ENCODER.markup">Lavf58.76.100</property>
    <property name="seekable">1</property>
    <property name="meta.media.sample_aspect_num">1</property>
    <property name="meta.media.sample_aspect_den">1</property>
    <property name="audio_index">1</property>
    <property name="video_index">0</property>
    <property name="creation_time">2025-02-04T15:13:41</property>
    <property name="vstream">0</property>
    <property name="meta.media.frame_rate_num">60</property>
    <property name="meta.media.frame_rate_den">1</property>
    <property name="meta.media.colorspace">709</property>
    <property name="meta.media.color_trc">1</property>
    <property name="meta.media.has_b_frames">2</property>
    <property name="meta.media.width">1920</property>
    <property name="meta.media.height">1080</property>
    <property name="meta.media.aspect_ratio">1</property>
    <property name="meta.media.color_range">mpeg</property>
    <property name="astream">0</property>
    <property name="shotcut:skipConvert">0</property>
    <property name="meta.media.top_field_first">0</property>
    <property name="meta.media.progressive">1</property>
    <property name="shotcut:hash">9ed2ab5ca14ff3f32da6061feeb032a5</property>
    <property name="ignore_points">0</property>
    <property name="shotcut:caption">2025-02-04 11-32-42.mkv</property>
    <property name="xml">was here</property>
  </chain>
  <chain id="chain57" out="00:38:30.800">
    <property name="length">00:38:30.817</property>
    <property name="eof">pause</property>
    <property name="resource">/home/alt/Vídeos/2025-02-04 11-32-42.mkv</property>
    <property name="mlt_service">avformat-novalidate</property>
    <property name="meta.media.nb_streams">2</property>
    <property name="meta.media.0.stream.type">video</property>
    <property name="meta.media.0.stream.frame_rate">60</property>
    <property name="meta.media.0.stream.sample_aspect_ratio">0</property>
    <property name="meta.media.0.codec.width">1920</property>
    <property name="meta.media.0.codec.height">1080</property>
    <property name="meta.media.0.codec.rotate">0</property>
    <property name="meta.media.0.codec.pix_fmt">yuv420p</property>
    <property name="meta.media.0.codec.sample_aspect_ratio">1</property>
    <property name="meta.media.0.codec.colorspace">709</property>
    <property name="meta.media.0.codec.color_trc">1</property>
    <property name="meta.media.0.codec.name">h264</property>
    <property name="meta.media.0.codec.long_name">H.264 / AVC / MPEG-4 AVC / MPEG-4 part 10</property>
    <property name="meta.media.0.codec.bit_rate">0</property>
    <property name="meta.attr.0.stream.DURATION.markup">00:38:30.817000000</property>
    <property name="meta.media.1.stream.type">audio</property>
    <property name="meta.media.1.codec.sample_fmt">fltp</property>
    <property name="meta.media.1.codec.sample_rate">48000</property>
    <property name="meta.media.1.codec.channels">2</property>
    <property name="meta.media.1.codec.layout">stereo</property>
    <property name="meta.media.1.codec.name">aac</property>
    <property name="meta.media.1.codec.long_name">AAC (Advanced Audio Coding)</property>
    <property name="meta.media.1.codec.bit_rate">0</property>
    <property name="meta.attr.1.stream.title.markup">simple_aac_recording0</property>
    <property name="meta.attr.1.stream.DURATION.markup">00:38:30.784000000</property>
    <property name="meta.attr.ENCODER.markup">Lavf58.76.100</property>
    <property name="seekable">1</property>
    <property name="meta.media.sample_aspect_num">1</property>
    <property name="meta.media.sample_aspect_den">1</property>
    <property name="audio_index">1</property>
    <property name="video_index">0</property>
    <property name="creation_time">2025-02-04T15:13:41</property>
    <property name="vstream">0</property>
    <property name="meta.media.frame_rate_num">60</property>
    <property name="meta.media.frame_rate_den">1</property>
    <property name="meta.media.colorspace">709</property>
    <property name="meta.media.color_trc">1</property>
    <property name="meta.media.has_b_frames">2</property>
    <property name="meta.media.width">1920</property>
    <property name="meta.media.height">1080</property>
    <property name="meta.media.aspect_ratio">1</property>
    <property name="meta.media.color_range">mpeg</property>
    <property name="astream">0</property>
    <property name="shotcut:skipConvert">0</property>
    <property name="meta.media.top_field_first">0</property>
    <property name="meta.media.progressive">1</property>
    <property name="shotcut:hash">9ed2ab5ca14ff3f32da6061feeb032a5</property>
    <property name="ignore_points">0</property>
    <property name="shotcut:caption">2025-02-04 11-32-42.mkv</property>
    <property name="xml">was here</property>
  </chain>
  <chain id="chain58" out="00:38:30.800">
    <property name="length">00:38:30.817</property>
    <property name="eof">pause</property>
    <property name="resource">/home/alt/Vídeos/2025-02-04 11-32-42.mkv</property>
    <property name="mlt_service">avformat-novalidate</property>
    <property name="meta.media.nb_streams">2</property>
    <property name="meta.media.0.stream.type">video</property>
    <property name="meta.media.0.stream.frame_rate">60</property>
    <property name="meta.media.0.stream.sample_aspect_ratio">0</property>
    <property name="meta.media.0.codec.width">1920</property>
    <property name="meta.media.0.codec.height">1080</property>
    <property name="meta.media.0.codec.rotate">0</property>
    <property name="meta.media.0.codec.pix_fmt">yuv420p</property>
    <property name="meta.media.0.codec.sample_aspect_ratio">1</property>
    <property name="meta.media.0.codec.colorspace">709</property>
    <property name="meta.media.0.codec.color_trc">1</property>
    <property name="meta.media.0.codec.name">h264</property>
    <property name="meta.media.0.codec.long_name">H.264 / AVC / MPEG-4 AVC / MPEG-4 part 10</property>
    <property name="meta.media.0.codec.bit_rate">0</property>
    <property name="meta.attr.0.stream.DURATION.markup">00:38:30.817000000</property>
    <property name="meta.media.1.stream.type">audio</property>
    <property name="meta.media.1.codec.sample_fmt">fltp</property>
    <property name="meta.media.1.codec.sample_rate">48000</property>
    <property name="meta.media.1.codec.channels">2</property>
    <property name="meta.media.1.codec.layout">stereo</property>
    <property name="meta.media.1.codec.name">aac</property>
    <property name="meta.media.1.codec.long_name">AAC (Advanced Audio Coding)</property>
    <property name="meta.media.1.codec.bit_rate">0</property>
    <property name="meta.attr.1.stream.title.markup">simple_aac_recording0</property>
    <property name="meta.attr.1.stream.DURATION.markup">00:38:30.784000000</property>
    <property name="meta.attr.ENCODER.markup">Lavf58.76.100</property>
    <property name="seekable">1</property>
    <property name="meta.media.sample_aspect_num">1</property>
    <property name="meta.media.sample_aspect_den">1</property>
    <property name="audio_index">1</property>
    <property name="video_index">0</property>
    <property name="creation_time">2025-02-04T15:13:41</property>
    <property name="vstream">0</property>
    <property name="meta.media.frame_rate_num">60</property>
    <property name="meta.media.frame_rate_den">1</property>
    <property name="meta.media.colorspace">709</property>
    <property name="meta.media.color_trc">1</property>
    <property name="meta.media.has_b_frames">2</property>
    <property name="meta.media.width">1920</property>
    <property name="meta.media.height">1080</property>
    <property name="meta.media.aspect_ratio">1</property>
    <property name="meta.media.color_range">mpeg</property>
    <property name="astream">0</property>
    <property name="shotcut:skipConvert">0</property>
    <property name="meta.media.top_field_first">0</property>
    <property name="meta.media.progressive">1</property>
    <property name="shotcut:hash">9ed2ab5ca14ff3f32da6061feeb032a5</property>
    <property name="ignore_points">0</property>
    <property name="shotcut:caption">2025-02-04 11-32-42.mkv</property>
    <property name="xml">was here</property>
  </chain>
  <chain id="chain59" out="00:38:30.800">
    <property name="length">00:38:30.817</property>
    <property name="eof">pause</property>
    <property name="resource">/home/alt/Vídeos/2025-02-04 11-32-42.mkv</property>
    <property name="mlt_service">avformat-novalidate</property>
    <property name="meta.media.nb_streams">2</property>
    <property name="meta.media.0.stream.type">video</property>
    <property name="meta.media.0.stream.frame_rate">60</property>
    <property name="meta.media.0.stream.sample_aspect_ratio">0</property>
    <property name="meta.media.0.codec.width">1920</property>
    <property name="meta.media.0.codec.height">1080</property>
    <property name="meta.media.0.codec.rotate">0</property>
    <property name="meta.media.0.codec.pix_fmt">yuv420p</property>
    <property name="meta.media.0.codec.sample_aspect_ratio">1</property>
    <property name="meta.media.0.codec.colorspace">709</property>
    <property name="meta.media.0.codec.color_trc">1</property>
    <property name="meta.media.0.codec.name">h264</property>
    <property name="meta.media.0.codec.long_name">H.264 / AVC / MPEG-4 AVC / MPEG-4 part 10</property>
    <property name="meta.media.0.codec.bit_rate">0</property>
    <property name="meta.attr.0.stream.DURATION.markup">00:38:30.817000000</property>
    <property name="meta.media.1.stream.type">audio</property>
    <property name="meta.media.1.codec.sample_fmt">fltp</property>
    <property name="meta.media.1.codec.sample_rate">48000</property>
    <property name="meta.media.1.codec.channels">2</property>
    <property name="meta.media.1.codec.layout">stereo</property>
    <property name="meta.media.1.codec.name">aac</property>
    <property name="meta.media.1.codec.long_name">AAC (Advanced Audio Coding)</property>
    <property name="meta.media.1.codec.bit_rate">0</property>
    <property name="meta.attr.1.stream.title.markup">simple_aac_recording0</property>
    <property name="meta.attr.1.stream.DURATION.markup">00:38:30.784000000</property>
    <property name="meta.attr.ENCODER.markup">Lavf58.76.100</property>
    <property name="seekable">1</property>
    <property name="meta.media.sample_aspect_num">1</property>
    <property name="meta.media.sample_aspect_den">1</property>
    <property name="audio_index">1</property>
    <property name="video_index">0</property>
    <property name="creation_time">2025-02-04T15:13:41</property>
    <property name="vstream">0</property>
    <property name="meta.media.frame_rate_num">60</property>
    <property name="meta.media.frame_rate_den">1</property>
    <property name="meta.media.colorspace">709</property>
    <property name="meta.media.color_trc">1</property>
    <property name="meta.media.has_b_frames">2</property>
    <property name="meta.media.width">1920</property>
    <property name="meta.media.height">1080</property>
    <property name="meta.media.aspect_ratio">1</property>
    <property name="meta.media.color_range">mpeg</property>
    <property name="astream">0</property>
    <property name="shotcut:skipConvert">0</property>
    <property name="meta.media.top_field_first">0</property>
    <property name="meta.media.progressive">1</property>
    <property name="shotcut:hash">9ed2ab5ca14ff3f32da6061feeb032a5</property>
    <property name="ignore_points">0</property>
    <property name="shotcut:caption">2025-02-04 11-32-42.mkv</property>
    <property name="xml">was here</property>
  </chain>
  <chain id="chain60" out="00:38:30.800">
    <property name="length">00:38:30.817</property>
    <property name="eof">pause</property>
    <property name="resource">/home/alt/Vídeos/2025-02-04 11-32-42.mkv</property>
    <property name="mlt_service">avformat-novalidate</property>
    <property name="meta.media.nb_streams">2</property>
    <property name="meta.media.0.stream.type">video</property>
    <property name="meta.media.0.stream.frame_rate">60</property>
    <property name="meta.media.0.stream.sample_aspect_ratio">0</property>
    <property name="meta.media.0.codec.width">1920</property>
    <property name="meta.media.0.codec.height">1080</property>
    <property name="meta.media.0.codec.rotate">0</property>
    <property name="meta.media.0.codec.pix_fmt">yuv420p</property>
    <property name="meta.media.0.codec.sample_aspect_ratio">1</property>
    <property name="meta.media.0.codec.colorspace">709</property>
    <property name="meta.media.0.codec.color_trc">1</property>
    <property name="meta.media.0.codec.name">h264</property>
    <property name="meta.media.0.codec.long_name">H.264 / AVC / MPEG-4 AVC / MPEG-4 part 10</property>
    <property name="meta.media.0.codec.bit_rate">0</property>
    <property name="meta.attr.0.stream.DURATION.markup">00:38:30.817000000</property>
    <property name="meta.media.1.stream.type">audio</property>
    <property name="meta.media.1.codec.sample_fmt">fltp</property>
    <property name="meta.media.1.codec.sample_rate">48000</property>
    <property name="meta.media.1.codec.channels">2</property>
    <property name="meta.media.1.codec.layout">stereo</property>
    <property name="meta.media.1.codec.name">aac</property>
    <property name="meta.media.1.codec.long_name">AAC (Advanced Audio Coding)</property>
    <property name="meta.media.1.codec.bit_rate">0</property>
    <property name="meta.attr.1.stream.title.markup">simple_aac_recording0</property>
    <property name="meta.attr.1.stream.DURATION.markup">00:38:30.784000000</property>
    <property name="meta.attr.ENCODER.markup">Lavf58.76.100</property>
    <property name="seekable">1</property>
    <property name="meta.media.sample_aspect_num">1</property>
    <property name="meta.media.sample_aspect_den">1</property>
    <property name="audio_index">1</property>
    <property name="video_index">0</property>
    <property name="creation_time">2025-02-04T15:13:41</property>
    <property name="vstream">0</property>
    <property name="meta.media.frame_rate_num">60</property>
    <property name="meta.media.frame_rate_den">1</property>
    <property name="meta.media.colorspace">709</property>
    <property name="meta.media.color_trc">1</property>
    <property name="meta.media.has_b_frames">2</property>
    <property name="meta.media.width">1920</property>
    <property name="meta.media.height">1080</property>
    <property name="meta.media.aspect_ratio">1</property>
    <property name="meta.media.color_range">mpeg</property>
    <property name="astream">0</property>
    <property name="shotcut:skipConvert">0</property>
    <property name="meta.media.top_field_first">0</property>
    <property name="meta.media.progressive">1</property>
    <property name="shotcut:hash">9ed2ab5ca14ff3f32da6061feeb032a5</property>
    <property name="ignore_points">0</property>
    <property name="shotcut:caption">2025-02-04 11-32-42.mkv</property>
    <property name="xml">was here</property>
  </chain>
  <chain id="chain61" out="00:38:30.800">
    <property name="length">00:38:30.817</property>
    <property name="eof">pause</property>
    <property name="resource">/home/alt/Vídeos/2025-02-04 11-32-42.mkv</property>
    <property name="mlt_service">avformat-novalidate</property>
    <property name="meta.media.nb_streams">2</property>
    <property name="meta.media.0.stream.type">video</property>
    <property name="meta.media.0.stream.frame_rate">60</property>
    <property name="meta.media.0.stream.sample_aspect_ratio">0</property>
    <property name="meta.media.0.codec.width">1920</property>
    <property name="meta.media.0.codec.height">1080</property>
    <property name="meta.media.0.codec.rotate">0</property>
    <property name="meta.media.0.codec.pix_fmt">yuv420p</property>
    <property name="meta.media.0.codec.sample_aspect_ratio">1</property>
    <property name="meta.media.0.codec.colorspace">709</property>
    <property name="meta.media.0.codec.color_trc">1</property>
    <property name="meta.media.0.codec.name">h264</property>
    <property name="meta.media.0.codec.long_name">H.264 / AVC / MPEG-4 AVC / MPEG-4 part 10</property>
    <property name="meta.media.0.codec.bit_rate">0</property>
    <property name="meta.attr.0.stream.DURATION.markup">00:38:30.817000000</property>
    <property name="meta.media.1.stream.type">audio</property>
    <property name="meta.media.1.codec.sample_fmt">fltp</property>
    <property name="meta.media.1.codec.sample_rate">48000</property>
    <property name="meta.media.1.codec.channels">2</property>
    <property name="meta.media.1.codec.layout">stereo</property>
    <property name="meta.media.1.codec.name">aac</property>
    <property name="meta.media.1.codec.long_name">AAC (Advanced Audio Coding)</property>
    <property name="meta.media.1.codec.bit_rate">0</property>
    <property name="meta.attr.1.stream.title.markup">simple_aac_recording0</property>
    <property name="meta.attr.1.stream.DURATION.markup">00:38:30.784000000</property>
    <property name="meta.attr.ENCODER.markup">Lavf58.76.100</property>
    <property name="seekable">1</property>
    <property name="meta.media.sample_aspect_num">1</property>
    <property name="meta.media.sample_aspect_den">1</property>
    <property name="audio_index">1</property>
    <property name="video_index">0</property>
    <property name="creation_time">2025-02-04T15:13:41</property>
    <property name="vstream">0</property>
    <property name="meta.media.frame_rate_num">60</property>
    <property name="meta.media.frame_rate_den">1</property>
    <property name="meta.media.colorspace">709</property>
    <property name="meta.media.color_trc">1</property>
    <property name="meta.media.has_b_frames">2</property>
    <property name="meta.media.width">1920</property>
    <property name="meta.media.height">1080</property>
    <property name="meta.media.aspect_ratio">1</property>
    <property name="meta.media.color_range">mpeg</property>
    <property name="astream">0</property>
    <property name="shotcut:skipConvert">0</property>
    <property name="meta.media.top_field_first">0</property>
    <property name="meta.media.progressive">1</property>
    <property name="shotcut:hash">9ed2ab5ca14ff3f32da6061feeb032a5</property>
    <property name="ignore_points">0</property>
    <property name="shotcut:caption">2025-02-04 11-32-42.mkv</property>
    <property name="xml">was here</property>
  </chain>
  <chain id="chain62" out="00:38:30.800">
    <property name="length">00:38:30.817</property>
    <property name="eof">pause</property>
    <property name="resource">/home/alt/Vídeos/2025-02-04 11-32-42.mkv</property>
    <property name="mlt_service">avformat-novalidate</property>
    <property name="meta.media.nb_streams">2</property>
    <property name="meta.media.0.stream.type">video</property>
    <property name="meta.media.0.stream.frame_rate">60</property>
    <property name="meta.media.0.stream.sample_aspect_ratio">0</property>
    <property name="meta.media.0.codec.width">1920</property>
    <property name="meta.media.0.codec.height">1080</property>
    <property name="meta.media.0.codec.rotate">0</property>
    <property name="meta.media.0.codec.pix_fmt">yuv420p</property>
    <property name="meta.media.0.codec.sample_aspect_ratio">1</property>
    <property name="meta.media.0.codec.colorspace">709</property>
    <property name="meta.media.0.codec.color_trc">1</property>
    <property name="meta.media.0.codec.name">h264</property>
    <property name="meta.media.0.codec.long_name">H.264 / AVC / MPEG-4 AVC / MPEG-4 part 10</property>
    <property name="meta.media.0.codec.bit_rate">0</property>
    <property name="meta.attr.0.stream.DURATION.markup">00:38:30.817000000</property>
    <property name="meta.media.1.stream.type">audio</property>
    <property name="meta.media.1.codec.sample_fmt">fltp</property>
    <property name="meta.media.1.codec.sample_rate">48000</property>
    <property name="meta.media.1.codec.channels">2</property>
    <property name="meta.media.1.codec.layout">stereo</property>
    <property name="meta.media.1.codec.name">aac</property>
    <property name="meta.media.1.codec.long_name">AAC (Advanced Audio Coding)</property>
    <property name="meta.media.1.codec.bit_rate">0</property>
    <property name="meta.attr.1.stream.title.markup">simple_aac_recording0</property>
    <property name="meta.attr.1.stream.DURATION.markup">00:38:30.784000000</property>
    <property name="meta.attr.ENCODER.markup">Lavf58.76.100</property>
    <property name="seekable">1</property>
    <property name="meta.media.sample_aspect_num">1</property>
    <property name="meta.media.sample_aspect_den">1</property>
    <property name="audio_index">1</property>
    <property name="video_index">0</property>
    <property name="creation_time">2025-02-04T15:13:41</property>
    <property name="vstream">0</property>
    <property name="meta.media.frame_rate_num">60</property>
    <property name="meta.media.frame_rate_den">1</property>
    <property name="meta.media.colorspace">709</property>
    <property name="meta.media.color_trc">1</property>
    <property name="meta.media.has_b_frames">2</property>
    <property name="meta.media.width">1920</property>
    <property name="meta.media.height">1080</property>
    <property name="meta.media.aspect_ratio">1</property>
    <property name="meta.media.color_range">mpeg</property>
    <property name="astream">0</property>
    <property name="shotcut:skipConvert">0</property>
    <property name="meta.media.top_field_first">0</property>
    <property name="meta.media.progressive">1</property>
    <property name="shotcut:hash">9ed2ab5ca14ff3f32da6061feeb032a5</property>
    <property name="ignore_points">0</property>
    <property name="shotcut:caption">2025-02-04 11-32-42.mkv</property>
    <property name="xml">was here</property>
  </chain>
  <chain id="chain63" out="00:38:30.800">
    <property name="length">00:38:30.817</property>
    <property name="eof">pause</property>
    <property name="resource">/home/alt/Vídeos/2025-02-04 11-32-42.mkv</property>
    <property name="mlt_service">avformat-novalidate</property>
    <property name="meta.media.nb_streams">2</property>
    <property name="meta.media.0.stream.type">video</property>
    <property name="meta.media.0.stream.frame_rate">60</property>
    <property name="meta.media.0.stream.sample_aspect_ratio">0</property>
    <property name="meta.media.0.codec.width">1920</property>
    <property name="meta.media.0.codec.height">1080</property>
    <property name="meta.media.0.codec.rotate">0</property>
    <property name="meta.media.0.codec.pix_fmt">yuv420p</property>
    <property name="meta.media.0.codec.sample_aspect_ratio">1</property>
    <property name="meta.media.0.codec.colorspace">709</property>
    <property name="meta.media.0.codec.color_trc">1</property>
    <property name="meta.media.0.codec.name">h264</property>
    <property name="meta.media.0.codec.long_name">H.264 / AVC / MPEG-4 AVC / MPEG-4 part 10</property>
    <property name="meta.media.0.codec.bit_rate">0</property>
    <property name="meta.attr.0.stream.DURATION.markup">00:38:30.817000000</property>
    <property name="meta.media.1.stream.type">audio</property>
    <property name="meta.media.1.codec.sample_fmt">fltp</property>
    <property name="meta.media.1.codec.sample_rate">48000</property>
    <property name="meta.media.1.codec.channels">2</property>
    <property name="meta.media.1.codec.layout">stereo</property>
    <property name="meta.media.1.codec.name">aac</property>
    <property name="meta.media.1.codec.long_name">AAC (Advanced Audio Coding)</property>
    <property name="meta.media.1.codec.bit_rate">0</property>
    <property name="meta.attr.1.stream.title.markup">simple_aac_recording0</property>
    <property name="meta.attr.1.stream.DURATION.markup">00:38:30.784000000</property>
    <property name="meta.attr.ENCODER.markup">Lavf58.76.100</property>
    <property name="seekable">1</property>
    <property name="meta.media.sample_aspect_num">1</property>
    <property name="meta.media.sample_aspect_den">1</property>
    <property name="audio_index">1</property>
    <property name="video_index">0</property>
    <property name="creation_time">2025-02-04T15:13:41</property>
    <property name="vstream">0</property>
    <property name="meta.media.frame_rate_num">60</property>
    <property name="meta.media.frame_rate_den">1</property>
    <property name="meta.media.colorspace">709</property>
    <property name="meta.media.color_trc">1</property>
    <property name="meta.media.has_b_frames">2</property>
    <property name="meta.media.width">1920</property>
    <property name="meta.media.height">1080</property>
    <property name="meta.media.aspect_ratio">1</property>
    <property name="meta.media.color_range">mpeg</property>
    <property name="astream">0</property>
    <property name="shotcut:skipConvert">0</property>
    <property name="meta.media.top_field_first">0</property>
    <property name="meta.media.progressive">1</property>
    <property name="shotcut:hash">9ed2ab5ca14ff3f32da6061feeb032a5</property>
    <property name="ignore_points">0</property>
    <property name="shotcut:caption">2025-02-04 11-32-42.mkv</property>
    <property name="xml">was here</property>
  </chain>
  <chain id="chain64" out="00:38:30.800">
    <property name="length">00:38:30.817</property>
    <property name="eof">pause</property>
    <property name="resource">/home/alt/Vídeos/2025-02-04 11-32-42.mkv</property>
    <property name="mlt_service">avformat-novalidate</property>
    <property name="meta.media.nb_streams">2</property>
    <property name="meta.media.0.stream.type">video</property>
    <property name="meta.media.0.stream.frame_rate">60</property>
    <property name="meta.media.0.stream.sample_aspect_ratio">0</property>
    <property name="meta.media.0.codec.width">1920</property>
    <property name="meta.media.0.codec.height">1080</property>
    <property name="meta.media.0.codec.rotate">0</property>
    <property name="meta.media.0.codec.pix_fmt">yuv420p</property>
    <property name="meta.media.0.codec.sample_aspect_ratio">1</property>
    <property name="meta.media.0.codec.colorspace">709</property>
    <property name="meta.media.0.codec.color_trc">1</property>
    <property name="meta.media.0.codec.name">h264</property>
    <property name="meta.media.0.codec.long_name">H.264 / AVC / MPEG-4 AVC / MPEG-4 part 10</property>
    <property name="meta.media.0.codec.bit_rate">0</property>
    <property name="meta.attr.0.stream.DURATION.markup">00:38:30.817000000</property>
    <property name="meta.media.1.stream.type">audio</property>
    <property name="meta.media.1.codec.sample_fmt">fltp</property>
    <property name="meta.media.1.codec.sample_rate">48000</property>
    <property name="meta.media.1.codec.channels">2</property>
    <property name="meta.media.1.codec.layout">stereo</property>
    <property name="meta.media.1.codec.name">aac</property>
    <property name="meta.media.1.codec.long_name">AAC (Advanced Audio Coding)</property>
    <property name="meta.media.1.codec.bit_rate">0</property>
    <property name="meta.attr.1.stream.title.markup">simple_aac_recording0</property>
    <property name="meta.attr.1.stream.DURATION.markup">00:38:30.784000000</property>
    <property name="meta.attr.ENCODER.markup">Lavf58.76.100</property>
    <property name="seekable">1</property>
    <property name="meta.media.sample_aspect_num">1</property>
    <property name="meta.media.sample_aspect_den">1</property>
    <property name="audio_index">1</property>
    <property name="video_index">0</property>
    <property name="creation_time">2025-02-04T15:13:41</property>
    <property name="vstream">0</property>
    <property name="meta.media.frame_rate_num">60</property>
    <property name="meta.media.frame_rate_den">1</property>
    <property name="meta.media.colorspace">709</property>
    <property name="meta.media.color_trc">1</property>
    <property name="meta.media.has_b_frames">2</property>
    <property name="meta.media.width">1920</property>
    <property name="meta.media.height">1080</property>
    <property name="meta.media.aspect_ratio">1</property>
    <property name="meta.media.color_range">mpeg</property>
    <property name="astream">0</property>
    <property name="shotcut:skipConvert">0</property>
    <property name="meta.media.top_field_first">0</property>
    <property name="meta.media.progressive">1</property>
    <property name="shotcut:hash">9ed2ab5ca14ff3f32da6061feeb032a5</property>
    <property name="ignore_points">0</property>
    <property name="shotcut:caption">2025-02-04 11-32-42.mkv</property>
    <property name="xml">was here</property>
  </chain>
  <chain id="chain65" out="00:38:30.800">
    <property name="length">00:38:30.817</property>
    <property name="eof">pause</property>
    <property name="resource">/home/alt/Vídeos/2025-02-04 11-32-42.mkv</property>
    <property name="mlt_service">avformat-novalidate</property>
    <property name="meta.media.nb_streams">2</property>
    <property name="meta.media.0.stream.type">video</property>
    <property name="meta.media.0.stream.frame_rate">60</property>
    <property name="meta.media.0.stream.sample_aspect_ratio">0</property>
    <property name="meta.media.0.codec.width">1920</property>
    <property name="meta.media.0.codec.height">1080</property>
    <property name="meta.media.0.codec.rotate">0</property>
    <property name="meta.media.0.codec.pix_fmt">yuv420p</property>
    <property name="meta.media.0.codec.sample_aspect_ratio">1</property>
    <property name="meta.media.0.codec.colorspace">709</property>
    <property name="meta.media.0.codec.color_trc">1</property>
    <property name="meta.media.0.codec.name">h264</property>
    <property name="meta.media.0.codec.long_name">H.264 / AVC / MPEG-4 AVC / MPEG-4 part 10</property>
    <property name="meta.media.0.codec.bit_rate">0</property>
    <property name="meta.attr.0.stream.DURATION.markup">00:38:30.817000000</property>
    <property name="meta.media.1.stream.type">audio</property>
    <property name="meta.media.1.codec.sample_fmt">fltp</property>
    <property name="meta.media.1.codec.sample_rate">48000</property>
    <property name="meta.media.1.codec.channels">2</property>
    <property name="meta.media.1.codec.layout">stereo</property>
    <property name="meta.media.1.codec.name">aac</property>
    <property name="meta.media.1.codec.long_name">AAC (Advanced Audio Coding)</property>
    <property name="meta.media.1.codec.bit_rate">0</property>
    <property name="meta.attr.1.stream.title.markup">simple_aac_recording0</property>
    <property name="meta.attr.1.stream.DURATION.markup">00:38:30.784000000</property>
    <property name="meta.attr.ENCODER.markup">Lavf58.76.100</property>
    <property name="seekable">1</property>
    <property name="meta.media.sample_aspect_num">1</property>
    <property name="meta.media.sample_aspect_den">1</property>
    <property name="audio_index">1</property>
    <property name="video_index">0</property>
    <property name="creation_time">2025-02-04T15:13:41</property>
    <property name="vstream">0</property>
    <property name="meta.media.frame_rate_num">60</property>
    <property name="meta.media.frame_rate_den">1</property>
    <property name="meta.media.colorspace">709</property>
    <property name="meta.media.color_trc">1</property>
    <property name="meta.media.has_b_frames">2</property>
    <property name="meta.media.width">1920</property>
    <property name="meta.media.height">1080</property>
    <property name="meta.media.aspect_ratio">1</property>
    <property name="meta.media.color_range">mpeg</property>
    <property name="astream">0</property>
    <property name="shotcut:skipConvert">0</property>
    <property name="meta.media.top_field_first">0</property>
    <property name="meta.media.progressive">1</property>
    <property name="shotcut:hash">9ed2ab5ca14ff3f32da6061feeb032a5</property>
    <property name="ignore_points">0</property>
    <property name="shotcut:caption">2025-02-04 11-32-42.mkv</property>
    <property name="xml">was here</property>
  </chain>
  <chain id="chain66" out="00:38:30.800">
    <property name="length">00:38:30.817</property>
    <property name="eof">pause</property>
    <property name="resource">/home/alt/Vídeos/2025-02-04 11-32-42.mkv</property>
    <property name="mlt_service">avformat-novalidate</property>
    <property name="meta.media.nb_streams">2</property>
    <property name="meta.media.0.stream.type">video</property>
    <property name="meta.media.0.stream.frame_rate">60</property>
    <property name="meta.media.0.stream.sample_aspect_ratio">0</property>
    <property name="meta.media.0.codec.width">1920</property>
    <property name="meta.media.0.codec.height">1080</property>
    <property name="meta.media.0.codec.rotate">0</property>
    <property name="meta.media.0.codec.pix_fmt">yuv420p</property>
    <property name="meta.media.0.codec.sample_aspect_ratio">1</property>
    <property name="meta.media.0.codec.colorspace">709</property>
    <property name="meta.media.0.codec.color_trc">1</property>
    <property name="meta.media.0.codec.name">h264</property>
    <property name="meta.media.0.codec.long_name">H.264 / AVC / MPEG-4 AVC / MPEG-4 part 10</property>
    <property name="meta.media.0.codec.bit_rate">0</property>
    <property name="meta.attr.0.stream.DURATION.markup">00:38:30.817000000</property>
    <property name="meta.media.1.stream.type">audio</property>
    <property name="meta.media.1.codec.sample_fmt">fltp</property>
    <property name="meta.media.1.codec.sample_rate">48000</property>
    <property name="meta.media.1.codec.channels">2</property>
    <property name="meta.media.1.codec.layout">stereo</property>
    <property name="meta.media.1.codec.name">aac</property>
    <property name="meta.media.1.codec.long_name">AAC (Advanced Audio Coding)</property>
    <property name="meta.media.1.codec.bit_rate">0</property>
    <property name="meta.attr.1.stream.title.markup">simple_aac_recording0</property>
    <property name="meta.attr.1.stream.DURATION.markup">00:38:30.784000000</property>
    <property name="meta.attr.ENCODER.markup">Lavf58.76.100</property>
    <property name="seekable">1</property>
    <property name="meta.media.sample_aspect_num">1</property>
    <property name="meta.media.sample_aspect_den">1</property>
    <property name="audio_index">1</property>
    <property name="video_index">0</property>
    <property name="creation_time">2025-02-04T15:13:41</property>
    <property name="vstream">0</property>
    <property name="meta.media.frame_rate_num">60</property>
    <property name="meta.media.frame_rate_den">1</property>
    <property name="meta.media.colorspace">709</property>
    <property name="meta.media.color_trc">1</property>
    <property name="meta.media.has_b_frames">2</property>
    <property name="meta.media.width">1920</property>
    <property name="meta.media.height">1080</property>
    <property name="meta.media.aspect_ratio">1</property>
    <property name="meta.media.color_range">mpeg</property>
    <property name="astream">0</property>
    <property name="shotcut:skipConvert">0</property>
    <property name="meta.media.top_field_first">0</property>
    <property name="meta.media.progressive">1</property>
    <property name="shotcut:hash">9ed2ab5ca14ff3f32da6061feeb032a5</property>
    <property name="ignore_points">0</property>
    <property name="shotcut:caption">2025-02-04 11-32-42.mkv</property>
    <property name="xml">was here</property>
  </chain>
  <chain id="chain67" out="00:38:30.800">
    <property name="length">00:38:30.817</property>
    <property name="eof">pause</property>
    <property name="resource">/home/alt/Vídeos/2025-02-04 11-32-42.mkv</property>
    <property name="mlt_service">avformat-novalidate</property>
    <property name="meta.media.nb_streams">2</property>
    <property name="meta.media.0.stream.type">video</property>
    <property name="meta.media.0.stream.frame_rate">60</property>
    <property name="meta.media.0.stream.sample_aspect_ratio">0</property>
    <property name="meta.media.0.codec.width">1920</property>
    <property name="meta.media.0.codec.height">1080</property>
    <property name="meta.media.0.codec.rotate">0</property>
    <property name="meta.media.0.codec.pix_fmt">yuv420p</property>
    <property name="meta.media.0.codec.sample_aspect_ratio">1</property>
    <property name="meta.media.0.codec.colorspace">709</property>
    <property name="meta.media.0.codec.color_trc">1</property>
    <property name="meta.media.0.codec.name">h264</property>
    <property name="meta.media.0.codec.long_name">H.264 / AVC / MPEG-4 AVC / MPEG-4 part 10</property>
    <property name="meta.media.0.codec.bit_rate">0</property>
    <property name="meta.attr.0.stream.DURATION.markup">00:38:30.817000000</property>
    <property name="meta.media.1.stream.type">audio</property>
    <property name="meta.media.1.codec.sample_fmt">fltp</property>
    <property name="meta.media.1.codec.sample_rate">48000</property>
    <property name="meta.media.1.codec.channels">2</property>
    <property name="meta.media.1.codec.layout">stereo</property>
    <property name="meta.media.1.codec.name">aac</property>
    <property name="meta.media.1.codec.long_name">AAC (Advanced Audio Coding)</property>
    <property name="meta.media.1.codec.bit_rate">0</property>
    <property name="meta.attr.1.stream.title.markup">simple_aac_recording0</property>
    <property name="meta.attr.1.stream.DURATION.markup">00:38:30.784000000</property>
    <property name="meta.attr.ENCODER.markup">Lavf58.76.100</property>
    <property name="seekable">1</property>
    <property name="meta.media.sample_aspect_num">1</property>
    <property name="meta.media.sample_aspect_den">1</property>
    <property name="audio_index">1</property>
    <property name="video_index">0</property>
    <property name="creation_time">2025-02-04T15:13:41</property>
    <property name="vstream">0</property>
    <property name="meta.media.frame_rate_num">60</property>
    <property name="meta.media.frame_rate_den">1</property>
    <property name="meta.media.colorspace">709</property>
    <property name="meta.media.color_trc">1</property>
    <property name="meta.media.has_b_frames">2</property>
    <property name="meta.media.width">1920</property>
    <property name="meta.media.height">1080</property>
    <property name="meta.media.aspect_ratio">1</property>
    <property name="meta.media.color_range">mpeg</property>
    <property name="astream">0</property>
    <property name="shotcut:skipConvert">0</property>
    <property name="meta.media.top_field_first">0</property>
    <property name="meta.media.progressive">1</property>
    <property name="shotcut:hash">9ed2ab5ca14ff3f32da6061feeb032a5</property>
    <property name="ignore_points">0</property>
    <property name="shotcut:caption">2025-02-04 11-32-42.mkv</property>
    <property name="xml">was here</property>
  </chain>
  <chain id="chain68" out="00:38:30.800">
    <property name="length">00:38:30.817</property>
    <property name="eof">pause</property>
    <property name="resource">/home/alt/Vídeos/2025-02-04 11-32-42.mkv</property>
    <property name="mlt_service">avformat-novalidate</property>
    <property name="meta.media.nb_streams">2</property>
    <property name="meta.media.0.stream.type">video</property>
    <property name="meta.media.0.stream.frame_rate">60</property>
    <property name="meta.media.0.stream.sample_aspect_ratio">0</property>
    <property name="meta.media.0.codec.width">1920</property>
    <property name="meta.media.0.codec.height">1080</property>
    <property name="meta.media.0.codec.rotate">0</property>
    <property name="meta.media.0.codec.pix_fmt">yuv420p</property>
    <property name="meta.media.0.codec.sample_aspect_ratio">1</property>
    <property name="meta.media.0.codec.colorspace">709</property>
    <property name="meta.media.0.codec.color_trc">1</property>
    <property name="meta.media.0.codec.name">h264</property>
    <property name="meta.media.0.codec.long_name">H.264 / AVC / MPEG-4 AVC / MPEG-4 part 10</property>
    <property name="meta.media.0.codec.bit_rate">0</property>
    <property name="meta.attr.0.stream.DURATION.markup">00:38:30.817000000</property>
    <property name="meta.media.1.stream.type">audio</property>
    <property name="meta.media.1.codec.sample_fmt">fltp</property>
    <property name="meta.media.1.codec.sample_rate">48000</property>
    <property name="meta.media.1.codec.channels">2</property>
    <property name="meta.media.1.codec.layout">stereo</property>
    <property name="meta.media.1.codec.name">aac</property>
    <property name="meta.media.1.codec.long_name">AAC (Advanced Audio Coding)</property>
    <property name="meta.media.1.codec.bit_rate">0</property>
    <property name="meta.attr.1.stream.title.markup">simple_aac_recording0</property>
    <property name="meta.attr.1.stream.DURATION.markup">00:38:30.784000000</property>
    <property name="meta.attr.ENCODER.markup">Lavf58.76.100</property>
    <property name="seekable">1</property>
    <property name="meta.media.sample_aspect_num">1</property>
    <property name="meta.media.sample_aspect_den">1</property>
    <property name="audio_index">1</property>
    <property name="video_index">0</property>
    <property name="creation_time">2025-02-04T15:13:41</property>
    <property name="vstream">0</property>
    <property name="meta.media.frame_rate_num">60</property>
    <property name="meta.media.frame_rate_den">1</property>
    <property name="meta.media.colorspace">709</property>
    <property name="meta.media.color_trc">1</property>
    <property name="meta.media.has_b_frames">2</property>
    <property name="meta.media.width">1920</property>
    <property name="meta.media.height">1080</property>
    <property name="meta.media.aspect_ratio">1</property>
    <property name="meta.media.color_range">mpeg</property>
    <property name="astream">0</property>
    <property name="shotcut:skipConvert">0</property>
    <property name="meta.media.top_field_first">0</property>
    <property name="meta.media.progressive">1</property>
    <property name="shotcut:hash">9ed2ab5ca14ff3f32da6061feeb032a5</property>
    <property name="ignore_points">0</property>
    <property name="shotcut:caption">2025-02-04 11-32-42.mkv</property>
    <property name="xml">was here</property>
  </chain>
  <chain id="chain69" out="00:38:30.800">
    <property name="length">00:38:30.817</property>
    <property name="eof">pause</property>
    <property name="resource">/home/alt/Vídeos/2025-02-04 11-32-42.mkv</property>
    <property name="mlt_service">avformat-novalidate</property>
    <property name="meta.media.nb_streams">2</property>
    <property name="meta.media.0.stream.type">video</property>
    <property name="meta.media.0.stream.frame_rate">60</property>
    <property name="meta.media.0.stream.sample_aspect_ratio">0</property>
    <property name="meta.media.0.codec.width">1920</property>
    <property name="meta.media.0.codec.height">1080</property>
    <property name="meta.media.0.codec.rotate">0</property>
    <property name="meta.media.0.codec.pix_fmt">yuv420p</property>
    <property name="meta.media.0.codec.sample_aspect_ratio">1</property>
    <property name="meta.media.0.codec.colorspace">709</property>
    <property name="meta.media.0.codec.color_trc">1</property>
    <property name="meta.media.0.codec.name">h264</property>
    <property name="meta.media.0.codec.long_name">H.264 / AVC / MPEG-4 AVC / MPEG-4 part 10</property>
    <property name="meta.media.0.codec.bit_rate">0</property>
    <property name="meta.attr.0.stream.DURATION.markup">00:38:30.817000000</property>
    <property name="meta.media.1.stream.type">audio</property>
    <property name="meta.media.1.codec.sample_fmt">fltp</property>
    <property name="meta.media.1.codec.sample_rate">48000</property>
    <property name="meta.media.1.codec.channels">2</property>
    <property name="meta.media.1.codec.layout">stereo</property>
    <property name="meta.media.1.codec.name">aac</property>
    <property name="meta.media.1.codec.long_name">AAC (Advanced Audio Coding)</property>
    <property name="meta.media.1.codec.bit_rate">0</property>
    <property name="meta.attr.1.stream.title.markup">simple_aac_recording0</property>
    <property name="meta.attr.1.stream.DURATION.markup">00:38:30.784000000</property>
    <property name="meta.attr.ENCODER.markup">Lavf58.76.100</property>
    <property name="seekable">1</property>
    <property name="meta.media.sample_aspect_num">1</property>
    <property name="meta.media.sample_aspect_den">1</property>
    <property name="audio_index">1</property>
    <property name="video_index">0</property>
    <property name="creation_time">2025-02-04T15:13:41</property>
    <property name="vstream">0</property>
    <property name="meta.media.frame_rate_num">60</property>
    <property name="meta.media.frame_rate_den">1</property>
    <property name="meta.media.colorspace">709</property>
    <property name="meta.media.color_trc">1</property>
    <property name="meta.media.has_b_frames">2</property>
    <property name="meta.media.width">1920</property>
    <property name="meta.media.height">1080</property>
    <property name="meta.media.aspect_ratio">1</property>
    <property name="meta.media.color_range">mpeg</property>
    <property name="astream">0</property>
    <property name="shotcut:skipConvert">0</property>
    <property name="meta.media.top_field_first">0</property>
    <property name="meta.media.progressive">1</property>
    <property name="shotcut:hash">9ed2ab5ca14ff3f32da6061feeb032a5</property>
    <property name="ignore_points">0</property>
    <property name="shotcut:caption">2025-02-04 11-32-42.mkv</property>
    <property name="xml">was here</property>
  </chain>
  <chain id="chain70" out="00:38:30.800">
    <property name="length">00:38:30.817</property>
    <property name="eof">pause</property>
    <property name="resource">/home/alt/Vídeos/2025-02-04 11-32-42.mkv</property>
    <property name="mlt_service">avformat-novalidate</property>
    <property name="meta.media.nb_streams">2</property>
    <property name="meta.media.0.stream.type">video</property>
    <property name="meta.media.0.stream.frame_rate">60</property>
    <property name="meta.media.0.stream.sample_aspect_ratio">0</property>
    <property name="meta.media.0.codec.width">1920</property>
    <property name="meta.media.0.codec.height">1080</property>
    <property name="meta.media.0.codec.rotate">0</property>
    <property name="meta.media.0.codec.pix_fmt">yuv420p</property>
    <property name="meta.media.0.codec.sample_aspect_ratio">1</property>
    <property name="meta.media.0.codec.colorspace">709</property>
    <property name="meta.media.0.codec.color_trc">1</property>
    <property name="meta.media.0.codec.name">h264</property>
    <property name="meta.media.0.codec.long_name">H.264 / AVC / MPEG-4 AVC / MPEG-4 part 10</property>
    <property name="meta.media.0.codec.bit_rate">0</property>
    <property name="meta.attr.0.stream.DURATION.markup">00:38:30.817000000</property>
    <property name="meta.media.1.stream.type">audio</property>
    <property name="meta.media.1.codec.sample_fmt">fltp</property>
    <property name="meta.media.1.codec.sample_rate">48000</property>
    <property name="meta.media.1.codec.channels">2</property>
    <property name="meta.media.1.codec.layout">stereo</property>
    <property name="meta.media.1.codec.name">aac</property>
    <property name="meta.media.1.codec.long_name">AAC (Advanced Audio Coding)</property>
    <property name="meta.media.1.codec.bit_rate">0</property>
    <property name="meta.attr.1.stream.title.markup">simple_aac_recording0</property>
    <property name="meta.attr.1.stream.DURATION.markup">00:38:30.784000000</property>
    <property name="meta.attr.ENCODER.markup">Lavf58.76.100</property>
    <property name="seekable">1</property>
    <property name="meta.media.sample_aspect_num">1</property>
    <property name="meta.media.sample_aspect_den">1</property>
    <property name="audio_index">1</property>
    <property name="video_index">0</property>
    <property name="creation_time">2025-02-04T15:13:41</property>
    <property name="vstream">0</property>
    <property name="meta.media.frame_rate_num">60</property>
    <property name="meta.media.frame_rate_den">1</property>
    <property name="meta.media.colorspace">709</property>
    <property name="meta.media.color_trc">1</property>
    <property name="meta.media.has_b_frames">2</property>
    <property name="meta.media.width">1920</property>
    <property name="meta.media.height">1080</property>
    <property name="meta.media.aspect_ratio">1</property>
    <property name="meta.media.color_range">mpeg</property>
    <property name="astream">0</property>
    <property name="shotcut:skipConvert">0</property>
    <property name="meta.media.top_field_first">0</property>
    <property name="meta.media.progressive">1</property>
    <property name="shotcut:hash">9ed2ab5ca14ff3f32da6061feeb032a5</property>
    <property name="ignore_points">0</property>
    <property name="shotcut:caption">2025-02-04 11-32-42.mkv</property>
    <property name="xml">was here</property>
  </chain>
  <chain id="chain71" out="00:38:30.800">
    <property name="length">00:38:30.817</property>
    <property name="eof">pause</property>
    <property name="resource">/home/alt/Vídeos/2025-02-04 11-32-42.mkv</property>
    <property name="mlt_service">avformat-novalidate</property>
    <property name="meta.media.nb_streams">2</property>
    <property name="meta.media.0.stream.type">video</property>
    <property name="meta.media.0.stream.frame_rate">60</property>
    <property name="meta.media.0.stream.sample_aspect_ratio">0</property>
    <property name="meta.media.0.codec.width">1920</property>
    <property name="meta.media.0.codec.height">1080</property>
    <property name="meta.media.0.codec.rotate">0</property>
    <property name="meta.media.0.codec.pix_fmt">yuv420p</property>
    <property name="meta.media.0.codec.sample_aspect_ratio">1</property>
    <property name="meta.media.0.codec.colorspace">709</property>
    <property name="meta.media.0.codec.color_trc">1</property>
    <property name="meta.media.0.codec.name">h264</property>
    <property name="meta.media.0.codec.long_name">H.264 / AVC / MPEG-4 AVC / MPEG-4 part 10</property>
    <property name="meta.media.0.codec.bit_rate">0</property>
    <property name="meta.attr.0.stream.DURATION.markup">00:38:30.817000000</property>
    <property name="meta.media.1.stream.type">audio</property>
    <property name="meta.media.1.codec.sample_fmt">fltp</property>
    <property name="meta.media.1.codec.sample_rate">48000</property>
    <property name="meta.media.1.codec.channels">2</property>
    <property name="meta.media.1.codec.layout">stereo</property>
    <property name="meta.media.1.codec.name">aac</property>
    <property name="meta.media.1.codec.long_name">AAC (Advanced Audio Coding)</property>
    <property name="meta.media.1.codec.bit_rate">0</property>
    <property name="meta.attr.1.stream.title.markup">simple_aac_recording0</property>
    <property name="meta.attr.1.stream.DURATION.markup">00:38:30.784000000</property>
    <property name="meta.attr.ENCODER.markup">Lavf58.76.100</property>
    <property name="seekable">1</property>
    <property name="meta.media.sample_aspect_num">1</property>
    <property name="meta.media.sample_aspect_den">1</property>
    <property name="audio_index">1</property>
    <property name="video_index">0</property>
    <property name="creation_time">2025-02-04T15:13:41</property>
    <property name="vstream">0</property>
    <property name="meta.media.frame_rate_num">60</property>
    <property name="meta.media.frame_rate_den">1</property>
    <property name="meta.media.colorspace">709</property>
    <property name="meta.media.color_trc">1</property>
    <property name="meta.media.has_b_frames">2</property>
    <property name="meta.media.width">1920</property>
    <property name="meta.media.height">1080</property>
    <property name="meta.media.aspect_ratio">1</property>
    <property name="meta.media.color_range">mpeg</property>
    <property name="astream">0</property>
    <property name="shotcut:skipConvert">0</property>
    <property name="meta.media.top_field_first">0</property>
    <property name="meta.media.progressive">1</property>
    <property name="shotcut:hash">9ed2ab5ca14ff3f32da6061feeb032a5</property>
    <property name="ignore_points">0</property>
    <property name="shotcut:caption">2025-02-04 11-32-42.mkv</property>
    <property name="xml">was here</property>
  </chain>
  <chain id="chain72" out="00:38:30.800">
    <property name="length">00:38:30.817</property>
    <property name="eof">pause</property>
    <property name="resource">/home/alt/Vídeos/2025-02-04 11-32-42.mkv</property>
    <property name="mlt_service">avformat-novalidate</property>
    <property name="meta.media.nb_streams">2</property>
    <property name="meta.media.0.stream.type">video</property>
    <property name="meta.media.0.stream.frame_rate">60</property>
    <property name="meta.media.0.stream.sample_aspect_ratio">0</property>
    <property name="meta.media.0.codec.width">1920</property>
    <property name="meta.media.0.codec.height">1080</property>
    <property name="meta.media.0.codec.rotate">0</property>
    <property name="meta.media.0.codec.pix_fmt">yuv420p</property>
    <property name="meta.media.0.codec.sample_aspect_ratio">1</property>
    <property name="meta.media.0.codec.colorspace">709</property>
    <property name="meta.media.0.codec.color_trc">1</property>
    <property name="meta.media.0.codec.name">h264</property>
    <property name="meta.media.0.codec.long_name">H.264 / AVC / MPEG-4 AVC / MPEG-4 part 10</property>
    <property name="meta.media.0.codec.bit_rate">0</property>
    <property name="meta.attr.0.stream.DURATION.markup">00:38:30.817000000</property>
    <property name="meta.media.1.stream.type">audio</property>
    <property name="meta.media.1.codec.sample_fmt">fltp</property>
    <property name="meta.media.1.codec.sample_rate">48000</property>
    <property name="meta.media.1.codec.channels">2</property>
    <property name="meta.media.1.codec.layout">stereo</property>
    <property name="meta.media.1.codec.name">aac</property>
    <property name="meta.media.1.codec.long_name">AAC (Advanced Audio Coding)</property>
    <property name="meta.media.1.codec.bit_rate">0</property>
    <property name="meta.attr.1.stream.title.markup">simple_aac_recording0</property>
    <property name="meta.attr.1.stream.DURATION.markup">00:38:30.784000000</property>
    <property name="meta.attr.ENCODER.markup">Lavf58.76.100</property>
    <property name="seekable">1</property>
    <property name="meta.media.sample_aspect_num">1</property>
    <property name="meta.media.sample_aspect_den">1</property>
    <property name="audio_index">1</property>
    <property name="video_index">0</property>
    <property name="creation_time">2025-02-04T15:13:41</property>
    <property name="vstream">0</property>
    <property name="meta.media.frame_rate_num">60</property>
    <property name="meta.media.frame_rate_den">1</property>
    <property name="meta.media.colorspace">709</property>
    <property name="meta.media.color_trc">1</property>
    <property name="meta.media.has_b_frames">2</property>
    <property name="meta.media.width">1920</property>
    <property name="meta.media.height">1080</property>
    <property name="meta.media.aspect_ratio">1</property>
    <property name="meta.media.color_range">mpeg</property>
    <property name="astream">0</property>
    <property name="shotcut:skipConvert">0</property>
    <property name="meta.media.top_field_first">0</property>
    <property name="meta.media.progressive">1</property>
    <property name="shotcut:hash">9ed2ab5ca14ff3f32da6061feeb032a5</property>
    <property name="ignore_points">0</property>
    <property name="shotcut:caption">2025-02-04 11-32-42.mkv</property>
    <property name="xml">was here</property>
  </chain>
  <chain id="chain73" out="00:38:30.800">
    <property name="length">00:38:30.817</property>
    <property name="eof">pause</property>
    <property name="resource">/home/alt/Vídeos/2025-02-04 11-32-42.mkv</property>
    <property name="mlt_service">avformat-novalidate</property>
    <property name="meta.media.nb_streams">2</property>
    <property name="meta.media.0.stream.type">video</property>
    <property name="meta.media.0.stream.frame_rate">60</property>
    <property name="meta.media.0.stream.sample_aspect_ratio">0</property>
    <property name="meta.media.0.codec.width">1920</property>
    <property name="meta.media.0.codec.height">1080</property>
    <property name="meta.media.0.codec.rotate">0</property>
    <property name="meta.media.0.codec.pix_fmt">yuv420p</property>
    <property name="meta.media.0.codec.sample_aspect_ratio">1</property>
    <property name="meta.media.0.codec.colorspace">709</property>
    <property name="meta.media.0.codec.color_trc">1</property>
    <property name="meta.media.0.codec.name">h264</property>
    <property name="meta.media.0.codec.long_name">H.264 / AVC / MPEG-4 AVC / MPEG-4 part 10</property>
    <property name="meta.media.0.codec.bit_rate">0</property>
    <property name="meta.attr.0.stream.DURATION.markup">00:38:30.817000000</property>
    <property name="meta.media.1.stream.type">audio</property>
    <property name="meta.media.1.codec.sample_fmt">fltp</property>
    <property name="meta.media.1.codec.sample_rate">48000</property>
    <property name="meta.media.1.codec.channels">2</property>
    <property name="meta.media.1.codec.layout">stereo</property>
    <property name="meta.media.1.codec.name">aac</property>
    <property name="meta.media.1.codec.long_name">AAC (Advanced Audio Coding)</property>
    <property name="meta.media.1.codec.bit_rate">0</property>
    <property name="meta.attr.1.stream.title.markup">simple_aac_recording0</property>
    <property name="meta.attr.1.stream.DURATION.markup">00:38:30.784000000</property>
    <property name="meta.attr.ENCODER.markup">Lavf58.76.100</property>
    <property name="seekable">1</property>
    <property name="meta.media.sample_aspect_num">1</property>
    <property name="meta.media.sample_aspect_den">1</property>
    <property name="audio_index">1</property>
    <property name="video_index">0</property>
    <property name="creation_time">2025-02-04T15:13:41</property>
    <property name="vstream">0</property>
    <property name="meta.media.frame_rate_num">60</property>
    <property name="meta.media.frame_rate_den">1</property>
    <property name="meta.media.colorspace">709</property>
    <property name="meta.media.color_trc">1</property>
    <property name="meta.media.has_b_frames">2</property>
    <property name="meta.media.width">1920</property>
    <property name="meta.media.height">1080</property>
    <property name="meta.media.aspect_ratio">1</property>
    <property name="meta.media.color_range">mpeg</property>
    <property name="astream">0</property>
    <property name="shotcut:skipConvert">0</property>
    <property name="meta.media.top_field_first">0</property>
    <property name="meta.media.progressive">1</property>
    <property name="shotcut:hash">9ed2ab5ca14ff3f32da6061feeb032a5</property>
    <property name="ignore_points">0</property>
    <property name="shotcut:caption">2025-02-04 11-32-42.mkv</property>
    <property name="xml">was here</property>
  </chain>
  <chain id="chain74" out="00:38:30.800">
    <property name="length">00:38:30.817</property>
    <property name="eof">pause</property>
    <property name="resource">/home/alt/Vídeos/2025-02-04 11-32-42.mkv</property>
    <property name="mlt_service">avformat-novalidate</property>
    <property name="meta.media.nb_streams">2</property>
    <property name="meta.media.0.stream.type">video</property>
    <property name="meta.media.0.stream.frame_rate">60</property>
    <property name="meta.media.0.stream.sample_aspect_ratio">0</property>
    <property name="meta.media.0.codec.width">1920</property>
    <property name="meta.media.0.codec.height">1080</property>
    <property name="meta.media.0.codec.rotate">0</property>
    <property name="meta.media.0.codec.pix_fmt">yuv420p</property>
    <property name="meta.media.0.codec.sample_aspect_ratio">1</property>
    <property name="meta.media.0.codec.colorspace">709</property>
    <property name="meta.media.0.codec.color_trc">1</property>
    <property name="meta.media.0.codec.name">h264</property>
    <property name="meta.media.0.codec.long_name">H.264 / AVC / MPEG-4 AVC / MPEG-4 part 10</property>
    <property name="meta.media.0.codec.bit_rate">0</property>
    <property name="meta.attr.0.stream.DURATION.markup">00:38:30.817000000</property>
    <property name="meta.media.1.stream.type">audio</property>
    <property name="meta.media.1.codec.sample_fmt">fltp</property>
    <property name="meta.media.1.codec.sample_rate">48000</property>
    <property name="meta.media.1.codec.channels">2</property>
    <property name="meta.media.1.codec.layout">stereo</property>
    <property name="meta.media.1.codec.name">aac</property>
    <property name="meta.media.1.codec.long_name">AAC (Advanced Audio Coding)</property>
    <property name="meta.media.1.codec.bit_rate">0</property>
    <property name="meta.attr.1.stream.title.markup">simple_aac_recording0</property>
    <property name="meta.attr.1.stream.DURATION.markup">00:38:30.784000000</property>
    <property name="meta.attr.ENCODER.markup">Lavf58.76.100</property>
    <property name="seekable">1</property>
    <property name="meta.media.sample_aspect_num">1</property>
    <property name="meta.media.sample_aspect_den">1</property>
    <property name="audio_index">1</property>
    <property name="video_index">0</property>
    <property name="creation_time">2025-02-04T15:13:41</property>
    <property name="vstream">0</property>
    <property name="meta.media.frame_rate_num">60</property>
    <property name="meta.media.frame_rate_den">1</property>
    <property name="meta.media.colorspace">709</property>
    <property name="meta.media.color_trc">1</property>
    <property name="meta.media.has_b_frames">2</property>
    <property name="meta.media.width">1920</property>
    <property name="meta.media.height">1080</property>
    <property name="meta.media.aspect_ratio">1</property>
    <property name="meta.media.color_range">mpeg</property>
    <property name="astream">0</property>
    <property name="shotcut:skipConvert">0</property>
    <property name="meta.media.top_field_first">0</property>
    <property name="meta.media.progressive">1</property>
    <property name="shotcut:hash">9ed2ab5ca14ff3f32da6061feeb032a5</property>
    <property name="ignore_points">0</property>
    <property name="shotcut:caption">2025-02-04 11-32-42.mkv</property>
    <property name="xml">was here</property>
  </chain>
  <chain id="chain75" out="00:38:30.800">
    <property name="length">00:38:30.817</property>
    <property name="eof">pause</property>
    <property name="resource">/home/alt/Vídeos/2025-02-04 11-32-42.mkv</property>
    <property name="mlt_service">avformat-novalidate</property>
    <property name="meta.media.nb_streams">2</property>
    <property name="meta.media.0.stream.type">video</property>
    <property name="meta.media.0.stream.frame_rate">60</property>
    <property name="meta.media.0.stream.sample_aspect_ratio">0</property>
    <property name="meta.media.0.codec.width">1920</property>
    <property name="meta.media.0.codec.height">1080</property>
    <property name="meta.media.0.codec.rotate">0</property>
    <property name="meta.media.0.codec.pix_fmt">yuv420p</property>
    <property name="meta.media.0.codec.sample_aspect_ratio">1</property>
    <property name="meta.media.0.codec.colorspace">709</property>
    <property name="meta.media.0.codec.color_trc">1</property>
    <property name="meta.media.0.codec.name">h264</property>
    <property name="meta.media.0.codec.long_name">H.264 / AVC / MPEG-4 AVC / MPEG-4 part 10</property>
    <property name="meta.media.0.codec.bit_rate">0</property>
    <property name="meta.attr.0.stream.DURATION.markup">00:38:30.817000000</property>
    <property name="meta.media.1.stream.type">audio</property>
    <property name="meta.media.1.codec.sample_fmt">fltp</property>
    <property name="meta.media.1.codec.sample_rate">48000</property>
    <property name="meta.media.1.codec.channels">2</property>
    <property name="meta.media.1.codec.layout">stereo</property>
    <property name="meta.media.1.codec.name">aac</property>
    <property name="meta.media.1.codec.long_name">AAC (Advanced Audio Coding)</property>
    <property name="meta.media.1.codec.bit_rate">0</property>
    <property name="meta.attr.1.stream.title.markup">simple_aac_recording0</property>
    <property name="meta.attr.1.stream.DURATION.markup">00:38:30.784000000</property>
    <property name="meta.attr.ENCODER.markup">Lavf58.76.100</property>
    <property name="seekable">1</property>
    <property name="meta.media.sample_aspect_num">1</property>
    <property name="meta.media.sample_aspect_den">1</property>
    <property name="audio_index">1</property>
    <property name="video_index">0</property>
    <property name="creation_time">2025-02-04T15:13:41</property>
    <property name="vstream">0</property>
    <property name="meta.media.frame_rate_num">60</property>
    <property name="meta.media.frame_rate_den">1</property>
    <property name="meta.media.colorspace">709</property>
    <property name="meta.media.color_trc">1</property>
    <property name="meta.media.has_b_frames">2</property>
    <property name="meta.media.width">1920</property>
    <property name="meta.media.height">1080</property>
    <property name="meta.media.aspect_ratio">1</property>
    <property name="meta.media.color_range">mpeg</property>
    <property name="astream">0</property>
    <property name="shotcut:skipConvert">0</property>
    <property name="meta.media.top_field_first">0</property>
    <property name="meta.media.progressive">1</property>
    <property name="shotcut:hash">9ed2ab5ca14ff3f32da6061feeb032a5</property>
    <property name="ignore_points">0</property>
    <property name="shotcut:caption">2025-02-04 11-32-42.mkv</property>
    <property name="xml">was here</property>
  </chain>
  <chain id="chain76" out="00:38:30.800">
    <property name="length">00:38:30.817</property>
    <property name="eof">pause</property>
    <property name="resource">/home/alt/Vídeos/2025-02-04 11-32-42.mkv</property>
    <property name="mlt_service">avformat-novalidate</property>
    <property name="meta.media.nb_streams">2</property>
    <property name="meta.media.0.stream.type">video</property>
    <property name="meta.media.0.stream.frame_rate">60</property>
    <property name="meta.media.0.stream.sample_aspect_ratio">0</property>
    <property name="meta.media.0.codec.width">1920</property>
    <property name="meta.media.0.codec.height">1080</property>
    <property name="meta.media.0.codec.rotate">0</property>
    <property name="meta.media.0.codec.pix_fmt">yuv420p</property>
    <property name="meta.media.0.codec.sample_aspect_ratio">1</property>
    <property name="meta.media.0.codec.colorspace">709</property>
    <property name="meta.media.0.codec.color_trc">1</property>
    <property name="meta.media.0.codec.name">h264</property>
    <property name="meta.media.0.codec.long_name">H.264 / AVC / MPEG-4 AVC / MPEG-4 part 10</property>
    <property name="meta.media.0.codec.bit_rate">0</property>
    <property name="meta.attr.0.stream.DURATION.markup">00:38:30.817000000</property>
    <property name="meta.media.1.stream.type">audio</property>
    <property name="meta.media.1.codec.sample_fmt">fltp</property>
    <property name="meta.media.1.codec.sample_rate">48000</property>
    <property name="meta.media.1.codec.channels">2</property>
    <property name="meta.media.1.codec.layout">stereo</property>
    <property name="meta.media.1.codec.name">aac</property>
    <property name="meta.media.1.codec.long_name">AAC (Advanced Audio Coding)</property>
    <property name="meta.media.1.codec.bit_rate">0</property>
    <property name="meta.attr.1.stream.title.markup">simple_aac_recording0</property>
    <property name="meta.attr.1.stream.DURATION.markup">00:38:30.784000000</property>
    <property name="meta.attr.ENCODER.markup">Lavf58.76.100</property>
    <property name="seekable">1</property>
    <property name="meta.media.sample_aspect_num">1</property>
    <property name="meta.media.sample_aspect_den">1</property>
    <property name="audio_index">1</property>
    <property name="video_index">0</property>
    <property name="creation_time">2025-02-04T15:13:41</property>
    <property name="vstream">0</property>
    <property name="meta.media.frame_rate_num">60</property>
    <property name="meta.media.frame_rate_den">1</property>
    <property name="meta.media.colorspace">709</property>
    <property name="meta.media.color_trc">1</property>
    <property name="meta.media.has_b_frames">2</property>
    <property name="meta.media.width">1920</property>
    <property name="meta.media.height">1080</property>
    <property name="meta.media.aspect_ratio">1</property>
    <property name="meta.media.color_range">mpeg</property>
    <property name="astream">0</property>
    <property name="shotcut:skipConvert">0</property>
    <property name="meta.media.top_field_first">0</property>
    <property name="meta.media.progressive">1</property>
    <property name="shotcut:hash">9ed2ab5ca14ff3f32da6061feeb032a5</property>
    <property name="ignore_points">0</property>
    <property name="shotcut:caption">2025-02-04 11-32-42.mkv</property>
    <property name="xml">was here</property>
  </chain>
  <chain id="chain77" out="00:38:30.800">
    <property name="length">00:38:30.817</property>
    <property name="eof">pause</property>
    <property name="resource">/home/alt/Vídeos/2025-02-04 11-32-42.mkv</property>
    <property name="mlt_service">avformat-novalidate</property>
    <property name="meta.media.nb_streams">2</property>
    <property name="meta.media.0.stream.type">video</property>
    <property name="meta.media.0.stream.frame_rate">60</property>
    <property name="meta.media.0.stream.sample_aspect_ratio">0</property>
    <property name="meta.media.0.codec.width">1920</property>
    <property name="meta.media.0.codec.height">1080</property>
    <property name="meta.media.0.codec.rotate">0</property>
    <property name="meta.media.0.codec.pix_fmt">yuv420p</property>
    <property name="meta.media.0.codec.sample_aspect_ratio">1</property>
    <property name="meta.media.0.codec.colorspace">709</property>
    <property name="meta.media.0.codec.color_trc">1</property>
    <property name="meta.media.0.codec.name">h264</property>
    <property name="meta.media.0.codec.long_name">H.264 / AVC / MPEG-4 AVC / MPEG-4 part 10</property>
    <property name="meta.media.0.codec.bit_rate">0</property>
    <property name="meta.attr.0.stream.DURATION.markup">00:38:30.817000000</property>
    <property name="meta.media.1.stream.type">audio</property>
    <property name="meta.media.1.codec.sample_fmt">fltp</property>
    <property name="meta.media.1.codec.sample_rate">48000</property>
    <property name="meta.media.1.codec.channels">2</property>
    <property name="meta.media.1.codec.layout">stereo</property>
    <property name="meta.media.1.codec.name">aac</property>
    <property name="meta.media.1.codec.long_name">AAC (Advanced Audio Coding)</property>
    <property name="meta.media.1.codec.bit_rate">0</property>
    <property name="meta.attr.1.stream.title.markup">simple_aac_recording0</property>
    <property name="meta.attr.1.stream.DURATION.markup">00:38:30.784000000</property>
    <property name="meta.attr.ENCODER.markup">Lavf58.76.100</property>
    <property name="seekable">1</property>
    <property name="meta.media.sample_aspect_num">1</property>
    <property name="meta.media.sample_aspect_den">1</property>
    <property name="audio_index">1</property>
    <property name="video_index">0</property>
    <property name="creation_time">2025-02-04T15:13:41</property>
    <property name="vstream">0</property>
    <property name="meta.media.frame_rate_num">60</property>
    <property name="meta.media.frame_rate_den">1</property>
    <property name="meta.media.colorspace">709</property>
    <property name="meta.media.color_trc">1</property>
    <property name="meta.media.has_b_frames">2</property>
    <property name="meta.media.width">1920</property>
    <property name="meta.media.height">1080</property>
    <property name="meta.media.aspect_ratio">1</property>
    <property name="meta.media.color_range">mpeg</property>
    <property name="astream">0</property>
    <property name="shotcut:skipConvert">0</property>
    <property name="meta.media.top_field_first">0</property>
    <property name="meta.media.progressive">1</property>
    <property name="shotcut:hash">9ed2ab5ca14ff3f32da6061feeb032a5</property>
    <property name="ignore_points">0</property>
    <property name="shotcut:caption">2025-02-04 11-32-42.mkv</property>
    <property name="xml">was here</property>
  </chain>
  <chain id="chain78" out="00:38:30.800">
    <property name="length">00:38:30.817</property>
    <property name="eof">pause</property>
    <property name="resource">/home/alt/Vídeos/2025-02-04 11-32-42.mkv</property>
    <property name="mlt_service">avformat-novalidate</property>
    <property name="meta.media.nb_streams">2</property>
    <property name="meta.media.0.stream.type">video</property>
    <property name="meta.media.0.stream.frame_rate">60</property>
    <property name="meta.media.0.stream.sample_aspect_ratio">0</property>
    <property name="meta.media.0.codec.width">1920</property>
    <property name="meta.media.0.codec.height">1080</property>
    <property name="meta.media.0.codec.rotate">0</property>
    <property name="meta.media.0.codec.pix_fmt">yuv420p</property>
    <property name="meta.media.0.codec.sample_aspect_ratio">1</property>
    <property name="meta.media.0.codec.colorspace">709</property>
    <property name="meta.media.0.codec.color_trc">1</property>
    <property name="meta.media.0.codec.name">h264</property>
    <property name="meta.media.0.codec.long_name">H.264 / AVC / MPEG-4 AVC / MPEG-4 part 10</property>
    <property name="meta.media.0.codec.bit_rate">0</property>
    <property name="meta.attr.0.stream.DURATION.markup">00:38:30.817000000</property>
    <property name="meta.media.1.stream.type">audio</property>
    <property name="meta.media.1.codec.sample_fmt">fltp</property>
    <property name="meta.media.1.codec.sample_rate">48000</property>
    <property name="meta.media.1.codec.channels">2</property>
    <property name="meta.media.1.codec.layout">stereo</property>
    <property name="meta.media.1.codec.name">aac</property>
    <property name="meta.media.1.codec.long_name">AAC (Advanced Audio Coding)</property>
    <property name="meta.media.1.codec.bit_rate">0</property>
    <property name="meta.attr.1.stream.title.markup">simple_aac_recording0</property>
    <property name="meta.attr.1.stream.DURATION.markup">00:38:30.784000000</property>
    <property name="meta.attr.ENCODER.markup">Lavf58.76.100</property>
    <property name="seekable">1</property>
    <property name="meta.media.sample_aspect_num">1</property>
    <property name="meta.media.sample_aspect_den">1</property>
    <property name="audio_index">1</property>
    <property name="video_index">0</property>
    <property name="creation_time">2025-02-04T15:13:41</property>
    <property name="vstream">0</property>
    <property name="meta.media.frame_rate_num">60</property>
    <property name="meta.media.frame_rate_den">1</property>
    <property name="meta.media.colorspace">709</property>
    <property name="meta.media.color_trc">1</property>
    <property name="meta.media.has_b_frames">2</property>
    <property name="meta.media.width">1920</property>
    <property name="meta.media.height">1080</property>
    <property name="meta.media.aspect_ratio">1</property>
    <property name="meta.media.color_range">mpeg</property>
    <property name="astream">0</property>
    <property name="shotcut:skipConvert">0</property>
    <property name="meta.media.top_field_first">0</property>
    <property name="meta.media.progressive">1</property>
    <property name="shotcut:hash">9ed2ab5ca14ff3f32da6061feeb032a5</property>
    <property name="ignore_points">0</property>
    <property name="shotcut:caption">2025-02-04 11-32-42.mkv</property>
    <property name="xml">was here</property>
  </chain>
  <chain id="chain79" out="00:38:30.800">
    <property name="length">00:38:30.817</property>
    <property name="eof">pause</property>
    <property name="resource">/home/alt/Vídeos/2025-02-04 11-32-42.mkv</property>
    <property name="mlt_service">avformat-novalidate</property>
    <property name="meta.media.nb_streams">2</property>
    <property name="meta.media.0.stream.type">video</property>
    <property name="meta.media.0.stream.frame_rate">60</property>
    <property name="meta.media.0.stream.sample_aspect_ratio">0</property>
    <property name="meta.media.0.codec.width">1920</property>
    <property name="meta.media.0.codec.height">1080</property>
    <property name="meta.media.0.codec.rotate">0</property>
    <property name="meta.media.0.codec.pix_fmt">yuv420p</property>
    <property name="meta.media.0.codec.sample_aspect_ratio">1</property>
    <property name="meta.media.0.codec.colorspace">709</property>
    <property name="meta.media.0.codec.color_trc">1</property>
    <property name="meta.media.0.codec.name">h264</property>
    <property name="meta.media.0.codec.long_name">H.264 / AVC / MPEG-4 AVC / MPEG-4 part 10</property>
    <property name="meta.media.0.codec.bit_rate">0</property>
    <property name="meta.attr.0.stream.DURATION.markup">00:38:30.817000000</property>
    <property name="meta.media.1.stream.type">audio</property>
    <property name="meta.media.1.codec.sample_fmt">fltp</property>
    <property name="meta.media.1.codec.sample_rate">48000</property>
    <property name="meta.media.1.codec.channels">2</property>
    <property name="meta.media.1.codec.layout">stereo</property>
    <property name="meta.media.1.codec.name">aac</property>
    <property name="meta.media.1.codec.long_name">AAC (Advanced Audio Coding)</property>
    <property name="meta.media.1.codec.bit_rate">0</property>
    <property name="meta.attr.1.stream.title.markup">simple_aac_recording0</property>
    <property name="meta.attr.1.stream.DURATION.markup">00:38:30.784000000</property>
    <property name="meta.attr.ENCODER.markup">Lavf58.76.100</property>
    <property name="seekable">1</property>
    <property name="meta.media.sample_aspect_num">1</property>
    <property name="meta.media.sample_aspect_den">1</property>
    <property name="audio_index">1</property>
    <property name="video_index">0</property>
    <property name="creation_time">2025-02-04T15:13:41</property>
    <property name="vstream">0</property>
    <property name="meta.media.frame_rate_num">60</property>
    <property name="meta.media.frame_rate_den">1</property>
    <property name="meta.media.colorspace">709</property>
    <property name="meta.media.color_trc">1</property>
    <property name="meta.media.has_b_frames">2</property>
    <property name="meta.media.width">1920</property>
    <property name="meta.media.height">1080</property>
    <property name="meta.media.aspect_ratio">1</property>
    <property name="meta.media.color_range">mpeg</property>
    <property name="astream">0</property>
    <property name="shotcut:skipConvert">0</property>
    <property name="meta.media.top_field_first">0</property>
    <property name="meta.media.progressive">1</property>
    <property name="shotcut:hash">9ed2ab5ca14ff3f32da6061feeb032a5</property>
    <property name="ignore_points">0</property>
    <property name="shotcut:caption">2025-02-04 11-32-42.mkv</property>
    <property name="xml">was here</property>
  </chain>
  <chain id="chain80" out="00:38:30.800">
    <property name="length">00:38:30.817</property>
    <property name="eof">pause</property>
    <property name="resource">/home/alt/Vídeos/2025-02-04 11-32-42.mkv</property>
    <property name="mlt_service">avformat-novalidate</property>
    <property name="meta.media.nb_streams">2</property>
    <property name="meta.media.0.stream.type">video</property>
    <property name="meta.media.0.stream.frame_rate">60</property>
    <property name="meta.media.0.stream.sample_aspect_ratio">0</property>
    <property name="meta.media.0.codec.width">1920</property>
    <property name="meta.media.0.codec.height">1080</property>
    <property name="meta.media.0.codec.rotate">0</property>
    <property name="meta.media.0.codec.pix_fmt">yuv420p</property>
    <property name="meta.media.0.codec.sample_aspect_ratio">1</property>
    <property name="meta.media.0.codec.colorspace">709</property>
    <property name="meta.media.0.codec.color_trc">1</property>
    <property name="meta.media.0.codec.name">h264</property>
    <property name="meta.media.0.codec.long_name">H.264 / AVC / MPEG-4 AVC / MPEG-4 part 10</property>
    <property name="meta.media.0.codec.bit_rate">0</property>
    <property name="meta.attr.0.stream.DURATION.markup">00:38:30.817000000</property>
    <property name="meta.media.1.stream.type">audio</property>
    <property name="meta.media.1.codec.sample_fmt">fltp</property>
    <property name="meta.media.1.codec.sample_rate">48000</property>
    <property name="meta.media.1.codec.channels">2</property>
    <property name="meta.media.1.codec.layout">stereo</property>
    <property name="meta.media.1.codec.name">aac</property>
    <property name="meta.media.1.codec.long_name">AAC (Advanced Audio Coding)</property>
    <property name="meta.media.1.codec.bit_rate">0</property>
    <property name="meta.attr.1.stream.title.markup">simple_aac_recording0</property>
    <property name="meta.attr.1.stream.DURATION.markup">00:38:30.784000000</property>
    <property name="meta.attr.ENCODER.markup">Lavf58.76.100</property>
    <property name="seekable">1</property>
    <property name="meta.media.sample_aspect_num">1</property>
    <property name="meta.media.sample_aspect_den">1</property>
    <property name="audio_index">1</property>
    <property name="video_index">0</property>
    <property name="creation_time">2025-02-04T15:13:41</property>
    <property name="vstream">0</property>
    <property name="meta.media.frame_rate_num">60</property>
    <property name="meta.media.frame_rate_den">1</property>
    <property name="meta.media.colorspace">709</property>
    <property name="meta.media.color_trc">1</property>
    <property name="meta.media.has_b_frames">2</property>
    <property name="meta.media.width">1920</property>
    <property name="meta.media.height">1080</property>
    <property name="meta.media.aspect_ratio">1</property>
    <property name="meta.media.color_range">mpeg</property>
    <property name="astream">0</property>
    <property name="shotcut:skipConvert">0</property>
    <property name="meta.media.top_field_first">0</property>
    <property name="meta.media.progressive">1</property>
    <property name="shotcut:hash">9ed2ab5ca14ff3f32da6061feeb032a5</property>
    <property name="ignore_points">0</property>
    <property name="shotcut:caption">2025-02-04 11-32-42.mkv</property>
    <property name="xml">was here</property>
  </chain>
  <chain id="chain81" out="00:38:30.800">
    <property name="length">00:38:30.817</property>
    <property name="eof">pause</property>
    <property name="resource">/home/alt/Vídeos/2025-02-04 11-32-42.mkv</property>
    <property name="mlt_service">avformat-novalidate</property>
    <property name="meta.media.nb_streams">2</property>
    <property name="meta.media.0.stream.type">video</property>
    <property name="meta.media.0.stream.frame_rate">60</property>
    <property name="meta.media.0.stream.sample_aspect_ratio">0</property>
    <property name="meta.media.0.codec.width">1920</property>
    <property name="meta.media.0.codec.height">1080</property>
    <property name="meta.media.0.codec.rotate">0</property>
    <property name="meta.media.0.codec.pix_fmt">yuv420p</property>
    <property name="meta.media.0.codec.sample_aspect_ratio">1</property>
    <property name="meta.media.0.codec.colorspace">709</property>
    <property name="meta.media.0.codec.color_trc">1</property>
    <property name="meta.media.0.codec.name">h264</property>
    <property name="meta.media.0.codec.long_name">H.264 / AVC / MPEG-4 AVC / MPEG-4 part 10</property>
    <property name="meta.media.0.codec.bit_rate">0</property>
    <property name="meta.attr.0.stream.DURATION.markup">00:38:30.817000000</property>
    <property name="meta.media.1.stream.type">audio</property>
    <property name="meta.media.1.codec.sample_fmt">fltp</property>
    <property name="meta.media.1.codec.sample_rate">48000</property>
    <property name="meta.media.1.codec.channels">2</property>
    <property name="meta.media.1.codec.layout">stereo</property>
    <property name="meta.media.1.codec.name">aac</property>
    <property name="meta.media.1.codec.long_name">AAC (Advanced Audio Coding)</property>
    <property name="meta.media.1.codec.bit_rate">0</property>
    <property name="meta.attr.1.stream.title.markup">simple_aac_recording0</property>
    <property name="meta.attr.1.stream.DURATION.markup">00:38:30.784000000</property>
    <property name="meta.attr.ENCODER.markup">Lavf58.76.100</property>
    <property name="seekable">1</property>
    <property name="meta.media.sample_aspect_num">1</property>
    <property name="meta.media.sample_aspect_den">1</property>
    <property name="audio_index">1</property>
    <property name="video_index">0</property>
    <property name="creation_time">2025-02-04T15:13:41</property>
    <property name="vstream">0</property>
    <property name="meta.media.frame_rate_num">60</property>
    <property name="meta.media.frame_rate_den">1</property>
    <property name="meta.media.colorspace">709</property>
    <property name="meta.media.color_trc">1</property>
    <property name="meta.media.has_b_frames">2</property>
    <property name="meta.media.width">1920</property>
    <property name="meta.media.height">1080</property>
    <property name="meta.media.aspect_ratio">1</property>
    <property name="meta.media.color_range">mpeg</property>
    <property name="astream">0</property>
    <property name="shotcut:skipConvert">0</property>
    <property name="meta.media.top_field_first">0</property>
    <property name="meta.media.progressive">1</property>
    <property name="shotcut:hash">9ed2ab5ca14ff3f32da6061feeb032a5</property>
    <property name="ignore_points">0</property>
    <property name="shotcut:caption">2025-02-04 11-32-42.mkv</property>
    <property name="xml">was here</property>
  </chain>
  <chain id="chain82" out="00:38:30.800">
    <property name="length">00:38:30.817</property>
    <property name="eof">pause</property>
    <property name="resource">/home/alt/Vídeos/2025-02-04 11-32-42.mkv</property>
    <property name="mlt_service">avformat-novalidate</property>
    <property name="meta.media.nb_streams">2</property>
    <property name="meta.media.0.stream.type">video</property>
    <property name="meta.media.0.stream.frame_rate">60</property>
    <property name="meta.media.0.stream.sample_aspect_ratio">0</property>
    <property name="meta.media.0.codec.width">1920</property>
    <property name="meta.media.0.codec.height">1080</property>
    <property name="meta.media.0.codec.rotate">0</property>
    <property name="meta.media.0.codec.pix_fmt">yuv420p</property>
    <property name="meta.media.0.codec.sample_aspect_ratio">1</property>
    <property name="meta.media.0.codec.colorspace">709</property>
    <property name="meta.media.0.codec.color_trc">1</property>
    <property name="meta.media.0.codec.name">h264</property>
    <property name="meta.media.0.codec.long_name">H.264 / AVC / MPEG-4 AVC / MPEG-4 part 10</property>
    <property name="meta.media.0.codec.bit_rate">0</property>
    <property name="meta.attr.0.stream.DURATION.markup">00:38:30.817000000</property>
    <property name="meta.media.1.stream.type">audio</property>
    <property name="meta.media.1.codec.sample_fmt">fltp</property>
    <property name="meta.media.1.codec.sample_rate">48000</property>
    <property name="meta.media.1.codec.channels">2</property>
    <property name="meta.media.1.codec.layout">stereo</property>
    <property name="meta.media.1.codec.name">aac</property>
    <property name="meta.media.1.codec.long_name">AAC (Advanced Audio Coding)</property>
    <property name="meta.media.1.codec.bit_rate">0</property>
    <property name="meta.attr.1.stream.title.markup">simple_aac_recording0</property>
    <property name="meta.attr.1.stream.DURATION.markup">00:38:30.784000000</property>
    <property name="meta.attr.ENCODER.markup">Lavf58.76.100</property>
    <property name="seekable">1</property>
    <property name="meta.media.sample_aspect_num">1</property>
    <property name="meta.media.sample_aspect_den">1</property>
    <property name="audio_index">1</property>
    <property name="video_index">0</property>
    <property name="creation_time">2025-02-04T15:13:41</property>
    <property name="vstream">0</property>
    <property name="meta.media.frame_rate_num">60</property>
    <property name="meta.media.frame_rate_den">1</property>
    <property name="meta.media.colorspace">709</property>
    <property name="meta.media.color_trc">1</property>
    <property name="meta.media.has_b_frames">2</property>
    <property name="meta.media.width">1920</property>
    <property name="meta.media.height">1080</property>
    <property name="meta.media.aspect_ratio">1</property>
    <property name="meta.media.color_range">mpeg</property>
    <property name="astream">0</property>
    <property name="shotcut:skipConvert">0</property>
    <property name="meta.media.top_field_first">0</property>
    <property name="meta.media.progressive">1</property>
    <property name="shotcut:hash">9ed2ab5ca14ff3f32da6061feeb032a5</property>
    <property name="ignore_points">0</property>
    <property name="shotcut:caption">2025-02-04 11-32-42.mkv</property>
    <property name="xml">was here</property>
  </chain>
  <chain id="chain83" out="00:38:30.800">
    <property name="length">00:38:30.817</property>
    <property name="eof">pause</property>
    <property name="resource">/home/alt/Vídeos/2025-02-04 11-32-42.mkv</property>
    <property name="mlt_service">avformat-novalidate</property>
    <property name="meta.media.nb_streams">2</property>
    <property name="meta.media.0.stream.type">video</property>
    <property name="meta.media.0.stream.frame_rate">60</property>
    <property name="meta.media.0.stream.sample_aspect_ratio">0</property>
    <property name="meta.media.0.codec.width">1920</property>
    <property name="meta.media.0.codec.height">1080</property>
    <property name="meta.media.0.codec.rotate">0</property>
    <property name="meta.media.0.codec.pix_fmt">yuv420p</property>
    <property name="meta.media.0.codec.sample_aspect_ratio">1</property>
    <property name="meta.media.0.codec.colorspace">709</property>
    <property name="meta.media.0.codec.color_trc">1</property>
    <property name="meta.media.0.codec.name">h264</property>
    <property name="meta.media.0.codec.long_name">H.264 / AVC / MPEG-4 AVC / MPEG-4 part 10</property>
    <property name="meta.media.0.codec.bit_rate">0</property>
    <property name="meta.attr.0.stream.DURATION.markup">00:38:30.817000000</property>
    <property name="meta.media.1.stream.type">audio</property>
    <property name="meta.media.1.codec.sample_fmt">fltp</property>
    <property name="meta.media.1.codec.sample_rate">48000</property>
    <property name="meta.media.1.codec.channels">2</property>
    <property name="meta.media.1.codec.layout">stereo</property>
    <property name="meta.media.1.codec.name">aac</property>
    <property name="meta.media.1.codec.long_name">AAC (Advanced Audio Coding)</property>
    <property name="meta.media.1.codec.bit_rate">0</property>
    <property name="meta.attr.1.stream.title.markup">simple_aac_recording0</property>
    <property name="meta.attr.1.stream.DURATION.markup">00:38:30.784000000</property>
    <property name="meta.attr.ENCODER.markup">Lavf58.76.100</property>
    <property name="seekable">1</property>
    <property name="meta.media.sample_aspect_num">1</property>
    <property name="meta.media.sample_aspect_den">1</property>
    <property name="audio_index">1</property>
    <property name="video_index">0</property>
    <property name="creation_time">2025-02-04T15:13:41</property>
    <property name="vstream">0</property>
    <property name="meta.media.frame_rate_num">60</property>
    <property name="meta.media.frame_rate_den">1</property>
    <property name="meta.media.colorspace">709</property>
    <property name="meta.media.color_trc">1</property>
    <property name="meta.media.has_b_frames">2</property>
    <property name="meta.media.width">1920</property>
    <property name="meta.media.height">1080</property>
    <property name="meta.media.aspect_ratio">1</property>
    <property name="meta.media.color_range">mpeg</property>
    <property name="astream">0</property>
    <property name="shotcut:skipConvert">0</property>
    <property name="meta.media.top_field_first">0</property>
    <property name="meta.media.progressive">1</property>
    <property name="shotcut:hash">9ed2ab5ca14ff3f32da6061feeb032a5</property>
    <property name="ignore_points">0</property>
    <property name="shotcut:caption">2025-02-04 11-32-42.mkv</property>
    <property name="xml">was here</property>
  </chain>
  <chain id="chain84" out="00:38:30.800">
    <property name="length">00:38:30.817</property>
    <property name="eof">pause</property>
    <property name="resource">/home/alt/Vídeos/2025-02-04 11-32-42.mkv</property>
    <property name="mlt_service">avformat-novalidate</property>
    <property name="meta.media.nb_streams">2</property>
    <property name="meta.media.0.stream.type">video</property>
    <property name="meta.media.0.stream.frame_rate">60</property>
    <property name="meta.media.0.stream.sample_aspect_ratio">0</property>
    <property name="meta.media.0.codec.width">1920</property>
    <property name="meta.media.0.codec.height">1080</property>
    <property name="meta.media.0.codec.rotate">0</property>
    <property name="meta.media.0.codec.pix_fmt">yuv420p</property>
    <property name="meta.media.0.codec.sample_aspect_ratio">1</property>
    <property name="meta.media.0.codec.colorspace">709</property>
    <property name="meta.media.0.codec.color_trc">1</property>
    <property name="meta.media.0.codec.name">h264</property>
    <property name="meta.media.0.codec.long_name">H.264 / AVC / MPEG-4 AVC / MPEG-4 part 10</property>
    <property name="meta.media.0.codec.bit_rate">0</property>
    <property name="meta.attr.0.stream.DURATION.markup">00:38:30.817000000</property>
    <property name="meta.media.1.stream.type">audio</property>
    <property name="meta.media.1.codec.sample_fmt">fltp</property>
    <property name="meta.media.1.codec.sample_rate">48000</property>
    <property name="meta.media.1.codec.channels">2</property>
    <property name="meta.media.1.codec.layout">stereo</property>
    <property name="meta.media.1.codec.name">aac</property>
    <property name="meta.media.1.codec.long_name">AAC (Advanced Audio Coding)</property>
    <property name="meta.media.1.codec.bit_rate">0</property>
    <property name="meta.attr.1.stream.title.markup">simple_aac_recording0</property>
    <property name="meta.attr.1.stream.DURATION.markup">00:38:30.784000000</property>
    <property name="meta.attr.ENCODER.markup">Lavf58.76.100</property>
    <property name="seekable">1</property>
    <property name="meta.media.sample_aspect_num">1</property>
    <property name="meta.media.sample_aspect_den">1</property>
    <property name="audio_index">1</property>
    <property name="video_index">0</property>
    <property name="creation_time">2025-02-04T15:13:41</property>
    <property name="vstream">0</property>
    <property name="meta.media.frame_rate_num">60</property>
    <property name="meta.media.frame_rate_den">1</property>
    <property name="meta.media.colorspace">709</property>
    <property name="meta.media.color_trc">1</property>
    <property name="meta.media.has_b_frames">2</property>
    <property name="meta.media.width">1920</property>
    <property name="meta.media.height">1080</property>
    <property name="meta.media.aspect_ratio">1</property>
    <property name="meta.media.color_range">mpeg</property>
    <property name="astream">0</property>
    <property name="shotcut:skipConvert">0</property>
    <property name="meta.media.top_field_first">0</property>
    <property name="meta.media.progressive">1</property>
    <property name="shotcut:hash">9ed2ab5ca14ff3f32da6061feeb032a5</property>
    <property name="ignore_points">0</property>
    <property name="shotcut:caption">2025-02-04 11-32-42.mkv</property>
    <property name="xml">was here</property>
  </chain>
  <chain id="chain85" out="00:38:30.800">
    <property name="length">00:38:30.817</property>
    <property name="eof">pause</property>
    <property name="resource">/home/alt/Vídeos/2025-02-04 11-32-42.mkv</property>
    <property name="mlt_service">avformat-novalidate</property>
    <property name="meta.media.nb_streams">2</property>
    <property name="meta.media.0.stream.type">video</property>
    <property name="meta.media.0.stream.frame_rate">60</property>
    <property name="meta.media.0.stream.sample_aspect_ratio">0</property>
    <property name="meta.media.0.codec.width">1920</property>
    <property name="meta.media.0.codec.height">1080</property>
    <property name="meta.media.0.codec.rotate">0</property>
    <property name="meta.media.0.codec.pix_fmt">yuv420p</property>
    <property name="meta.media.0.codec.sample_aspect_ratio">1</property>
    <property name="meta.media.0.codec.colorspace">709</property>
    <property name="meta.media.0.codec.color_trc">1</property>
    <property name="meta.media.0.codec.name">h264</property>
    <property name="meta.media.0.codec.long_name">H.264 / AVC / MPEG-4 AVC / MPEG-4 part 10</property>
    <property name="meta.media.0.codec.bit_rate">0</property>
    <property name="meta.attr.0.stream.DURATION.markup">00:38:30.817000000</property>
    <property name="meta.media.1.stream.type">audio</property>
    <property name="meta.media.1.codec.sample_fmt">fltp</property>
    <property name="meta.media.1.codec.sample_rate">48000</property>
    <property name="meta.media.1.codec.channels">2</property>
    <property name="meta.media.1.codec.layout">stereo</property>
    <property name="meta.media.1.codec.name">aac</property>
    <property name="meta.media.1.codec.long_name">AAC (Advanced Audio Coding)</property>
    <property name="meta.media.1.codec.bit_rate">0</property>
    <property name="meta.attr.1.stream.title.markup">simple_aac_recording0</property>
    <property name="meta.attr.1.stream.DURATION.markup">00:38:30.784000000</property>
    <property name="meta.attr.ENCODER.markup">Lavf58.76.100</property>
    <property name="seekable">1</property>
    <property name="meta.media.sample_aspect_num">1</property>
    <property name="meta.media.sample_aspect_den">1</property>
    <property name="audio_index">1</property>
    <property name="video_index">0</property>
    <property name="creation_time">2025-02-04T15:13:41</property>
    <property name="vstream">0</property>
    <property name="meta.media.frame_rate_num">60</property>
    <property name="meta.media.frame_rate_den">1</property>
    <property name="meta.media.colorspace">709</property>
    <property name="meta.media.color_trc">1</property>
    <property name="meta.media.has_b_frames">2</property>
    <property name="meta.media.width">1920</property>
    <property name="meta.media.height">1080</property>
    <property name="meta.media.aspect_ratio">1</property>
    <property name="meta.media.color_range">mpeg</property>
    <property name="astream">0</property>
    <property name="shotcut:skipConvert">0</property>
    <property name="meta.media.top_field_first">0</property>
    <property name="meta.media.progressive">1</property>
    <property name="shotcut:hash">9ed2ab5ca14ff3f32da6061feeb032a5</property>
    <property name="ignore_points">0</property>
    <property name="shotcut:caption">2025-02-04 11-32-42.mkv</property>
    <property name="xml">was here</property>
  </chain>
  <chain id="chain86" out="00:38:30.800">
    <property name="length">00:38:30.817</property>
    <property name="eof">pause</property>
    <property name="resource">/home/alt/Vídeos/2025-02-04 11-32-42.mkv</property>
    <property name="mlt_service">avformat-novalidate</property>
    <property name="meta.media.nb_streams">2</property>
    <property name="meta.media.0.stream.type">video</property>
    <property name="meta.media.0.stream.frame_rate">60</property>
    <property name="meta.media.0.stream.sample_aspect_ratio">0</property>
    <property name="meta.media.0.codec.width">1920</property>
    <property name="meta.media.0.codec.height">1080</property>
    <property name="meta.media.0.codec.rotate">0</property>
    <property name="meta.media.0.codec.pix_fmt">yuv420p</property>
    <property name="meta.media.0.codec.sample_aspect_ratio">1</property>
    <property name="meta.media.0.codec.colorspace">709</property>
    <property name="meta.media.0.codec.color_trc">1</property>
    <property name="meta.media.0.codec.name">h264</property>
    <property name="meta.media.0.codec.long_name">H.264 / AVC / MPEG-4 AVC / MPEG-4 part 10</property>
    <property name="meta.media.0.codec.bit_rate">0</property>
    <property name="meta.attr.0.stream.DURATION.markup">00:38:30.817000000</property>
    <property name="meta.media.1.stream.type">audio</property>
    <property name="meta.media.1.codec.sample_fmt">fltp</property>
    <property name="meta.media.1.codec.sample_rate">48000</property>
    <property name="meta.media.1.codec.channels">2</property>
    <property name="meta.media.1.codec.layout">stereo</property>
    <property name="meta.media.1.codec.name">aac</property>
    <property name="meta.media.1.codec.long_name">AAC (Advanced Audio Coding)</property>
    <property name="meta.media.1.codec.bit_rate">0</property>
    <property name="meta.attr.1.stream.title.markup">simple_aac_recording0</property>
    <property name="meta.attr.1.stream.DURATION.markup">00:38:30.784000000</property>
    <property name="meta.attr.ENCODER.markup">Lavf58.76.100</property>
    <property name="seekable">1</property>
    <property name="meta.media.sample_aspect_num">1</property>
    <property name="meta.media.sample_aspect_den">1</property>
    <property name="audio_index">1</property>
    <property name="video_index">0</property>
    <property name="creation_time">2025-02-04T15:13:41</property>
    <property name="vstream">0</property>
    <property name="meta.media.frame_rate_num">60</property>
    <property name="meta.media.frame_rate_den">1</property>
    <property name="meta.media.colorspace">709</property>
    <property name="meta.media.color_trc">1</property>
    <property name="meta.media.has_b_frames">2</property>
    <property name="meta.media.width">1920</property>
    <property name="meta.media.height">1080</property>
    <property name="meta.media.aspect_ratio">1</property>
    <property name="meta.media.color_range">mpeg</property>
    <property name="astream">0</property>
    <property name="shotcut:skipConvert">0</property>
    <property name="meta.media.top_field_first">0</property>
    <property name="meta.media.progressive">1</property>
    <property name="shotcut:hash">9ed2ab5ca14ff3f32da6061feeb032a5</property>
    <property name="ignore_points">0</property>
    <property name="shotcut:caption">2025-02-04 11-32-42.mkv</property>
    <property name="xml">was here</property>
    <property name="meta.shotcut.vui">1</property>
    <filter id="filter0" in="00:18:50.283" out="00:18:55.617">
      <property name="argument"></property>
      <property name="geometry">192 591 1536 381 1</property>
      <property name="family">Sans</property>
      <property name="size">48</property>
      <property name="weight">400</property>
      <property name="style">normal</property>
      <property name="fgcolour">0x000000ff</property>
      <property name="bgcolour">#00000000</property>
      <property name="olcolour">0x00000000</property>
      <property name="pad">0</property>
      <property name="halign">left</property>
      <property name="valign">top</property>
      <property name="outline">0</property>
      <property name="pixel_ratio">1</property>
      <property name="opacity">1</property>
      <property name="mlt_service">qtext</property>
      <property name="shotcut:filter">richText</property>
      <property name="html">&lt;!DOCTYPE HTML PUBLIC &quot;-//W3C//DTD HTML 4.0//EN&quot; &quot;http://www.w3.org/TR/REC-html40/strict.dtd&quot;&gt;
&lt;html&gt;&lt;head&gt;&lt;meta name=&quot;qrichtext&quot; content=&quot;1&quot; /&gt;&lt;meta charset=&quot;utf-8&quot; /&gt;&lt;style type=&quot;text/css&quot;&gt;
p, li { white-space: pre-wrap; }
hr { height: 1px; border-width: 0; }
li.unchecked::marker { content: &quot;\2610&quot;; }
li.checked::marker { content: &quot;\2612&quot;; }
&lt;/style&gt;&lt;/head&gt;&lt;body style=&quot; font-family:'Ubuntu'; font-size:11pt; font-weight:400; font-style:normal;&quot;&gt;
&lt;p align=&quot;center&quot; style=&quot; margin-top:0px; margin-bottom:0px; margin-left:0px; margin-right:0px; -qt-block-indent:0; text-indent:0px;&quot;&gt;&lt;span style=&quot; font-family:'sans-serif'; font-size:72pt; font-weight:700; color:#aaff00;&quot;&gt;*Um erro: Eu falei de uso na Web mas SqLite NÃO funciona na web.&lt;/span&gt;&lt;/p&gt;&lt;/body&gt;&lt;/html&gt;</property>
      <property name="shotcut:animIn">00:00:00.000</property>
      <property name="shotcut:animOut">00:00:00.000</property>
    </filter>
  </chain>
  <chain id="chain87" out="00:38:30.800">
    <property name="length">00:38:30.817</property>
    <property name="eof">pause</property>
    <property name="resource">/home/alt/Vídeos/2025-02-04 11-32-42.mkv</property>
    <property name="mlt_service">avformat-novalidate</property>
    <property name="meta.media.nb_streams">2</property>
    <property name="meta.media.0.stream.type">video</property>
    <property name="meta.media.0.stream.frame_rate">60</property>
    <property name="meta.media.0.stream.sample_aspect_ratio">0</property>
    <property name="meta.media.0.codec.width">1920</property>
    <property name="meta.media.0.codec.height">1080</property>
    <property name="meta.media.0.codec.rotate">0</property>
    <property name="meta.media.0.codec.pix_fmt">yuv420p</property>
    <property name="meta.media.0.codec.sample_aspect_ratio">1</property>
    <property name="meta.media.0.codec.colorspace">709</property>
    <property name="meta.media.0.codec.color_trc">1</property>
    <property name="meta.media.0.codec.name">h264</property>
    <property name="meta.media.0.codec.long_name">H.264 / AVC / MPEG-4 AVC / MPEG-4 part 10</property>
    <property name="meta.media.0.codec.bit_rate">0</property>
    <property name="meta.attr.0.stream.DURATION.markup">00:38:30.817000000</property>
    <property name="meta.media.1.stream.type">audio</property>
    <property name="meta.media.1.codec.sample_fmt">fltp</property>
    <property name="meta.media.1.codec.sample_rate">48000</property>
    <property name="meta.media.1.codec.channels">2</property>
    <property name="meta.media.1.codec.layout">stereo</property>
    <property name="meta.media.1.codec.name">aac</property>
    <property name="meta.media.1.codec.long_name">AAC (Advanced Audio Coding)</property>
    <property name="meta.media.1.codec.bit_rate">0</property>
    <property name="meta.attr.1.stream.title.markup">simple_aac_recording0</property>
    <property name="meta.attr.1.stream.DURATION.markup">00:38:30.784000000</property>
    <property name="meta.attr.ENCODER.markup">Lavf58.76.100</property>
    <property name="seekable">1</property>
    <property name="meta.media.sample_aspect_num">1</property>
    <property name="meta.media.sample_aspect_den">1</property>
    <property name="audio_index">1</property>
    <property name="video_index">0</property>
    <property name="creation_time">2025-02-04T15:13:41</property>
    <property name="vstream">0</property>
    <property name="meta.media.frame_rate_num">60</property>
    <property name="meta.media.frame_rate_den">1</property>
    <property name="meta.media.colorspace">709</property>
    <property name="meta.media.color_trc">1</property>
    <property name="meta.media.has_b_frames">2</property>
    <property name="meta.media.width">1920</property>
    <property name="meta.media.height">1080</property>
    <property name="meta.media.aspect_ratio">1</property>
    <property name="meta.media.color_range">mpeg</property>
    <property name="astream">0</property>
    <property name="shotcut:skipConvert">0</property>
    <property name="meta.media.top_field_first">0</property>
    <property name="meta.media.progressive">1</property>
    <property name="shotcut:hash">9ed2ab5ca14ff3f32da6061feeb032a5</property>
    <property name="ignore_points">0</property>
    <property name="shotcut:caption">2025-02-04 11-32-42.mkv</property>
    <property name="xml">was here</property>
  </chain>
  <chain id="chain88" out="00:38:30.800">
    <property name="length">00:38:30.817</property>
    <property name="eof">pause</property>
    <property name="resource">/home/alt/Vídeos/2025-02-04 11-32-42.mkv</property>
    <property name="mlt_service">avformat-novalidate</property>
    <property name="meta.media.nb_streams">2</property>
    <property name="meta.media.0.stream.type">video</property>
    <property name="meta.media.0.stream.frame_rate">60</property>
    <property name="meta.media.0.stream.sample_aspect_ratio">0</property>
    <property name="meta.media.0.codec.width">1920</property>
    <property name="meta.media.0.codec.height">1080</property>
    <property name="meta.media.0.codec.rotate">0</property>
    <property name="meta.media.0.codec.pix_fmt">yuv420p</property>
    <property name="meta.media.0.codec.sample_aspect_ratio">1</property>
    <property name="meta.media.0.codec.colorspace">709</property>
    <property name="meta.media.0.codec.color_trc">1</property>
    <property name="meta.media.0.codec.name">h264</property>
    <property name="meta.media.0.codec.long_name">H.264 / AVC / MPEG-4 AVC / MPEG-4 part 10</property>
    <property name="meta.media.0.codec.bit_rate">0</property>
    <property name="meta.attr.0.stream.DURATION.markup">00:38:30.817000000</property>
    <property name="meta.media.1.stream.type">audio</property>
    <property name="meta.media.1.codec.sample_fmt">fltp</property>
    <property name="meta.media.1.codec.sample_rate">48000</property>
    <property name="meta.media.1.codec.channels">2</property>
    <property name="meta.media.1.codec.layout">stereo</property>
    <property name="meta.media.1.codec.name">aac</property>
    <property name="meta.media.1.codec.long_name">AAC (Advanced Audio Coding)</property>
    <property name="meta.media.1.codec.bit_rate">0</property>
    <property name="meta.attr.1.stream.title.markup">simple_aac_recording0</property>
    <property name="meta.attr.1.stream.DURATION.markup">00:38:30.784000000</property>
    <property name="meta.attr.ENCODER.markup">Lavf58.76.100</property>
    <property name="seekable">1</property>
    <property name="meta.media.sample_aspect_num">1</property>
    <property name="meta.media.sample_aspect_den">1</property>
    <property name="audio_index">1</property>
    <property name="video_index">0</property>
    <property name="creation_time">2025-02-04T15:13:41</property>
    <property name="vstream">0</property>
    <property name="meta.media.frame_rate_num">60</property>
    <property name="meta.media.frame_rate_den">1</property>
    <property name="meta.media.colorspace">709</property>
    <property name="meta.media.color_trc">1</property>
    <property name="meta.media.has_b_frames">2</property>
    <property name="meta.media.width">1920</property>
    <property name="meta.media.height">1080</property>
    <property name="meta.media.aspect_ratio">1</property>
    <property name="meta.media.color_range">mpeg</property>
    <property name="astream">0</property>
    <property name="shotcut:skipConvert">0</property>
    <property name="meta.media.top_field_first">0</property>
    <property name="meta.media.progressive">1</property>
    <property name="shotcut:hash">9ed2ab5ca14ff3f32da6061feeb032a5</property>
    <property name="ignore_points">0</property>
    <property name="shotcut:caption">2025-02-04 11-32-42.mkv</property>
    <property name="xml">was here</property>
  </chain>
  <chain id="chain89" out="00:38:30.800">
    <property name="length">00:38:30.817</property>
    <property name="eof">pause</property>
    <property name="resource">/home/alt/Vídeos/2025-02-04 11-32-42.mkv</property>
    <property name="mlt_service">avformat-novalidate</property>
    <property name="meta.media.nb_streams">2</property>
    <property name="meta.media.0.stream.type">video</property>
    <property name="meta.media.0.stream.frame_rate">60</property>
    <property name="meta.media.0.stream.sample_aspect_ratio">0</property>
    <property name="meta.media.0.codec.width">1920</property>
    <property name="meta.media.0.codec.height">1080</property>
    <property name="meta.media.0.codec.rotate">0</property>
    <property name="meta.media.0.codec.pix_fmt">yuv420p</property>
    <property name="meta.media.0.codec.sample_aspect_ratio">1</property>
    <property name="meta.media.0.codec.colorspace">709</property>
    <property name="meta.media.0.codec.color_trc">1</property>
    <property name="meta.media.0.codec.name">h264</property>
    <property name="meta.media.0.codec.long_name">H.264 / AVC / MPEG-4 AVC / MPEG-4 part 10</property>
    <property name="meta.media.0.codec.bit_rate">0</property>
    <property name="meta.attr.0.stream.DURATION.markup">00:38:30.817000000</property>
    <property name="meta.media.1.stream.type">audio</property>
    <property name="meta.media.1.codec.sample_fmt">fltp</property>
    <property name="meta.media.1.codec.sample_rate">48000</property>
    <property name="meta.media.1.codec.channels">2</property>
    <property name="meta.media.1.codec.layout">stereo</property>
    <property name="meta.media.1.codec.name">aac</property>
    <property name="meta.media.1.codec.long_name">AAC (Advanced Audio Coding)</property>
    <property name="meta.media.1.codec.bit_rate">0</property>
    <property name="meta.attr.1.stream.title.markup">simple_aac_recording0</property>
    <property name="meta.attr.1.stream.DURATION.markup">00:38:30.784000000</property>
    <property name="meta.attr.ENCODER.markup">Lavf58.76.100</property>
    <property name="seekable">1</property>
    <property name="meta.media.sample_aspect_num">1</property>
    <property name="meta.media.sample_aspect_den">1</property>
    <property name="audio_index">1</property>
    <property name="video_index">0</property>
    <property name="creation_time">2025-02-04T15:13:41</property>
    <property name="vstream">0</property>
    <property name="meta.media.frame_rate_num">60</property>
    <property name="meta.media.frame_rate_den">1</property>
    <property name="meta.media.colorspace">709</property>
    <property name="meta.media.color_trc">1</property>
    <property name="meta.media.has_b_frames">2</property>
    <property name="meta.media.width">1920</property>
    <property name="meta.media.height">1080</property>
    <property name="meta.media.aspect_ratio">1</property>
    <property name="meta.media.color_range">mpeg</property>
    <property name="astream">0</property>
    <property name="shotcut:skipConvert">0</property>
    <property name="meta.media.top_field_first">0</property>
    <property name="meta.media.progressive">1</property>
    <property name="shotcut:hash">9ed2ab5ca14ff3f32da6061feeb032a5</property>
    <property name="ignore_points">0</property>
    <property name="shotcut:caption">2025-02-04 11-32-42.mkv</property>
    <property name="xml">was here</property>
  </chain>
  <chain id="chain90" out="00:38:30.800">
    <property name="length">00:38:30.817</property>
    <property name="eof">pause</property>
    <property name="resource">/home/alt/Vídeos/2025-02-04 11-32-42.mkv</property>
    <property name="mlt_service">avformat-novalidate</property>
    <property name="meta.media.nb_streams">2</property>
    <property name="meta.media.0.stream.type">video</property>
    <property name="meta.media.0.stream.frame_rate">60</property>
    <property name="meta.media.0.stream.sample_aspect_ratio">0</property>
    <property name="meta.media.0.codec.width">1920</property>
    <property name="meta.media.0.codec.height">1080</property>
    <property name="meta.media.0.codec.rotate">0</property>
    <property name="meta.media.0.codec.pix_fmt">yuv420p</property>
    <property name="meta.media.0.codec.sample_aspect_ratio">1</property>
    <property name="meta.media.0.codec.colorspace">709</property>
    <property name="meta.media.0.codec.color_trc">1</property>
    <property name="meta.media.0.codec.name">h264</property>
    <property name="meta.media.0.codec.long_name">H.264 / AVC / MPEG-4 AVC / MPEG-4 part 10</property>
    <property name="meta.media.0.codec.bit_rate">0</property>
    <property name="meta.attr.0.stream.DURATION.markup">00:38:30.817000000</property>
    <property name="meta.media.1.stream.type">audio</property>
    <property name="meta.media.1.codec.sample_fmt">fltp</property>
    <property name="meta.media.1.codec.sample_rate">48000</property>
    <property name="meta.media.1.codec.channels">2</property>
    <property name="meta.media.1.codec.layout">stereo</property>
    <property name="meta.media.1.codec.name">aac</property>
    <property name="meta.media.1.codec.long_name">AAC (Advanced Audio Coding)</property>
    <property name="meta.media.1.codec.bit_rate">0</property>
    <property name="meta.attr.1.stream.title.markup">simple_aac_recording0</property>
    <property name="meta.attr.1.stream.DURATION.markup">00:38:30.784000000</property>
    <property name="meta.attr.ENCODER.markup">Lavf58.76.100</property>
    <property name="seekable">1</property>
    <property name="meta.media.sample_aspect_num">1</property>
    <property name="meta.media.sample_aspect_den">1</property>
    <property name="audio_index">1</property>
    <property name="video_index">0</property>
    <property name="creation_time">2025-02-04T15:13:41</property>
    <property name="vstream">0</property>
    <property name="meta.media.frame_rate_num">60</property>
    <property name="meta.media.frame_rate_den">1</property>
    <property name="meta.media.colorspace">709</property>
    <property name="meta.media.color_trc">1</property>
    <property name="meta.media.has_b_frames">2</property>
    <property name="meta.media.width">1920</property>
    <property name="meta.media.height">1080</property>
    <property name="meta.media.aspect_ratio">1</property>
    <property name="meta.media.color_range">mpeg</property>
    <property name="astream">0</property>
    <property name="shotcut:skipConvert">0</property>
    <property name="meta.media.top_field_first">0</property>
    <property name="meta.media.progressive">1</property>
    <property name="shotcut:hash">9ed2ab5ca14ff3f32da6061feeb032a5</property>
    <property name="ignore_points">0</property>
    <property name="shotcut:caption">2025-02-04 11-32-42.mkv</property>
    <property name="xml">was here</property>
  </chain>
  <chain id="chain91" out="00:38:30.800">
    <property name="length">00:38:30.817</property>
    <property name="eof">pause</property>
    <property name="resource">/home/alt/Vídeos/2025-02-04 11-32-42.mkv</property>
    <property name="mlt_service">avformat-novalidate</property>
    <property name="meta.media.nb_streams">2</property>
    <property name="meta.media.0.stream.type">video</property>
    <property name="meta.media.0.stream.frame_rate">60</property>
    <property name="meta.media.0.stream.sample_aspect_ratio">0</property>
    <property name="meta.media.0.codec.width">1920</property>
    <property name="meta.media.0.codec.height">1080</property>
    <property name="meta.media.0.codec.rotate">0</property>
    <property name="meta.media.0.codec.pix_fmt">yuv420p</property>
    <property name="meta.media.0.codec.sample_aspect_ratio">1</property>
    <property name="meta.media.0.codec.colorspace">709</property>
    <property name="meta.media.0.codec.color_trc">1</property>
    <property name="meta.media.0.codec.name">h264</property>
    <property name="meta.media.0.codec.long_name">H.264 / AVC / MPEG-4 AVC / MPEG-4 part 10</property>
    <property name="meta.media.0.codec.bit_rate">0</property>
    <property name="meta.attr.0.stream.DURATION.markup">00:38:30.817000000</property>
    <property name="meta.media.1.stream.type">audio</property>
    <property name="meta.media.1.codec.sample_fmt">fltp</property>
    <property name="meta.media.1.codec.sample_rate">48000</property>
    <property name="meta.media.1.codec.channels">2</property>
    <property name="meta.media.1.codec.layout">stereo</property>
    <property name="meta.media.1.codec.name">aac</property>
    <property name="meta.media.1.codec.long_name">AAC (Advanced Audio Coding)</property>
    <property name="meta.media.1.codec.bit_rate">0</property>
    <property name="meta.attr.1.stream.title.markup">simple_aac_recording0</property>
    <property name="meta.attr.1.stream.DURATION.markup">00:38:30.784000000</property>
    <property name="meta.attr.ENCODER.markup">Lavf58.76.100</property>
    <property name="seekable">1</property>
    <property name="meta.media.sample_aspect_num">1</property>
    <property name="meta.media.sample_aspect_den">1</property>
    <property name="audio_index">1</property>
    <property name="video_index">0</property>
    <property name="creation_time">2025-02-04T15:13:41</property>
    <property name="vstream">0</property>
    <property name="meta.media.frame_rate_num">60</property>
    <property name="meta.media.frame_rate_den">1</property>
    <property name="meta.media.colorspace">709</property>
    <property name="meta.media.color_trc">1</property>
    <property name="meta.media.has_b_frames">2</property>
    <property name="meta.media.width">1920</property>
    <property name="meta.media.height">1080</property>
    <property name="meta.media.aspect_ratio">1</property>
    <property name="meta.media.color_range">mpeg</property>
    <property name="astream">0</property>
    <property name="shotcut:skipConvert">0</property>
    <property name="meta.media.top_field_first">0</property>
    <property name="meta.media.progressive">1</property>
    <property name="shotcut:hash">9ed2ab5ca14ff3f32da6061feeb032a5</property>
    <property name="ignore_points">0</property>
    <property name="shotcut:caption">2025-02-04 11-32-42.mkv</property>
    <property name="xml">was here</property>
  </chain>
  <chain id="chain92" out="00:38:30.800">
    <property name="length">00:38:30.817</property>
    <property name="eof">pause</property>
    <property name="resource">/home/alt/Vídeos/2025-02-04 11-32-42.mkv</property>
    <property name="mlt_service">avformat-novalidate</property>
    <property name="meta.media.nb_streams">2</property>
    <property name="meta.media.0.stream.type">video</property>
    <property name="meta.media.0.stream.frame_rate">60</property>
    <property name="meta.media.0.stream.sample_aspect_ratio">0</property>
    <property name="meta.media.0.codec.width">1920</property>
    <property name="meta.media.0.codec.height">1080</property>
    <property name="meta.media.0.codec.rotate">0</property>
    <property name="meta.media.0.codec.pix_fmt">yuv420p</property>
    <property name="meta.media.0.codec.sample_aspect_ratio">1</property>
    <property name="meta.media.0.codec.colorspace">709</property>
    <property name="meta.media.0.codec.color_trc">1</property>
    <property name="meta.media.0.codec.name">h264</property>
    <property name="meta.media.0.codec.long_name">H.264 / AVC / MPEG-4 AVC / MPEG-4 part 10</property>
    <property name="meta.media.0.codec.bit_rate">0</property>
    <property name="meta.attr.0.stream.DURATION.markup">00:38:30.817000000</property>
    <property name="meta.media.1.stream.type">audio</property>
    <property name="meta.media.1.codec.sample_fmt">fltp</property>
    <property name="meta.media.1.codec.sample_rate">48000</property>
    <property name="meta.media.1.codec.channels">2</property>
    <property name="meta.media.1.codec.layout">stereo</property>
    <property name="meta.media.1.codec.name">aac</property>
    <property name="meta.media.1.codec.long_name">AAC (Advanced Audio Coding)</property>
    <property name="meta.media.1.codec.bit_rate">0</property>
    <property name="meta.attr.1.stream.title.markup">simple_aac_recording0</property>
    <property name="meta.attr.1.stream.DURATION.markup">00:38:30.784000000</property>
    <property name="meta.attr.ENCODER.markup">Lavf58.76.100</property>
    <property name="seekable">1</property>
    <property name="meta.media.sample_aspect_num">1</property>
    <property name="meta.media.sample_aspect_den">1</property>
    <property name="audio_index">1</property>
    <property name="video_index">0</property>
    <property name="creation_time">2025-02-04T15:13:41</property>
    <property name="vstream">0</property>
    <property name="meta.media.frame_rate_num">60</property>
    <property name="meta.media.frame_rate_den">1</property>
    <property name="meta.media.colorspace">709</property>
    <property name="meta.media.color_trc">1</property>
    <property name="meta.media.has_b_frames">2</property>
    <property name="meta.media.width">1920</property>
    <property name="meta.media.height">1080</property>
    <property name="meta.media.aspect_ratio">1</property>
    <property name="meta.media.color_range">mpeg</property>
    <property name="astream">0</property>
    <property name="shotcut:skipConvert">0</property>
    <property name="meta.media.top_field_first">0</property>
    <property name="meta.media.progressive">1</property>
    <property name="shotcut:hash">9ed2ab5ca14ff3f32da6061feeb032a5</property>
    <property name="ignore_points">0</property>
    <property name="shotcut:caption">2025-02-04 11-32-42.mkv</property>
    <property name="xml">was here</property>
  </chain>
  <chain id="chain93" out="00:38:30.800">
    <property name="length">00:38:30.817</property>
    <property name="eof">pause</property>
    <property name="resource">/home/alt/Vídeos/2025-02-04 11-32-42.mkv</property>
    <property name="mlt_service">avformat-novalidate</property>
    <property name="meta.media.nb_streams">2</property>
    <property name="meta.media.0.stream.type">video</property>
    <property name="meta.media.0.stream.frame_rate">60</property>
    <property name="meta.media.0.stream.sample_aspect_ratio">0</property>
    <property name="meta.media.0.codec.width">1920</property>
    <property name="meta.media.0.codec.height">1080</property>
    <property name="meta.media.0.codec.rotate">0</property>
    <property name="meta.media.0.codec.pix_fmt">yuv420p</property>
    <property name="meta.media.0.codec.sample_aspect_ratio">1</property>
    <property name="meta.media.0.codec.colorspace">709</property>
    <property name="meta.media.0.codec.color_trc">1</property>
    <property name="meta.media.0.codec.name">h264</property>
    <property name="meta.media.0.codec.long_name">H.264 / AVC / MPEG-4 AVC / MPEG-4 part 10</property>
    <property name="meta.media.0.codec.bit_rate">0</property>
    <property name="meta.attr.0.stream.DURATION.markup">00:38:30.817000000</property>
    <property name="meta.media.1.stream.type">audio</property>
    <property name="meta.media.1.codec.sample_fmt">fltp</property>
    <property name="meta.media.1.codec.sample_rate">48000</property>
    <property name="meta.media.1.codec.channels">2</property>
    <property name="meta.media.1.codec.layout">stereo</property>
    <property name="meta.media.1.codec.name">aac</property>
    <property name="meta.media.1.codec.long_name">AAC (Advanced Audio Coding)</property>
    <property name="meta.media.1.codec.bit_rate">0</property>
    <property name="meta.attr.1.stream.title.markup">simple_aac_recording0</property>
    <property name="meta.attr.1.stream.DURATION.markup">00:38:30.784000000</property>
    <property name="meta.attr.ENCODER.markup">Lavf58.76.100</property>
    <property name="seekable">1</property>
    <property name="meta.media.sample_aspect_num">1</property>
    <property name="meta.media.sample_aspect_den">1</property>
    <property name="audio_index">1</property>
    <property name="video_index">0</property>
    <property name="creation_time">2025-02-04T15:13:41</property>
    <property name="vstream">0</property>
    <property name="meta.media.frame_rate_num">60</property>
    <property name="meta.media.frame_rate_den">1</property>
    <property name="meta.media.colorspace">709</property>
    <property name="meta.media.color_trc">1</property>
    <property name="meta.media.has_b_frames">2</property>
    <property name="meta.media.width">1920</property>
    <property name="meta.media.height">1080</property>
    <property name="meta.media.aspect_ratio">1</property>
    <property name="meta.media.color_range">mpeg</property>
    <property name="astream">0</property>
    <property name="shotcut:skipConvert">0</property>
    <property name="meta.media.top_field_first">0</property>
    <property name="meta.media.progressive">1</property>
    <property name="shotcut:hash">9ed2ab5ca14ff3f32da6061feeb032a5</property>
    <property name="ignore_points">0</property>
    <property name="shotcut:caption">2025-02-04 11-32-42.mkv</property>
    <property name="xml">was here</property>
  </chain>
  <chain id="chain94" out="00:38:30.800">
    <property name="length">00:38:30.817</property>
    <property name="eof">pause</property>
    <property name="resource">/home/alt/Vídeos/2025-02-04 11-32-42.mkv</property>
    <property name="mlt_service">avformat-novalidate</property>
    <property name="meta.media.nb_streams">2</property>
    <property name="meta.media.0.stream.type">video</property>
    <property name="meta.media.0.stream.frame_rate">60</property>
    <property name="meta.media.0.stream.sample_aspect_ratio">0</property>
    <property name="meta.media.0.codec.width">1920</property>
    <property name="meta.media.0.codec.height">1080</property>
    <property name="meta.media.0.codec.rotate">0</property>
    <property name="meta.media.0.codec.pix_fmt">yuv420p</property>
    <property name="meta.media.0.codec.sample_aspect_ratio">1</property>
    <property name="meta.media.0.codec.colorspace">709</property>
    <property name="meta.media.0.codec.color_trc">1</property>
    <property name="meta.media.0.codec.name">h264</property>
    <property name="meta.media.0.codec.long_name">H.264 / AVC / MPEG-4 AVC / MPEG-4 part 10</property>
    <property name="meta.media.0.codec.bit_rate">0</property>
    <property name="meta.attr.0.stream.DURATION.markup">00:38:30.817000000</property>
    <property name="meta.media.1.stream.type">audio</property>
    <property name="meta.media.1.codec.sample_fmt">fltp</property>
    <property name="meta.media.1.codec.sample_rate">48000</property>
    <property name="meta.media.1.codec.channels">2</property>
    <property name="meta.media.1.codec.layout">stereo</property>
    <property name="meta.media.1.codec.name">aac</property>
    <property name="meta.media.1.codec.long_name">AAC (Advanced Audio Coding)</property>
    <property name="meta.media.1.codec.bit_rate">0</property>
    <property name="meta.attr.1.stream.title.markup">simple_aac_recording0</property>
    <property name="meta.attr.1.stream.DURATION.markup">00:38:30.784000000</property>
    <property name="meta.attr.ENCODER.markup">Lavf58.76.100</property>
    <property name="seekable">1</property>
    <property name="meta.media.sample_aspect_num">1</property>
    <property name="meta.media.sample_aspect_den">1</property>
    <property name="audio_index">1</property>
    <property name="video_index">0</property>
    <property name="creation_time">2025-02-04T15:13:41</property>
    <property name="vstream">0</property>
    <property name="meta.media.frame_rate_num">60</property>
    <property name="meta.media.frame_rate_den">1</property>
    <property name="meta.media.colorspace">709</property>
    <property name="meta.media.color_trc">1</property>
    <property name="meta.media.has_b_frames">2</property>
    <property name="meta.media.width">1920</property>
    <property name="meta.media.height">1080</property>
    <property name="meta.media.aspect_ratio">1</property>
    <property name="meta.media.color_range">mpeg</property>
    <property name="astream">0</property>
    <property name="shotcut:skipConvert">0</property>
    <property name="meta.media.top_field_first">0</property>
    <property name="meta.media.progressive">1</property>
    <property name="shotcut:hash">9ed2ab5ca14ff3f32da6061feeb032a5</property>
    <property name="ignore_points">0</property>
    <property name="shotcut:caption">2025-02-04 11-32-42.mkv</property>
    <property name="xml">was here</property>
  </chain>
  <chain id="chain95" out="00:38:30.800">
    <property name="length">00:38:30.817</property>
    <property name="eof">pause</property>
    <property name="resource">/home/alt/Vídeos/2025-02-04 11-32-42.mkv</property>
    <property name="mlt_service">avformat-novalidate</property>
    <property name="meta.media.nb_streams">2</property>
    <property name="meta.media.0.stream.type">video</property>
    <property name="meta.media.0.stream.frame_rate">60</property>
    <property name="meta.media.0.stream.sample_aspect_ratio">0</property>
    <property name="meta.media.0.codec.width">1920</property>
    <property name="meta.media.0.codec.height">1080</property>
    <property name="meta.media.0.codec.rotate">0</property>
    <property name="meta.media.0.codec.pix_fmt">yuv420p</property>
    <property name="meta.media.0.codec.sample_aspect_ratio">1</property>
    <property name="meta.media.0.codec.colorspace">709</property>
    <property name="meta.media.0.codec.color_trc">1</property>
    <property name="meta.media.0.codec.name">h264</property>
    <property name="meta.media.0.codec.long_name">H.264 / AVC / MPEG-4 AVC / MPEG-4 part 10</property>
    <property name="meta.media.0.codec.bit_rate">0</property>
    <property name="meta.attr.0.stream.DURATION.markup">00:38:30.817000000</property>
    <property name="meta.media.1.stream.type">audio</property>
    <property name="meta.media.1.codec.sample_fmt">fltp</property>
    <property name="meta.media.1.codec.sample_rate">48000</property>
    <property name="meta.media.1.codec.channels">2</property>
    <property name="meta.media.1.codec.layout">stereo</property>
    <property name="meta.media.1.codec.name">aac</property>
    <property name="meta.media.1.codec.long_name">AAC (Advanced Audio Coding)</property>
    <property name="meta.media.1.codec.bit_rate">0</property>
    <property name="meta.attr.1.stream.title.markup">simple_aac_recording0</property>
    <property name="meta.attr.1.stream.DURATION.markup">00:38:30.784000000</property>
    <property name="meta.attr.ENCODER.markup">Lavf58.76.100</property>
    <property name="seekable">1</property>
    <property name="meta.media.sample_aspect_num">1</property>
    <property name="meta.media.sample_aspect_den">1</property>
    <property name="audio_index">1</property>
    <property name="video_index">0</property>
    <property name="creation_time">2025-02-04T15:13:41</property>
    <property name="vstream">0</property>
    <property name="meta.media.frame_rate_num">60</property>
    <property name="meta.media.frame_rate_den">1</property>
    <property name="meta.media.colorspace">709</property>
    <property name="meta.media.color_trc">1</property>
    <property name="meta.media.has_b_frames">2</property>
    <property name="meta.media.width">1920</property>
    <property name="meta.media.height">1080</property>
    <property name="meta.media.aspect_ratio">1</property>
    <property name="meta.media.color_range">mpeg</property>
    <property name="astream">0</property>
    <property name="shotcut:skipConvert">0</property>
    <property name="meta.media.top_field_first">0</property>
    <property name="meta.media.progressive">1</property>
    <property name="shotcut:hash">9ed2ab5ca14ff3f32da6061feeb032a5</property>
    <property name="ignore_points">0</property>
    <property name="shotcut:caption">2025-02-04 11-32-42.mkv</property>
    <property name="xml">was here</property>
  </chain>
  <chain id="chain96" out="00:38:30.800">
    <property name="length">00:38:30.817</property>
    <property name="eof">pause</property>
    <property name="resource">/home/alt/Vídeos/2025-02-04 11-32-42.mkv</property>
    <property name="mlt_service">avformat-novalidate</property>
    <property name="meta.media.nb_streams">2</property>
    <property name="meta.media.0.stream.type">video</property>
    <property name="meta.media.0.stream.frame_rate">60</property>
    <property name="meta.media.0.stream.sample_aspect_ratio">0</property>
    <property name="meta.media.0.codec.width">1920</property>
    <property name="meta.media.0.codec.height">1080</property>
    <property name="meta.media.0.codec.rotate">0</property>
    <property name="meta.media.0.codec.pix_fmt">yuv420p</property>
    <property name="meta.media.0.codec.sample_aspect_ratio">1</property>
    <property name="meta.media.0.codec.colorspace">709</property>
    <property name="meta.media.0.codec.color_trc">1</property>
    <property name="meta.media.0.codec.name">h264</property>
    <property name="meta.media.0.codec.long_name">H.264 / AVC / MPEG-4 AVC / MPEG-4 part 10</property>
    <property name="meta.media.0.codec.bit_rate">0</property>
    <property name="meta.attr.0.stream.DURATION.markup">00:38:30.817000000</property>
    <property name="meta.media.1.stream.type">audio</property>
    <property name="meta.media.1.codec.sample_fmt">fltp</property>
    <property name="meta.media.1.codec.sample_rate">48000</property>
    <property name="meta.media.1.codec.channels">2</property>
    <property name="meta.media.1.codec.layout">stereo</property>
    <property name="meta.media.1.codec.name">aac</property>
    <property name="meta.media.1.codec.long_name">AAC (Advanced Audio Coding)</property>
    <property name="meta.media.1.codec.bit_rate">0</property>
    <property name="meta.attr.1.stream.title.markup">simple_aac_recording0</property>
    <property name="meta.attr.1.stream.DURATION.markup">00:38:30.784000000</property>
    <property name="meta.attr.ENCODER.markup">Lavf58.76.100</property>
    <property name="seekable">1</property>
    <property name="meta.media.sample_aspect_num">1</property>
    <property name="meta.media.sample_aspect_den">1</property>
    <property name="audio_index">1</property>
    <property name="video_index">0</property>
    <property name="creation_time">2025-02-04T15:13:41</property>
    <property name="vstream">0</property>
    <property name="meta.media.frame_rate_num">60</property>
    <property name="meta.media.frame_rate_den">1</property>
    <property name="meta.media.colorspace">709</property>
    <property name="meta.media.color_trc">1</property>
    <property name="meta.media.has_b_frames">2</property>
    <property name="meta.media.width">1920</property>
    <property name="meta.media.height">1080</property>
    <property name="meta.media.aspect_ratio">1</property>
    <property name="meta.media.color_range">mpeg</property>
    <property name="astream">0</property>
    <property name="shotcut:skipConvert">0</property>
    <property name="meta.media.top_field_first">0</property>
    <property name="meta.media.progressive">1</property>
    <property name="shotcut:hash">9ed2ab5ca14ff3f32da6061feeb032a5</property>
    <property name="ignore_points">0</property>
    <property name="shotcut:caption">2025-02-04 11-32-42.mkv</property>
    <property name="xml">was here</property>
  </chain>
  <chain id="chain97" out="00:38:30.800">
    <property name="length">00:38:30.817</property>
    <property name="eof">pause</property>
    <property name="resource">/home/alt/Vídeos/2025-02-04 11-32-42.mkv</property>
    <property name="mlt_service">avformat-novalidate</property>
    <property name="meta.media.nb_streams">2</property>
    <property name="meta.media.0.stream.type">video</property>
    <property name="meta.media.0.stream.frame_rate">60</property>
    <property name="meta.media.0.stream.sample_aspect_ratio">0</property>
    <property name="meta.media.0.codec.width">1920</property>
    <property name="meta.media.0.codec.height">1080</property>
    <property name="meta.media.0.codec.rotate">0</property>
    <property name="meta.media.0.codec.pix_fmt">yuv420p</property>
    <property name="meta.media.0.codec.sample_aspect_ratio">1</property>
    <property name="meta.media.0.codec.colorspace">709</property>
    <property name="meta.media.0.codec.color_trc">1</property>
    <property name="meta.media.0.codec.name">h264</property>
    <property name="meta.media.0.codec.long_name">H.264 / AVC / MPEG-4 AVC / MPEG-4 part 10</property>
    <property name="meta.media.0.codec.bit_rate">0</property>
    <property name="meta.attr.0.stream.DURATION.markup">00:38:30.817000000</property>
    <property name="meta.media.1.stream.type">audio</property>
    <property name="meta.media.1.codec.sample_fmt">fltp</property>
    <property name="meta.media.1.codec.sample_rate">48000</property>
    <property name="meta.media.1.codec.channels">2</property>
    <property name="meta.media.1.codec.layout">stereo</property>
    <property name="meta.media.1.codec.name">aac</property>
    <property name="meta.media.1.codec.long_name">AAC (Advanced Audio Coding)</property>
    <property name="meta.media.1.codec.bit_rate">0</property>
    <property name="meta.attr.1.stream.title.markup">simple_aac_recording0</property>
    <property name="meta.attr.1.stream.DURATION.markup">00:38:30.784000000</property>
    <property name="meta.attr.ENCODER.markup">Lavf58.76.100</property>
    <property name="seekable">1</property>
    <property name="meta.media.sample_aspect_num">1</property>
    <property name="meta.media.sample_aspect_den">1</property>
    <property name="audio_index">1</property>
    <property name="video_index">0</property>
    <property name="creation_time">2025-02-04T15:13:41</property>
    <property name="vstream">0</property>
    <property name="meta.media.frame_rate_num">60</property>
    <property name="meta.media.frame_rate_den">1</property>
    <property name="meta.media.colorspace">709</property>
    <property name="meta.media.color_trc">1</property>
    <property name="meta.media.has_b_frames">2</property>
    <property name="meta.media.width">1920</property>
    <property name="meta.media.height">1080</property>
    <property name="meta.media.aspect_ratio">1</property>
    <property name="meta.media.color_range">mpeg</property>
    <property name="astream">0</property>
    <property name="shotcut:skipConvert">0</property>
    <property name="meta.media.top_field_first">0</property>
    <property name="meta.media.progressive">1</property>
    <property name="shotcut:hash">9ed2ab5ca14ff3f32da6061feeb032a5</property>
    <property name="ignore_points">0</property>
    <property name="shotcut:caption">2025-02-04 11-32-42.mkv</property>
    <property name="xml">was here</property>
  </chain>
  <chain id="chain98" out="00:38:30.800">
    <property name="length">00:38:30.817</property>
    <property name="eof">pause</property>
    <property name="resource">/home/alt/Vídeos/2025-02-04 11-32-42.mkv</property>
    <property name="mlt_service">avformat-novalidate</property>
    <property name="meta.media.nb_streams">2</property>
    <property name="meta.media.0.stream.type">video</property>
    <property name="meta.media.0.stream.frame_rate">60</property>
    <property name="meta.media.0.stream.sample_aspect_ratio">0</property>
    <property name="meta.media.0.codec.width">1920</property>
    <property name="meta.media.0.codec.height">1080</property>
    <property name="meta.media.0.codec.rotate">0</property>
    <property name="meta.media.0.codec.pix_fmt">yuv420p</property>
    <property name="meta.media.0.codec.sample_aspect_ratio">1</property>
    <property name="meta.media.0.codec.colorspace">709</property>
    <property name="meta.media.0.codec.color_trc">1</property>
    <property name="meta.media.0.codec.name">h264</property>
    <property name="meta.media.0.codec.long_name">H.264 / AVC / MPEG-4 AVC / MPEG-4 part 10</property>
    <property name="meta.media.0.codec.bit_rate">0</property>
    <property name="meta.attr.0.stream.DURATION.markup">00:38:30.817000000</property>
    <property name="meta.media.1.stream.type">audio</property>
    <property name="meta.media.1.codec.sample_fmt">fltp</property>
    <property name="meta.media.1.codec.sample_rate">48000</property>
    <property name="meta.media.1.codec.channels">2</property>
    <property name="meta.media.1.codec.layout">stereo</property>
    <property name="meta.media.1.codec.name">aac</property>
    <property name="meta.media.1.codec.long_name">AAC (Advanced Audio Coding)</property>
    <property name="meta.media.1.codec.bit_rate">0</property>
    <property name="meta.attr.1.stream.title.markup">simple_aac_recording0</property>
    <property name="meta.attr.1.stream.DURATION.markup">00:38:30.784000000</property>
    <property name="meta.attr.ENCODER.markup">Lavf58.76.100</property>
    <property name="seekable">1</property>
    <property name="meta.media.sample_aspect_num">1</property>
    <property name="meta.media.sample_aspect_den">1</property>
    <property name="audio_index">1</property>
    <property name="video_index">0</property>
    <property name="creation_time">2025-02-04T15:13:41</property>
    <property name="vstream">0</property>
    <property name="meta.media.frame_rate_num">60</property>
    <property name="meta.media.frame_rate_den">1</property>
    <property name="meta.media.colorspace">709</property>
    <property name="meta.media.color_trc">1</property>
    <property name="meta.media.has_b_frames">2</property>
    <property name="meta.media.width">1920</property>
    <property name="meta.media.height">1080</property>
    <property name="meta.media.aspect_ratio">1</property>
    <property name="meta.media.color_range">mpeg</property>
    <property name="astream">0</property>
    <property name="shotcut:skipConvert">0</property>
    <property name="meta.media.top_field_first">0</property>
    <property name="meta.media.progressive">1</property>
    <property name="shotcut:hash">9ed2ab5ca14ff3f32da6061feeb032a5</property>
    <property name="ignore_points">0</property>
    <property name="shotcut:caption">2025-02-04 11-32-42.mkv</property>
    <property name="xml">was here</property>
  </chain>
  <chain id="chain99" out="00:38:30.800">
    <property name="length">00:38:30.817</property>
    <property name="eof">pause</property>
    <property name="resource">/home/alt/Vídeos/2025-02-04 11-32-42.mkv</property>
    <property name="mlt_service">avformat-novalidate</property>
    <property name="meta.media.nb_streams">2</property>
    <property name="meta.media.0.stream.type">video</property>
    <property name="meta.media.0.stream.frame_rate">60</property>
    <property name="meta.media.0.stream.sample_aspect_ratio">0</property>
    <property name="meta.media.0.codec.width">1920</property>
    <property name="meta.media.0.codec.height">1080</property>
    <property name="meta.media.0.codec.rotate">0</property>
    <property name="meta.media.0.codec.pix_fmt">yuv420p</property>
    <property name="meta.media.0.codec.sample_aspect_ratio">1</property>
    <property name="meta.media.0.codec.colorspace">709</property>
    <property name="meta.media.0.codec.color_trc">1</property>
    <property name="meta.media.0.codec.name">h264</property>
    <property name="meta.media.0.codec.long_name">H.264 / AVC / MPEG-4 AVC / MPEG-4 part 10</property>
    <property name="meta.media.0.codec.bit_rate">0</property>
    <property name="meta.attr.0.stream.DURATION.markup">00:38:30.817000000</property>
    <property name="meta.media.1.stream.type">audio</property>
    <property name="meta.media.1.codec.sample_fmt">fltp</property>
    <property name="meta.media.1.codec.sample_rate">48000</property>
    <property name="meta.media.1.codec.channels">2</property>
    <property name="meta.media.1.codec.layout">stereo</property>
    <property name="meta.media.1.codec.name">aac</property>
    <property name="meta.media.1.codec.long_name">AAC (Advanced Audio Coding)</property>
    <property name="meta.media.1.codec.bit_rate">0</property>
    <property name="meta.attr.1.stream.title.markup">simple_aac_recording0</property>
    <property name="meta.attr.1.stream.DURATION.markup">00:38:30.784000000</property>
    <property name="meta.attr.ENCODER.markup">Lavf58.76.100</property>
    <property name="seekable">1</property>
    <property name="meta.media.sample_aspect_num">1</property>
    <property name="meta.media.sample_aspect_den">1</property>
    <property name="audio_index">1</property>
    <property name="video_index">0</property>
    <property name="creation_time">2025-02-04T15:13:41</property>
    <property name="vstream">0</property>
    <property name="meta.media.frame_rate_num">60</property>
    <property name="meta.media.frame_rate_den">1</property>
    <property name="meta.media.colorspace">709</property>
    <property name="meta.media.color_trc">1</property>
    <property name="meta.media.has_b_frames">2</property>
    <property name="meta.media.width">1920</property>
    <property name="meta.media.height">1080</property>
    <property name="meta.media.aspect_ratio">1</property>
    <property name="meta.media.color_range">mpeg</property>
    <property name="astream">0</property>
    <property name="shotcut:skipConvert">0</property>
    <property name="meta.media.top_field_first">0</property>
    <property name="meta.media.progressive">1</property>
    <property name="shotcut:hash">9ed2ab5ca14ff3f32da6061feeb032a5</property>
    <property name="ignore_points">0</property>
    <property name="shotcut:caption">2025-02-04 11-32-42.mkv</property>
    <property name="xml">was here</property>
  </chain>
  <chain id="chain100" out="00:38:30.800">
    <property name="length">00:38:30.817</property>
    <property name="eof">pause</property>
    <property name="resource">/home/alt/Vídeos/2025-02-04 11-32-42.mkv</property>
    <property name="mlt_service">avformat-novalidate</property>
    <property name="meta.media.nb_streams">2</property>
    <property name="meta.media.0.stream.type">video</property>
    <property name="meta.media.0.stream.frame_rate">60</property>
    <property name="meta.media.0.stream.sample_aspect_ratio">0</property>
    <property name="meta.media.0.codec.width">1920</property>
    <property name="meta.media.0.codec.height">1080</property>
    <property name="meta.media.0.codec.rotate">0</property>
    <property name="meta.media.0.codec.pix_fmt">yuv420p</property>
    <property name="meta.media.0.codec.sample_aspect_ratio">1</property>
    <property name="meta.media.0.codec.colorspace">709</property>
    <property name="meta.media.0.codec.color_trc">1</property>
    <property name="meta.media.0.codec.name">h264</property>
    <property name="meta.media.0.codec.long_name">H.264 / AVC / MPEG-4 AVC / MPEG-4 part 10</property>
    <property name="meta.media.0.codec.bit_rate">0</property>
    <property name="meta.attr.0.stream.DURATION.markup">00:38:30.817000000</property>
    <property name="meta.media.1.stream.type">audio</property>
    <property name="meta.media.1.codec.sample_fmt">fltp</property>
    <property name="meta.media.1.codec.sample_rate">48000</property>
    <property name="meta.media.1.codec.channels">2</property>
    <property name="meta.media.1.codec.layout">stereo</property>
    <property name="meta.media.1.codec.name">aac</property>
    <property name="meta.media.1.codec.long_name">AAC (Advanced Audio Coding)</property>
    <property name="meta.media.1.codec.bit_rate">0</property>
    <property name="meta.attr.1.stream.title.markup">simple_aac_recording0</property>
    <property name="meta.attr.1.stream.DURATION.markup">00:38:30.784000000</property>
    <property name="meta.attr.ENCODER.markup">Lavf58.76.100</property>
    <property name="seekable">1</property>
    <property name="meta.media.sample_aspect_num">1</property>
    <property name="meta.media.sample_aspect_den">1</property>
    <property name="audio_index">1</property>
    <property name="video_index">0</property>
    <property name="creation_time">2025-02-04T15:13:41</property>
    <property name="vstream">0</property>
    <property name="meta.media.frame_rate_num">60</property>
    <property name="meta.media.frame_rate_den">1</property>
    <property name="meta.media.colorspace">709</property>
    <property name="meta.media.color_trc">1</property>
    <property name="meta.media.has_b_frames">2</property>
    <property name="meta.media.width">1920</property>
    <property name="meta.media.height">1080</property>
    <property name="meta.media.aspect_ratio">1</property>
    <property name="meta.media.color_range">mpeg</property>
    <property name="astream">0</property>
    <property name="shotcut:skipConvert">0</property>
    <property name="meta.media.top_field_first">0</property>
    <property name="meta.media.progressive">1</property>
    <property name="shotcut:hash">9ed2ab5ca14ff3f32da6061feeb032a5</property>
    <property name="ignore_points">0</property>
    <property name="shotcut:caption">2025-02-04 11-32-42.mkv</property>
    <property name="xml">was here</property>
  </chain>
  <chain id="chain101" out="00:38:30.800">
    <property name="length">00:38:30.817</property>
    <property name="eof">pause</property>
    <property name="resource">/home/alt/Vídeos/2025-02-04 11-32-42.mkv</property>
    <property name="mlt_service">avformat-novalidate</property>
    <property name="meta.media.nb_streams">2</property>
    <property name="meta.media.0.stream.type">video</property>
    <property name="meta.media.0.stream.frame_rate">60</property>
    <property name="meta.media.0.stream.sample_aspect_ratio">0</property>
    <property name="meta.media.0.codec.width">1920</property>
    <property name="meta.media.0.codec.height">1080</property>
    <property name="meta.media.0.codec.rotate">0</property>
    <property name="meta.media.0.codec.pix_fmt">yuv420p</property>
    <property name="meta.media.0.codec.sample_aspect_ratio">1</property>
    <property name="meta.media.0.codec.colorspace">709</property>
    <property name="meta.media.0.codec.color_trc">1</property>
    <property name="meta.media.0.codec.name">h264</property>
    <property name="meta.media.0.codec.long_name">H.264 / AVC / MPEG-4 AVC / MPEG-4 part 10</property>
    <property name="meta.media.0.codec.bit_rate">0</property>
    <property name="meta.attr.0.stream.DURATION.markup">00:38:30.817000000</property>
    <property name="meta.media.1.stream.type">audio</property>
    <property name="meta.media.1.codec.sample_fmt">fltp</property>
    <property name="meta.media.1.codec.sample_rate">48000</property>
    <property name="meta.media.1.codec.channels">2</property>
    <property name="meta.media.1.codec.layout">stereo</property>
    <property name="meta.media.1.codec.name">aac</property>
    <property name="meta.media.1.codec.long_name">AAC (Advanced Audio Coding)</property>
    <property name="meta.media.1.codec.bit_rate">0</property>
    <property name="meta.attr.1.stream.title.markup">simple_aac_recording0</property>
    <property name="meta.attr.1.stream.DURATION.markup">00:38:30.784000000</property>
    <property name="meta.attr.ENCODER.markup">Lavf58.76.100</property>
    <property name="seekable">1</property>
    <property name="meta.media.sample_aspect_num">1</property>
    <property name="meta.media.sample_aspect_den">1</property>
    <property name="audio_index">1</property>
    <property name="video_index">0</property>
    <property name="creation_time">2025-02-04T15:13:41</property>
    <property name="vstream">0</property>
    <property name="meta.media.frame_rate_num">60</property>
    <property name="meta.media.frame_rate_den">1</property>
    <property name="meta.media.colorspace">709</property>
    <property name="meta.media.color_trc">1</property>
    <property name="meta.media.has_b_frames">2</property>
    <property name="meta.media.width">1920</property>
    <property name="meta.media.height">1080</property>
    <property name="meta.media.aspect_ratio">1</property>
    <property name="meta.media.color_range">mpeg</property>
    <property name="astream">0</property>
    <property name="shotcut:skipConvert">0</property>
    <property name="meta.media.top_field_first">0</property>
    <property name="meta.media.progressive">1</property>
    <property name="shotcut:hash">9ed2ab5ca14ff3f32da6061feeb032a5</property>
    <property name="ignore_points">0</property>
    <property name="shotcut:caption">2025-02-04 11-32-42.mkv</property>
    <property name="xml">was here</property>
  </chain>
  <chain id="chain102" out="00:38:30.800">
    <property name="length">00:38:30.817</property>
    <property name="eof">pause</property>
    <property name="resource">/home/alt/Vídeos/2025-02-04 11-32-42.mkv</property>
    <property name="mlt_service">avformat-novalidate</property>
    <property name="meta.media.nb_streams">2</property>
    <property name="meta.media.0.stream.type">video</property>
    <property name="meta.media.0.stream.frame_rate">60</property>
    <property name="meta.media.0.stream.sample_aspect_ratio">0</property>
    <property name="meta.media.0.codec.width">1920</property>
    <property name="meta.media.0.codec.height">1080</property>
    <property name="meta.media.0.codec.rotate">0</property>
    <property name="meta.media.0.codec.pix_fmt">yuv420p</property>
    <property name="meta.media.0.codec.sample_aspect_ratio">1</property>
    <property name="meta.media.0.codec.colorspace">709</property>
    <property name="meta.media.0.codec.color_trc">1</property>
    <property name="meta.media.0.codec.name">h264</property>
    <property name="meta.media.0.codec.long_name">H.264 / AVC / MPEG-4 AVC / MPEG-4 part 10</property>
    <property name="meta.media.0.codec.bit_rate">0</property>
    <property name="meta.attr.0.stream.DURATION.markup">00:38:30.817000000</property>
    <property name="meta.media.1.stream.type">audio</property>
    <property name="meta.media.1.codec.sample_fmt">fltp</property>
    <property name="meta.media.1.codec.sample_rate">48000</property>
    <property name="meta.media.1.codec.channels">2</property>
    <property name="meta.media.1.codec.layout">stereo</property>
    <property name="meta.media.1.codec.name">aac</property>
    <property name="meta.media.1.codec.long_name">AAC (Advanced Audio Coding)</property>
    <property name="meta.media.1.codec.bit_rate">0</property>
    <property name="meta.attr.1.stream.title.markup">simple_aac_recording0</property>
    <property name="meta.attr.1.stream.DURATION.markup">00:38:30.784000000</property>
    <property name="meta.attr.ENCODER.markup">Lavf58.76.100</property>
    <property name="seekable">1</property>
    <property name="meta.media.sample_aspect_num">1</property>
    <property name="meta.media.sample_aspect_den">1</property>
    <property name="audio_index">1</property>
    <property name="video_index">0</property>
    <property name="creation_time">2025-02-04T15:13:41</property>
    <property name="vstream">0</property>
    <property name="meta.media.frame_rate_num">60</property>
    <property name="meta.media.frame_rate_den">1</property>
    <property name="meta.media.colorspace">709</property>
    <property name="meta.media.color_trc">1</property>
    <property name="meta.media.has_b_frames">2</property>
    <property name="meta.media.width">1920</property>
    <property name="meta.media.height">1080</property>
    <property name="meta.media.aspect_ratio">1</property>
    <property name="meta.media.color_range">mpeg</property>
    <property name="astream">0</property>
    <property name="shotcut:skipConvert">0</property>
    <property name="meta.media.top_field_first">0</property>
    <property name="meta.media.progressive">1</property>
    <property name="shotcut:hash">9ed2ab5ca14ff3f32da6061feeb032a5</property>
    <property name="ignore_points">0</property>
    <property name="shotcut:caption">2025-02-04 11-32-42.mkv</property>
    <property name="xml">was here</property>
  </chain>
  <chain id="chain103" out="00:38:30.800">
    <property name="length">00:38:30.817</property>
    <property name="eof">pause</property>
    <property name="resource">/home/alt/Vídeos/2025-02-04 11-32-42.mkv</property>
    <property name="mlt_service">avformat-novalidate</property>
    <property name="meta.media.nb_streams">2</property>
    <property name="meta.media.0.stream.type">video</property>
    <property name="meta.media.0.stream.frame_rate">60</property>
    <property name="meta.media.0.stream.sample_aspect_ratio">0</property>
    <property name="meta.media.0.codec.width">1920</property>
    <property name="meta.media.0.codec.height">1080</property>
    <property name="meta.media.0.codec.rotate">0</property>
    <property name="meta.media.0.codec.pix_fmt">yuv420p</property>
    <property name="meta.media.0.codec.sample_aspect_ratio">1</property>
    <property name="meta.media.0.codec.colorspace">709</property>
    <property name="meta.media.0.codec.color_trc">1</property>
    <property name="meta.media.0.codec.name">h264</property>
    <property name="meta.media.0.codec.long_name">H.264 / AVC / MPEG-4 AVC / MPEG-4 part 10</property>
    <property name="meta.media.0.codec.bit_rate">0</property>
    <property name="meta.attr.0.stream.DURATION.markup">00:38:30.817000000</property>
    <property name="meta.media.1.stream.type">audio</property>
    <property name="meta.media.1.codec.sample_fmt">fltp</property>
    <property name="meta.media.1.codec.sample_rate">48000</property>
    <property name="meta.media.1.codec.channels">2</property>
    <property name="meta.media.1.codec.layout">stereo</property>
    <property name="meta.media.1.codec.name">aac</property>
    <property name="meta.media.1.codec.long_name">AAC (Advanced Audio Coding)</property>
    <property name="meta.media.1.codec.bit_rate">0</property>
    <property name="meta.attr.1.stream.title.markup">simple_aac_recording0</property>
    <property name="meta.attr.1.stream.DURATION.markup">00:38:30.784000000</property>
    <property name="meta.attr.ENCODER.markup">Lavf58.76.100</property>
    <property name="seekable">1</property>
    <property name="meta.media.sample_aspect_num">1</property>
    <property name="meta.media.sample_aspect_den">1</property>
    <property name="audio_index">1</property>
    <property name="video_index">0</property>
    <property name="creation_time">2025-02-04T15:13:41</property>
    <property name="vstream">0</property>
    <property name="meta.media.frame_rate_num">60</property>
    <property name="meta.media.frame_rate_den">1</property>
    <property name="meta.media.colorspace">709</property>
    <property name="meta.media.color_trc">1</property>
    <property name="meta.media.has_b_frames">2</property>
    <property name="meta.media.width">1920</property>
    <property name="meta.media.height">1080</property>
    <property name="meta.media.aspect_ratio">1</property>
    <property name="meta.media.color_range">mpeg</property>
    <property name="astream">0</property>
    <property name="shotcut:skipConvert">0</property>
    <property name="meta.media.top_field_first">0</property>
    <property name="meta.media.progressive">1</property>
    <property name="shotcut:hash">9ed2ab5ca14ff3f32da6061feeb032a5</property>
    <property name="ignore_points">0</property>
    <property name="shotcut:caption">2025-02-04 11-32-42.mkv</property>
    <property name="xml">was here</property>
  </chain>
  <chain id="chain104" out="00:38:30.800">
    <property name="length">00:38:30.817</property>
    <property name="eof">pause</property>
    <property name="resource">/home/alt/Vídeos/2025-02-04 11-32-42.mkv</property>
    <property name="mlt_service">avformat-novalidate</property>
    <property name="meta.media.nb_streams">2</property>
    <property name="meta.media.0.stream.type">video</property>
    <property name="meta.media.0.stream.frame_rate">60</property>
    <property name="meta.media.0.stream.sample_aspect_ratio">0</property>
    <property name="meta.media.0.codec.width">1920</property>
    <property name="meta.media.0.codec.height">1080</property>
    <property name="meta.media.0.codec.rotate">0</property>
    <property name="meta.media.0.codec.pix_fmt">yuv420p</property>
    <property name="meta.media.0.codec.sample_aspect_ratio">1</property>
    <property name="meta.media.0.codec.colorspace">709</property>
    <property name="meta.media.0.codec.color_trc">1</property>
    <property name="meta.media.0.codec.name">h264</property>
    <property name="meta.media.0.codec.long_name">H.264 / AVC / MPEG-4 AVC / MPEG-4 part 10</property>
    <property name="meta.media.0.codec.bit_rate">0</property>
    <property name="meta.attr.0.stream.DURATION.markup">00:38:30.817000000</property>
    <property name="meta.media.1.stream.type">audio</property>
    <property name="meta.media.1.codec.sample_fmt">fltp</property>
    <property name="meta.media.1.codec.sample_rate">48000</property>
    <property name="meta.media.1.codec.channels">2</property>
    <property name="meta.media.1.codec.layout">stereo</property>
    <property name="meta.media.1.codec.name">aac</property>
    <property name="meta.media.1.codec.long_name">AAC (Advanced Audio Coding)</property>
    <property name="meta.media.1.codec.bit_rate">0</property>
    <property name="meta.attr.1.stream.title.markup">simple_aac_recording0</property>
    <property name="meta.attr.1.stream.DURATION.markup">00:38:30.784000000</property>
    <property name="meta.attr.ENCODER.markup">Lavf58.76.100</property>
    <property name="seekable">1</property>
    <property name="meta.media.sample_aspect_num">1</property>
    <property name="meta.media.sample_aspect_den">1</property>
    <property name="audio_index">1</property>
    <property name="video_index">0</property>
    <property name="creation_time">2025-02-04T15:13:41</property>
    <property name="vstream">0</property>
    <property name="meta.media.frame_rate_num">60</property>
    <property name="meta.media.frame_rate_den">1</property>
    <property name="meta.media.colorspace">709</property>
    <property name="meta.media.color_trc">1</property>
    <property name="meta.media.has_b_frames">2</property>
    <property name="meta.media.width">1920</property>
    <property name="meta.media.height">1080</property>
    <property name="meta.media.aspect_ratio">1</property>
    <property name="meta.media.color_range">mpeg</property>
    <property name="astream">0</property>
    <property name="shotcut:skipConvert">0</property>
    <property name="meta.media.top_field_first">0</property>
    <property name="meta.media.progressive">1</property>
    <property name="shotcut:hash">9ed2ab5ca14ff3f32da6061feeb032a5</property>
    <property name="ignore_points">0</property>
    <property name="shotcut:caption">2025-02-04 11-32-42.mkv</property>
    <property name="xml">was here</property>
  </chain>
  <chain id="chain105" out="00:38:30.800">
    <property name="length">00:38:30.817</property>
    <property name="eof">pause</property>
    <property name="resource">/home/alt/Vídeos/2025-02-04 11-32-42.mkv</property>
    <property name="mlt_service">avformat-novalidate</property>
    <property name="meta.media.nb_streams">2</property>
    <property name="meta.media.0.stream.type">video</property>
    <property name="meta.media.0.stream.frame_rate">60</property>
    <property name="meta.media.0.stream.sample_aspect_ratio">0</property>
    <property name="meta.media.0.codec.width">1920</property>
    <property name="meta.media.0.codec.height">1080</property>
    <property name="meta.media.0.codec.rotate">0</property>
    <property name="meta.media.0.codec.pix_fmt">yuv420p</property>
    <property name="meta.media.0.codec.sample_aspect_ratio">1</property>
    <property name="meta.media.0.codec.colorspace">709</property>
    <property name="meta.media.0.codec.color_trc">1</property>
    <property name="meta.media.0.codec.name">h264</property>
    <property name="meta.media.0.codec.long_name">H.264 / AVC / MPEG-4 AVC / MPEG-4 part 10</property>
    <property name="meta.media.0.codec.bit_rate">0</property>
    <property name="meta.attr.0.stream.DURATION.markup">00:38:30.817000000</property>
    <property name="meta.media.1.stream.type">audio</property>
    <property name="meta.media.1.codec.sample_fmt">fltp</property>
    <property name="meta.media.1.codec.sample_rate">48000</property>
    <property name="meta.media.1.codec.channels">2</property>
    <property name="meta.media.1.codec.layout">stereo</property>
    <property name="meta.media.1.codec.name">aac</property>
    <property name="meta.media.1.codec.long_name">AAC (Advanced Audio Coding)</property>
    <property name="meta.media.1.codec.bit_rate">0</property>
    <property name="meta.attr.1.stream.title.markup">simple_aac_recording0</property>
    <property name="meta.attr.1.stream.DURATION.markup">00:38:30.784000000</property>
    <property name="meta.attr.ENCODER.markup">Lavf58.76.100</property>
    <property name="seekable">1</property>
    <property name="meta.media.sample_aspect_num">1</property>
    <property name="meta.media.sample_aspect_den">1</property>
    <property name="audio_index">1</property>
    <property name="video_index">0</property>
    <property name="creation_time">2025-02-04T15:13:41</property>
    <property name="vstream">0</property>
    <property name="meta.media.frame_rate_num">60</property>
    <property name="meta.media.frame_rate_den">1</property>
    <property name="meta.media.colorspace">709</property>
    <property name="meta.media.color_trc">1</property>
    <property name="meta.media.has_b_frames">2</property>
    <property name="meta.media.width">1920</property>
    <property name="meta.media.height">1080</property>
    <property name="meta.media.aspect_ratio">1</property>
    <property name="meta.media.color_range">mpeg</property>
    <property name="astream">0</property>
    <property name="shotcut:skipConvert">0</property>
    <property name="meta.media.top_field_first">0</property>
    <property name="meta.media.progressive">1</property>
    <property name="shotcut:hash">9ed2ab5ca14ff3f32da6061feeb032a5</property>
    <property name="ignore_points">0</property>
    <property name="shotcut:caption">2025-02-04 11-32-42.mkv</property>
    <property name="xml">was here</property>
  </chain>
  <chain id="chain106" out="00:38:30.800">
    <property name="length">00:38:30.817</property>
    <property name="eof">pause</property>
    <property name="resource">/home/alt/Vídeos/2025-02-04 11-32-42.mkv</property>
    <property name="mlt_service">avformat-novalidate</property>
    <property name="meta.media.nb_streams">2</property>
    <property name="meta.media.0.stream.type">video</property>
    <property name="meta.media.0.stream.frame_rate">60</property>
    <property name="meta.media.0.stream.sample_aspect_ratio">0</property>
    <property name="meta.media.0.codec.width">1920</property>
    <property name="meta.media.0.codec.height">1080</property>
    <property name="meta.media.0.codec.rotate">0</property>
    <property name="meta.media.0.codec.pix_fmt">yuv420p</property>
    <property name="meta.media.0.codec.sample_aspect_ratio">1</property>
    <property name="meta.media.0.codec.colorspace">709</property>
    <property name="meta.media.0.codec.color_trc">1</property>
    <property name="meta.media.0.codec.name">h264</property>
    <property name="meta.media.0.codec.long_name">H.264 / AVC / MPEG-4 AVC / MPEG-4 part 10</property>
    <property name="meta.media.0.codec.bit_rate">0</property>
    <property name="meta.attr.0.stream.DURATION.markup">00:38:30.817000000</property>
    <property name="meta.media.1.stream.type">audio</property>
    <property name="meta.media.1.codec.sample_fmt">fltp</property>
    <property name="meta.media.1.codec.sample_rate">48000</property>
    <property name="meta.media.1.codec.channels">2</property>
    <property name="meta.media.1.codec.layout">stereo</property>
    <property name="meta.media.1.codec.name">aac</property>
    <property name="meta.media.1.codec.long_name">AAC (Advanced Audio Coding)</property>
    <property name="meta.media.1.codec.bit_rate">0</property>
    <property name="meta.attr.1.stream.title.markup">simple_aac_recording0</property>
    <property name="meta.attr.1.stream.DURATION.markup">00:38:30.784000000</property>
    <property name="meta.attr.ENCODER.markup">Lavf58.76.100</property>
    <property name="seekable">1</property>
    <property name="meta.media.sample_aspect_num">1</property>
    <property name="meta.media.sample_aspect_den">1</property>
    <property name="audio_index">1</property>
    <property name="video_index">0</property>
    <property name="creation_time">2025-02-04T15:13:41</property>
    <property name="vstream">0</property>
    <property name="meta.media.frame_rate_num">60</property>
    <property name="meta.media.frame_rate_den">1</property>
    <property name="meta.media.colorspace">709</property>
    <property name="meta.media.color_trc">1</property>
    <property name="meta.media.has_b_frames">2</property>
    <property name="meta.media.width">1920</property>
    <property name="meta.media.height">1080</property>
    <property name="meta.media.aspect_ratio">1</property>
    <property name="meta.media.color_range">mpeg</property>
    <property name="astream">0</property>
    <property name="shotcut:skipConvert">0</property>
    <property name="meta.media.top_field_first">0</property>
    <property name="meta.media.progressive">1</property>
    <property name="shotcut:hash">9ed2ab5ca14ff3f32da6061feeb032a5</property>
    <property name="ignore_points">0</property>
    <property name="shotcut:caption">2025-02-04 11-32-42.mkv</property>
    <property name="xml">was here</property>
  </chain>
  <chain id="chain107" out="00:38:30.800">
    <property name="length">00:38:30.817</property>
    <property name="eof">pause</property>
    <property name="resource">/home/alt/Vídeos/2025-02-04 11-32-42.mkv</property>
    <property name="mlt_service">avformat-novalidate</property>
    <property name="meta.media.nb_streams">2</property>
    <property name="meta.media.0.stream.type">video</property>
    <property name="meta.media.0.stream.frame_rate">60</property>
    <property name="meta.media.0.stream.sample_aspect_ratio">0</property>
    <property name="meta.media.0.codec.width">1920</property>
    <property name="meta.media.0.codec.height">1080</property>
    <property name="meta.media.0.codec.rotate">0</property>
    <property name="meta.media.0.codec.pix_fmt">yuv420p</property>
    <property name="meta.media.0.codec.sample_aspect_ratio">1</property>
    <property name="meta.media.0.codec.colorspace">709</property>
    <property name="meta.media.0.codec.color_trc">1</property>
    <property name="meta.media.0.codec.name">h264</property>
    <property name="meta.media.0.codec.long_name">H.264 / AVC / MPEG-4 AVC / MPEG-4 part 10</property>
    <property name="meta.media.0.codec.bit_rate">0</property>
    <property name="meta.attr.0.stream.DURATION.markup">00:38:30.817000000</property>
    <property name="meta.media.1.stream.type">audio</property>
    <property name="meta.media.1.codec.sample_fmt">fltp</property>
    <property name="meta.media.1.codec.sample_rate">48000</property>
    <property name="meta.media.1.codec.channels">2</property>
    <property name="meta.media.1.codec.layout">stereo</property>
    <property name="meta.media.1.codec.name">aac</property>
    <property name="meta.media.1.codec.long_name">AAC (Advanced Audio Coding)</property>
    <property name="meta.media.1.codec.bit_rate">0</property>
    <property name="meta.attr.1.stream.title.markup">simple_aac_recording0</property>
    <property name="meta.attr.1.stream.DURATION.markup">00:38:30.784000000</property>
    <property name="meta.attr.ENCODER.markup">Lavf58.76.100</property>
    <property name="seekable">1</property>
    <property name="meta.media.sample_aspect_num">1</property>
    <property name="meta.media.sample_aspect_den">1</property>
    <property name="audio_index">1</property>
    <property name="video_index">0</property>
    <property name="creation_time">2025-02-04T15:13:41</property>
    <property name="vstream">0</property>
    <property name="meta.media.frame_rate_num">60</property>
    <property name="meta.media.frame_rate_den">1</property>
    <property name="meta.media.colorspace">709</property>
    <property name="meta.media.color_trc">1</property>
    <property name="meta.media.has_b_frames">2</property>
    <property name="meta.media.width">1920</property>
    <property name="meta.media.height">1080</property>
    <property name="meta.media.aspect_ratio">1</property>
    <property name="meta.media.color_range">mpeg</property>
    <property name="astream">0</property>
    <property name="shotcut:skipConvert">0</property>
    <property name="meta.media.top_field_first">0</property>
    <property name="meta.media.progressive">1</property>
    <property name="shotcut:hash">9ed2ab5ca14ff3f32da6061feeb032a5</property>
    <property name="ignore_points">0</property>
    <property name="shotcut:caption">2025-02-04 11-32-42.mkv</property>
    <property name="xml">was here</property>
  </chain>
  <chain id="chain108" out="00:38:30.800">
    <property name="length">00:38:30.817</property>
    <property name="eof">pause</property>
    <property name="resource">/home/alt/Vídeos/2025-02-04 11-32-42.mkv</property>
    <property name="mlt_service">avformat-novalidate</property>
    <property name="meta.media.nb_streams">2</property>
    <property name="meta.media.0.stream.type">video</property>
    <property name="meta.media.0.stream.frame_rate">60</property>
    <property name="meta.media.0.stream.sample_aspect_ratio">0</property>
    <property name="meta.media.0.codec.width">1920</property>
    <property name="meta.media.0.codec.height">1080</property>
    <property name="meta.media.0.codec.rotate">0</property>
    <property name="meta.media.0.codec.pix_fmt">yuv420p</property>
    <property name="meta.media.0.codec.sample_aspect_ratio">1</property>
    <property name="meta.media.0.codec.colorspace">709</property>
    <property name="meta.media.0.codec.color_trc">1</property>
    <property name="meta.media.0.codec.name">h264</property>
    <property name="meta.media.0.codec.long_name">H.264 / AVC / MPEG-4 AVC / MPEG-4 part 10</property>
    <property name="meta.media.0.codec.bit_rate">0</property>
    <property name="meta.attr.0.stream.DURATION.markup">00:38:30.817000000</property>
    <property name="meta.media.1.stream.type">audio</property>
    <property name="meta.media.1.codec.sample_fmt">fltp</property>
    <property name="meta.media.1.codec.sample_rate">48000</property>
    <property name="meta.media.1.codec.channels">2</property>
    <property name="meta.media.1.codec.layout">stereo</property>
    <property name="meta.media.1.codec.name">aac</property>
    <property name="meta.media.1.codec.long_name">AAC (Advanced Audio Coding)</property>
    <property name="meta.media.1.codec.bit_rate">0</property>
    <property name="meta.attr.1.stream.title.markup">simple_aac_recording0</property>
    <property name="meta.attr.1.stream.DURATION.markup">00:38:30.784000000</property>
    <property name="meta.attr.ENCODER.markup">Lavf58.76.100</property>
    <property name="seekable">1</property>
    <property name="meta.media.sample_aspect_num">1</property>
    <property name="meta.media.sample_aspect_den">1</property>
    <property name="audio_index">1</property>
    <property name="video_index">0</property>
    <property name="creation_time">2025-02-04T15:13:41</property>
    <property name="vstream">0</property>
    <property name="meta.media.frame_rate_num">60</property>
    <property name="meta.media.frame_rate_den">1</property>
    <property name="meta.media.colorspace">709</property>
    <property name="meta.media.color_trc">1</property>
    <property name="meta.media.has_b_frames">2</property>
    <property name="meta.media.width">1920</property>
    <property name="meta.media.height">1080</property>
    <property name="meta.media.aspect_ratio">1</property>
    <property name="meta.media.color_range">mpeg</property>
    <property name="astream">0</property>
    <property name="shotcut:skipConvert">0</property>
    <property name="meta.media.top_field_first">0</property>
    <property name="meta.media.progressive">1</property>
    <property name="shotcut:hash">9ed2ab5ca14ff3f32da6061feeb032a5</property>
    <property name="ignore_points">0</property>
    <property name="shotcut:caption">2025-02-04 11-32-42.mkv</property>
    <property name="xml">was here</property>
  </chain>
  <chain id="chain109" out="00:38:30.800">
    <property name="length">00:38:30.817</property>
    <property name="eof">pause</property>
    <property name="resource">/home/alt/Vídeos/2025-02-04 11-32-42.mkv</property>
    <property name="mlt_service">avformat-novalidate</property>
    <property name="meta.media.nb_streams">2</property>
    <property name="meta.media.0.stream.type">video</property>
    <property name="meta.media.0.stream.frame_rate">60</property>
    <property name="meta.media.0.stream.sample_aspect_ratio">0</property>
    <property name="meta.media.0.codec.width">1920</property>
    <property name="meta.media.0.codec.height">1080</property>
    <property name="meta.media.0.codec.rotate">0</property>
    <property name="meta.media.0.codec.pix_fmt">yuv420p</property>
    <property name="meta.media.0.codec.sample_aspect_ratio">1</property>
    <property name="meta.media.0.codec.colorspace">709</property>
    <property name="meta.media.0.codec.color_trc">1</property>
    <property name="meta.media.0.codec.name">h264</property>
    <property name="meta.media.0.codec.long_name">H.264 / AVC / MPEG-4 AVC / MPEG-4 part 10</property>
    <property name="meta.media.0.codec.bit_rate">0</property>
    <property name="meta.attr.0.stream.DURATION.markup">00:38:30.817000000</property>
    <property name="meta.media.1.stream.type">audio</property>
    <property name="meta.media.1.codec.sample_fmt">fltp</property>
    <property name="meta.media.1.codec.sample_rate">48000</property>
    <property name="meta.media.1.codec.channels">2</property>
    <property name="meta.media.1.codec.layout">stereo</property>
    <property name="meta.media.1.codec.name">aac</property>
    <property name="meta.media.1.codec.long_name">AAC (Advanced Audio Coding)</property>
    <property name="meta.media.1.codec.bit_rate">0</property>
    <property name="meta.attr.1.stream.title.markup">simple_aac_recording0</property>
    <property name="meta.attr.1.stream.DURATION.markup">00:38:30.784000000</property>
    <property name="meta.attr.ENCODER.markup">Lavf58.76.100</property>
    <property name="seekable">1</property>
    <property name="meta.media.sample_aspect_num">1</property>
    <property name="meta.media.sample_aspect_den">1</property>
    <property name="audio_index">1</property>
    <property name="video_index">0</property>
    <property name="creation_time">2025-02-04T15:13:41</property>
    <property name="vstream">0</property>
    <property name="meta.media.frame_rate_num">60</property>
    <property name="meta.media.frame_rate_den">1</property>
    <property name="meta.media.colorspace">709</property>
    <property name="meta.media.color_trc">1</property>
    <property name="meta.media.has_b_frames">2</property>
    <property name="meta.media.width">1920</property>
    <property name="meta.media.height">1080</property>
    <property name="meta.media.aspect_ratio">1</property>
    <property name="meta.media.color_range">mpeg</property>
    <property name="astream">0</property>
    <property name="shotcut:skipConvert">0</property>
    <property name="meta.media.top_field_first">0</property>
    <property name="meta.media.progressive">1</property>
    <property name="shotcut:hash">9ed2ab5ca14ff3f32da6061feeb032a5</property>
    <property name="ignore_points">0</property>
    <property name="shotcut:caption">2025-02-04 11-32-42.mkv</property>
    <property name="xml">was here</property>
  </chain>
  <chain id="chain110" out="00:38:30.800">
    <property name="length">00:38:30.817</property>
    <property name="eof">pause</property>
    <property name="resource">/home/alt/Vídeos/2025-02-04 11-32-42.mkv</property>
    <property name="mlt_service">avformat-novalidate</property>
    <property name="meta.media.nb_streams">2</property>
    <property name="meta.media.0.stream.type">video</property>
    <property name="meta.media.0.stream.frame_rate">60</property>
    <property name="meta.media.0.stream.sample_aspect_ratio">0</property>
    <property name="meta.media.0.codec.width">1920</property>
    <property name="meta.media.0.codec.height">1080</property>
    <property name="meta.media.0.codec.rotate">0</property>
    <property name="meta.media.0.codec.pix_fmt">yuv420p</property>
    <property name="meta.media.0.codec.sample_aspect_ratio">1</property>
    <property name="meta.media.0.codec.colorspace">709</property>
    <property name="meta.media.0.codec.color_trc">1</property>
    <property name="meta.media.0.codec.name">h264</property>
    <property name="meta.media.0.codec.long_name">H.264 / AVC / MPEG-4 AVC / MPEG-4 part 10</property>
    <property name="meta.media.0.codec.bit_rate">0</property>
    <property name="meta.attr.0.stream.DURATION.markup">00:38:30.817000000</property>
    <property name="meta.media.1.stream.type">audio</property>
    <property name="meta.media.1.codec.sample_fmt">fltp</property>
    <property name="meta.media.1.codec.sample_rate">48000</property>
    <property name="meta.media.1.codec.channels">2</property>
    <property name="meta.media.1.codec.layout">stereo</property>
    <property name="meta.media.1.codec.name">aac</property>
    <property name="meta.media.1.codec.long_name">AAC (Advanced Audio Coding)</property>
    <property name="meta.media.1.codec.bit_rate">0</property>
    <property name="meta.attr.1.stream.title.markup">simple_aac_recording0</property>
    <property name="meta.attr.1.stream.DURATION.markup">00:38:30.784000000</property>
    <property name="meta.attr.ENCODER.markup">Lavf58.76.100</property>
    <property name="seekable">1</property>
    <property name="meta.media.sample_aspect_num">1</property>
    <property name="meta.media.sample_aspect_den">1</property>
    <property name="audio_index">1</property>
    <property name="video_index">0</property>
    <property name="creation_time">2025-02-04T15:13:41</property>
    <property name="vstream">0</property>
    <property name="meta.media.frame_rate_num">60</property>
    <property name="meta.media.frame_rate_den">1</property>
    <property name="meta.media.colorspace">709</property>
    <property name="meta.media.color_trc">1</property>
    <property name="meta.media.has_b_frames">2</property>
    <property name="meta.media.width">1920</property>
    <property name="meta.media.height">1080</property>
    <property name="meta.media.aspect_ratio">1</property>
    <property name="meta.media.color_range">mpeg</property>
    <property name="astream">0</property>
    <property name="shotcut:skipConvert">0</property>
    <property name="meta.media.top_field_first">0</property>
    <property name="meta.media.progressive">1</property>
    <property name="shotcut:hash">9ed2ab5ca14ff3f32da6061feeb032a5</property>
    <property name="ignore_points">0</property>
    <property name="shotcut:caption">2025-02-04 11-32-42.mkv</property>
    <property name="xml">was here</property>
  </chain>
  <chain id="chain111" out="00:38:30.800">
    <property name="length">00:38:30.817</property>
    <property name="eof">pause</property>
    <property name="resource">/home/alt/Vídeos/2025-02-04 11-32-42.mkv</property>
    <property name="mlt_service">avformat-novalidate</property>
    <property name="meta.media.nb_streams">2</property>
    <property name="meta.media.0.stream.type">video</property>
    <property name="meta.media.0.stream.frame_rate">60</property>
    <property name="meta.media.0.stream.sample_aspect_ratio">0</property>
    <property name="meta.media.0.codec.width">1920</property>
    <property name="meta.media.0.codec.height">1080</property>
    <property name="meta.media.0.codec.rotate">0</property>
    <property name="meta.media.0.codec.pix_fmt">yuv420p</property>
    <property name="meta.media.0.codec.sample_aspect_ratio">1</property>
    <property name="meta.media.0.codec.colorspace">709</property>
    <property name="meta.media.0.codec.color_trc">1</property>
    <property name="meta.media.0.codec.name">h264</property>
    <property name="meta.media.0.codec.long_name">H.264 / AVC / MPEG-4 AVC / MPEG-4 part 10</property>
    <property name="meta.media.0.codec.bit_rate">0</property>
    <property name="meta.attr.0.stream.DURATION.markup">00:38:30.817000000</property>
    <property name="meta.media.1.stream.type">audio</property>
    <property name="meta.media.1.codec.sample_fmt">fltp</property>
    <property name="meta.media.1.codec.sample_rate">48000</property>
    <property name="meta.media.1.codec.channels">2</property>
    <property name="meta.media.1.codec.layout">stereo</property>
    <property name="meta.media.1.codec.name">aac</property>
    <property name="meta.media.1.codec.long_name">AAC (Advanced Audio Coding)</property>
    <property name="meta.media.1.codec.bit_rate">0</property>
    <property name="meta.attr.1.stream.title.markup">simple_aac_recording0</property>
    <property name="meta.attr.1.stream.DURATION.markup">00:38:30.784000000</property>
    <property name="meta.attr.ENCODER.markup">Lavf58.76.100</property>
    <property name="seekable">1</property>
    <property name="meta.media.sample_aspect_num">1</property>
    <property name="meta.media.sample_aspect_den">1</property>
    <property name="audio_index">1</property>
    <property name="video_index">0</property>
    <property name="creation_time">2025-02-04T15:13:41</property>
    <property name="vstream">0</property>
    <property name="meta.media.frame_rate_num">60</property>
    <property name="meta.media.frame_rate_den">1</property>
    <property name="meta.media.colorspace">709</property>
    <property name="meta.media.color_trc">1</property>
    <property name="meta.media.has_b_frames">2</property>
    <property name="meta.media.width">1920</property>
    <property name="meta.media.height">1080</property>
    <property name="meta.media.aspect_ratio">1</property>
    <property name="meta.media.color_range">mpeg</property>
    <property name="astream">0</property>
    <property name="shotcut:skipConvert">0</property>
    <property name="meta.media.top_field_first">0</property>
    <property name="meta.media.progressive">1</property>
    <property name="shotcut:hash">9ed2ab5ca14ff3f32da6061feeb032a5</property>
    <property name="ignore_points">0</property>
    <property name="shotcut:caption">2025-02-04 11-32-42.mkv</property>
    <property name="xml">was here</property>
  </chain>
  <chain id="chain112" out="00:38:30.800">
    <property name="length">00:38:30.817</property>
    <property name="eof">pause</property>
    <property name="resource">/home/alt/Vídeos/2025-02-04 11-32-42.mkv</property>
    <property name="mlt_service">avformat-novalidate</property>
    <property name="meta.media.nb_streams">2</property>
    <property name="meta.media.0.stream.type">video</property>
    <property name="meta.media.0.stream.frame_rate">60</property>
    <property name="meta.media.0.stream.sample_aspect_ratio">0</property>
    <property name="meta.media.0.codec.width">1920</property>
    <property name="meta.media.0.codec.height">1080</property>
    <property name="meta.media.0.codec.rotate">0</property>
    <property name="meta.media.0.codec.pix_fmt">yuv420p</property>
    <property name="meta.media.0.codec.sample_aspect_ratio">1</property>
    <property name="meta.media.0.codec.colorspace">709</property>
    <property name="meta.media.0.codec.color_trc">1</property>
    <property name="meta.media.0.codec.name">h264</property>
    <property name="meta.media.0.codec.long_name">H.264 / AVC / MPEG-4 AVC / MPEG-4 part 10</property>
    <property name="meta.media.0.codec.bit_rate">0</property>
    <property name="meta.attr.0.stream.DURATION.markup">00:38:30.817000000</property>
    <property name="meta.media.1.stream.type">audio</property>
    <property name="meta.media.1.codec.sample_fmt">fltp</property>
    <property name="meta.media.1.codec.sample_rate">48000</property>
    <property name="meta.media.1.codec.channels">2</property>
    <property name="meta.media.1.codec.layout">stereo</property>
    <property name="meta.media.1.codec.name">aac</property>
    <property name="meta.media.1.codec.long_name">AAC (Advanced Audio Coding)</property>
    <property name="meta.media.1.codec.bit_rate">0</property>
    <property name="meta.attr.1.stream.title.markup">simple_aac_recording0</property>
    <property name="meta.attr.1.stream.DURATION.markup">00:38:30.784000000</property>
    <property name="meta.attr.ENCODER.markup">Lavf58.76.100</property>
    <property name="seekable">1</property>
    <property name="meta.media.sample_aspect_num">1</property>
    <property name="meta.media.sample_aspect_den">1</property>
    <property name="audio_index">1</property>
    <property name="video_index">0</property>
    <property name="creation_time">2025-02-04T15:13:41</property>
    <property name="vstream">0</property>
    <property name="meta.media.frame_rate_num">60</property>
    <property name="meta.media.frame_rate_den">1</property>
    <property name="meta.media.colorspace">709</property>
    <property name="meta.media.color_trc">1</property>
    <property name="meta.media.has_b_frames">2</property>
    <property name="meta.media.width">1920</property>
    <property name="meta.media.height">1080</property>
    <property name="meta.media.aspect_ratio">1</property>
    <property name="meta.media.color_range">mpeg</property>
    <property name="astream">0</property>
    <property name="shotcut:skipConvert">0</property>
    <property name="meta.media.top_field_first">0</property>
    <property name="meta.media.progressive">1</property>
    <property name="shotcut:hash">9ed2ab5ca14ff3f32da6061feeb032a5</property>
    <property name="ignore_points">0</property>
    <property name="shotcut:caption">2025-02-04 11-32-42.mkv</property>
    <property name="xml">was here</property>
  </chain>
  <chain id="chain113" out="00:38:30.800">
    <property name="length">00:38:30.817</property>
    <property name="eof">pause</property>
    <property name="resource">/home/alt/Vídeos/2025-02-04 11-32-42.mkv</property>
    <property name="mlt_service">avformat-novalidate</property>
    <property name="meta.media.nb_streams">2</property>
    <property name="meta.media.0.stream.type">video</property>
    <property name="meta.media.0.stream.frame_rate">60</property>
    <property name="meta.media.0.stream.sample_aspect_ratio">0</property>
    <property name="meta.media.0.codec.width">1920</property>
    <property name="meta.media.0.codec.height">1080</property>
    <property name="meta.media.0.codec.rotate">0</property>
    <property name="meta.media.0.codec.pix_fmt">yuv420p</property>
    <property name="meta.media.0.codec.sample_aspect_ratio">1</property>
    <property name="meta.media.0.codec.colorspace">709</property>
    <property name="meta.media.0.codec.color_trc">1</property>
    <property name="meta.media.0.codec.name">h264</property>
    <property name="meta.media.0.codec.long_name">H.264 / AVC / MPEG-4 AVC / MPEG-4 part 10</property>
    <property name="meta.media.0.codec.bit_rate">0</property>
    <property name="meta.attr.0.stream.DURATION.markup">00:38:30.817000000</property>
    <property name="meta.media.1.stream.type">audio</property>
    <property name="meta.media.1.codec.sample_fmt">fltp</property>
    <property name="meta.media.1.codec.sample_rate">48000</property>
    <property name="meta.media.1.codec.channels">2</property>
    <property name="meta.media.1.codec.layout">stereo</property>
    <property name="meta.media.1.codec.name">aac</property>
    <property name="meta.media.1.codec.long_name">AAC (Advanced Audio Coding)</property>
    <property name="meta.media.1.codec.bit_rate">0</property>
    <property name="meta.attr.1.stream.title.markup">simple_aac_recording0</property>
    <property name="meta.attr.1.stream.DURATION.markup">00:38:30.784000000</property>
    <property name="meta.attr.ENCODER.markup">Lavf58.76.100</property>
    <property name="seekable">1</property>
    <property name="meta.media.sample_aspect_num">1</property>
    <property name="meta.media.sample_aspect_den">1</property>
    <property name="audio_index">1</property>
    <property name="video_index">0</property>
    <property name="creation_time">2025-02-04T15:13:41</property>
    <property name="vstream">0</property>
    <property name="meta.media.frame_rate_num">60</property>
    <property name="meta.media.frame_rate_den">1</property>
    <property name="meta.media.colorspace">709</property>
    <property name="meta.media.color_trc">1</property>
    <property name="meta.media.has_b_frames">2</property>
    <property name="meta.media.width">1920</property>
    <property name="meta.media.height">1080</property>
    <property name="meta.media.aspect_ratio">1</property>
    <property name="meta.media.color_range">mpeg</property>
    <property name="astream">0</property>
    <property name="shotcut:skipConvert">0</property>
    <property name="meta.media.top_field_first">0</property>
    <property name="meta.media.progressive">1</property>
    <property name="shotcut:hash">9ed2ab5ca14ff3f32da6061feeb032a5</property>
    <property name="ignore_points">0</property>
    <property name="shotcut:caption">2025-02-04 11-32-42.mkv</property>
    <property name="xml">was here</property>
  </chain>
  <chain id="chain114" out="00:38:30.800">
    <property name="length">00:38:30.817</property>
    <property name="eof">pause</property>
    <property name="resource">/home/alt/Vídeos/2025-02-04 11-32-42.mkv</property>
    <property name="mlt_service">avformat-novalidate</property>
    <property name="meta.media.nb_streams">2</property>
    <property name="meta.media.0.stream.type">video</property>
    <property name="meta.media.0.stream.frame_rate">60</property>
    <property name="meta.media.0.stream.sample_aspect_ratio">0</property>
    <property name="meta.media.0.codec.width">1920</property>
    <property name="meta.media.0.codec.height">1080</property>
    <property name="meta.media.0.codec.rotate">0</property>
    <property name="meta.media.0.codec.pix_fmt">yuv420p</property>
    <property name="meta.media.0.codec.sample_aspect_ratio">1</property>
    <property name="meta.media.0.codec.colorspace">709</property>
    <property name="meta.media.0.codec.color_trc">1</property>
    <property name="meta.media.0.codec.name">h264</property>
    <property name="meta.media.0.codec.long_name">H.264 / AVC / MPEG-4 AVC / MPEG-4 part 10</property>
    <property name="meta.media.0.codec.bit_rate">0</property>
    <property name="meta.attr.0.stream.DURATION.markup">00:38:30.817000000</property>
    <property name="meta.media.1.stream.type">audio</property>
    <property name="meta.media.1.codec.sample_fmt">fltp</property>
    <property name="meta.media.1.codec.sample_rate">48000</property>
    <property name="meta.media.1.codec.channels">2</property>
    <property name="meta.media.1.codec.layout">stereo</property>
    <property name="meta.media.1.codec.name">aac</property>
    <property name="meta.media.1.codec.long_name">AAC (Advanced Audio Coding)</property>
    <property name="meta.media.1.codec.bit_rate">0</property>
    <property name="meta.attr.1.stream.title.markup">simple_aac_recording0</property>
    <property name="meta.attr.1.stream.DURATION.markup">00:38:30.784000000</property>
    <property name="meta.attr.ENCODER.markup">Lavf58.76.100</property>
    <property name="seekable">1</property>
    <property name="meta.media.sample_aspect_num">1</property>
    <property name="meta.media.sample_aspect_den">1</property>
    <property name="audio_index">1</property>
    <property name="video_index">0</property>
    <property name="creation_time">2025-02-04T15:13:41</property>
    <property name="vstream">0</property>
    <property name="meta.media.frame_rate_num">60</property>
    <property name="meta.media.frame_rate_den">1</property>
    <property name="meta.media.colorspace">709</property>
    <property name="meta.media.color_trc">1</property>
    <property name="meta.media.has_b_frames">2</property>
    <property name="meta.media.width">1920</property>
    <property name="meta.media.height">1080</property>
    <property name="meta.media.aspect_ratio">1</property>
    <property name="meta.media.color_range">mpeg</property>
    <property name="astream">0</property>
    <property name="shotcut:skipConvert">0</property>
    <property name="meta.media.top_field_first">0</property>
    <property name="meta.media.progressive">1</property>
    <property name="shotcut:hash">9ed2ab5ca14ff3f32da6061feeb032a5</property>
    <property name="ignore_points">0</property>
    <property name="shotcut:caption">2025-02-04 11-32-42.mkv</property>
    <property name="xml">was here</property>
  </chain>
  <chain id="chain115" out="00:38:30.800">
    <property name="length">00:38:30.817</property>
    <property name="eof">pause</property>
    <property name="resource">/home/alt/Vídeos/2025-02-04 11-32-42.mkv</property>
    <property name="mlt_service">avformat-novalidate</property>
    <property name="meta.media.nb_streams">2</property>
    <property name="meta.media.0.stream.type">video</property>
    <property name="meta.media.0.stream.frame_rate">60</property>
    <property name="meta.media.0.stream.sample_aspect_ratio">0</property>
    <property name="meta.media.0.codec.width">1920</property>
    <property name="meta.media.0.codec.height">1080</property>
    <property name="meta.media.0.codec.rotate">0</property>
    <property name="meta.media.0.codec.pix_fmt">yuv420p</property>
    <property name="meta.media.0.codec.sample_aspect_ratio">1</property>
    <property name="meta.media.0.codec.colorspace">709</property>
    <property name="meta.media.0.codec.color_trc">1</property>
    <property name="meta.media.0.codec.name">h264</property>
    <property name="meta.media.0.codec.long_name">H.264 / AVC / MPEG-4 AVC / MPEG-4 part 10</property>
    <property name="meta.media.0.codec.bit_rate">0</property>
    <property name="meta.attr.0.stream.DURATION.markup">00:38:30.817000000</property>
    <property name="meta.media.1.stream.type">audio</property>
    <property name="meta.media.1.codec.sample_fmt">fltp</property>
    <property name="meta.media.1.codec.sample_rate">48000</property>
    <property name="meta.media.1.codec.channels">2</property>
    <property name="meta.media.1.codec.layout">stereo</property>
    <property name="meta.media.1.codec.name">aac</property>
    <property name="meta.media.1.codec.long_name">AAC (Advanced Audio Coding)</property>
    <property name="meta.media.1.codec.bit_rate">0</property>
    <property name="meta.attr.1.stream.title.markup">simple_aac_recording0</property>
    <property name="meta.attr.1.stream.DURATION.markup">00:38:30.784000000</property>
    <property name="meta.attr.ENCODER.markup">Lavf58.76.100</property>
    <property name="seekable">1</property>
    <property name="meta.media.sample_aspect_num">1</property>
    <property name="meta.media.sample_aspect_den">1</property>
    <property name="audio_index">1</property>
    <property name="video_index">0</property>
    <property name="creation_time">2025-02-04T15:13:41</property>
    <property name="vstream">0</property>
    <property name="meta.media.frame_rate_num">60</property>
    <property name="meta.media.frame_rate_den">1</property>
    <property name="meta.media.colorspace">709</property>
    <property name="meta.media.color_trc">1</property>
    <property name="meta.media.has_b_frames">2</property>
    <property name="meta.media.width">1920</property>
    <property name="meta.media.height">1080</property>
    <property name="meta.media.aspect_ratio">1</property>
    <property name="meta.media.color_range">mpeg</property>
    <property name="astream">0</property>
    <property name="shotcut:skipConvert">0</property>
    <property name="meta.media.top_field_first">0</property>
    <property name="meta.media.progressive">1</property>
    <property name="shotcut:hash">9ed2ab5ca14ff3f32da6061feeb032a5</property>
    <property name="ignore_points">0</property>
    <property name="shotcut:caption">2025-02-04 11-32-42.mkv</property>
    <property name="xml">was here</property>
  </chain>
  <chain id="chain116" out="00:38:30.800">
    <property name="length">00:38:30.817</property>
    <property name="eof">pause</property>
    <property name="resource">/home/alt/Vídeos/2025-02-04 11-32-42.mkv</property>
    <property name="mlt_service">avformat-novalidate</property>
    <property name="meta.media.nb_streams">2</property>
    <property name="meta.media.0.stream.type">video</property>
    <property name="meta.media.0.stream.frame_rate">60</property>
    <property name="meta.media.0.stream.sample_aspect_ratio">0</property>
    <property name="meta.media.0.codec.width">1920</property>
    <property name="meta.media.0.codec.height">1080</property>
    <property name="meta.media.0.codec.rotate">0</property>
    <property name="meta.media.0.codec.pix_fmt">yuv420p</property>
    <property name="meta.media.0.codec.sample_aspect_ratio">1</property>
    <property name="meta.media.0.codec.colorspace">709</property>
    <property name="meta.media.0.codec.color_trc">1</property>
    <property name="meta.media.0.codec.name">h264</property>
    <property name="meta.media.0.codec.long_name">H.264 / AVC / MPEG-4 AVC / MPEG-4 part 10</property>
    <property name="meta.media.0.codec.bit_rate">0</property>
    <property name="meta.attr.0.stream.DURATION.markup">00:38:30.817000000</property>
    <property name="meta.media.1.stream.type">audio</property>
    <property name="meta.media.1.codec.sample_fmt">fltp</property>
    <property name="meta.media.1.codec.sample_rate">48000</property>
    <property name="meta.media.1.codec.channels">2</property>
    <property name="meta.media.1.codec.layout">stereo</property>
    <property name="meta.media.1.codec.name">aac</property>
    <property name="meta.media.1.codec.long_name">AAC (Advanced Audio Coding)</property>
    <property name="meta.media.1.codec.bit_rate">0</property>
    <property name="meta.attr.1.stream.title.markup">simple_aac_recording0</property>
    <property name="meta.attr.1.stream.DURATION.markup">00:38:30.784000000</property>
    <property name="meta.attr.ENCODER.markup">Lavf58.76.100</property>
    <property name="seekable">1</property>
    <property name="meta.media.sample_aspect_num">1</property>
    <property name="meta.media.sample_aspect_den">1</property>
    <property name="audio_index">1</property>
    <property name="video_index">0</property>
    <property name="creation_time">2025-02-04T15:13:41</property>
    <property name="vstream">0</property>
    <property name="meta.media.frame_rate_num">60</property>
    <property name="meta.media.frame_rate_den">1</property>
    <property name="meta.media.colorspace">709</property>
    <property name="meta.media.color_trc">1</property>
    <property name="meta.media.has_b_frames">2</property>
    <property name="meta.media.width">1920</property>
    <property name="meta.media.height">1080</property>
    <property name="meta.media.aspect_ratio">1</property>
    <property name="meta.media.color_range">mpeg</property>
    <property name="astream">0</property>
    <property name="shotcut:skipConvert">0</property>
    <property name="meta.media.top_field_first">0</property>
    <property name="meta.media.progressive">1</property>
    <property name="shotcut:hash">9ed2ab5ca14ff3f32da6061feeb032a5</property>
    <property name="ignore_points">0</property>
    <property name="shotcut:caption">2025-02-04 11-32-42.mkv</property>
    <property name="xml">was here</property>
  </chain>
  <chain id="chain117" out="00:38:30.800">
    <property name="length">00:38:30.817</property>
    <property name="eof">pause</property>
    <property name="resource">/home/alt/Vídeos/2025-02-04 11-32-42.mkv</property>
    <property name="mlt_service">avformat-novalidate</property>
    <property name="meta.media.nb_streams">2</property>
    <property name="meta.media.0.stream.type">video</property>
    <property name="meta.media.0.stream.frame_rate">60</property>
    <property name="meta.media.0.stream.sample_aspect_ratio">0</property>
    <property name="meta.media.0.codec.width">1920</property>
    <property name="meta.media.0.codec.height">1080</property>
    <property name="meta.media.0.codec.rotate">0</property>
    <property name="meta.media.0.codec.pix_fmt">yuv420p</property>
    <property name="meta.media.0.codec.sample_aspect_ratio">1</property>
    <property name="meta.media.0.codec.colorspace">709</property>
    <property name="meta.media.0.codec.color_trc">1</property>
    <property name="meta.media.0.codec.name">h264</property>
    <property name="meta.media.0.codec.long_name">H.264 / AVC / MPEG-4 AVC / MPEG-4 part 10</property>
    <property name="meta.media.0.codec.bit_rate">0</property>
    <property name="meta.attr.0.stream.DURATION.markup">00:38:30.817000000</property>
    <property name="meta.media.1.stream.type">audio</property>
    <property name="meta.media.1.codec.sample_fmt">fltp</property>
    <property name="meta.media.1.codec.sample_rate">48000</property>
    <property name="meta.media.1.codec.channels">2</property>
    <property name="meta.media.1.codec.layout">stereo</property>
    <property name="meta.media.1.codec.name">aac</property>
    <property name="meta.media.1.codec.long_name">AAC (Advanced Audio Coding)</property>
    <property name="meta.media.1.codec.bit_rate">0</property>
    <property name="meta.attr.1.stream.title.markup">simple_aac_recording0</property>
    <property name="meta.attr.1.stream.DURATION.markup">00:38:30.784000000</property>
    <property name="meta.attr.ENCODER.markup">Lavf58.76.100</property>
    <property name="seekable">1</property>
    <property name="meta.media.sample_aspect_num">1</property>
    <property name="meta.media.sample_aspect_den">1</property>
    <property name="audio_index">1</property>
    <property name="video_index">0</property>
    <property name="creation_time">2025-02-04T15:13:41</property>
    <property name="vstream">0</property>
    <property name="meta.media.frame_rate_num">60</property>
    <property name="meta.media.frame_rate_den">1</property>
    <property name="meta.media.colorspace">709</property>
    <property name="meta.media.color_trc">1</property>
    <property name="meta.media.has_b_frames">2</property>
    <property name="meta.media.width">1920</property>
    <property name="meta.media.height">1080</property>
    <property name="meta.media.aspect_ratio">1</property>
    <property name="meta.media.color_range">mpeg</property>
    <property name="astream">0</property>
    <property name="shotcut:skipConvert">0</property>
    <property name="meta.media.top_field_first">0</property>
    <property name="meta.media.progressive">1</property>
    <property name="shotcut:hash">9ed2ab5ca14ff3f32da6061feeb032a5</property>
    <property name="ignore_points">0</property>
    <property name="shotcut:caption">2025-02-04 11-32-42.mkv</property>
    <property name="xml">was here</property>
  </chain>
  <chain id="chain118" out="00:38:30.800">
    <property name="length">00:38:30.817</property>
    <property name="eof">pause</property>
    <property name="resource">/home/alt/Vídeos/2025-02-04 11-32-42.mkv</property>
    <property name="mlt_service">avformat-novalidate</property>
    <property name="meta.media.nb_streams">2</property>
    <property name="meta.media.0.stream.type">video</property>
    <property name="meta.media.0.stream.frame_rate">60</property>
    <property name="meta.media.0.stream.sample_aspect_ratio">0</property>
    <property name="meta.media.0.codec.width">1920</property>
    <property name="meta.media.0.codec.height">1080</property>
    <property name="meta.media.0.codec.rotate">0</property>
    <property name="meta.media.0.codec.pix_fmt">yuv420p</property>
    <property name="meta.media.0.codec.sample_aspect_ratio">1</property>
    <property name="meta.media.0.codec.colorspace">709</property>
    <property name="meta.media.0.codec.color_trc">1</property>
    <property name="meta.media.0.codec.name">h264</property>
    <property name="meta.media.0.codec.long_name">H.264 / AVC / MPEG-4 AVC / MPEG-4 part 10</property>
    <property name="meta.media.0.codec.bit_rate">0</property>
    <property name="meta.attr.0.stream.DURATION.markup">00:38:30.817000000</property>
    <property name="meta.media.1.stream.type">audio</property>
    <property name="meta.media.1.codec.sample_fmt">fltp</property>
    <property name="meta.media.1.codec.sample_rate">48000</property>
    <property name="meta.media.1.codec.channels">2</property>
    <property name="meta.media.1.codec.layout">stereo</property>
    <property name="meta.media.1.codec.name">aac</property>
    <property name="meta.media.1.codec.long_name">AAC (Advanced Audio Coding)</property>
    <property name="meta.media.1.codec.bit_rate">0</property>
    <property name="meta.attr.1.stream.title.markup">simple_aac_recording0</property>
    <property name="meta.attr.1.stream.DURATION.markup">00:38:30.784000000</property>
    <property name="meta.attr.ENCODER.markup">Lavf58.76.100</property>
    <property name="seekable">1</property>
    <property name="meta.media.sample_aspect_num">1</property>
    <property name="meta.media.sample_aspect_den">1</property>
    <property name="audio_index">1</property>
    <property name="video_index">0</property>
    <property name="creation_time">2025-02-04T15:13:41</property>
    <property name="vstream">0</property>
    <property name="meta.media.frame_rate_num">60</property>
    <property name="meta.media.frame_rate_den">1</property>
    <property name="meta.media.colorspace">709</property>
    <property name="meta.media.color_trc">1</property>
    <property name="meta.media.has_b_frames">2</property>
    <property name="meta.media.width">1920</property>
    <property name="meta.media.height">1080</property>
    <property name="meta.media.aspect_ratio">1</property>
    <property name="meta.media.color_range">mpeg</property>
    <property name="astream">0</property>
    <property name="shotcut:skipConvert">0</property>
    <property name="meta.media.top_field_first">0</property>
    <property name="meta.media.progressive">1</property>
    <property name="shotcut:hash">9ed2ab5ca14ff3f32da6061feeb032a5</property>
    <property name="ignore_points">0</property>
    <property name="shotcut:caption">2025-02-04 11-32-42.mkv</property>
    <property name="xml">was here</property>
  </chain>
  <chain id="chain119" out="00:38:30.800">
    <property name="length">00:38:30.817</property>
    <property name="eof">pause</property>
    <property name="resource">/home/alt/Vídeos/2025-02-04 11-32-42.mkv</property>
    <property name="mlt_service">avformat-novalidate</property>
    <property name="meta.media.nb_streams">2</property>
    <property name="meta.media.0.stream.type">video</property>
    <property name="meta.media.0.stream.frame_rate">60</property>
    <property name="meta.media.0.stream.sample_aspect_ratio">0</property>
    <property name="meta.media.0.codec.width">1920</property>
    <property name="meta.media.0.codec.height">1080</property>
    <property name="meta.media.0.codec.rotate">0</property>
    <property name="meta.media.0.codec.pix_fmt">yuv420p</property>
    <property name="meta.media.0.codec.sample_aspect_ratio">1</property>
    <property name="meta.media.0.codec.colorspace">709</property>
    <property name="meta.media.0.codec.color_trc">1</property>
    <property name="meta.media.0.codec.name">h264</property>
    <property name="meta.media.0.codec.long_name">H.264 / AVC / MPEG-4 AVC / MPEG-4 part 10</property>
    <property name="meta.media.0.codec.bit_rate">0</property>
    <property name="meta.attr.0.stream.DURATION.markup">00:38:30.817000000</property>
    <property name="meta.media.1.stream.type">audio</property>
    <property name="meta.media.1.codec.sample_fmt">fltp</property>
    <property name="meta.media.1.codec.sample_rate">48000</property>
    <property name="meta.media.1.codec.channels">2</property>
    <property name="meta.media.1.codec.layout">stereo</property>
    <property name="meta.media.1.codec.name">aac</property>
    <property name="meta.media.1.codec.long_name">AAC (Advanced Audio Coding)</property>
    <property name="meta.media.1.codec.bit_rate">0</property>
    <property name="meta.attr.1.stream.title.markup">simple_aac_recording0</property>
    <property name="meta.attr.1.stream.DURATION.markup">00:38:30.784000000</property>
    <property name="meta.attr.ENCODER.markup">Lavf58.76.100</property>
    <property name="seekable">1</property>
    <property name="meta.media.sample_aspect_num">1</property>
    <property name="meta.media.sample_aspect_den">1</property>
    <property name="audio_index">1</property>
    <property name="video_index">0</property>
    <property name="creation_time">2025-02-04T15:13:41</property>
    <property name="vstream">0</property>
    <property name="meta.media.frame_rate_num">60</property>
    <property name="meta.media.frame_rate_den">1</property>
    <property name="meta.media.colorspace">709</property>
    <property name="meta.media.color_trc">1</property>
    <property name="meta.media.has_b_frames">2</property>
    <property name="meta.media.width">1920</property>
    <property name="meta.media.height">1080</property>
    <property name="meta.media.aspect_ratio">1</property>
    <property name="meta.media.color_range">mpeg</property>
    <property name="astream">0</property>
    <property name="shotcut:skipConvert">0</property>
    <property name="meta.media.top_field_first">0</property>
    <property name="meta.media.progressive">1</property>
    <property name="shotcut:hash">9ed2ab5ca14ff3f32da6061feeb032a5</property>
    <property name="ignore_points">0</property>
    <property name="shotcut:caption">2025-02-04 11-32-42.mkv</property>
    <property name="xml">was here</property>
  </chain>
  <chain id="chain120" out="00:38:30.800">
    <property name="length">00:38:30.817</property>
    <property name="eof">pause</property>
    <property name="resource">/home/alt/Vídeos/2025-02-04 11-32-42.mkv</property>
    <property name="mlt_service">avformat-novalidate</property>
    <property name="meta.media.nb_streams">2</property>
    <property name="meta.media.0.stream.type">video</property>
    <property name="meta.media.0.stream.frame_rate">60</property>
    <property name="meta.media.0.stream.sample_aspect_ratio">0</property>
    <property name="meta.media.0.codec.width">1920</property>
    <property name="meta.media.0.codec.height">1080</property>
    <property name="meta.media.0.codec.rotate">0</property>
    <property name="meta.media.0.codec.pix_fmt">yuv420p</property>
    <property name="meta.media.0.codec.sample_aspect_ratio">1</property>
    <property name="meta.media.0.codec.colorspace">709</property>
    <property name="meta.media.0.codec.color_trc">1</property>
    <property name="meta.media.0.codec.name">h264</property>
    <property name="meta.media.0.codec.long_name">H.264 / AVC / MPEG-4 AVC / MPEG-4 part 10</property>
    <property name="meta.media.0.codec.bit_rate">0</property>
    <property name="meta.attr.0.stream.DURATION.markup">00:38:30.817000000</property>
    <property name="meta.media.1.stream.type">audio</property>
    <property name="meta.media.1.codec.sample_fmt">fltp</property>
    <property name="meta.media.1.codec.sample_rate">48000</property>
    <property name="meta.media.1.codec.channels">2</property>
    <property name="meta.media.1.codec.layout">stereo</property>
    <property name="meta.media.1.codec.name">aac</property>
    <property name="meta.media.1.codec.long_name">AAC (Advanced Audio Coding)</property>
    <property name="meta.media.1.codec.bit_rate">0</property>
    <property name="meta.attr.1.stream.title.markup">simple_aac_recording0</property>
    <property name="meta.attr.1.stream.DURATION.markup">00:38:30.784000000</property>
    <property name="meta.attr.ENCODER.markup">Lavf58.76.100</property>
    <property name="seekable">1</property>
    <property name="meta.media.sample_aspect_num">1</property>
    <property name="meta.media.sample_aspect_den">1</property>
    <property name="audio_index">1</property>
    <property name="video_index">0</property>
    <property name="creation_time">2025-02-04T15:13:41</property>
    <property name="vstream">0</property>
    <property name="meta.media.frame_rate_num">60</property>
    <property name="meta.media.frame_rate_den">1</property>
    <property name="meta.media.colorspace">709</property>
    <property name="meta.media.color_trc">1</property>
    <property name="meta.media.has_b_frames">2</property>
    <property name="meta.media.width">1920</property>
    <property name="meta.media.height">1080</property>
    <property name="meta.media.aspect_ratio">1</property>
    <property name="meta.media.color_range">mpeg</property>
    <property name="astream">0</property>
    <property name="shotcut:skipConvert">0</property>
    <property name="meta.media.top_field_first">0</property>
    <property name="meta.media.progressive">1</property>
    <property name="shotcut:hash">9ed2ab5ca14ff3f32da6061feeb032a5</property>
    <property name="ignore_points">0</property>
    <property name="shotcut:caption">2025-02-04 11-32-42.mkv</property>
    <property name="xml">was here</property>
  </chain>
  <chain id="chain121" out="00:38:30.800">
    <property name="length">00:38:30.817</property>
    <property name="eof">pause</property>
    <property name="resource">/home/alt/Vídeos/2025-02-04 11-32-42.mkv</property>
    <property name="mlt_service">avformat-novalidate</property>
    <property name="meta.media.nb_streams">2</property>
    <property name="meta.media.0.stream.type">video</property>
    <property name="meta.media.0.stream.frame_rate">60</property>
    <property name="meta.media.0.stream.sample_aspect_ratio">0</property>
    <property name="meta.media.0.codec.width">1920</property>
    <property name="meta.media.0.codec.height">1080</property>
    <property name="meta.media.0.codec.rotate">0</property>
    <property name="meta.media.0.codec.pix_fmt">yuv420p</property>
    <property name="meta.media.0.codec.sample_aspect_ratio">1</property>
    <property name="meta.media.0.codec.colorspace">709</property>
    <property name="meta.media.0.codec.color_trc">1</property>
    <property name="meta.media.0.codec.name">h264</property>
    <property name="meta.media.0.codec.long_name">H.264 / AVC / MPEG-4 AVC / MPEG-4 part 10</property>
    <property name="meta.media.0.codec.bit_rate">0</property>
    <property name="meta.attr.0.stream.DURATION.markup">00:38:30.817000000</property>
    <property name="meta.media.1.stream.type">audio</property>
    <property name="meta.media.1.codec.sample_fmt">fltp</property>
    <property name="meta.media.1.codec.sample_rate">48000</property>
    <property name="meta.media.1.codec.channels">2</property>
    <property name="meta.media.1.codec.layout">stereo</property>
    <property name="meta.media.1.codec.name">aac</property>
    <property name="meta.media.1.codec.long_name">AAC (Advanced Audio Coding)</property>
    <property name="meta.media.1.codec.bit_rate">0</property>
    <property name="meta.attr.1.stream.title.markup">simple_aac_recording0</property>
    <property name="meta.attr.1.stream.DURATION.markup">00:38:30.784000000</property>
    <property name="meta.attr.ENCODER.markup">Lavf58.76.100</property>
    <property name="seekable">1</property>
    <property name="meta.media.sample_aspect_num">1</property>
    <property name="meta.media.sample_aspect_den">1</property>
    <property name="audio_index">1</property>
    <property name="video_index">0</property>
    <property name="creation_time">2025-02-04T15:13:41</property>
    <property name="vstream">0</property>
    <property name="meta.media.frame_rate_num">60</property>
    <property name="meta.media.frame_rate_den">1</property>
    <property name="meta.media.colorspace">709</property>
    <property name="meta.media.color_trc">1</property>
    <property name="meta.media.has_b_frames">2</property>
    <property name="meta.media.width">1920</property>
    <property name="meta.media.height">1080</property>
    <property name="meta.media.aspect_ratio">1</property>
    <property name="meta.media.color_range">mpeg</property>
    <property name="astream">0</property>
    <property name="shotcut:skipConvert">0</property>
    <property name="meta.media.top_field_first">0</property>
    <property name="meta.media.progressive">1</property>
    <property name="shotcut:hash">9ed2ab5ca14ff3f32da6061feeb032a5</property>
    <property name="ignore_points">0</property>
    <property name="shotcut:caption">2025-02-04 11-32-42.mkv</property>
    <property name="xml">was here</property>
  </chain>
  <chain id="chain122" out="00:38:30.800">
    <property name="length">00:38:30.817</property>
    <property name="eof">pause</property>
    <property name="resource">/home/alt/Vídeos/2025-02-04 11-32-42.mkv</property>
    <property name="mlt_service">avformat-novalidate</property>
    <property name="meta.media.nb_streams">2</property>
    <property name="meta.media.0.stream.type">video</property>
    <property name="meta.media.0.stream.frame_rate">60</property>
    <property name="meta.media.0.stream.sample_aspect_ratio">0</property>
    <property name="meta.media.0.codec.width">1920</property>
    <property name="meta.media.0.codec.height">1080</property>
    <property name="meta.media.0.codec.rotate">0</property>
    <property name="meta.media.0.codec.pix_fmt">yuv420p</property>
    <property name="meta.media.0.codec.sample_aspect_ratio">1</property>
    <property name="meta.media.0.codec.colorspace">709</property>
    <property name="meta.media.0.codec.color_trc">1</property>
    <property name="meta.media.0.codec.name">h264</property>
    <property name="meta.media.0.codec.long_name">H.264 / AVC / MPEG-4 AVC / MPEG-4 part 10</property>
    <property name="meta.media.0.codec.bit_rate">0</property>
    <property name="meta.attr.0.stream.DURATION.markup">00:38:30.817000000</property>
    <property name="meta.media.1.stream.type">audio</property>
    <property name="meta.media.1.codec.sample_fmt">fltp</property>
    <property name="meta.media.1.codec.sample_rate">48000</property>
    <property name="meta.media.1.codec.channels">2</property>
    <property name="meta.media.1.codec.layout">stereo</property>
    <property name="meta.media.1.codec.name">aac</property>
    <property name="meta.media.1.codec.long_name">AAC (Advanced Audio Coding)</property>
    <property name="meta.media.1.codec.bit_rate">0</property>
    <property name="meta.attr.1.stream.title.markup">simple_aac_recording0</property>
    <property name="meta.attr.1.stream.DURATION.markup">00:38:30.784000000</property>
    <property name="meta.attr.ENCODER.markup">Lavf58.76.100</property>
    <property name="seekable">1</property>
    <property name="meta.media.sample_aspect_num">1</property>
    <property name="meta.media.sample_aspect_den">1</property>
    <property name="audio_index">1</property>
    <property name="video_index">0</property>
    <property name="creation_time">2025-02-04T15:13:41</property>
    <property name="vstream">0</property>
    <property name="meta.media.frame_rate_num">60</property>
    <property name="meta.media.frame_rate_den">1</property>
    <property name="meta.media.colorspace">709</property>
    <property name="meta.media.color_trc">1</property>
    <property name="meta.media.has_b_frames">2</property>
    <property name="meta.media.width">1920</property>
    <property name="meta.media.height">1080</property>
    <property name="meta.media.aspect_ratio">1</property>
    <property name="meta.media.color_range">mpeg</property>
    <property name="astream">0</property>
    <property name="shotcut:skipConvert">0</property>
    <property name="meta.media.top_field_first">0</property>
    <property name="meta.media.progressive">1</property>
    <property name="shotcut:hash">9ed2ab5ca14ff3f32da6061feeb032a5</property>
    <property name="ignore_points">0</property>
    <property name="shotcut:caption">2025-02-04 11-32-42.mkv</property>
    <property name="xml">was here</property>
  </chain>
  <chain id="chain123" out="00:38:30.800">
    <property name="length">00:38:30.817</property>
    <property name="eof">pause</property>
    <property name="resource">/home/alt/Vídeos/2025-02-04 11-32-42.mkv</property>
    <property name="mlt_service">avformat-novalidate</property>
    <property name="meta.media.nb_streams">2</property>
    <property name="meta.media.0.stream.type">video</property>
    <property name="meta.media.0.stream.frame_rate">60</property>
    <property name="meta.media.0.stream.sample_aspect_ratio">0</property>
    <property name="meta.media.0.codec.width">1920</property>
    <property name="meta.media.0.codec.height">1080</property>
    <property name="meta.media.0.codec.rotate">0</property>
    <property name="meta.media.0.codec.pix_fmt">yuv420p</property>
    <property name="meta.media.0.codec.sample_aspect_ratio">1</property>
    <property name="meta.media.0.codec.colorspace">709</property>
    <property name="meta.media.0.codec.color_trc">1</property>
    <property name="meta.media.0.codec.name">h264</property>
    <property name="meta.media.0.codec.long_name">H.264 / AVC / MPEG-4 AVC / MPEG-4 part 10</property>
    <property name="meta.media.0.codec.bit_rate">0</property>
    <property name="meta.attr.0.stream.DURATION.markup">00:38:30.817000000</property>
    <property name="meta.media.1.stream.type">audio</property>
    <property name="meta.media.1.codec.sample_fmt">fltp</property>
    <property name="meta.media.1.codec.sample_rate">48000</property>
    <property name="meta.media.1.codec.channels">2</property>
    <property name="meta.media.1.codec.layout">stereo</property>
    <property name="meta.media.1.codec.name">aac</property>
    <property name="meta.media.1.codec.long_name">AAC (Advanced Audio Coding)</property>
    <property name="meta.media.1.codec.bit_rate">0</property>
    <property name="meta.attr.1.stream.title.markup">simple_aac_recording0</property>
    <property name="meta.attr.1.stream.DURATION.markup">00:38:30.784000000</property>
    <property name="meta.attr.ENCODER.markup">Lavf58.76.100</property>
    <property name="seekable">1</property>
    <property name="meta.media.sample_aspect_num">1</property>
    <property name="meta.media.sample_aspect_den">1</property>
    <property name="audio_index">1</property>
    <property name="video_index">0</property>
    <property name="creation_time">2025-02-04T15:13:41</property>
    <property name="vstream">0</property>
    <property name="meta.media.frame_rate_num">60</property>
    <property name="meta.media.frame_rate_den">1</property>
    <property name="meta.media.colorspace">709</property>
    <property name="meta.media.color_trc">1</property>
    <property name="meta.media.has_b_frames">2</property>
    <property name="meta.media.width">1920</property>
    <property name="meta.media.height">1080</property>
    <property name="meta.media.aspect_ratio">1</property>
    <property name="meta.media.color_range">mpeg</property>
    <property name="astream">0</property>
    <property name="shotcut:skipConvert">0</property>
    <property name="meta.media.top_field_first">0</property>
    <property name="meta.media.progressive">1</property>
    <property name="shotcut:hash">9ed2ab5ca14ff3f32da6061feeb032a5</property>
    <property name="ignore_points">0</property>
    <property name="shotcut:caption">2025-02-04 11-32-42.mkv</property>
    <property name="xml">was here</property>
  </chain>
  <chain id="chain124" out="00:38:30.800">
    <property name="length">00:38:30.817</property>
    <property name="eof">pause</property>
    <property name="resource">/home/alt/Vídeos/2025-02-04 11-32-42.mkv</property>
    <property name="mlt_service">avformat-novalidate</property>
    <property name="meta.media.nb_streams">2</property>
    <property name="meta.media.0.stream.type">video</property>
    <property name="meta.media.0.stream.frame_rate">60</property>
    <property name="meta.media.0.stream.sample_aspect_ratio">0</property>
    <property name="meta.media.0.codec.width">1920</property>
    <property name="meta.media.0.codec.height">1080</property>
    <property name="meta.media.0.codec.rotate">0</property>
    <property name="meta.media.0.codec.pix_fmt">yuv420p</property>
    <property name="meta.media.0.codec.sample_aspect_ratio">1</property>
    <property name="meta.media.0.codec.colorspace">709</property>
    <property name="meta.media.0.codec.color_trc">1</property>
    <property name="meta.media.0.codec.name">h264</property>
    <property name="meta.media.0.codec.long_name">H.264 / AVC / MPEG-4 AVC / MPEG-4 part 10</property>
    <property name="meta.media.0.codec.bit_rate">0</property>
    <property name="meta.attr.0.stream.DURATION.markup">00:38:30.817000000</property>
    <property name="meta.media.1.stream.type">audio</property>
    <property name="meta.media.1.codec.sample_fmt">fltp</property>
    <property name="meta.media.1.codec.sample_rate">48000</property>
    <property name="meta.media.1.codec.channels">2</property>
    <property name="meta.media.1.codec.layout">stereo</property>
    <property name="meta.media.1.codec.name">aac</property>
    <property name="meta.media.1.codec.long_name">AAC (Advanced Audio Coding)</property>
    <property name="meta.media.1.codec.bit_rate">0</property>
    <property name="meta.attr.1.stream.title.markup">simple_aac_recording0</property>
    <property name="meta.attr.1.stream.DURATION.markup">00:38:30.784000000</property>
    <property name="meta.attr.ENCODER.markup">Lavf58.76.100</property>
    <property name="seekable">1</property>
    <property name="meta.media.sample_aspect_num">1</property>
    <property name="meta.media.sample_aspect_den">1</property>
    <property name="audio_index">1</property>
    <property name="video_index">0</property>
    <property name="creation_time">2025-02-04T15:13:41</property>
    <property name="vstream">0</property>
    <property name="meta.media.frame_rate_num">60</property>
    <property name="meta.media.frame_rate_den">1</property>
    <property name="meta.media.colorspace">709</property>
    <property name="meta.media.color_trc">1</property>
    <property name="meta.media.has_b_frames">2</property>
    <property name="meta.media.width">1920</property>
    <property name="meta.media.height">1080</property>
    <property name="meta.media.aspect_ratio">1</property>
    <property name="meta.media.color_range">mpeg</property>
    <property name="astream">0</property>
    <property name="shotcut:skipConvert">0</property>
    <property name="meta.media.top_field_first">0</property>
    <property name="meta.media.progressive">1</property>
    <property name="shotcut:hash">9ed2ab5ca14ff3f32da6061feeb032a5</property>
    <property name="ignore_points">0</property>
    <property name="shotcut:caption">2025-02-04 11-32-42.mkv</property>
    <property name="xml">was here</property>
  </chain>
  <chain id="chain125" out="00:38:30.800">
    <property name="length">00:38:30.817</property>
    <property name="eof">pause</property>
    <property name="resource">/home/alt/Vídeos/2025-02-04 11-32-42.mkv</property>
    <property name="mlt_service">avformat-novalidate</property>
    <property name="meta.media.nb_streams">2</property>
    <property name="meta.media.0.stream.type">video</property>
    <property name="meta.media.0.stream.frame_rate">60</property>
    <property name="meta.media.0.stream.sample_aspect_ratio">0</property>
    <property name="meta.media.0.codec.width">1920</property>
    <property name="meta.media.0.codec.height">1080</property>
    <property name="meta.media.0.codec.rotate">0</property>
    <property name="meta.media.0.codec.pix_fmt">yuv420p</property>
    <property name="meta.media.0.codec.sample_aspect_ratio">1</property>
    <property name="meta.media.0.codec.colorspace">709</property>
    <property name="meta.media.0.codec.color_trc">1</property>
    <property name="meta.media.0.codec.name">h264</property>
    <property name="meta.media.0.codec.long_name">H.264 / AVC / MPEG-4 AVC / MPEG-4 part 10</property>
    <property name="meta.media.0.codec.bit_rate">0</property>
    <property name="meta.attr.0.stream.DURATION.markup">00:38:30.817000000</property>
    <property name="meta.media.1.stream.type">audio</property>
    <property name="meta.media.1.codec.sample_fmt">fltp</property>
    <property name="meta.media.1.codec.sample_rate">48000</property>
    <property name="meta.media.1.codec.channels">2</property>
    <property name="meta.media.1.codec.layout">stereo</property>
    <property name="meta.media.1.codec.name">aac</property>
    <property name="meta.media.1.codec.long_name">AAC (Advanced Audio Coding)</property>
    <property name="meta.media.1.codec.bit_rate">0</property>
    <property name="meta.attr.1.stream.title.markup">simple_aac_recording0</property>
    <property name="meta.attr.1.stream.DURATION.markup">00:38:30.784000000</property>
    <property name="meta.attr.ENCODER.markup">Lavf58.76.100</property>
    <property name="seekable">1</property>
    <property name="meta.media.sample_aspect_num">1</property>
    <property name="meta.media.sample_aspect_den">1</property>
    <property name="audio_index">1</property>
    <property name="video_index">0</property>
    <property name="creation_time">2025-02-04T15:13:41</property>
    <property name="vstream">0</property>
    <property name="meta.media.frame_rate_num">60</property>
    <property name="meta.media.frame_rate_den">1</property>
    <property name="meta.media.colorspace">709</property>
    <property name="meta.media.color_trc">1</property>
    <property name="meta.media.has_b_frames">2</property>
    <property name="meta.media.width">1920</property>
    <property name="meta.media.height">1080</property>
    <property name="meta.media.aspect_ratio">1</property>
    <property name="meta.media.color_range">mpeg</property>
    <property name="astream">0</property>
    <property name="shotcut:skipConvert">0</property>
    <property name="meta.media.top_field_first">0</property>
    <property name="meta.media.progressive">1</property>
    <property name="shotcut:hash">9ed2ab5ca14ff3f32da6061feeb032a5</property>
    <property name="ignore_points">0</property>
    <property name="shotcut:caption">2025-02-04 11-32-42.mkv</property>
    <property name="xml">was here</property>
  </chain>
  <chain id="chain126" out="00:38:30.800">
    <property name="length">00:38:30.817</property>
    <property name="eof">pause</property>
    <property name="resource">/home/alt/Vídeos/2025-02-04 11-32-42.mkv</property>
    <property name="mlt_service">avformat-novalidate</property>
    <property name="meta.media.nb_streams">2</property>
    <property name="meta.media.0.stream.type">video</property>
    <property name="meta.media.0.stream.frame_rate">60</property>
    <property name="meta.media.0.stream.sample_aspect_ratio">0</property>
    <property name="meta.media.0.codec.width">1920</property>
    <property name="meta.media.0.codec.height">1080</property>
    <property name="meta.media.0.codec.rotate">0</property>
    <property name="meta.media.0.codec.pix_fmt">yuv420p</property>
    <property name="meta.media.0.codec.sample_aspect_ratio">1</property>
    <property name="meta.media.0.codec.colorspace">709</property>
    <property name="meta.media.0.codec.color_trc">1</property>
    <property name="meta.media.0.codec.name">h264</property>
    <property name="meta.media.0.codec.long_name">H.264 / AVC / MPEG-4 AVC / MPEG-4 part 10</property>
    <property name="meta.media.0.codec.bit_rate">0</property>
    <property name="meta.attr.0.stream.DURATION.markup">00:38:30.817000000</property>
    <property name="meta.media.1.stream.type">audio</property>
    <property name="meta.media.1.codec.sample_fmt">fltp</property>
    <property name="meta.media.1.codec.sample_rate">48000</property>
    <property name="meta.media.1.codec.channels">2</property>
    <property name="meta.media.1.codec.layout">stereo</property>
    <property name="meta.media.1.codec.name">aac</property>
    <property name="meta.media.1.codec.long_name">AAC (Advanced Audio Coding)</property>
    <property name="meta.media.1.codec.bit_rate">0</property>
    <property name="meta.attr.1.stream.title.markup">simple_aac_recording0</property>
    <property name="meta.attr.1.stream.DURATION.markup">00:38:30.784000000</property>
    <property name="meta.attr.ENCODER.markup">Lavf58.76.100</property>
    <property name="seekable">1</property>
    <property name="meta.media.sample_aspect_num">1</property>
    <property name="meta.media.sample_aspect_den">1</property>
    <property name="audio_index">1</property>
    <property name="video_index">0</property>
    <property name="creation_time">2025-02-04T15:13:41</property>
    <property name="vstream">0</property>
    <property name="meta.media.frame_rate_num">60</property>
    <property name="meta.media.frame_rate_den">1</property>
    <property name="meta.media.colorspace">709</property>
    <property name="meta.media.color_trc">1</property>
    <property name="meta.media.has_b_frames">2</property>
    <property name="meta.media.width">1920</property>
    <property name="meta.media.height">1080</property>
    <property name="meta.media.aspect_ratio">1</property>
    <property name="meta.media.color_range">mpeg</property>
    <property name="astream">0</property>
    <property name="shotcut:skipConvert">0</property>
    <property name="meta.media.top_field_first">0</property>
    <property name="meta.media.progressive">1</property>
    <property name="shotcut:hash">9ed2ab5ca14ff3f32da6061feeb032a5</property>
    <property name="ignore_points">0</property>
    <property name="shotcut:caption">2025-02-04 11-32-42.mkv</property>
    <property name="xml">was here</property>
  </chain>
  <chain id="chain127" out="00:38:30.800">
    <property name="length">00:38:30.817</property>
    <property name="eof">pause</property>
    <property name="resource">/home/alt/Vídeos/2025-02-04 11-32-42.mkv</property>
    <property name="mlt_service">avformat-novalidate</property>
    <property name="meta.media.nb_streams">2</property>
    <property name="meta.media.0.stream.type">video</property>
    <property name="meta.media.0.stream.frame_rate">60</property>
    <property name="meta.media.0.stream.sample_aspect_ratio">0</property>
    <property name="meta.media.0.codec.width">1920</property>
    <property name="meta.media.0.codec.height">1080</property>
    <property name="meta.media.0.codec.rotate">0</property>
    <property name="meta.media.0.codec.pix_fmt">yuv420p</property>
    <property name="meta.media.0.codec.sample_aspect_ratio">1</property>
    <property name="meta.media.0.codec.colorspace">709</property>
    <property name="meta.media.0.codec.color_trc">1</property>
    <property name="meta.media.0.codec.name">h264</property>
    <property name="meta.media.0.codec.long_name">H.264 / AVC / MPEG-4 AVC / MPEG-4 part 10</property>
    <property name="meta.media.0.codec.bit_rate">0</property>
    <property name="meta.attr.0.stream.DURATION.markup">00:38:30.817000000</property>
    <property name="meta.media.1.stream.type">audio</property>
    <property name="meta.media.1.codec.sample_fmt">fltp</property>
    <property name="meta.media.1.codec.sample_rate">48000</property>
    <property name="meta.media.1.codec.channels">2</property>
    <property name="meta.media.1.codec.layout">stereo</property>
    <property name="meta.media.1.codec.name">aac</property>
    <property name="meta.media.1.codec.long_name">AAC (Advanced Audio Coding)</property>
    <property name="meta.media.1.codec.bit_rate">0</property>
    <property name="meta.attr.1.stream.title.markup">simple_aac_recording0</property>
    <property name="meta.attr.1.stream.DURATION.markup">00:38:30.784000000</property>
    <property name="meta.attr.ENCODER.markup">Lavf58.76.100</property>
    <property name="seekable">1</property>
    <property name="meta.media.sample_aspect_num">1</property>
    <property name="meta.media.sample_aspect_den">1</property>
    <property name="audio_index">1</property>
    <property name="video_index">0</property>
    <property name="creation_time">2025-02-04T15:13:41</property>
    <property name="vstream">0</property>
    <property name="meta.media.frame_rate_num">60</property>
    <property name="meta.media.frame_rate_den">1</property>
    <property name="meta.media.colorspace">709</property>
    <property name="meta.media.color_trc">1</property>
    <property name="meta.media.has_b_frames">2</property>
    <property name="meta.media.width">1920</property>
    <property name="meta.media.height">1080</property>
    <property name="meta.media.aspect_ratio">1</property>
    <property name="meta.media.color_range">mpeg</property>
    <property name="astream">0</property>
    <property name="shotcut:skipConvert">0</property>
    <property name="meta.media.top_field_first">0</property>
    <property name="meta.media.progressive">1</property>
    <property name="shotcut:hash">9ed2ab5ca14ff3f32da6061feeb032a5</property>
    <property name="ignore_points">0</property>
    <property name="shotcut:caption">2025-02-04 11-32-42.mkv</property>
    <property name="xml">was here</property>
  </chain>
  <chain id="chain128" out="00:38:30.800">
    <property name="length">00:38:30.817</property>
    <property name="eof">pause</property>
    <property name="resource">/home/alt/Vídeos/2025-02-04 11-32-42.mkv</property>
    <property name="mlt_service">avformat-novalidate</property>
    <property name="meta.media.nb_streams">2</property>
    <property name="meta.media.0.stream.type">video</property>
    <property name="meta.media.0.stream.frame_rate">60</property>
    <property name="meta.media.0.stream.sample_aspect_ratio">0</property>
    <property name="meta.media.0.codec.width">1920</property>
    <property name="meta.media.0.codec.height">1080</property>
    <property name="meta.media.0.codec.rotate">0</property>
    <property name="meta.media.0.codec.pix_fmt">yuv420p</property>
    <property name="meta.media.0.codec.sample_aspect_ratio">1</property>
    <property name="meta.media.0.codec.colorspace">709</property>
    <property name="meta.media.0.codec.color_trc">1</property>
    <property name="meta.media.0.codec.name">h264</property>
    <property name="meta.media.0.codec.long_name">H.264 / AVC / MPEG-4 AVC / MPEG-4 part 10</property>
    <property name="meta.media.0.codec.bit_rate">0</property>
    <property name="meta.attr.0.stream.DURATION.markup">00:38:30.817000000</property>
    <property name="meta.media.1.stream.type">audio</property>
    <property name="meta.media.1.codec.sample_fmt">fltp</property>
    <property name="meta.media.1.codec.sample_rate">48000</property>
    <property name="meta.media.1.codec.channels">2</property>
    <property name="meta.media.1.codec.layout">stereo</property>
    <property name="meta.media.1.codec.name">aac</property>
    <property name="meta.media.1.codec.long_name">AAC (Advanced Audio Coding)</property>
    <property name="meta.media.1.codec.bit_rate">0</property>
    <property name="meta.attr.1.stream.title.markup">simple_aac_recording0</property>
    <property name="meta.attr.1.stream.DURATION.markup">00:38:30.784000000</property>
    <property name="meta.attr.ENCODER.markup">Lavf58.76.100</property>
    <property name="seekable">1</property>
    <property name="meta.media.sample_aspect_num">1</property>
    <property name="meta.media.sample_aspect_den">1</property>
    <property name="audio_index">1</property>
    <property name="video_index">0</property>
    <property name="creation_time">2025-02-04T15:13:41</property>
    <property name="vstream">0</property>
    <property name="meta.media.frame_rate_num">60</property>
    <property name="meta.media.frame_rate_den">1</property>
    <property name="meta.media.colorspace">709</property>
    <property name="meta.media.color_trc">1</property>
    <property name="meta.media.has_b_frames">2</property>
    <property name="meta.media.width">1920</property>
    <property name="meta.media.height">1080</property>
    <property name="meta.media.aspect_ratio">1</property>
    <property name="meta.media.color_range">mpeg</property>
    <property name="astream">0</property>
    <property name="shotcut:skipConvert">0</property>
    <property name="meta.media.top_field_first">0</property>
    <property name="meta.media.progressive">1</property>
    <property name="shotcut:hash">9ed2ab5ca14ff3f32da6061feeb032a5</property>
    <property name="ignore_points">0</property>
    <property name="shotcut:caption">2025-02-04 11-32-42.mkv</property>
    <property name="xml">was here</property>
  </chain>
  <chain id="chain129" out="00:38:30.800">
    <property name="length">00:38:30.817</property>
    <property name="eof">pause</property>
    <property name="resource">/home/alt/Vídeos/2025-02-04 11-32-42.mkv</property>
    <property name="mlt_service">avformat-novalidate</property>
    <property name="meta.media.nb_streams">2</property>
    <property name="meta.media.0.stream.type">video</property>
    <property name="meta.media.0.stream.frame_rate">60</property>
    <property name="meta.media.0.stream.sample_aspect_ratio">0</property>
    <property name="meta.media.0.codec.width">1920</property>
    <property name="meta.media.0.codec.height">1080</property>
    <property name="meta.media.0.codec.rotate">0</property>
    <property name="meta.media.0.codec.pix_fmt">yuv420p</property>
    <property name="meta.media.0.codec.sample_aspect_ratio">1</property>
    <property name="meta.media.0.codec.colorspace">709</property>
    <property name="meta.media.0.codec.color_trc">1</property>
    <property name="meta.media.0.codec.name">h264</property>
    <property name="meta.media.0.codec.long_name">H.264 / AVC / MPEG-4 AVC / MPEG-4 part 10</property>
    <property name="meta.media.0.codec.bit_rate">0</property>
    <property name="meta.attr.0.stream.DURATION.markup">00:38:30.817000000</property>
    <property name="meta.media.1.stream.type">audio</property>
    <property name="meta.media.1.codec.sample_fmt">fltp</property>
    <property name="meta.media.1.codec.sample_rate">48000</property>
    <property name="meta.media.1.codec.channels">2</property>
    <property name="meta.media.1.codec.layout">stereo</property>
    <property name="meta.media.1.codec.name">aac</property>
    <property name="meta.media.1.codec.long_name">AAC (Advanced Audio Coding)</property>
    <property name="meta.media.1.codec.bit_rate">0</property>
    <property name="meta.attr.1.stream.title.markup">simple_aac_recording0</property>
    <property name="meta.attr.1.stream.DURATION.markup">00:38:30.784000000</property>
    <property name="meta.attr.ENCODER.markup">Lavf58.76.100</property>
    <property name="seekable">1</property>
    <property name="meta.media.sample_aspect_num">1</property>
    <property name="meta.media.sample_aspect_den">1</property>
    <property name="audio_index">1</property>
    <property name="video_index">0</property>
    <property name="creation_time">2025-02-04T15:13:41</property>
    <property name="vstream">0</property>
    <property name="meta.media.frame_rate_num">60</property>
    <property name="meta.media.frame_rate_den">1</property>
    <property name="meta.media.colorspace">709</property>
    <property name="meta.media.color_trc">1</property>
    <property name="meta.media.has_b_frames">2</property>
    <property name="meta.media.width">1920</property>
    <property name="meta.media.height">1080</property>
    <property name="meta.media.aspect_ratio">1</property>
    <property name="meta.media.color_range">mpeg</property>
    <property name="astream">0</property>
    <property name="shotcut:skipConvert">0</property>
    <property name="meta.media.top_field_first">0</property>
    <property name="meta.media.progressive">1</property>
    <property name="shotcut:hash">9ed2ab5ca14ff3f32da6061feeb032a5</property>
    <property name="ignore_points">0</property>
    <property name="shotcut:caption">2025-02-04 11-32-42.mkv</property>
    <property name="xml">was here</property>
  </chain>
  <chain id="chain130" out="00:38:30.800">
    <property name="length">00:38:30.817</property>
    <property name="eof">pause</property>
    <property name="resource">/home/alt/Vídeos/2025-02-04 11-32-42.mkv</property>
    <property name="mlt_service">avformat-novalidate</property>
    <property name="meta.media.nb_streams">2</property>
    <property name="meta.media.0.stream.type">video</property>
    <property name="meta.media.0.stream.frame_rate">60</property>
    <property name="meta.media.0.stream.sample_aspect_ratio">0</property>
    <property name="meta.media.0.codec.width">1920</property>
    <property name="meta.media.0.codec.height">1080</property>
    <property name="meta.media.0.codec.rotate">0</property>
    <property name="meta.media.0.codec.pix_fmt">yuv420p</property>
    <property name="meta.media.0.codec.sample_aspect_ratio">1</property>
    <property name="meta.media.0.codec.colorspace">709</property>
    <property name="meta.media.0.codec.color_trc">1</property>
    <property name="meta.media.0.codec.name">h264</property>
    <property name="meta.media.0.codec.long_name">H.264 / AVC / MPEG-4 AVC / MPEG-4 part 10</property>
    <property name="meta.media.0.codec.bit_rate">0</property>
    <property name="meta.attr.0.stream.DURATION.markup">00:38:30.817000000</property>
    <property name="meta.media.1.stream.type">audio</property>
    <property name="meta.media.1.codec.sample_fmt">fltp</property>
    <property name="meta.media.1.codec.sample_rate">48000</property>
    <property name="meta.media.1.codec.channels">2</property>
    <property name="meta.media.1.codec.layout">stereo</property>
    <property name="meta.media.1.codec.name">aac</property>
    <property name="meta.media.1.codec.long_name">AAC (Advanced Audio Coding)</property>
    <property name="meta.media.1.codec.bit_rate">0</property>
    <property name="meta.attr.1.stream.title.markup">simple_aac_recording0</property>
    <property name="meta.attr.1.stream.DURATION.markup">00:38:30.784000000</property>
    <property name="meta.attr.ENCODER.markup">Lavf58.76.100</property>
    <property name="seekable">1</property>
    <property name="meta.media.sample_aspect_num">1</property>
    <property name="meta.media.sample_aspect_den">1</property>
    <property name="audio_index">1</property>
    <property name="video_index">0</property>
    <property name="creation_time">2025-02-04T15:13:41</property>
    <property name="vstream">0</property>
    <property name="meta.media.frame_rate_num">60</property>
    <property name="meta.media.frame_rate_den">1</property>
    <property name="meta.media.colorspace">709</property>
    <property name="meta.media.color_trc">1</property>
    <property name="meta.media.has_b_frames">2</property>
    <property name="meta.media.width">1920</property>
    <property name="meta.media.height">1080</property>
    <property name="meta.media.aspect_ratio">1</property>
    <property name="meta.media.color_range">mpeg</property>
    <property name="astream">0</property>
    <property name="shotcut:skipConvert">0</property>
    <property name="meta.media.top_field_first">0</property>
    <property name="meta.media.progressive">1</property>
    <property name="shotcut:hash">9ed2ab5ca14ff3f32da6061feeb032a5</property>
    <property name="ignore_points">0</property>
    <property name="shotcut:caption">2025-02-04 11-32-42.mkv</property>
    <property name="xml">was here</property>
  </chain>
  <chain id="chain131" out="00:38:30.800">
    <property name="length">00:38:30.817</property>
    <property name="eof">pause</property>
    <property name="resource">/home/alt/Vídeos/2025-02-04 11-32-42.mkv</property>
    <property name="mlt_service">avformat-novalidate</property>
    <property name="meta.media.nb_streams">2</property>
    <property name="meta.media.0.stream.type">video</property>
    <property name="meta.media.0.stream.frame_rate">60</property>
    <property name="meta.media.0.stream.sample_aspect_ratio">0</property>
    <property name="meta.media.0.codec.width">1920</property>
    <property name="meta.media.0.codec.height">1080</property>
    <property name="meta.media.0.codec.rotate">0</property>
    <property name="meta.media.0.codec.pix_fmt">yuv420p</property>
    <property name="meta.media.0.codec.sample_aspect_ratio">1</property>
    <property name="meta.media.0.codec.colorspace">709</property>
    <property name="meta.media.0.codec.color_trc">1</property>
    <property name="meta.media.0.codec.name">h264</property>
    <property name="meta.media.0.codec.long_name">H.264 / AVC / MPEG-4 AVC / MPEG-4 part 10</property>
    <property name="meta.media.0.codec.bit_rate">0</property>
    <property name="meta.attr.0.stream.DURATION.markup">00:38:30.817000000</property>
    <property name="meta.media.1.stream.type">audio</property>
    <property name="meta.media.1.codec.sample_fmt">fltp</property>
    <property name="meta.media.1.codec.sample_rate">48000</property>
    <property name="meta.media.1.codec.channels">2</property>
    <property name="meta.media.1.codec.layout">stereo</property>
    <property name="meta.media.1.codec.name">aac</property>
    <property name="meta.media.1.codec.long_name">AAC (Advanced Audio Coding)</property>
    <property name="meta.media.1.codec.bit_rate">0</property>
    <property name="meta.attr.1.stream.title.markup">simple_aac_recording0</property>
    <property name="meta.attr.1.stream.DURATION.markup">00:38:30.784000000</property>
    <property name="meta.attr.ENCODER.markup">Lavf58.76.100</property>
    <property name="seekable">1</property>
    <property name="meta.media.sample_aspect_num">1</property>
    <property name="meta.media.sample_aspect_den">1</property>
    <property name="audio_index">1</property>
    <property name="video_index">0</property>
    <property name="creation_time">2025-02-04T15:13:41</property>
    <property name="vstream">0</property>
    <property name="meta.media.frame_rate_num">60</property>
    <property name="meta.media.frame_rate_den">1</property>
    <property name="meta.media.colorspace">709</property>
    <property name="meta.media.color_trc">1</property>
    <property name="meta.media.has_b_frames">2</property>
    <property name="meta.media.width">1920</property>
    <property name="meta.media.height">1080</property>
    <property name="meta.media.aspect_ratio">1</property>
    <property name="meta.media.color_range">mpeg</property>
    <property name="astream">0</property>
    <property name="shotcut:skipConvert">0</property>
    <property name="meta.media.top_field_first">0</property>
    <property name="meta.media.progressive">1</property>
    <property name="shotcut:hash">9ed2ab5ca14ff3f32da6061feeb032a5</property>
    <property name="ignore_points">0</property>
    <property name="shotcut:caption">2025-02-04 11-32-42.mkv</property>
    <property name="xml">was here</property>
  </chain>
  <chain id="chain132" out="00:38:30.800">
    <property name="length">00:38:30.817</property>
    <property name="eof">pause</property>
    <property name="resource">/home/alt/Vídeos/2025-02-04 11-32-42.mkv</property>
    <property name="mlt_service">avformat-novalidate</property>
    <property name="meta.media.nb_streams">2</property>
    <property name="meta.media.0.stream.type">video</property>
    <property name="meta.media.0.stream.frame_rate">60</property>
    <property name="meta.media.0.stream.sample_aspect_ratio">0</property>
    <property name="meta.media.0.codec.width">1920</property>
    <property name="meta.media.0.codec.height">1080</property>
    <property name="meta.media.0.codec.rotate">0</property>
    <property name="meta.media.0.codec.pix_fmt">yuv420p</property>
    <property name="meta.media.0.codec.sample_aspect_ratio">1</property>
    <property name="meta.media.0.codec.colorspace">709</property>
    <property name="meta.media.0.codec.color_trc">1</property>
    <property name="meta.media.0.codec.name">h264</property>
    <property name="meta.media.0.codec.long_name">H.264 / AVC / MPEG-4 AVC / MPEG-4 part 10</property>
    <property name="meta.media.0.codec.bit_rate">0</property>
    <property name="meta.attr.0.stream.DURATION.markup">00:38:30.817000000</property>
    <property name="meta.media.1.stream.type">audio</property>
    <property name="meta.media.1.codec.sample_fmt">fltp</property>
    <property name="meta.media.1.codec.sample_rate">48000</property>
    <property name="meta.media.1.codec.channels">2</property>
    <property name="meta.media.1.codec.layout">stereo</property>
    <property name="meta.media.1.codec.name">aac</property>
    <property name="meta.media.1.codec.long_name">AAC (Advanced Audio Coding)</property>
    <property name="meta.media.1.codec.bit_rate">0</property>
    <property name="meta.attr.1.stream.title.markup">simple_aac_recording0</property>
    <property name="meta.attr.1.stream.DURATION.markup">00:38:30.784000000</property>
    <property name="meta.attr.ENCODER.markup">Lavf58.76.100</property>
    <property name="seekable">1</property>
    <property name="meta.media.sample_aspect_num">1</property>
    <property name="meta.media.sample_aspect_den">1</property>
    <property name="audio_index">1</property>
    <property name="video_index">0</property>
    <property name="creation_time">2025-02-04T15:13:41</property>
    <property name="vstream">0</property>
    <property name="meta.media.frame_rate_num">60</property>
    <property name="meta.media.frame_rate_den">1</property>
    <property name="meta.media.colorspace">709</property>
    <property name="meta.media.color_trc">1</property>
    <property name="meta.media.has_b_frames">2</property>
    <property name="meta.media.width">1920</property>
    <property name="meta.media.height">1080</property>
    <property name="meta.media.aspect_ratio">1</property>
    <property name="meta.media.color_range">mpeg</property>
    <property name="astream">0</property>
    <property name="shotcut:skipConvert">0</property>
    <property name="meta.media.top_field_first">0</property>
    <property name="meta.media.progressive">1</property>
    <property name="shotcut:hash">9ed2ab5ca14ff3f32da6061feeb032a5</property>
    <property name="ignore_points">0</property>
    <property name="shotcut:caption">2025-02-04 11-32-42.mkv</property>
    <property name="xml">was here</property>
  </chain>
  <chain id="chain133" out="00:38:30.800">
    <property name="length">00:38:30.817</property>
    <property name="eof">pause</property>
    <property name="resource">/home/alt/Vídeos/2025-02-04 11-32-42.mkv</property>
    <property name="mlt_service">avformat-novalidate</property>
    <property name="meta.media.nb_streams">2</property>
    <property name="meta.media.0.stream.type">video</property>
    <property name="meta.media.0.stream.frame_rate">60</property>
    <property name="meta.media.0.stream.sample_aspect_ratio">0</property>
    <property name="meta.media.0.codec.width">1920</property>
    <property name="meta.media.0.codec.height">1080</property>
    <property name="meta.media.0.codec.rotate">0</property>
    <property name="meta.media.0.codec.pix_fmt">yuv420p</property>
    <property name="meta.media.0.codec.sample_aspect_ratio">1</property>
    <property name="meta.media.0.codec.colorspace">709</property>
    <property name="meta.media.0.codec.color_trc">1</property>
    <property name="meta.media.0.codec.name">h264</property>
    <property name="meta.media.0.codec.long_name">H.264 / AVC / MPEG-4 AVC / MPEG-4 part 10</property>
    <property name="meta.media.0.codec.bit_rate">0</property>
    <property name="meta.attr.0.stream.DURATION.markup">00:38:30.817000000</property>
    <property name="meta.media.1.stream.type">audio</property>
    <property name="meta.media.1.codec.sample_fmt">fltp</property>
    <property name="meta.media.1.codec.sample_rate">48000</property>
    <property name="meta.media.1.codec.channels">2</property>
    <property name="meta.media.1.codec.layout">stereo</property>
    <property name="meta.media.1.codec.name">aac</property>
    <property name="meta.media.1.codec.long_name">AAC (Advanced Audio Coding)</property>
    <property name="meta.media.1.codec.bit_rate">0</property>
    <property name="meta.attr.1.stream.title.markup">simple_aac_recording0</property>
    <property name="meta.attr.1.stream.DURATION.markup">00:38:30.784000000</property>
    <property name="meta.attr.ENCODER.markup">Lavf58.76.100</property>
    <property name="seekable">1</property>
    <property name="meta.media.sample_aspect_num">1</property>
    <property name="meta.media.sample_aspect_den">1</property>
    <property name="audio_index">1</property>
    <property name="video_index">0</property>
    <property name="creation_time">2025-02-04T15:13:41</property>
    <property name="vstream">0</property>
    <property name="meta.media.frame_rate_num">60</property>
    <property name="meta.media.frame_rate_den">1</property>
    <property name="meta.media.colorspace">709</property>
    <property name="meta.media.color_trc">1</property>
    <property name="meta.media.has_b_frames">2</property>
    <property name="meta.media.width">1920</property>
    <property name="meta.media.height">1080</property>
    <property name="meta.media.aspect_ratio">1</property>
    <property name="meta.media.color_range">mpeg</property>
    <property name="astream">0</property>
    <property name="shotcut:skipConvert">0</property>
    <property name="meta.media.top_field_first">0</property>
    <property name="meta.media.progressive">1</property>
    <property name="shotcut:hash">9ed2ab5ca14ff3f32da6061feeb032a5</property>
    <property name="ignore_points">0</property>
    <property name="shotcut:caption">2025-02-04 11-32-42.mkv</property>
    <property name="xml">was here</property>
  </chain>
  <chain id="chain134" out="00:38:30.800">
    <property name="length">00:38:30.817</property>
    <property name="eof">pause</property>
    <property name="resource">/home/alt/Vídeos/2025-02-04 11-32-42.mkv</property>
    <property name="mlt_service">avformat-novalidate</property>
    <property name="meta.media.nb_streams">2</property>
    <property name="meta.media.0.stream.type">video</property>
    <property name="meta.media.0.stream.frame_rate">60</property>
    <property name="meta.media.0.stream.sample_aspect_ratio">0</property>
    <property name="meta.media.0.codec.width">1920</property>
    <property name="meta.media.0.codec.height">1080</property>
    <property name="meta.media.0.codec.rotate">0</property>
    <property name="meta.media.0.codec.pix_fmt">yuv420p</property>
    <property name="meta.media.0.codec.sample_aspect_ratio">1</property>
    <property name="meta.media.0.codec.colorspace">709</property>
    <property name="meta.media.0.codec.color_trc">1</property>
    <property name="meta.media.0.codec.name">h264</property>
    <property name="meta.media.0.codec.long_name">H.264 / AVC / MPEG-4 AVC / MPEG-4 part 10</property>
    <property name="meta.media.0.codec.bit_rate">0</property>
    <property name="meta.attr.0.stream.DURATION.markup">00:38:30.817000000</property>
    <property name="meta.media.1.stream.type">audio</property>
    <property name="meta.media.1.codec.sample_fmt">fltp</property>
    <property name="meta.media.1.codec.sample_rate">48000</property>
    <property name="meta.media.1.codec.channels">2</property>
    <property name="meta.media.1.codec.layout">stereo</property>
    <property name="meta.media.1.codec.name">aac</property>
    <property name="meta.media.1.codec.long_name">AAC (Advanced Audio Coding)</property>
    <property name="meta.media.1.codec.bit_rate">0</property>
    <property name="meta.attr.1.stream.title.markup">simple_aac_recording0</property>
    <property name="meta.attr.1.stream.DURATION.markup">00:38:30.784000000</property>
    <property name="meta.attr.ENCODER.markup">Lavf58.76.100</property>
    <property name="seekable">1</property>
    <property name="meta.media.sample_aspect_num">1</property>
    <property name="meta.media.sample_aspect_den">1</property>
    <property name="audio_index">1</property>
    <property name="video_index">0</property>
    <property name="creation_time">2025-02-04T15:13:41</property>
    <property name="vstream">0</property>
    <property name="meta.media.frame_rate_num">60</property>
    <property name="meta.media.frame_rate_den">1</property>
    <property name="meta.media.colorspace">709</property>
    <property name="meta.media.color_trc">1</property>
    <property name="meta.media.has_b_frames">2</property>
    <property name="meta.media.width">1920</property>
    <property name="meta.media.height">1080</property>
    <property name="meta.media.aspect_ratio">1</property>
    <property name="meta.media.color_range">mpeg</property>
    <property name="astream">0</property>
    <property name="shotcut:skipConvert">0</property>
    <property name="meta.media.top_field_first">0</property>
    <property name="meta.media.progressive">1</property>
    <property name="shotcut:hash">9ed2ab5ca14ff3f32da6061feeb032a5</property>
    <property name="ignore_points">0</property>
    <property name="shotcut:caption">2025-02-04 11-32-42.mkv</property>
    <property name="xml">was here</property>
  </chain>
  <chain id="chain135" out="00:38:30.800">
    <property name="length">00:38:30.817</property>
    <property name="eof">pause</property>
    <property name="resource">/home/alt/Vídeos/2025-02-04 11-32-42.mkv</property>
    <property name="mlt_service">avformat-novalidate</property>
    <property name="meta.media.nb_streams">2</property>
    <property name="meta.media.0.stream.type">video</property>
    <property name="meta.media.0.stream.frame_rate">60</property>
    <property name="meta.media.0.stream.sample_aspect_ratio">0</property>
    <property name="meta.media.0.codec.width">1920</property>
    <property name="meta.media.0.codec.height">1080</property>
    <property name="meta.media.0.codec.rotate">0</property>
    <property name="meta.media.0.codec.pix_fmt">yuv420p</property>
    <property name="meta.media.0.codec.sample_aspect_ratio">1</property>
    <property name="meta.media.0.codec.colorspace">709</property>
    <property name="meta.media.0.codec.color_trc">1</property>
    <property name="meta.media.0.codec.name">h264</property>
    <property name="meta.media.0.codec.long_name">H.264 / AVC / MPEG-4 AVC / MPEG-4 part 10</property>
    <property name="meta.media.0.codec.bit_rate">0</property>
    <property name="meta.attr.0.stream.DURATION.markup">00:38:30.817000000</property>
    <property name="meta.media.1.stream.type">audio</property>
    <property name="meta.media.1.codec.sample_fmt">fltp</property>
    <property name="meta.media.1.codec.sample_rate">48000</property>
    <property name="meta.media.1.codec.channels">2</property>
    <property name="meta.media.1.codec.layout">stereo</property>
    <property name="meta.media.1.codec.name">aac</property>
    <property name="meta.media.1.codec.long_name">AAC (Advanced Audio Coding)</property>
    <property name="meta.media.1.codec.bit_rate">0</property>
    <property name="meta.attr.1.stream.title.markup">simple_aac_recording0</property>
    <property name="meta.attr.1.stream.DURATION.markup">00:38:30.784000000</property>
    <property name="meta.attr.ENCODER.markup">Lavf58.76.100</property>
    <property name="seekable">1</property>
    <property name="meta.media.sample_aspect_num">1</property>
    <property name="meta.media.sample_aspect_den">1</property>
    <property name="audio_index">1</property>
    <property name="video_index">0</property>
    <property name="creation_time">2025-02-04T15:13:41</property>
    <property name="vstream">0</property>
    <property name="meta.media.frame_rate_num">60</property>
    <property name="meta.media.frame_rate_den">1</property>
    <property name="meta.media.colorspace">709</property>
    <property name="meta.media.color_trc">1</property>
    <property name="meta.media.has_b_frames">2</property>
    <property name="meta.media.width">1920</property>
    <property name="meta.media.height">1080</property>
    <property name="meta.media.aspect_ratio">1</property>
    <property name="meta.media.color_range">mpeg</property>
    <property name="astream">0</property>
    <property name="shotcut:skipConvert">0</property>
    <property name="meta.media.top_field_first">0</property>
    <property name="meta.media.progressive">1</property>
    <property name="shotcut:hash">9ed2ab5ca14ff3f32da6061feeb032a5</property>
    <property name="ignore_points">0</property>
    <property name="shotcut:caption">2025-02-04 11-32-42.mkv</property>
    <property name="xml">was here</property>
  </chain>
  <chain id="chain136" out="00:38:30.800">
    <property name="length">00:38:30.817</property>
    <property name="eof">pause</property>
    <property name="resource">/home/alt/Vídeos/2025-02-04 11-32-42.mkv</property>
    <property name="mlt_service">avformat-novalidate</property>
    <property name="meta.media.nb_streams">2</property>
    <property name="meta.media.0.stream.type">video</property>
    <property name="meta.media.0.stream.frame_rate">60</property>
    <property name="meta.media.0.stream.sample_aspect_ratio">0</property>
    <property name="meta.media.0.codec.width">1920</property>
    <property name="meta.media.0.codec.height">1080</property>
    <property name="meta.media.0.codec.rotate">0</property>
    <property name="meta.media.0.codec.pix_fmt">yuv420p</property>
    <property name="meta.media.0.codec.sample_aspect_ratio">1</property>
    <property name="meta.media.0.codec.colorspace">709</property>
    <property name="meta.media.0.codec.color_trc">1</property>
    <property name="meta.media.0.codec.name">h264</property>
    <property name="meta.media.0.codec.long_name">H.264 / AVC / MPEG-4 AVC / MPEG-4 part 10</property>
    <property name="meta.media.0.codec.bit_rate">0</property>
    <property name="meta.attr.0.stream.DURATION.markup">00:38:30.817000000</property>
    <property name="meta.media.1.stream.type">audio</property>
    <property name="meta.media.1.codec.sample_fmt">fltp</property>
    <property name="meta.media.1.codec.sample_rate">48000</property>
    <property name="meta.media.1.codec.channels">2</property>
    <property name="meta.media.1.codec.layout">stereo</property>
    <property name="meta.media.1.codec.name">aac</property>
    <property name="meta.media.1.codec.long_name">AAC (Advanced Audio Coding)</property>
    <property name="meta.media.1.codec.bit_rate">0</property>
    <property name="meta.attr.1.stream.title.markup">simple_aac_recording0</property>
    <property name="meta.attr.1.stream.DURATION.markup">00:38:30.784000000</property>
    <property name="meta.attr.ENCODER.markup">Lavf58.76.100</property>
    <property name="seekable">1</property>
    <property name="meta.media.sample_aspect_num">1</property>
    <property name="meta.media.sample_aspect_den">1</property>
    <property name="audio_index">1</property>
    <property name="video_index">0</property>
    <property name="creation_time">2025-02-04T15:13:41</property>
    <property name="vstream">0</property>
    <property name="meta.media.frame_rate_num">60</property>
    <property name="meta.media.frame_rate_den">1</property>
    <property name="meta.media.colorspace">709</property>
    <property name="meta.media.color_trc">1</property>
    <property name="meta.media.has_b_frames">2</property>
    <property name="meta.media.width">1920</property>
    <property name="meta.media.height">1080</property>
    <property name="meta.media.aspect_ratio">1</property>
    <property name="meta.media.color_range">mpeg</property>
    <property name="astream">0</property>
    <property name="shotcut:skipConvert">0</property>
    <property name="meta.media.top_field_first">0</property>
    <property name="meta.media.progressive">1</property>
    <property name="shotcut:hash">9ed2ab5ca14ff3f32da6061feeb032a5</property>
    <property name="ignore_points">0</property>
    <property name="shotcut:caption">2025-02-04 11-32-42.mkv</property>
    <property name="xml">was here</property>
  </chain>
  <chain id="chain137" out="00:38:30.800">
    <property name="length">00:38:30.817</property>
    <property name="eof">pause</property>
    <property name="resource">/home/alt/Vídeos/2025-02-04 11-32-42.mkv</property>
    <property name="mlt_service">avformat-novalidate</property>
    <property name="meta.media.nb_streams">2</property>
    <property name="meta.media.0.stream.type">video</property>
    <property name="meta.media.0.stream.frame_rate">60</property>
    <property name="meta.media.0.stream.sample_aspect_ratio">0</property>
    <property name="meta.media.0.codec.width">1920</property>
    <property name="meta.media.0.codec.height">1080</property>
    <property name="meta.media.0.codec.rotate">0</property>
    <property name="meta.media.0.codec.pix_fmt">yuv420p</property>
    <property name="meta.media.0.codec.sample_aspect_ratio">1</property>
    <property name="meta.media.0.codec.colorspace">709</property>
    <property name="meta.media.0.codec.color_trc">1</property>
    <property name="meta.media.0.codec.name">h264</property>
    <property name="meta.media.0.codec.long_name">H.264 / AVC / MPEG-4 AVC / MPEG-4 part 10</property>
    <property name="meta.media.0.codec.bit_rate">0</property>
    <property name="meta.attr.0.stream.DURATION.markup">00:38:30.817000000</property>
    <property name="meta.media.1.stream.type">audio</property>
    <property name="meta.media.1.codec.sample_fmt">fltp</property>
    <property name="meta.media.1.codec.sample_rate">48000</property>
    <property name="meta.media.1.codec.channels">2</property>
    <property name="meta.media.1.codec.layout">stereo</property>
    <property name="meta.media.1.codec.name">aac</property>
    <property name="meta.media.1.codec.long_name">AAC (Advanced Audio Coding)</property>
    <property name="meta.media.1.codec.bit_rate">0</property>
    <property name="meta.attr.1.stream.title.markup">simple_aac_recording0</property>
    <property name="meta.attr.1.stream.DURATION.markup">00:38:30.784000000</property>
    <property name="meta.attr.ENCODER.markup">Lavf58.76.100</property>
    <property name="seekable">1</property>
    <property name="meta.media.sample_aspect_num">1</property>
    <property name="meta.media.sample_aspect_den">1</property>
    <property name="audio_index">1</property>
    <property name="video_index">0</property>
    <property name="creation_time">2025-02-04T15:13:41</property>
    <property name="vstream">0</property>
    <property name="meta.media.frame_rate_num">60</property>
    <property name="meta.media.frame_rate_den">1</property>
    <property name="meta.media.colorspace">709</property>
    <property name="meta.media.color_trc">1</property>
    <property name="meta.media.has_b_frames">2</property>
    <property name="meta.media.width">1920</property>
    <property name="meta.media.height">1080</property>
    <property name="meta.media.aspect_ratio">1</property>
    <property name="meta.media.color_range">mpeg</property>
    <property name="astream">0</property>
    <property name="shotcut:skipConvert">0</property>
    <property name="meta.media.top_field_first">0</property>
    <property name="meta.media.progressive">1</property>
    <property name="shotcut:hash">9ed2ab5ca14ff3f32da6061feeb032a5</property>
    <property name="ignore_points">0</property>
    <property name="shotcut:caption">2025-02-04 11-32-42.mkv</property>
    <property name="xml">was here</property>
  </chain>
  <chain id="chain138" out="00:38:30.800">
    <property name="length">00:38:30.817</property>
    <property name="eof">pause</property>
    <property name="resource">/home/alt/Vídeos/2025-02-04 11-32-42.mkv</property>
    <property name="mlt_service">avformat-novalidate</property>
    <property name="meta.media.nb_streams">2</property>
    <property name="meta.media.0.stream.type">video</property>
    <property name="meta.media.0.stream.frame_rate">60</property>
    <property name="meta.media.0.stream.sample_aspect_ratio">0</property>
    <property name="meta.media.0.codec.width">1920</property>
    <property name="meta.media.0.codec.height">1080</property>
    <property name="meta.media.0.codec.rotate">0</property>
    <property name="meta.media.0.codec.pix_fmt">yuv420p</property>
    <property name="meta.media.0.codec.sample_aspect_ratio">1</property>
    <property name="meta.media.0.codec.colorspace">709</property>
    <property name="meta.media.0.codec.color_trc">1</property>
    <property name="meta.media.0.codec.name">h264</property>
    <property name="meta.media.0.codec.long_name">H.264 / AVC / MPEG-4 AVC / MPEG-4 part 10</property>
    <property name="meta.media.0.codec.bit_rate">0</property>
    <property name="meta.attr.0.stream.DURATION.markup">00:38:30.817000000</property>
    <property name="meta.media.1.stream.type">audio</property>
    <property name="meta.media.1.codec.sample_fmt">fltp</property>
    <property name="meta.media.1.codec.sample_rate">48000</property>
    <property name="meta.media.1.codec.channels">2</property>
    <property name="meta.media.1.codec.layout">stereo</property>
    <property name="meta.media.1.codec.name">aac</property>
    <property name="meta.media.1.codec.long_name">AAC (Advanced Audio Coding)</property>
    <property name="meta.media.1.codec.bit_rate">0</property>
    <property name="meta.attr.1.stream.title.markup">simple_aac_recording0</property>
    <property name="meta.attr.1.stream.DURATION.markup">00:38:30.784000000</property>
    <property name="meta.attr.ENCODER.markup">Lavf58.76.100</property>
    <property name="seekable">1</property>
    <property name="meta.media.sample_aspect_num">1</property>
    <property name="meta.media.sample_aspect_den">1</property>
    <property name="audio_index">1</property>
    <property name="video_index">0</property>
    <property name="creation_time">2025-02-04T15:13:41</property>
    <property name="vstream">0</property>
    <property name="meta.media.frame_rate_num">60</property>
    <property name="meta.media.frame_rate_den">1</property>
    <property name="meta.media.colorspace">709</property>
    <property name="meta.media.color_trc">1</property>
    <property name="meta.media.has_b_frames">2</property>
    <property name="meta.media.width">1920</property>
    <property name="meta.media.height">1080</property>
    <property name="meta.media.aspect_ratio">1</property>
    <property name="meta.media.color_range">mpeg</property>
    <property name="astream">0</property>
    <property name="shotcut:skipConvert">0</property>
    <property name="meta.media.top_field_first">0</property>
    <property name="meta.media.progressive">1</property>
    <property name="shotcut:hash">9ed2ab5ca14ff3f32da6061feeb032a5</property>
    <property name="ignore_points">0</property>
    <property name="shotcut:caption">2025-02-04 11-32-42.mkv</property>
    <property name="xml">was here</property>
  </chain>
  <chain id="chain139" out="00:38:30.800">
    <property name="length">00:38:30.817</property>
    <property name="eof">pause</property>
    <property name="resource">/home/alt/Vídeos/2025-02-04 11-32-42.mkv</property>
    <property name="mlt_service">avformat-novalidate</property>
    <property name="meta.media.nb_streams">2</property>
    <property name="meta.media.0.stream.type">video</property>
    <property name="meta.media.0.stream.frame_rate">60</property>
    <property name="meta.media.0.stream.sample_aspect_ratio">0</property>
    <property name="meta.media.0.codec.width">1920</property>
    <property name="meta.media.0.codec.height">1080</property>
    <property name="meta.media.0.codec.rotate">0</property>
    <property name="meta.media.0.codec.pix_fmt">yuv420p</property>
    <property name="meta.media.0.codec.sample_aspect_ratio">1</property>
    <property name="meta.media.0.codec.colorspace">709</property>
    <property name="meta.media.0.codec.color_trc">1</property>
    <property name="meta.media.0.codec.name">h264</property>
    <property name="meta.media.0.codec.long_name">H.264 / AVC / MPEG-4 AVC / MPEG-4 part 10</property>
    <property name="meta.media.0.codec.bit_rate">0</property>
    <property name="meta.attr.0.stream.DURATION.markup">00:38:30.817000000</property>
    <property name="meta.media.1.stream.type">audio</property>
    <property name="meta.media.1.codec.sample_fmt">fltp</property>
    <property name="meta.media.1.codec.sample_rate">48000</property>
    <property name="meta.media.1.codec.channels">2</property>
    <property name="meta.media.1.codec.layout">stereo</property>
    <property name="meta.media.1.codec.name">aac</property>
    <property name="meta.media.1.codec.long_name">AAC (Advanced Audio Coding)</property>
    <property name="meta.media.1.codec.bit_rate">0</property>
    <property name="meta.attr.1.stream.title.markup">simple_aac_recording0</property>
    <property name="meta.attr.1.stream.DURATION.markup">00:38:30.784000000</property>
    <property name="meta.attr.ENCODER.markup">Lavf58.76.100</property>
    <property name="seekable">1</property>
    <property name="meta.media.sample_aspect_num">1</property>
    <property name="meta.media.sample_aspect_den">1</property>
    <property name="audio_index">1</property>
    <property name="video_index">0</property>
    <property name="creation_time">2025-02-04T15:13:41</property>
    <property name="vstream">0</property>
    <property name="meta.media.frame_rate_num">60</property>
    <property name="meta.media.frame_rate_den">1</property>
    <property name="meta.media.colorspace">709</property>
    <property name="meta.media.color_trc">1</property>
    <property name="meta.media.has_b_frames">2</property>
    <property name="meta.media.width">1920</property>
    <property name="meta.media.height">1080</property>
    <property name="meta.media.aspect_ratio">1</property>
    <property name="meta.media.color_range">mpeg</property>
    <property name="astream">0</property>
    <property name="shotcut:skipConvert">0</property>
    <property name="meta.media.top_field_first">0</property>
    <property name="meta.media.progressive">1</property>
    <property name="shotcut:hash">9ed2ab5ca14ff3f32da6061feeb032a5</property>
    <property name="ignore_points">0</property>
    <property name="shotcut:caption">2025-02-04 11-32-42.mkv</property>
    <property name="xml">was here</property>
  </chain>
  <producer id="producer0" in="00:00:00.000" out="03:59:59.983">
    <property name="length">04:00:00.000</property>
    <property name="eof">pause</property>
    <property name="resource">/home/alt/Documentos/Main_Fold/MainFolder/Profissional/mobileDev/caju_code/class_codes/end_screen.png</property>
    <property name="ttl">1</property>
    <property name="aspect_ratio">1</property>
    <property name="meta.media.progressive">1</property>
    <property name="seekable">1</property>
    <property name="format">2</property>
    <property name="meta.media.width">1920</property>
    <property name="meta.media.height">1080</property>
    <property name="mlt_service">qimage</property>
    <property name="creation_time">2023-06-01T19:18:50</property>
    <property name="shotcut:skipConvert">0</property>
    <property name="shotcut:caption">end_screen.png</property>
    <property name="shotcut:hash">e49c36ed95e3eb977d5bf9b93f88a319</property>
    <property name="ignore_points">0</property>
    <property name="xml">was here</property>
  </producer>
  <playlist id="playlist0">
    <property name="shotcut:video">1</property>
    <property name="shotcut:name">V1</property>
    <entry producer="chain0" in="00:00:24.500" out="00:00:27.533"/>
    <entry producer="chain1" in="00:00:28.767" out="00:00:30.150"/>
    <entry producer="chain2" in="00:00:32.467" out="00:00:34.650"/>
    <entry producer="chain3" in="00:00:39.167" out="00:00:44.767"/>
    <entry producer="chain4" in="00:00:46.683" out="00:00:48.683"/>
    <entry producer="chain5" in="00:00:50.467" out="00:00:54.233"/>
    <entry producer="chain6" in="00:00:56.417" out="00:01:02.133"/>
    <entry producer="chain7" in="00:01:03.450" out="00:01:05.000"/>
    <entry producer="chain8" in="00:01:07.400" out="00:01:10.017"/>
    <entry producer="chain9" in="00:01:11.017" out="00:01:14.417"/>
    <entry producer="chain10" in="00:00:00.000" out="00:00:02.983"/>
    <entry producer="chain11" in="00:01:55.850" out="00:02:38.000"/>
    <entry producer="chain12" in="00:02:39.750" out="00:03:01.217"/>
    <entry producer="chain13" in="00:03:01.850" out="00:03:10.650"/>
    <entry producer="chain14" in="00:03:11.450" out="00:03:18.850"/>
    <entry producer="chain15" in="00:03:19.517" out="00:03:21.550"/>
    <entry producer="chain16" in="00:03:22.350" out="00:03:24.200"/>
    <entry producer="chain17" in="00:03:33.033" out="00:03:38.283"/>
    <entry producer="chain18" in="00:03:59.567" out="00:04:04.917"/>
    <entry producer="chain19" in="00:04:33.000" out="00:04:34.383"/>
    <entry producer="chain20" in="00:04:35.483" out="00:04:53.133"/>
    <entry producer="chain21" in="00:04:56.433" out="00:05:16.800"/>
    <entry producer="chain22" in="00:05:19.533" out="00:05:29.167"/>
    <entry producer="chain23" in="00:05:31.417" out="00:05:51.117"/>
    <entry producer="chain24" in="00:05:52.317" out="00:05:54.183"/>
    <entry producer="chain25" in="00:05:57.983" out="00:06:17.017"/>
    <entry producer="chain26" in="00:06:33.933" out="00:07:19.850"/>
    <entry producer="chain27" in="00:07:21.317" out="00:07:33.600"/>
    <entry producer="chain28" in="00:07:37.150" out="00:07:54.717"/>
    <entry producer="chain29" in="00:07:57.450" out="00:08:51.450"/>
    <entry producer="chain30" in="00:08:53.250" out="00:08:54.400"/>
    <entry producer="chain31" in="00:08:56.850" out="00:08:58.200"/>
    <entry producer="chain32" in="00:09:00.483" out="00:10:24.283"/>
    <entry producer="chain33" in="00:10:26.950" out="00:10:28.900"/>
    <entry producer="chain34" in="00:10:33.550" out="00:11:09.517"/>
    <entry producer="chain35" in="00:11:14.017" out="00:11:15.100"/>
    <entry producer="chain36" in="00:00:03.250" out="00:00:10.400"/>
    <entry producer="chain37" in="00:00:13.200" out="00:00:38.933"/>
    <entry producer="chain38" in="00:01:05.067" out="00:01:34.600"/>
    <entry producer="chain39" in="00:01:36.850" out="00:01:44.517"/>
    <entry producer="chain40" in="00:01:45.733" out="00:01:51.250"/>
    <entry producer="chain41" in="00:01:55.150" out="00:02:05.183"/>
    <entry producer="chain42" in="00:02:08.317" out="00:02:09.650"/>
    <entry producer="chain43" in="00:02:11.650" out="00:03:09.183"/>
    <entry producer="chain44" in="00:03:16.067" out="00:04:08.600"/>
    <entry producer="chain45" in="00:04:12.183" out="00:04:51.833"/>
    <entry producer="chain46" in="00:04:53.450" out="00:05:11.800"/>
    <entry producer="chain47" in="00:05:16.850" out="00:05:45.967"/>
    <entry producer="chain48" in="00:05:48.450" out="00:05:50.000"/>
    <entry producer="chain49" in="00:05:51.233" out="00:06:52.100"/>
    <entry producer="chain50" in="00:06:52.667" out="00:06:54.133"/>
    <entry producer="chain51" in="00:06:55.900" out="00:07:07.517"/>
    <entry producer="chain52" in="00:07:09.800" out="00:07:15.067"/>
    <entry producer="chain53" in="00:07:17.717" out="00:08:11.133"/>
    <entry producer="chain54" in="00:08:20.350" out="00:08:24.750"/>
    <entry producer="chain55" in="00:08:27.967" out="00:09:30.700"/>
    <entry producer="chain56" in="00:09:31.933" out="00:10:12.650"/>
    <entry producer="chain57" in="00:10:17.683" out="00:11:11.950"/>
    <entry producer="chain58" in="00:11:12.617" out="00:11:13.983"/>
    <entry producer="chain59" in="00:11:15.367" out="00:11:17.417"/>
    <entry producer="chain60" in="00:11:18.633" out="00:12:05.850"/>
    <entry producer="chain61" in="00:12:05.867" out="00:12:08.333"/>
    <entry producer="chain62" in="00:12:10.633" out="00:12:13.633"/>
    <entry producer="chain63" in="00:12:17.817" out="00:12:47.200"/>
    <entry producer="chain64" in="00:12:48.967" out="00:12:51.200"/>
    <entry producer="chain65" in="00:12:54.300" out="00:13:02.700"/>
    <entry producer="chain66" in="00:13:08.900" out="00:13:39.033"/>
    <entry producer="chain67" in="00:13:41.633" out="00:13:49.317"/>
    <entry producer="chain68" in="00:13:53.317" out="00:14:32.717"/>
    <entry producer="chain69" in="00:14:35.250" out="00:14:43.350"/>
    <entry producer="chain70" in="00:14:46.117" out="00:14:55.467"/>
    <entry producer="chain71" in="00:14:57.350" out="00:15:01.000"/>
    <entry producer="chain72" in="00:15:06.483" out="00:15:17.950"/>
    <entry producer="chain73" in="00:15:19.533" out="00:15:30.750"/>
    <entry producer="chain74" in="00:15:32.900" out="00:15:36.250"/>
    <entry producer="chain75" in="00:15:39.250" out="00:15:48.500"/>
    <entry producer="chain76" in="00:15:50.733" out="00:15:51.650"/>
    <entry producer="chain77" in="00:15:52.567" out="00:16:05.417"/>
    <entry producer="chain78" in="00:16:07.767" out="00:16:31.417"/>
    <entry producer="chain79" in="00:16:33.050" out="00:16:36.617"/>
    <entry producer="chain80" in="00:16:38.400" out="00:16:50.917"/>
    <entry producer="chain81" in="00:17:29.700" out="00:17:33.417"/>
    <entry producer="chain82" in="00:17:36.367" out="00:17:44.333"/>
    <entry producer="chain83" in="00:17:54.367" out="00:18:11.800"/>
    <entry producer="chain84" in="00:18:12.733" out="00:18:36.433"/>
    <entry producer="chain85" in="00:18:39.233" out="00:18:50.267"/>
    <entry producer="chain86" in="00:18:50.283" out="00:18:55.617"/>
    <entry producer="chain87" in="00:18:55.633" out="00:18:59.883"/>
    <entry producer="chain88" in="00:19:02.300" out="00:19:23.317"/>
    <entry producer="chain89" in="00:19:34.833" out="00:19:38.033"/>
    <entry producer="chain90" in="00:19:45.567" out="00:19:54.000"/>
    <entry producer="chain91" in="00:20:01.800" out="00:20:13.600"/>
    <entry producer="chain92" in="00:20:15.417" out="00:20:46.467"/>
    <entry producer="chain93" in="00:20:48.117" out="00:21:00.800"/>
    <entry producer="chain94" in="00:21:04.683" out="00:21:15.067"/>
    <entry producer="chain95" in="00:21:16.083" out="00:21:37.750"/>
    <entry producer="chain96" in="00:21:39.733" out="00:21:44.150"/>
    <entry producer="chain97" in="00:21:45.117" out="00:22:08.650"/>
    <entry producer="chain98" in="00:22:10.883" out="00:22:15.367"/>
    <entry producer="chain99" in="00:22:16.683" out="00:22:18.333"/>
    <entry producer="chain100" in="00:22:19.817" out="00:22:26.500"/>
    <entry producer="chain101" in="00:22:28.767" out="00:22:47.150"/>
    <entry producer="chain102" in="00:22:48.117" out="00:22:52.467"/>
    <entry producer="chain103" in="00:22:53.567" out="00:23:05.033"/>
    <entry producer="chain104" in="00:23:08.267" out="00:23:17.300"/>
    <entry producer="chain105" in="00:23:22.267" out="00:23:23.133"/>
    <entry producer="chain106" in="00:23:24.617" out="00:23:39.917"/>
    <entry producer="chain107" in="00:23:41.600" out="00:23:47.833"/>
    <entry producer="chain108" in="00:23:49.867" out="00:23:52.250"/>
    <entry producer="chain109" in="00:23:53.800" out="00:24:58.633"/>
    <entry producer="chain110" in="00:25:00.533" out="00:25:31.850"/>
    <entry producer="chain111" in="00:25:36.517" out="00:25:59.733"/>
    <entry producer="chain112" in="00:26:03.150" out="00:26:09.333"/>
    <entry producer="chain113" in="00:26:11.083" out="00:26:21.883"/>
    <entry producer="chain114" in="00:26:24.017" out="00:26:24.950"/>
    <entry producer="chain115" in="00:26:26.400" out="00:26:28.683"/>
    <entry producer="chain116" in="00:26:31.900" out="00:27:02.533"/>
    <entry producer="chain117" in="00:27:04.050" out="00:28:00.600"/>
    <entry producer="chain118" in="00:28:02.617" out="00:28:08.433"/>
    <entry producer="chain119" in="00:28:10.367" out="00:28:16.917"/>
    <entry producer="chain120" in="00:28:19.033" out="00:28:33.850"/>
    <entry producer="chain121" in="00:28:36.483" out="00:28:50.517"/>
    <entry producer="chain122" in="00:28:56.900" out="00:29:02.267"/>
    <entry producer="chain123" in="00:29:03.633" out="00:29:54.333"/>
    <entry producer="chain124" in="00:29:54.350" out="00:29:57.850"/>
    <entry producer="chain125" in="00:30:25.550" out="00:30:28.967"/>
    <entry producer="chain126" in="00:30:29.950" out="00:30:31.517"/>
    <entry producer="chain127" in="00:30:34.367" out="00:30:37.117"/>
    <entry producer="chain128" in="00:30:58.900" out="00:31:14.833"/>
    <entry producer="chain129" in="00:31:16.733" out="00:31:45.050"/>
    <entry producer="chain130" in="00:31:47.017" out="00:31:54.667"/>
    <entry producer="chain131" in="00:31:55.483" out="00:33:53.483"/>
    <entry producer="chain132" in="00:33:54.783" out="00:34:42.917"/>
    <entry producer="chain133" in="00:34:43.967" out="00:34:47.683"/>
    <entry producer="chain134" in="00:34:50.350" out="00:36:55.083"/>
    <entry producer="chain135" in="00:36:56.233" out="00:37:23.867"/>
    <entry producer="chain136" in="00:37:24.833" out="00:37:27.333"/>
    <entry producer="chain137" in="00:37:28.467" out="00:37:55.817"/>
    <entry producer="chain138" in="00:37:57.967" out="00:38:14.383"/>
    <entry producer="chain139" in="00:38:22.850" out="00:38:26.583"/>
    <entry producer="producer0" in="00:00:00.000" out="00:00:09.983"/>
  </playlist>
  <producer id="producer1" in="00:00:00.000" out="03:59:59.983">
    <property name="length">04:00:00.000</property>
    <property name="eof">pause</property>
    <property name="resource">/home/alt/Documentos/Main_Fold/MainFolder/Profissional/mobileDev/caju_code/class_codes/like.png</property>
    <property name="ttl">1</property>
    <property name="aspect_ratio">1</property>
    <property name="meta.media.progressive">1</property>
    <property name="seekable">1</property>
    <property name="format">2</property>
    <property name="meta.media.width">1920</property>
    <property name="meta.media.height">1080</property>
    <property name="mlt_service">qimage</property>
    <property name="creation_time">2023-05-18T13:19:36</property>
    <property name="shotcut:skipConvert">0</property>
    <property name="shotcut:caption">like.png</property>
    <property name="shotcut:hash">37b39e7107a424d2607a1ec4e2d749bf</property>
    <property name="ignore_points">0</property>
    <property name="xml">was here</property>
  </producer>
  <producer id="producer2" in="00:00:00.000" out="03:59:59.983">
    <property name="length">04:00:00.000</property>
    <property name="eof">pause</property>
    <property name="resource">/home/alt/Documentos/Main_Fold/MainFolder/Profissional/mobileDev/caju_code/class_codes/inscreva_se.png</property>
    <property name="ttl">1</property>
    <property name="aspect_ratio">1</property>
    <property name="meta.media.progressive">1</property>
    <property name="seekable">1</property>
    <property name="format">2</property>
    <property name="meta.media.width">1920</property>
    <property name="meta.media.height">1080</property>
    <property name="mlt_service">qimage</property>
    <property name="creation_time">2023-05-18T13:19:57</property>
    <property name="shotcut:skipConvert">0</property>
    <property name="shotcut:caption">inscreva_se.png</property>
    <property name="shotcut:hash">e5314e5bf4aea3b7bc7a131d75d9571c</property>
    <property name="ignore_points">0</property>
    <property name="xml">was here</property>
  </producer>
  <producer id="producer3" in="00:00:00.000" out="03:59:59.983">
    <property name="length">04:00:00.000</property>
    <property name="eof">pause</property>
    <property name="resource">/home/alt/Documentos/Main_Fold/MainFolder/Profissional/mobileDev/caju_code/class_codes/like.png</property>
    <property name="ttl">1</property>
    <property name="aspect_ratio">1</property>
    <property name="meta.media.progressive">1</property>
    <property name="seekable">1</property>
    <property name="format">2</property>
    <property name="meta.media.width">1920</property>
    <property name="meta.media.height">1080</property>
    <property name="mlt_service">qimage</property>
    <property name="creation_time">2023-05-18T13:19:36</property>
    <property name="shotcut:skipConvert">0</property>
    <property name="shotcut:caption">like.png</property>
    <property name="shotcut:hash">37b39e7107a424d2607a1ec4e2d749bf</property>
    <property name="ignore_points">0</property>
    <property name="xml">was here</property>
  </producer>
  <producer id="producer4" in="00:00:00.000" out="03:59:59.983">
    <property name="length">04:00:00.000</property>
    <property name="eof">pause</property>
    <property name="resource">/home/alt/Documentos/Main_Fold/MainFolder/Profissional/mobileDev/caju_code/class_codes/inscreva_se.png</property>
    <property name="ttl">1</property>
    <property name="aspect_ratio">1</property>
    <property name="meta.media.progressive">1</property>
    <property name="seekable">1</property>
    <property name="format">2</property>
    <property name="meta.media.width">1920</property>
    <property name="meta.media.height">1080</property>
    <property name="mlt_service">qimage</property>
    <property name="creation_time">2023-05-18T13:19:57</property>
    <property name="shotcut:skipConvert">0</property>
    <property name="shotcut:caption">inscreva_se.png</property>
    <property name="shotcut:hash">e5314e5bf4aea3b7bc7a131d75d9571c</property>
    <property name="ignore_points">0</property>
    <property name="xml">was here</property>
  </producer>
  <producer id="producer5" in="00:00:00.000" out="03:59:59.983">
    <property name="length">04:00:00.000</property>
    <property name="eof">pause</property>
    <property name="resource">/home/alt/Documentos/Main_Fold/MainFolder/Profissional/mobileDev/caju_code/class_codes/like.png</property>
    <property name="ttl">1</property>
    <property name="aspect_ratio">1</property>
    <property name="meta.media.progressive">1</property>
    <property name="seekable">1</property>
    <property name="format">2</property>
    <property name="meta.media.width">1920</property>
    <property name="meta.media.height">1080</property>
    <property name="mlt_service">qimage</property>
    <property name="creation_time">2023-05-18T13:19:36</property>
    <property name="shotcut:skipConvert">0</property>
    <property name="shotcut:caption">like.png</property>
    <property name="shotcut:hash">37b39e7107a424d2607a1ec4e2d749bf</property>
    <property name="ignore_points">0</property>
    <property name="xml">was here</property>
  </producer>
  <producer id="producer6" in="00:00:00.000" out="03:59:59.983">
    <property name="length">04:00:00.000</property>
    <property name="eof">pause</property>
    <property name="resource">/home/alt/Documentos/Main_Fold/MainFolder/Profissional/mobileDev/caju_code/class_codes/inscreva_se.png</property>
    <property name="ttl">1</property>
    <property name="aspect_ratio">1</property>
    <property name="meta.media.progressive">1</property>
    <property name="seekable">1</property>
    <property name="format">2</property>
    <property name="meta.media.width">1920</property>
    <property name="meta.media.height">1080</property>
    <property name="mlt_service">qimage</property>
    <property name="creation_time">2023-05-18T13:19:57</property>
    <property name="shotcut:skipConvert">0</property>
    <property name="shotcut:caption">inscreva_se.png</property>
    <property name="shotcut:hash">e5314e5bf4aea3b7bc7a131d75d9571c</property>
    <property name="ignore_points">0</property>
    <property name="xml">was here</property>
  </producer>
  <producer id="producer7" in="00:00:00.000" out="03:59:59.983">
    <property name="length">04:00:00.000</property>
    <property name="eof">pause</property>
    <property name="resource">/home/alt/Documentos/Main_Fold/MainFolder/Profissional/mobileDev/caju_code/class_codes/like.png</property>
    <property name="ttl">1</property>
    <property name="aspect_ratio">1</property>
    <property name="meta.media.progressive">1</property>
    <property name="seekable">1</property>
    <property name="format">2</property>
    <property name="meta.media.width">1920</property>
    <property name="meta.media.height">1080</property>
    <property name="mlt_service">qimage</property>
    <property name="creation_time">2023-05-18T13:19:36</property>
    <property name="shotcut:skipConvert">0</property>
    <property name="shotcut:caption">like.png</property>
    <property name="shotcut:hash">37b39e7107a424d2607a1ec4e2d749bf</property>
    <property name="ignore_points">0</property>
    <property name="xml">was here</property>
  </producer>
  <producer id="producer8" in="00:00:00.000" out="03:59:59.983">
    <property name="length">04:00:00.000</property>
    <property name="eof">pause</property>
    <property name="resource">/home/alt/Documentos/Main_Fold/MainFolder/Profissional/mobileDev/caju_code/class_codes/inscreva_se.png</property>
    <property name="ttl">1</property>
    <property name="aspect_ratio">1</property>
    <property name="meta.media.progressive">1</property>
    <property name="seekable">1</property>
    <property name="format">2</property>
    <property name="meta.media.width">1920</property>
    <property name="meta.media.height">1080</property>
    <property name="mlt_service">qimage</property>
    <property name="creation_time">2023-05-18T13:19:57</property>
    <property name="shotcut:skipConvert">0</property>
    <property name="shotcut:caption">inscreva_se.png</property>
    <property name="shotcut:hash">e5314e5bf4aea3b7bc7a131d75d9571c</property>
    <property name="ignore_points">0</property>
    <property name="xml">was here</property>
  </producer>
  <playlist id="playlist1">
    <property name="shotcut:video">1</property>
    <property name="shotcut:name">V2</property>
    <blank length="00:00:35.533"/>
    <entry producer="producer1" in="00:00:00.000" out="00:00:03.983"/>
    <entry producer="producer2" in="00:00:00.000" out="00:00:03.983"/>
    <blank length="00:11:19.000"/>
    <entry producer="producer3" in="00:00:00.000" out="00:00:03.983"/>
    <entry producer="producer4" in="00:00:00.000" out="00:00:03.983"/>
    <blank length="00:11:47.717"/>
    <entry producer="producer5" in="00:00:00.000" out="00:00:03.983"/>
    <entry producer="producer6" in="00:00:00.000" out="00:00:03.983"/>
    <blank length="00:15:37.400"/>
    <entry producer="producer7" in="00:00:00.000" out="00:00:03.983"/>
    <entry producer="producer8" in="00:00:00.000" out="00:00:03.983"/>
  </playlist>
  <tractor id="tractor0" title="Shotcut version 25.01.25" in="00:00:00.000" out="00:40:11.050">
    <property name="shotcut">1</property>
    <property name="shotcut:projectAudioChannels">2</property>
    <property name="shotcut:projectFolder">1</property>
    <track producer="background"/>
    <track producer="playlist0"/>
    <track producer="playlist1"/>
    <transition id="transition0">
      <property name="a_track">0</property>
      <property name="b_track">1</property>
      <property name="mlt_service">mix</property>
      <property name="always_active">1</property>
      <property name="sum">1</property>
    </transition>
    <transition id="transition1">
      <property name="a_track">0</property>
      <property name="b_track">1</property>
      <property name="version">0.1</property>
      <property name="mlt_service">frei0r.cairoblend</property>
      <property name="threads">0</property>
      <property name="disable">1</property>
    </transition>
    <transition id="transition2">
      <property name="a_track">0</property>
      <property name="b_track">2</property>
      <property name="mlt_service">mix</property>
      <property name="always_active">1</property>
      <property name="sum">1</property>
    </transition>
    <transition id="transition3">
      <property name="a_track">1</property>
      <property name="b_track">2</property>
      <property name="version">0.1</property>
      <property name="mlt_service">frei0r.cairoblend</property>
      <property name="threads">0</property>
      <property name="disable">0</property>
    </transition>
  </tractor>
</mlt>
